%TF.GenerationSoftware,KiCad,Pcbnew,5.1.10-88a1d61d58~88~ubuntu20.10.1*%
%TF.CreationDate,2021-06-30T17:02:04+02:00*%
%TF.ProjectId,multiplexer-8,6d756c74-6970-46c6-9578-65722d382e6b,v1.0.0*%
%TF.SameCoordinates,Original*%
%TF.FileFunction,Copper,L1,Top*%
%TF.FilePolarity,Positive*%
%FSLAX46Y46*%
G04 Gerber Fmt 4.6, Leading zero omitted, Abs format (unit mm)*
G04 Created by KiCad (PCBNEW 5.1.10-88a1d61d58~88~ubuntu20.10.1) date 2021-06-30 17:02:04*
%MOMM*%
%LPD*%
G01*
G04 APERTURE LIST*
%TA.AperFunction,ComponentPad*%
%ADD10R,1.500000X1.500000*%
%TD*%
%TA.AperFunction,ComponentPad*%
%ADD11C,1.500000*%
%TD*%
%TA.AperFunction,ComponentPad*%
%ADD12O,2.190000X1.740000*%
%TD*%
%TA.AperFunction,ComponentPad*%
%ADD13O,1.600000X1.600000*%
%TD*%
%TA.AperFunction,ComponentPad*%
%ADD14C,1.600000*%
%TD*%
%TA.AperFunction,ComponentPad*%
%ADD15C,1.700000*%
%TD*%
%TA.AperFunction,ComponentPad*%
%ADD16R,1.600000X1.600000*%
%TD*%
%TA.AperFunction,ComponentPad*%
%ADD17O,2.400000X1.600000*%
%TD*%
%TA.AperFunction,ComponentPad*%
%ADD18R,2.400000X1.600000*%
%TD*%
%TA.AperFunction,ViaPad*%
%ADD19C,3.300000*%
%TD*%
%TA.AperFunction,ViaPad*%
%ADD20C,0.800000*%
%TD*%
%TA.AperFunction,Conductor*%
%ADD21C,0.508000*%
%TD*%
%TA.AperFunction,Conductor*%
%ADD22C,0.635000*%
%TD*%
%TA.AperFunction,Conductor*%
%ADD23C,0.254000*%
%TD*%
%TA.AperFunction,Conductor*%
%ADD24C,0.100000*%
%TD*%
G04 APERTURE END LIST*
D10*
%TO.P,U3,1*%
%TO.N,GND*%
X65500000Y-51000000D03*
D11*
%TO.P,U3,3*%
%TO.N,-5V*%
X70580000Y-51000000D03*
%TO.P,U3,2*%
%TO.N,Net-(C3-Pad2)*%
X68040000Y-51000000D03*
%TD*%
D10*
%TO.P,U2,1*%
%TO.N,+5V*%
X70625048Y-56549880D03*
D11*
%TO.P,U2,3*%
%TO.N,Net-(C2-Pad1)*%
X65545048Y-56549880D03*
%TO.P,U2,2*%
%TO.N,GND*%
X68085048Y-56549880D03*
%TD*%
D12*
%TO.P,J3,4*%
%TO.N,+5V*%
X101000000Y-114380000D03*
%TO.P,J3,3*%
%TO.N,/MUX1/SELECT_B*%
X101000000Y-116920000D03*
%TO.P,J3,2*%
%TO.N,/MUX1/SELECT_A*%
X101000000Y-119460000D03*
%TO.P,J3,1*%
%TO.N,GND*%
%TA.AperFunction,ComponentPad*%
G36*
G01*
X101845001Y-122870000D02*
X100154999Y-122870000D01*
G75*
G02*
X99905000Y-122620001I0J249999D01*
G01*
X99905000Y-121379999D01*
G75*
G02*
X100154999Y-121130000I249999J0D01*
G01*
X101845001Y-121130000D01*
G75*
G02*
X102095000Y-121379999I0J-249999D01*
G01*
X102095000Y-122620001D01*
G75*
G02*
X101845001Y-122870000I-249999J0D01*
G01*
G37*
%TD.AperFunction*%
%TD*%
D13*
%TO.P,FB2,2*%
%TO.N,Net-(C3-Pad2)*%
X92000000Y-42840000D03*
D14*
%TO.P,FB2,1*%
%TO.N,Net-(FB2-Pad1)*%
X92000000Y-53000000D03*
%TD*%
D13*
%TO.P,FB1,2*%
%TO.N,Net-(C2-Pad1)*%
X92000000Y-56840000D03*
D14*
%TO.P,FB1,1*%
%TO.N,Net-(FB1-Pad1)*%
X92000000Y-67000000D03*
%TD*%
D15*
%TO.P,J5,10*%
%TO.N,Net-(FB1-Pad1)*%
X101540000Y-58160000D03*
%TO.P,J5,8*%
%TO.N,GND*%
X101540000Y-55620000D03*
%TO.P,J5,6*%
X101540000Y-53080000D03*
%TO.P,J5,4*%
X101540000Y-50540000D03*
%TO.P,J5,2*%
%TO.N,Net-(FB2-Pad1)*%
X101540000Y-48000000D03*
%TO.P,J5,9*%
%TO.N,Net-(FB1-Pad1)*%
X99000000Y-58160000D03*
%TO.P,J5,7*%
%TO.N,GND*%
X99000000Y-55620000D03*
%TO.P,J5,5*%
X99000000Y-53080000D03*
%TO.P,J5,3*%
X99000000Y-50540000D03*
%TO.P,J5,1*%
%TO.N,Net-(FB2-Pad1)*%
%TA.AperFunction,ComponentPad*%
G36*
G01*
X98150000Y-48600000D02*
X98150000Y-47400000D01*
G75*
G02*
X98400000Y-47150000I250000J0D01*
G01*
X99600000Y-47150000D01*
G75*
G02*
X99850000Y-47400000I0J-250000D01*
G01*
X99850000Y-48600000D01*
G75*
G02*
X99600000Y-48850000I-250000J0D01*
G01*
X98400000Y-48850000D01*
G75*
G02*
X98150000Y-48600000I0J250000D01*
G01*
G37*
%TD.AperFunction*%
%TD*%
D14*
%TO.P,C5,2*%
%TO.N,-5V*%
X74250000Y-43000000D03*
D16*
%TO.P,C5,1*%
%TO.N,GND*%
X71750000Y-43000000D03*
%TD*%
D14*
%TO.P,C4,2*%
%TO.N,GND*%
X70750000Y-64000000D03*
D16*
%TO.P,C4,1*%
%TO.N,+5V*%
X73250000Y-64000000D03*
%TD*%
D14*
%TO.P,C3,2*%
%TO.N,Net-(C3-Pad2)*%
X68500000Y-45000000D03*
D16*
%TO.P,C3,1*%
%TO.N,GND*%
X66000000Y-45000000D03*
%TD*%
D14*
%TO.P,C2,2*%
%TO.N,GND*%
X67250000Y-64000000D03*
D16*
%TO.P,C2,1*%
%TO.N,Net-(C2-Pad1)*%
X64750000Y-64000000D03*
%TD*%
D17*
%TO.P,U6,14*%
%TO.N,+5V*%
X86620000Y-120000000D03*
%TO.P,U6,7*%
%TO.N,-5V*%
X79000000Y-135240000D03*
%TO.P,U6,13*%
%TO.N,/MUX1/SELECT_A*%
X86620000Y-122540000D03*
%TO.P,U6,6*%
X79000000Y-132700000D03*
%TO.P,U6,12*%
%TO.N,/MUX1/SELECT_B*%
X86620000Y-125080000D03*
%TO.P,U6,5*%
X79000000Y-130160000D03*
%TO.P,U6,11*%
%TO.N,/MUX4/B2*%
X86620000Y-127620000D03*
%TO.P,U6,4*%
%TO.N,/MUX4/B1*%
X79000000Y-127620000D03*
%TO.P,U6,10*%
%TO.N,/MUX4/OUT_2*%
X86620000Y-130160000D03*
%TO.P,U6,3*%
%TO.N,/MUX4/OUT_1*%
X79000000Y-125080000D03*
%TO.P,U6,9*%
%TO.N,/MUX4/OUT_2*%
X86620000Y-132700000D03*
%TO.P,U6,2*%
%TO.N,/MUX4/OUT_1*%
X79000000Y-122540000D03*
%TO.P,U6,8*%
%TO.N,/MUX4/A2*%
X86620000Y-135240000D03*
D18*
%TO.P,U6,1*%
%TO.N,/MUX4/A1*%
X79000000Y-120000000D03*
%TD*%
D17*
%TO.P,U5,14*%
%TO.N,+5V*%
X86620000Y-95000000D03*
%TO.P,U5,7*%
%TO.N,-5V*%
X79000000Y-110240000D03*
%TO.P,U5,13*%
%TO.N,/MUX1/SELECT_A*%
X86620000Y-97540000D03*
%TO.P,U5,6*%
X79000000Y-107700000D03*
%TO.P,U5,12*%
%TO.N,/MUX1/SELECT_B*%
X86620000Y-100080000D03*
%TO.P,U5,5*%
X79000000Y-105160000D03*
%TO.P,U5,11*%
%TO.N,/MUX3/B2*%
X86620000Y-102620000D03*
%TO.P,U5,4*%
%TO.N,/MUX3/B1*%
X79000000Y-102620000D03*
%TO.P,U5,10*%
%TO.N,/MUX3/OUT_2*%
X86620000Y-105160000D03*
%TO.P,U5,3*%
%TO.N,/MUX3/OUT_1*%
X79000000Y-100080000D03*
%TO.P,U5,9*%
%TO.N,/MUX3/OUT_2*%
X86620000Y-107700000D03*
%TO.P,U5,2*%
%TO.N,/MUX3/OUT_1*%
X79000000Y-97540000D03*
%TO.P,U5,8*%
%TO.N,/MUX3/A2*%
X86620000Y-110240000D03*
D18*
%TO.P,U5,1*%
%TO.N,/MUX3/A1*%
X79000000Y-95000000D03*
%TD*%
D17*
%TO.P,U4,14*%
%TO.N,+5V*%
X86620000Y-70000000D03*
%TO.P,U4,7*%
%TO.N,-5V*%
X79000000Y-85240000D03*
%TO.P,U4,13*%
%TO.N,/MUX1/SELECT_A*%
X86620000Y-72540000D03*
%TO.P,U4,6*%
X79000000Y-82700000D03*
%TO.P,U4,12*%
%TO.N,/MUX1/SELECT_B*%
X86620000Y-75080000D03*
%TO.P,U4,5*%
X79000000Y-80160000D03*
%TO.P,U4,11*%
%TO.N,/MUX2/B2*%
X86620000Y-77620000D03*
%TO.P,U4,4*%
%TO.N,/MUX2/B1*%
X79000000Y-77620000D03*
%TO.P,U4,10*%
%TO.N,/MUX2/OUT_2*%
X86620000Y-80160000D03*
%TO.P,U4,3*%
%TO.N,/MUX2/OUT_1*%
X79000000Y-75080000D03*
%TO.P,U4,9*%
%TO.N,/MUX2/OUT_2*%
X86620000Y-82700000D03*
%TO.P,U4,2*%
%TO.N,/MUX2/OUT_1*%
X79000000Y-72540000D03*
%TO.P,U4,8*%
%TO.N,/MUX2/A2*%
X86620000Y-85240000D03*
D18*
%TO.P,U4,1*%
%TO.N,/MUX2/A1*%
X79000000Y-70000000D03*
%TD*%
D13*
%TO.P,R2,2*%
%TO.N,-5V*%
X91700000Y-132250000D03*
D14*
%TO.P,R2,1*%
%TO.N,/MUX1/SELECT_A*%
X101860000Y-132250000D03*
%TD*%
D13*
%TO.P,R1,2*%
%TO.N,-5V*%
X91700000Y-129000000D03*
D14*
%TO.P,R1,1*%
%TO.N,/MUX1/SELECT_B*%
X101860000Y-129000000D03*
%TD*%
D15*
%TO.P,J4,16*%
%TO.N,/MUX4/OUT_2*%
X101540000Y-98780000D03*
%TO.P,J4,14*%
%TO.N,/MUX4/OUT_1*%
X101540000Y-96240000D03*
%TO.P,J4,12*%
%TO.N,/MUX3/OUT_2*%
X101540000Y-93700000D03*
%TO.P,J4,10*%
%TO.N,/MUX3/OUT_1*%
X101540000Y-91160000D03*
%TO.P,J4,8*%
%TO.N,/MUX2/OUT_2*%
X101540000Y-88620000D03*
%TO.P,J4,6*%
%TO.N,/MUX2/OUT_1*%
X101540000Y-86080000D03*
%TO.P,J4,4*%
%TO.N,/MUX1/OUT_2*%
X101540000Y-83540000D03*
%TO.P,J4,2*%
%TO.N,/MUX1/OUT_1*%
X101540000Y-81000000D03*
%TO.P,J4,15*%
%TO.N,/MUX4/OUT_2*%
X99000000Y-98780000D03*
%TO.P,J4,13*%
%TO.N,/MUX4/OUT_1*%
X99000000Y-96240000D03*
%TO.P,J4,11*%
%TO.N,/MUX3/OUT_2*%
X99000000Y-93700000D03*
%TO.P,J4,9*%
%TO.N,/MUX3/OUT_1*%
X99000000Y-91160000D03*
%TO.P,J4,7*%
%TO.N,/MUX2/OUT_2*%
X99000000Y-88620000D03*
%TO.P,J4,5*%
%TO.N,/MUX2/OUT_1*%
X99000000Y-86080000D03*
%TO.P,J4,3*%
%TO.N,/MUX1/OUT_2*%
X99000000Y-83540000D03*
%TO.P,J4,1*%
%TO.N,/MUX1/OUT_1*%
%TA.AperFunction,ComponentPad*%
G36*
G01*
X98150000Y-81600000D02*
X98150000Y-80400000D01*
G75*
G02*
X98400000Y-80150000I250000J0D01*
G01*
X99600000Y-80150000D01*
G75*
G02*
X99850000Y-80400000I0J-250000D01*
G01*
X99850000Y-81600000D01*
G75*
G02*
X99600000Y-81850000I-250000J0D01*
G01*
X98400000Y-81850000D01*
G75*
G02*
X98150000Y-81600000I0J250000D01*
G01*
G37*
%TD.AperFunction*%
%TD*%
%TO.P,J2,16*%
%TO.N,/MUX4/B2*%
X69540000Y-125780000D03*
%TO.P,J2,14*%
%TO.N,/MUX4/B1*%
X69540000Y-123240000D03*
%TO.P,J2,12*%
%TO.N,/MUX3/B2*%
X69540000Y-120700000D03*
%TO.P,J2,10*%
%TO.N,/MUX3/B1*%
X69540000Y-118160000D03*
%TO.P,J2,8*%
%TO.N,/MUX2/B2*%
X69540000Y-115620000D03*
%TO.P,J2,6*%
%TO.N,/MUX2/B1*%
X69540000Y-113080000D03*
%TO.P,J2,4*%
%TO.N,/MUX1/B2*%
X69540000Y-110540000D03*
%TO.P,J2,2*%
%TO.N,/MUX1/B1*%
X69540000Y-108000000D03*
%TO.P,J2,15*%
%TO.N,/MUX4/B2*%
X67000000Y-125780000D03*
%TO.P,J2,13*%
%TO.N,/MUX4/B1*%
X67000000Y-123240000D03*
%TO.P,J2,11*%
%TO.N,/MUX3/B2*%
X67000000Y-120700000D03*
%TO.P,J2,9*%
%TO.N,/MUX3/B1*%
X67000000Y-118160000D03*
%TO.P,J2,7*%
%TO.N,/MUX2/B2*%
X67000000Y-115620000D03*
%TO.P,J2,5*%
%TO.N,/MUX2/B1*%
X67000000Y-113080000D03*
%TO.P,J2,3*%
%TO.N,/MUX1/B2*%
X67000000Y-110540000D03*
%TO.P,J2,1*%
%TO.N,/MUX1/B1*%
%TA.AperFunction,ComponentPad*%
G36*
G01*
X66150000Y-108600000D02*
X66150000Y-107400000D01*
G75*
G02*
X66400000Y-107150000I250000J0D01*
G01*
X67600000Y-107150000D01*
G75*
G02*
X67850000Y-107400000I0J-250000D01*
G01*
X67850000Y-108600000D01*
G75*
G02*
X67600000Y-108850000I-250000J0D01*
G01*
X66400000Y-108850000D01*
G75*
G02*
X66150000Y-108600000I0J250000D01*
G01*
G37*
%TD.AperFunction*%
%TD*%
%TO.P,J1,16*%
%TO.N,/MUX4/A2*%
X69540000Y-92780000D03*
%TO.P,J1,14*%
%TO.N,/MUX4/A1*%
X69540000Y-90240000D03*
%TO.P,J1,12*%
%TO.N,/MUX3/A2*%
X69540000Y-87700000D03*
%TO.P,J1,10*%
%TO.N,/MUX3/A1*%
X69540000Y-85160000D03*
%TO.P,J1,8*%
%TO.N,/MUX2/A2*%
X69540000Y-82620000D03*
%TO.P,J1,6*%
%TO.N,/MUX2/A1*%
X69540000Y-80080000D03*
%TO.P,J1,4*%
%TO.N,/MUX1/A2*%
X69540000Y-77540000D03*
%TO.P,J1,2*%
%TO.N,/MUX1/A1*%
X69540000Y-75000000D03*
%TO.P,J1,15*%
%TO.N,/MUX4/A2*%
X67000000Y-92780000D03*
%TO.P,J1,13*%
%TO.N,/MUX4/A1*%
X67000000Y-90240000D03*
%TO.P,J1,11*%
%TO.N,/MUX3/A2*%
X67000000Y-87700000D03*
%TO.P,J1,9*%
%TO.N,/MUX3/A1*%
X67000000Y-85160000D03*
%TO.P,J1,7*%
%TO.N,/MUX2/A2*%
X67000000Y-82620000D03*
%TO.P,J1,5*%
%TO.N,/MUX2/A1*%
X67000000Y-80080000D03*
%TO.P,J1,3*%
%TO.N,/MUX1/A2*%
X67000000Y-77540000D03*
%TO.P,J1,1*%
%TO.N,/MUX1/A1*%
%TA.AperFunction,ComponentPad*%
G36*
G01*
X66150000Y-75600000D02*
X66150000Y-74400000D01*
G75*
G02*
X66400000Y-74150000I250000J0D01*
G01*
X67600000Y-74150000D01*
G75*
G02*
X67850000Y-74400000I0J-250000D01*
G01*
X67850000Y-75600000D01*
G75*
G02*
X67600000Y-75850000I-250000J0D01*
G01*
X66400000Y-75850000D01*
G75*
G02*
X66150000Y-75600000I0J250000D01*
G01*
G37*
%TD.AperFunction*%
%TD*%
D14*
%TO.P,C8,2*%
%TO.N,-5V*%
X80250000Y-90250000D03*
%TO.P,C8,1*%
%TO.N,+5V*%
X85250000Y-90250000D03*
%TD*%
%TO.P,C7,2*%
%TO.N,-5V*%
X80250000Y-115250000D03*
%TO.P,C7,1*%
%TO.N,+5V*%
X85250000Y-115250000D03*
%TD*%
%TO.P,C6,2*%
%TO.N,-5V*%
X80250000Y-65250000D03*
%TO.P,C6,1*%
%TO.N,+5V*%
X85250000Y-65250000D03*
%TD*%
D17*
%TO.P,U1,14*%
%TO.N,+5V*%
X86620000Y-45000000D03*
%TO.P,U1,7*%
%TO.N,-5V*%
X79000000Y-60240000D03*
%TO.P,U1,13*%
%TO.N,/MUX1/SELECT_A*%
X86620000Y-47540000D03*
%TO.P,U1,6*%
X79000000Y-57700000D03*
%TO.P,U1,12*%
%TO.N,/MUX1/SELECT_B*%
X86620000Y-50080000D03*
%TO.P,U1,5*%
X79000000Y-55160000D03*
%TO.P,U1,11*%
%TO.N,/MUX1/B2*%
X86620000Y-52620000D03*
%TO.P,U1,4*%
%TO.N,/MUX1/B1*%
X79000000Y-52620000D03*
%TO.P,U1,10*%
%TO.N,/MUX1/OUT_2*%
X86620000Y-55160000D03*
%TO.P,U1,3*%
%TO.N,/MUX1/OUT_1*%
X79000000Y-50080000D03*
%TO.P,U1,9*%
%TO.N,/MUX1/OUT_2*%
X86620000Y-57700000D03*
%TO.P,U1,2*%
%TO.N,/MUX1/OUT_1*%
X79000000Y-47540000D03*
%TO.P,U1,8*%
%TO.N,/MUX1/A2*%
X86620000Y-60240000D03*
D18*
%TO.P,U1,1*%
%TO.N,/MUX1/A1*%
X79000000Y-45000000D03*
%TD*%
D14*
%TO.P,C1,2*%
%TO.N,-5V*%
X80250000Y-40250000D03*
%TO.P,C1,1*%
%TO.N,+5V*%
X85250000Y-40250000D03*
%TD*%
D19*
%TO.N,GND*%
X103500000Y-136500000D03*
X64500000Y-136500000D03*
X103500000Y-39500000D03*
X64500000Y-39500000D03*
D20*
%TO.N,+5V*%
X103552011Y-69947989D03*
%TO.N,/MUX1/SELECT_A*%
X82750000Y-113250000D03*
X81800000Y-107950000D03*
X82450000Y-82700000D03*
X82200000Y-57700000D03*
%TO.N,/MUX1/SELECT_B*%
X91540000Y-107460000D03*
X84000000Y-80250000D03*
%TO.N,/MUX1/A2*%
X75708010Y-71291990D03*
%TO.N,/MUX2/A2*%
X76787989Y-88287989D03*
%TD*%
D21*
%TO.N,-5V*%
X80654010Y-108585990D02*
X79000000Y-110240000D01*
X80654010Y-90654010D02*
X80654010Y-108585990D01*
X80250000Y-90250000D02*
X80654010Y-90654010D01*
X81049999Y-133190001D02*
X79000000Y-135240000D01*
X80250000Y-115250000D02*
X81049999Y-116049999D01*
X81049999Y-66049999D02*
X80250000Y-65250000D01*
X81049999Y-83190001D02*
X81049999Y-66049999D01*
X79000000Y-85240000D02*
X81049999Y-83190001D01*
X81049999Y-58190001D02*
X79000000Y-60240000D01*
X81049999Y-41049999D02*
X81049999Y-58190001D01*
X80250000Y-40250000D02*
X81049999Y-41049999D01*
X91700000Y-132250000D02*
X91700000Y-129000000D01*
X81065990Y-126365990D02*
X81049999Y-126349999D01*
X89065990Y-126365990D02*
X81065990Y-126365990D01*
X91700000Y-129000000D02*
X89065990Y-126365990D01*
X81049999Y-126349999D02*
X81049999Y-133190001D01*
X81049999Y-116049999D02*
X81049999Y-126349999D01*
%TO.N,+5V*%
X84965990Y-64965990D02*
X85250000Y-65250000D01*
X85250000Y-93630000D02*
X86620000Y-95000000D01*
X85250000Y-90250000D02*
X85250000Y-93630000D01*
X85250000Y-118630000D02*
X86620000Y-120000000D01*
X85250000Y-115250000D02*
X85250000Y-118630000D01*
X85250000Y-68630000D02*
X86620000Y-70000000D01*
X85250000Y-65250000D02*
X85250000Y-68630000D01*
X85250000Y-43630000D02*
X86620000Y-45000000D01*
X85250000Y-40250000D02*
X85250000Y-43630000D01*
X88982020Y-86517980D02*
X85250000Y-90250000D01*
X88982020Y-72362020D02*
X88982020Y-86517980D01*
X86620000Y-70000000D02*
X88982020Y-72362020D01*
X92240000Y-114380000D02*
X86620000Y-120000000D01*
X101000000Y-114380000D02*
X92240000Y-114380000D01*
X103500000Y-70000000D02*
X103552011Y-69947989D01*
X86620000Y-70000000D02*
X103500000Y-70000000D01*
%TO.N,/MUX1/SELECT_A*%
X97920000Y-122540000D02*
X101000000Y-119460000D01*
X86620000Y-122540000D02*
X97920000Y-122540000D01*
X84912000Y-122540000D02*
X82750000Y-120378000D01*
X86620000Y-122540000D02*
X84912000Y-122540000D01*
X82750000Y-120378000D02*
X82750000Y-113250000D01*
X82750000Y-113250000D02*
X82750000Y-113250000D01*
X81800000Y-102360000D02*
X81800000Y-107950000D01*
X86620000Y-97540000D02*
X81800000Y-102360000D01*
X82450000Y-76710000D02*
X86620000Y-72540000D01*
X82450000Y-82700000D02*
X82450000Y-76710000D01*
X82200000Y-50252000D02*
X82200000Y-57700000D01*
X84912000Y-47540000D02*
X82200000Y-50252000D01*
X86620000Y-47540000D02*
X84912000Y-47540000D01*
X103114001Y-130995999D02*
X101860000Y-132250000D01*
X103114001Y-127734001D02*
X103114001Y-130995999D01*
X97920000Y-122540000D02*
X103114001Y-127734001D01*
%TO.N,/MUX1/SELECT_B*%
X97940000Y-125080000D02*
X101860000Y-129000000D01*
X86620000Y-125080000D02*
X97940000Y-125080000D01*
X88274010Y-104194010D02*
X91540000Y-107460000D01*
X88274010Y-101734010D02*
X88274010Y-104194010D01*
X86620000Y-100080000D02*
X88274010Y-101734010D01*
X96177432Y-107460000D02*
X91540000Y-107460000D01*
X102549010Y-113831578D02*
X96177432Y-107460000D01*
X102549010Y-115370990D02*
X102549010Y-113831578D01*
X101000000Y-116920000D02*
X102549010Y-115370990D01*
X86620000Y-75080000D02*
X84000000Y-77700000D01*
X84000000Y-77700000D02*
X84000000Y-80250000D01*
X84000000Y-80250000D02*
X84000000Y-80250000D01*
%TO.N,/MUX1/B2*%
X69540000Y-110540000D02*
X74583980Y-105496020D01*
X84965990Y-54274010D02*
X84965990Y-57451970D01*
X86620000Y-52620000D02*
X84965990Y-54274010D01*
X84965990Y-57451970D02*
X74583980Y-67833980D01*
X74583980Y-105496020D02*
X74583980Y-67833980D01*
%TO.N,/MUX1/B1*%
X73875970Y-103664030D02*
X69540000Y-108000000D01*
X77345990Y-64070693D02*
X73875970Y-67540713D01*
X77345990Y-54274010D02*
X77345990Y-64070693D01*
X73875970Y-67540713D02*
X73875970Y-103664030D01*
X79000000Y-52620000D02*
X77345990Y-54274010D01*
%TO.N,/MUX1/A2*%
X83404078Y-60240000D02*
X86620000Y-60240000D01*
X75708010Y-67936068D02*
X83404078Y-60240000D01*
X75708010Y-71291990D02*
X75708010Y-67936068D01*
X69540000Y-77540000D02*
X67000000Y-77540000D01*
%TO.N,/MUX1/A1*%
X69540000Y-75000000D02*
X67000000Y-75000000D01*
%TO.N,/MUX4/A2*%
X69540000Y-92780000D02*
X67000000Y-92780000D01*
%TO.N,/MUX4/A1*%
X69540000Y-90240000D02*
X67000000Y-90240000D01*
%TO.N,/MUX3/A2*%
X69540000Y-87700000D02*
X67000000Y-87700000D01*
%TO.N,/MUX3/A1*%
X69540000Y-85160000D02*
X67000000Y-85160000D01*
%TO.N,/MUX2/A2*%
X86620000Y-85240000D02*
X86620000Y-86412161D01*
X84744172Y-88287989D02*
X76787989Y-88287989D01*
X86620000Y-86412161D02*
X84744172Y-88287989D01*
X76787989Y-88287989D02*
X76787989Y-88287989D01*
X69540000Y-82620000D02*
X67000000Y-82620000D01*
%TO.N,/MUX2/A1*%
X69540000Y-80080000D02*
X67000000Y-80080000D01*
%TO.N,/MUX4/B2*%
X69540000Y-127953437D02*
X69540000Y-125780000D01*
X79919427Y-136494010D02*
X78080573Y-136494010D01*
X84965990Y-131447447D02*
X79919427Y-136494010D01*
X78080573Y-136494010D02*
X69540000Y-127953437D01*
X84965990Y-129274010D02*
X84965990Y-131447447D01*
X86620000Y-127620000D02*
X84965990Y-129274010D01*
%TO.N,/MUX3/B2*%
X84965990Y-104274010D02*
X86620000Y-102620000D01*
X84965990Y-106476091D02*
X84965990Y-104274010D01*
X70742081Y-120700000D02*
X84965990Y-106476091D01*
X69540000Y-120700000D02*
X70742081Y-120700000D01*
%TO.N,/MUX3/B1*%
X77345990Y-104274010D02*
X79000000Y-102620000D01*
X77345990Y-110354010D02*
X77345990Y-104274010D01*
X69540000Y-118160000D02*
X77345990Y-110354010D01*
%TO.N,/MUX2/B2*%
X70844001Y-114315999D02*
X70934001Y-114315999D01*
X69540000Y-115620000D02*
X70844001Y-114315999D01*
X70934001Y-114315999D02*
X76000000Y-109250000D01*
X76000000Y-109250000D02*
X76000000Y-92644078D01*
X88274010Y-79274010D02*
X86620000Y-77620000D01*
X88274010Y-85759427D02*
X88274010Y-79274010D01*
X85037438Y-88995999D02*
X88274010Y-85759427D01*
X79648079Y-88995999D02*
X85037438Y-88995999D01*
X76000000Y-92644078D02*
X79648079Y-88995999D01*
%TO.N,/MUX2/B1*%
X75291990Y-81328010D02*
X79000000Y-77620000D01*
X75291990Y-106717932D02*
X75291990Y-81328010D01*
X69540000Y-112469922D02*
X75291990Y-106717932D01*
X69540000Y-113080000D02*
X69540000Y-112469922D01*
%TO.N,/MUX4/OUT_2*%
X99000000Y-98780000D02*
X101540000Y-98780000D01*
%TO.N,/MUX4/OUT_1*%
X99000000Y-96240000D02*
X101540000Y-96240000D01*
%TO.N,/MUX3/OUT_2*%
X99000000Y-93700000D02*
X101540000Y-93700000D01*
%TO.N,/MUX3/OUT_1*%
X99000000Y-91160000D02*
X101540000Y-91160000D01*
%TO.N,/MUX2/OUT_2*%
X99000000Y-88620000D02*
X101540000Y-88620000D01*
%TO.N,/MUX2/OUT_1*%
X99000000Y-86080000D02*
X101540000Y-86080000D01*
%TO.N,/MUX1/OUT_2*%
X99000000Y-83540000D02*
X101540000Y-83540000D01*
%TO.N,/MUX1/OUT_1*%
X99000000Y-81000000D02*
X101540000Y-81000000D01*
D22*
%TO.N,Net-(C2-Pad1)*%
X75567501Y-42982597D02*
X75567501Y-46527427D01*
X79617599Y-38932499D02*
X75567501Y-42982597D01*
X85882401Y-38932499D02*
X79617599Y-38932499D01*
X93317501Y-46367599D02*
X85882401Y-38932499D01*
X93317501Y-55522499D02*
X93317501Y-46367599D01*
X92000000Y-56840000D02*
X93317501Y-55522499D01*
D21*
X66749049Y-55345879D02*
X65545048Y-56549880D01*
X75567501Y-47794421D02*
X68016043Y-55345879D01*
X68016043Y-55345879D02*
X66749049Y-55345879D01*
X75567501Y-46527427D02*
X75567501Y-47794421D01*
%TO.N,/MUX4/B1*%
X74620000Y-123240000D02*
X79000000Y-127620000D01*
X69540000Y-123240000D02*
X74620000Y-123240000D01*
D22*
%TO.N,Net-(FB1-Pad1)*%
X99000000Y-60000000D02*
X92000000Y-67000000D01*
X99000000Y-58160000D02*
X99000000Y-60000000D01*
X99000000Y-58160000D02*
X101540000Y-58160000D01*
%TO.N,Net-(FB2-Pad1)*%
X99000000Y-48000000D02*
X101540000Y-48000000D01*
%TD*%
D23*
%TO.N,GND*%
X105340001Y-138340000D02*
X62660000Y-138340000D01*
X62660000Y-74400000D01*
X65511928Y-74400000D01*
X65511928Y-75600000D01*
X65528992Y-75773254D01*
X65579528Y-75939850D01*
X65661595Y-76093386D01*
X65772038Y-76227962D01*
X65906614Y-76338405D01*
X66033608Y-76406285D01*
X65846525Y-76593368D01*
X65684010Y-76836589D01*
X65572068Y-77106842D01*
X65515000Y-77393740D01*
X65515000Y-77686260D01*
X65572068Y-77973158D01*
X65684010Y-78243411D01*
X65846525Y-78486632D01*
X66053368Y-78693475D01*
X66227760Y-78810000D01*
X66053368Y-78926525D01*
X65846525Y-79133368D01*
X65684010Y-79376589D01*
X65572068Y-79646842D01*
X65515000Y-79933740D01*
X65515000Y-80226260D01*
X65572068Y-80513158D01*
X65684010Y-80783411D01*
X65846525Y-81026632D01*
X66053368Y-81233475D01*
X66227760Y-81350000D01*
X66053368Y-81466525D01*
X65846525Y-81673368D01*
X65684010Y-81916589D01*
X65572068Y-82186842D01*
X65515000Y-82473740D01*
X65515000Y-82766260D01*
X65572068Y-83053158D01*
X65684010Y-83323411D01*
X65846525Y-83566632D01*
X66053368Y-83773475D01*
X66227760Y-83890000D01*
X66053368Y-84006525D01*
X65846525Y-84213368D01*
X65684010Y-84456589D01*
X65572068Y-84726842D01*
X65515000Y-85013740D01*
X65515000Y-85306260D01*
X65572068Y-85593158D01*
X65684010Y-85863411D01*
X65846525Y-86106632D01*
X66053368Y-86313475D01*
X66227760Y-86430000D01*
X66053368Y-86546525D01*
X65846525Y-86753368D01*
X65684010Y-86996589D01*
X65572068Y-87266842D01*
X65515000Y-87553740D01*
X65515000Y-87846260D01*
X65572068Y-88133158D01*
X65684010Y-88403411D01*
X65846525Y-88646632D01*
X66053368Y-88853475D01*
X66227760Y-88970000D01*
X66053368Y-89086525D01*
X65846525Y-89293368D01*
X65684010Y-89536589D01*
X65572068Y-89806842D01*
X65515000Y-90093740D01*
X65515000Y-90386260D01*
X65572068Y-90673158D01*
X65684010Y-90943411D01*
X65846525Y-91186632D01*
X66053368Y-91393475D01*
X66227760Y-91510000D01*
X66053368Y-91626525D01*
X65846525Y-91833368D01*
X65684010Y-92076589D01*
X65572068Y-92346842D01*
X65515000Y-92633740D01*
X65515000Y-92926260D01*
X65572068Y-93213158D01*
X65684010Y-93483411D01*
X65846525Y-93726632D01*
X66053368Y-93933475D01*
X66296589Y-94095990D01*
X66566842Y-94207932D01*
X66853740Y-94265000D01*
X67146260Y-94265000D01*
X67433158Y-94207932D01*
X67703411Y-94095990D01*
X67946632Y-93933475D01*
X68153475Y-93726632D01*
X68191983Y-93669000D01*
X68348017Y-93669000D01*
X68386525Y-93726632D01*
X68593368Y-93933475D01*
X68836589Y-94095990D01*
X69106842Y-94207932D01*
X69393740Y-94265000D01*
X69686260Y-94265000D01*
X69973158Y-94207932D01*
X70243411Y-94095990D01*
X70486632Y-93933475D01*
X70693475Y-93726632D01*
X70855990Y-93483411D01*
X70967932Y-93213158D01*
X71025000Y-92926260D01*
X71025000Y-92633740D01*
X70967932Y-92346842D01*
X70855990Y-92076589D01*
X70693475Y-91833368D01*
X70486632Y-91626525D01*
X70312240Y-91510000D01*
X70486632Y-91393475D01*
X70693475Y-91186632D01*
X70855990Y-90943411D01*
X70967932Y-90673158D01*
X71025000Y-90386260D01*
X71025000Y-90093740D01*
X70967932Y-89806842D01*
X70855990Y-89536589D01*
X70693475Y-89293368D01*
X70486632Y-89086525D01*
X70312240Y-88970000D01*
X70486632Y-88853475D01*
X70693475Y-88646632D01*
X70855990Y-88403411D01*
X70967932Y-88133158D01*
X71025000Y-87846260D01*
X71025000Y-87553740D01*
X70967932Y-87266842D01*
X70855990Y-86996589D01*
X70693475Y-86753368D01*
X70486632Y-86546525D01*
X70312240Y-86430000D01*
X70486632Y-86313475D01*
X70693475Y-86106632D01*
X70855990Y-85863411D01*
X70967932Y-85593158D01*
X71025000Y-85306260D01*
X71025000Y-85013740D01*
X70967932Y-84726842D01*
X70855990Y-84456589D01*
X70693475Y-84213368D01*
X70486632Y-84006525D01*
X70312240Y-83890000D01*
X70486632Y-83773475D01*
X70693475Y-83566632D01*
X70855990Y-83323411D01*
X70967932Y-83053158D01*
X71025000Y-82766260D01*
X71025000Y-82473740D01*
X70967932Y-82186842D01*
X70855990Y-81916589D01*
X70693475Y-81673368D01*
X70486632Y-81466525D01*
X70312240Y-81350000D01*
X70486632Y-81233475D01*
X70693475Y-81026632D01*
X70855990Y-80783411D01*
X70967932Y-80513158D01*
X71025000Y-80226260D01*
X71025000Y-79933740D01*
X70967932Y-79646842D01*
X70855990Y-79376589D01*
X70693475Y-79133368D01*
X70486632Y-78926525D01*
X70312240Y-78810000D01*
X70486632Y-78693475D01*
X70693475Y-78486632D01*
X70855990Y-78243411D01*
X70967932Y-77973158D01*
X71025000Y-77686260D01*
X71025000Y-77393740D01*
X70967932Y-77106842D01*
X70855990Y-76836589D01*
X70693475Y-76593368D01*
X70486632Y-76386525D01*
X70312240Y-76270000D01*
X70486632Y-76153475D01*
X70693475Y-75946632D01*
X70855990Y-75703411D01*
X70967932Y-75433158D01*
X71025000Y-75146260D01*
X71025000Y-74853740D01*
X70967932Y-74566842D01*
X70855990Y-74296589D01*
X70693475Y-74053368D01*
X70486632Y-73846525D01*
X70243411Y-73684010D01*
X69973158Y-73572068D01*
X69686260Y-73515000D01*
X69393740Y-73515000D01*
X69106842Y-73572068D01*
X68836589Y-73684010D01*
X68593368Y-73846525D01*
X68406285Y-74033608D01*
X68338405Y-73906614D01*
X68227962Y-73772038D01*
X68093386Y-73661595D01*
X67939850Y-73579528D01*
X67773254Y-73528992D01*
X67600000Y-73511928D01*
X66400000Y-73511928D01*
X66226746Y-73528992D01*
X66060150Y-73579528D01*
X65906614Y-73661595D01*
X65772038Y-73772038D01*
X65661595Y-73906614D01*
X65579528Y-74060150D01*
X65528992Y-74226746D01*
X65511928Y-74400000D01*
X62660000Y-74400000D01*
X62660000Y-63200000D01*
X63311928Y-63200000D01*
X63311928Y-64800000D01*
X63324188Y-64924482D01*
X63360498Y-65044180D01*
X63419463Y-65154494D01*
X63498815Y-65251185D01*
X63595506Y-65330537D01*
X63705820Y-65389502D01*
X63825518Y-65425812D01*
X63950000Y-65438072D01*
X65550000Y-65438072D01*
X65674482Y-65425812D01*
X65794180Y-65389502D01*
X65904494Y-65330537D01*
X66001185Y-65251185D01*
X66080537Y-65154494D01*
X66139502Y-65044180D01*
X66155117Y-64992702D01*
X66436903Y-64992702D01*
X66508486Y-65236671D01*
X66763996Y-65357571D01*
X67038184Y-65426300D01*
X67320512Y-65440217D01*
X67600130Y-65398787D01*
X67866292Y-65303603D01*
X67991514Y-65236671D01*
X68063097Y-64992702D01*
X69936903Y-64992702D01*
X70008486Y-65236671D01*
X70263996Y-65357571D01*
X70538184Y-65426300D01*
X70820512Y-65440217D01*
X71100130Y-65398787D01*
X71366292Y-65303603D01*
X71491514Y-65236671D01*
X71563097Y-64992702D01*
X70750000Y-64179605D01*
X69936903Y-64992702D01*
X68063097Y-64992702D01*
X67250000Y-64179605D01*
X66436903Y-64992702D01*
X66155117Y-64992702D01*
X66175812Y-64924482D01*
X66188072Y-64800000D01*
X66188072Y-64792785D01*
X66257298Y-64813097D01*
X67070395Y-64000000D01*
X67429605Y-64000000D01*
X68242702Y-64813097D01*
X68486671Y-64741514D01*
X68607571Y-64486004D01*
X68676300Y-64211816D01*
X68683265Y-64070512D01*
X69309783Y-64070512D01*
X69351213Y-64350130D01*
X69446397Y-64616292D01*
X69513329Y-64741514D01*
X69757298Y-64813097D01*
X70570395Y-64000000D01*
X70929605Y-64000000D01*
X71742702Y-64813097D01*
X71811928Y-64792785D01*
X71811928Y-64800000D01*
X71824188Y-64924482D01*
X71860498Y-65044180D01*
X71919463Y-65154494D01*
X71998815Y-65251185D01*
X72095506Y-65330537D01*
X72205820Y-65389502D01*
X72325518Y-65425812D01*
X72450000Y-65438072D01*
X74050000Y-65438072D01*
X74174482Y-65425812D01*
X74294180Y-65389502D01*
X74404494Y-65330537D01*
X74501185Y-65251185D01*
X74580537Y-65154494D01*
X74639502Y-65044180D01*
X74675812Y-64924482D01*
X74688072Y-64800000D01*
X74688072Y-63200000D01*
X74675812Y-63075518D01*
X74639502Y-62955820D01*
X74580537Y-62845506D01*
X74501185Y-62748815D01*
X74404494Y-62669463D01*
X74294180Y-62610498D01*
X74174482Y-62574188D01*
X74050000Y-62561928D01*
X72450000Y-62561928D01*
X72325518Y-62574188D01*
X72205820Y-62610498D01*
X72095506Y-62669463D01*
X71998815Y-62748815D01*
X71919463Y-62845506D01*
X71860498Y-62955820D01*
X71824188Y-63075518D01*
X71811928Y-63200000D01*
X71811928Y-63207215D01*
X71742702Y-63186903D01*
X70929605Y-64000000D01*
X70570395Y-64000000D01*
X69757298Y-63186903D01*
X69513329Y-63258486D01*
X69392429Y-63513996D01*
X69323700Y-63788184D01*
X69309783Y-64070512D01*
X68683265Y-64070512D01*
X68690217Y-63929488D01*
X68648787Y-63649870D01*
X68553603Y-63383708D01*
X68486671Y-63258486D01*
X68242702Y-63186903D01*
X67429605Y-64000000D01*
X67070395Y-64000000D01*
X66257298Y-63186903D01*
X66188072Y-63207215D01*
X66188072Y-63200000D01*
X66175812Y-63075518D01*
X66155118Y-63007298D01*
X66436903Y-63007298D01*
X67250000Y-63820395D01*
X68063097Y-63007298D01*
X69936903Y-63007298D01*
X70750000Y-63820395D01*
X71563097Y-63007298D01*
X71491514Y-62763329D01*
X71236004Y-62642429D01*
X70961816Y-62573700D01*
X70679488Y-62559783D01*
X70399870Y-62601213D01*
X70133708Y-62696397D01*
X70008486Y-62763329D01*
X69936903Y-63007298D01*
X68063097Y-63007298D01*
X67991514Y-62763329D01*
X67736004Y-62642429D01*
X67461816Y-62573700D01*
X67179488Y-62559783D01*
X66899870Y-62601213D01*
X66633708Y-62696397D01*
X66508486Y-62763329D01*
X66436903Y-63007298D01*
X66155118Y-63007298D01*
X66139502Y-62955820D01*
X66080537Y-62845506D01*
X66001185Y-62748815D01*
X65904494Y-62669463D01*
X65794180Y-62610498D01*
X65674482Y-62574188D01*
X65550000Y-62561928D01*
X63950000Y-62561928D01*
X63825518Y-62574188D01*
X63705820Y-62610498D01*
X63595506Y-62669463D01*
X63498815Y-62748815D01*
X63419463Y-62845506D01*
X63360498Y-62955820D01*
X63324188Y-63075518D01*
X63311928Y-63200000D01*
X62660000Y-63200000D01*
X62660000Y-56413469D01*
X64160048Y-56413469D01*
X64160048Y-56686291D01*
X64213273Y-56953869D01*
X64317677Y-57205923D01*
X64469249Y-57432766D01*
X64662162Y-57625679D01*
X64889005Y-57777251D01*
X65141059Y-57881655D01*
X65408637Y-57934880D01*
X65681459Y-57934880D01*
X65949037Y-57881655D01*
X66201091Y-57777251D01*
X66427934Y-57625679D01*
X66546740Y-57506873D01*
X67307660Y-57506873D01*
X67373185Y-57745740D01*
X67620164Y-57861640D01*
X67885008Y-57927130D01*
X68157540Y-57939692D01*
X68427286Y-57898845D01*
X68683880Y-57806157D01*
X68796911Y-57745740D01*
X68862436Y-57506873D01*
X68085048Y-56729485D01*
X67307660Y-57506873D01*
X66546740Y-57506873D01*
X66620847Y-57432766D01*
X66772419Y-57205923D01*
X66813559Y-57106601D01*
X66828771Y-57148712D01*
X66889188Y-57261743D01*
X67128055Y-57327268D01*
X67905443Y-56549880D01*
X68264653Y-56549880D01*
X69042041Y-57327268D01*
X69236976Y-57273794D01*
X69236976Y-57299880D01*
X69249236Y-57424362D01*
X69285546Y-57544060D01*
X69344511Y-57654374D01*
X69423863Y-57751065D01*
X69520554Y-57830417D01*
X69630868Y-57889382D01*
X69750566Y-57925692D01*
X69875048Y-57937952D01*
X71375048Y-57937952D01*
X71499530Y-57925692D01*
X71619228Y-57889382D01*
X71729542Y-57830417D01*
X71826233Y-57751065D01*
X71905585Y-57654374D01*
X71964550Y-57544060D01*
X72000860Y-57424362D01*
X72013120Y-57299880D01*
X72013120Y-55799880D01*
X72000860Y-55675398D01*
X71964550Y-55555700D01*
X71905585Y-55445386D01*
X71826233Y-55348695D01*
X71729542Y-55269343D01*
X71619228Y-55210378D01*
X71499530Y-55174068D01*
X71375048Y-55161808D01*
X69875048Y-55161808D01*
X69750566Y-55174068D01*
X69630868Y-55210378D01*
X69520554Y-55269343D01*
X69423863Y-55348695D01*
X69344511Y-55445386D01*
X69285546Y-55555700D01*
X69249236Y-55675398D01*
X69236976Y-55799880D01*
X69236976Y-55825966D01*
X69042041Y-55772492D01*
X68264653Y-56549880D01*
X67905443Y-56549880D01*
X67891301Y-56535738D01*
X68070906Y-56356133D01*
X68085048Y-56370275D01*
X68252027Y-56203296D01*
X68357894Y-56171182D01*
X68512334Y-56088632D01*
X68647702Y-55977538D01*
X68675542Y-55943615D01*
X76165237Y-48453920D01*
X76199160Y-48426080D01*
X76310254Y-48290712D01*
X76392804Y-48136272D01*
X76423132Y-48036292D01*
X76443637Y-47968697D01*
X76452190Y-47881853D01*
X76456501Y-47838088D01*
X76456501Y-47838082D01*
X76460801Y-47794422D01*
X76456501Y-47750762D01*
X76456501Y-46878044D01*
X76506218Y-46714150D01*
X76520001Y-46574212D01*
X76520001Y-43377135D01*
X78975124Y-40922012D01*
X78978320Y-40929727D01*
X79135363Y-41164759D01*
X79335241Y-41364637D01*
X79570273Y-41521680D01*
X79831426Y-41629853D01*
X80108665Y-41685000D01*
X80160999Y-41685000D01*
X80160999Y-43561928D01*
X77800000Y-43561928D01*
X77675518Y-43574188D01*
X77555820Y-43610498D01*
X77445506Y-43669463D01*
X77348815Y-43748815D01*
X77269463Y-43845506D01*
X77210498Y-43955820D01*
X77174188Y-44075518D01*
X77161928Y-44200000D01*
X77161928Y-45800000D01*
X77174188Y-45924482D01*
X77210498Y-46044180D01*
X77269463Y-46154494D01*
X77348815Y-46251185D01*
X77445506Y-46330537D01*
X77555820Y-46389502D01*
X77675518Y-46425812D01*
X77693482Y-46427581D01*
X77580392Y-46520392D01*
X77401068Y-46738899D01*
X77267818Y-46988192D01*
X77185764Y-47258691D01*
X77158057Y-47540000D01*
X77185764Y-47821309D01*
X77267818Y-48091808D01*
X77401068Y-48341101D01*
X77580392Y-48559608D01*
X77798899Y-48738932D01*
X77931858Y-48810000D01*
X77798899Y-48881068D01*
X77580392Y-49060392D01*
X77401068Y-49278899D01*
X77267818Y-49528192D01*
X77185764Y-49798691D01*
X77158057Y-50080000D01*
X77185764Y-50361309D01*
X77267818Y-50631808D01*
X77401068Y-50881101D01*
X77580392Y-51099608D01*
X77798899Y-51278932D01*
X77931858Y-51350000D01*
X77798899Y-51421068D01*
X77580392Y-51600392D01*
X77401068Y-51818899D01*
X77267818Y-52068192D01*
X77185764Y-52338691D01*
X77158057Y-52620000D01*
X77185764Y-52901309D01*
X77249929Y-53112836D01*
X76748254Y-53614511D01*
X76714331Y-53642351D01*
X76655738Y-53713747D01*
X76603238Y-53777719D01*
X76520688Y-53932158D01*
X76483425Y-54055000D01*
X76469854Y-54099737D01*
X76456990Y-54230344D01*
X76456990Y-54230350D01*
X76452690Y-54274010D01*
X76456990Y-54317670D01*
X76456991Y-63702457D01*
X73278234Y-66881214D01*
X73244311Y-66909054D01*
X73133217Y-67044423D01*
X73061328Y-67178918D01*
X73050668Y-67198861D01*
X73008362Y-67338328D01*
X72999834Y-67366440D01*
X72986970Y-67497047D01*
X72986970Y-67497053D01*
X72982670Y-67540713D01*
X72986970Y-67584373D01*
X72986971Y-103295793D01*
X69754242Y-106528523D01*
X69686260Y-106515000D01*
X69393740Y-106515000D01*
X69106842Y-106572068D01*
X68836589Y-106684010D01*
X68593368Y-106846525D01*
X68406285Y-107033608D01*
X68338405Y-106906614D01*
X68227962Y-106772038D01*
X68093386Y-106661595D01*
X67939850Y-106579528D01*
X67773254Y-106528992D01*
X67600000Y-106511928D01*
X66400000Y-106511928D01*
X66226746Y-106528992D01*
X66060150Y-106579528D01*
X65906614Y-106661595D01*
X65772038Y-106772038D01*
X65661595Y-106906614D01*
X65579528Y-107060150D01*
X65528992Y-107226746D01*
X65511928Y-107400000D01*
X65511928Y-108600000D01*
X65528992Y-108773254D01*
X65579528Y-108939850D01*
X65661595Y-109093386D01*
X65772038Y-109227962D01*
X65906614Y-109338405D01*
X66033608Y-109406285D01*
X65846525Y-109593368D01*
X65684010Y-109836589D01*
X65572068Y-110106842D01*
X65515000Y-110393740D01*
X65515000Y-110686260D01*
X65572068Y-110973158D01*
X65684010Y-111243411D01*
X65846525Y-111486632D01*
X66053368Y-111693475D01*
X66227760Y-111810000D01*
X66053368Y-111926525D01*
X65846525Y-112133368D01*
X65684010Y-112376589D01*
X65572068Y-112646842D01*
X65515000Y-112933740D01*
X65515000Y-113226260D01*
X65572068Y-113513158D01*
X65684010Y-113783411D01*
X65846525Y-114026632D01*
X66053368Y-114233475D01*
X66227760Y-114350000D01*
X66053368Y-114466525D01*
X65846525Y-114673368D01*
X65684010Y-114916589D01*
X65572068Y-115186842D01*
X65515000Y-115473740D01*
X65515000Y-115766260D01*
X65572068Y-116053158D01*
X65684010Y-116323411D01*
X65846525Y-116566632D01*
X66053368Y-116773475D01*
X66227760Y-116890000D01*
X66053368Y-117006525D01*
X65846525Y-117213368D01*
X65684010Y-117456589D01*
X65572068Y-117726842D01*
X65515000Y-118013740D01*
X65515000Y-118306260D01*
X65572068Y-118593158D01*
X65684010Y-118863411D01*
X65846525Y-119106632D01*
X66053368Y-119313475D01*
X66227760Y-119430000D01*
X66053368Y-119546525D01*
X65846525Y-119753368D01*
X65684010Y-119996589D01*
X65572068Y-120266842D01*
X65515000Y-120553740D01*
X65515000Y-120846260D01*
X65572068Y-121133158D01*
X65684010Y-121403411D01*
X65846525Y-121646632D01*
X66053368Y-121853475D01*
X66227760Y-121970000D01*
X66053368Y-122086525D01*
X65846525Y-122293368D01*
X65684010Y-122536589D01*
X65572068Y-122806842D01*
X65515000Y-123093740D01*
X65515000Y-123386260D01*
X65572068Y-123673158D01*
X65684010Y-123943411D01*
X65846525Y-124186632D01*
X66053368Y-124393475D01*
X66227760Y-124510000D01*
X66053368Y-124626525D01*
X65846525Y-124833368D01*
X65684010Y-125076589D01*
X65572068Y-125346842D01*
X65515000Y-125633740D01*
X65515000Y-125926260D01*
X65572068Y-126213158D01*
X65684010Y-126483411D01*
X65846525Y-126726632D01*
X66053368Y-126933475D01*
X66296589Y-127095990D01*
X66566842Y-127207932D01*
X66853740Y-127265000D01*
X67146260Y-127265000D01*
X67433158Y-127207932D01*
X67703411Y-127095990D01*
X67946632Y-126933475D01*
X68153475Y-126726632D01*
X68270000Y-126552240D01*
X68386525Y-126726632D01*
X68593368Y-126933475D01*
X68651000Y-126971984D01*
X68651000Y-127909777D01*
X68646700Y-127953437D01*
X68651000Y-127997097D01*
X68651000Y-127997103D01*
X68663864Y-128127710D01*
X68714697Y-128295287D01*
X68797247Y-128449727D01*
X68908341Y-128585096D01*
X68942264Y-128612936D01*
X77421079Y-137091752D01*
X77448914Y-137125669D01*
X77584282Y-137236763D01*
X77738722Y-137319313D01*
X77804631Y-137339306D01*
X77906297Y-137370146D01*
X77939497Y-137373416D01*
X78036906Y-137383010D01*
X78036912Y-137383010D01*
X78080572Y-137387310D01*
X78124232Y-137383010D01*
X79875767Y-137383010D01*
X79919427Y-137387310D01*
X79963087Y-137383010D01*
X79963094Y-137383010D01*
X80093701Y-137370146D01*
X80261278Y-137319313D01*
X80415718Y-137236763D01*
X80551086Y-137125669D01*
X80578926Y-137091746D01*
X84795327Y-132875346D01*
X84805764Y-132981309D01*
X84887818Y-133251808D01*
X85021068Y-133501101D01*
X85200392Y-133719608D01*
X85418899Y-133898932D01*
X85551858Y-133970000D01*
X85418899Y-134041068D01*
X85200392Y-134220392D01*
X85021068Y-134438899D01*
X84887818Y-134688192D01*
X84805764Y-134958691D01*
X84778057Y-135240000D01*
X84805764Y-135521309D01*
X84887818Y-135791808D01*
X85021068Y-136041101D01*
X85200392Y-136259608D01*
X85418899Y-136438932D01*
X85668192Y-136572182D01*
X85938691Y-136654236D01*
X86149508Y-136675000D01*
X87090492Y-136675000D01*
X87301309Y-136654236D01*
X87571808Y-136572182D01*
X87821101Y-136438932D01*
X88039608Y-136259608D01*
X88218932Y-136041101D01*
X88352182Y-135791808D01*
X88434236Y-135521309D01*
X88461943Y-135240000D01*
X88434236Y-134958691D01*
X88352182Y-134688192D01*
X88218932Y-134438899D01*
X88039608Y-134220392D01*
X87821101Y-134041068D01*
X87688142Y-133970000D01*
X87821101Y-133898932D01*
X88039608Y-133719608D01*
X88218932Y-133501101D01*
X88352182Y-133251808D01*
X88434236Y-132981309D01*
X88461943Y-132700000D01*
X88434236Y-132418691D01*
X88352182Y-132148192D01*
X88218932Y-131898899D01*
X88039608Y-131680392D01*
X87821101Y-131501068D01*
X87688142Y-131430000D01*
X87821101Y-131358932D01*
X88039608Y-131179608D01*
X88218932Y-130961101D01*
X88352182Y-130711808D01*
X88434236Y-130441309D01*
X88461943Y-130160000D01*
X88434236Y-129878691D01*
X88352182Y-129608192D01*
X88218932Y-129358899D01*
X88039608Y-129140392D01*
X87821101Y-128961068D01*
X87688142Y-128890000D01*
X87821101Y-128818932D01*
X88039608Y-128639608D01*
X88218932Y-128421101D01*
X88352182Y-128171808D01*
X88434236Y-127901309D01*
X88461943Y-127620000D01*
X88434236Y-127338691D01*
X88408846Y-127254990D01*
X88697755Y-127254990D01*
X90271044Y-128828280D01*
X90265000Y-128858665D01*
X90265000Y-129141335D01*
X90320147Y-129418574D01*
X90428320Y-129679727D01*
X90585363Y-129914759D01*
X90785241Y-130114637D01*
X90811001Y-130131849D01*
X90811000Y-131118151D01*
X90785241Y-131135363D01*
X90585363Y-131335241D01*
X90428320Y-131570273D01*
X90320147Y-131831426D01*
X90265000Y-132108665D01*
X90265000Y-132391335D01*
X90320147Y-132668574D01*
X90428320Y-132929727D01*
X90585363Y-133164759D01*
X90785241Y-133364637D01*
X91020273Y-133521680D01*
X91281426Y-133629853D01*
X91558665Y-133685000D01*
X91841335Y-133685000D01*
X92118574Y-133629853D01*
X92379727Y-133521680D01*
X92614759Y-133364637D01*
X92814637Y-133164759D01*
X92971680Y-132929727D01*
X93079853Y-132668574D01*
X93135000Y-132391335D01*
X93135000Y-132108665D01*
X93079853Y-131831426D01*
X92971680Y-131570273D01*
X92814637Y-131335241D01*
X92614759Y-131135363D01*
X92589000Y-131118151D01*
X92589000Y-130131849D01*
X92614759Y-130114637D01*
X92814637Y-129914759D01*
X92971680Y-129679727D01*
X93079853Y-129418574D01*
X93135000Y-129141335D01*
X93135000Y-128858665D01*
X93079853Y-128581426D01*
X92971680Y-128320273D01*
X92814637Y-128085241D01*
X92614759Y-127885363D01*
X92379727Y-127728320D01*
X92118574Y-127620147D01*
X91841335Y-127565000D01*
X91558665Y-127565000D01*
X91528280Y-127571044D01*
X89926235Y-125969000D01*
X97571765Y-125969000D01*
X100431044Y-128828280D01*
X100425000Y-128858665D01*
X100425000Y-129141335D01*
X100480147Y-129418574D01*
X100588320Y-129679727D01*
X100745363Y-129914759D01*
X100945241Y-130114637D01*
X101180273Y-130271680D01*
X101441426Y-130379853D01*
X101718665Y-130435000D01*
X102001335Y-130435000D01*
X102225002Y-130390509D01*
X102225002Y-130627762D01*
X102031720Y-130821044D01*
X102001335Y-130815000D01*
X101718665Y-130815000D01*
X101441426Y-130870147D01*
X101180273Y-130978320D01*
X100945241Y-131135363D01*
X100745363Y-131335241D01*
X100588320Y-131570273D01*
X100480147Y-131831426D01*
X100425000Y-132108665D01*
X100425000Y-132391335D01*
X100480147Y-132668574D01*
X100588320Y-132929727D01*
X100745363Y-133164759D01*
X100945241Y-133364637D01*
X101180273Y-133521680D01*
X101441426Y-133629853D01*
X101718665Y-133685000D01*
X102001335Y-133685000D01*
X102278574Y-133629853D01*
X102539727Y-133521680D01*
X102774759Y-133364637D01*
X102974637Y-133164759D01*
X103131680Y-132929727D01*
X103239853Y-132668574D01*
X103295000Y-132391335D01*
X103295000Y-132108665D01*
X103288956Y-132078280D01*
X103711742Y-131655493D01*
X103745660Y-131627658D01*
X103856754Y-131492290D01*
X103939304Y-131337850D01*
X103961402Y-131265000D01*
X103990137Y-131170275D01*
X103996507Y-131105595D01*
X104003001Y-131039666D01*
X104003001Y-131039660D01*
X104007301Y-130996000D01*
X104003001Y-130952340D01*
X104003001Y-127777661D01*
X104007301Y-127734001D01*
X104003001Y-127690341D01*
X104003001Y-127690334D01*
X103990137Y-127559727D01*
X103939304Y-127392150D01*
X103856754Y-127237710D01*
X103745660Y-127102342D01*
X103711744Y-127074508D01*
X100144399Y-123507163D01*
X100714250Y-123505000D01*
X100873000Y-123346250D01*
X100873000Y-122127000D01*
X101127000Y-122127000D01*
X101127000Y-123346250D01*
X101285750Y-123505000D01*
X102095000Y-123508072D01*
X102219482Y-123495812D01*
X102339180Y-123459502D01*
X102449494Y-123400537D01*
X102546185Y-123321185D01*
X102625537Y-123224494D01*
X102684502Y-123114180D01*
X102720812Y-122994482D01*
X102733072Y-122870000D01*
X102730000Y-122285750D01*
X102571250Y-122127000D01*
X101127000Y-122127000D01*
X100873000Y-122127000D01*
X100853000Y-122127000D01*
X100853000Y-121873000D01*
X100873000Y-121873000D01*
X100873000Y-121853000D01*
X101127000Y-121853000D01*
X101127000Y-121873000D01*
X102571250Y-121873000D01*
X102730000Y-121714250D01*
X102733072Y-121130000D01*
X102720812Y-121005518D01*
X102684502Y-120885820D01*
X102625537Y-120775506D01*
X102546185Y-120678815D01*
X102449494Y-120599463D01*
X102339180Y-120540498D01*
X102295953Y-120527385D01*
X102482417Y-120300179D01*
X102622166Y-120038725D01*
X102708224Y-119755032D01*
X102737282Y-119460000D01*
X102708224Y-119164968D01*
X102622166Y-118881275D01*
X102482417Y-118619821D01*
X102294345Y-118390655D01*
X102065179Y-118202583D01*
X102041638Y-118190000D01*
X102065179Y-118177417D01*
X102294345Y-117989345D01*
X102482417Y-117760179D01*
X102622166Y-117498725D01*
X102708224Y-117215032D01*
X102737282Y-116920000D01*
X102708224Y-116624968D01*
X102671926Y-116505310D01*
X103146753Y-116030483D01*
X103180669Y-116002649D01*
X103291763Y-115867281D01*
X103374313Y-115712841D01*
X103411014Y-115591852D01*
X103425146Y-115545265D01*
X103427355Y-115522834D01*
X103438010Y-115414657D01*
X103438010Y-115414650D01*
X103442310Y-115370990D01*
X103438010Y-115327330D01*
X103438010Y-113875237D01*
X103442310Y-113831577D01*
X103438010Y-113787917D01*
X103438010Y-113787911D01*
X103425146Y-113657304D01*
X103424904Y-113656504D01*
X103393172Y-113551898D01*
X103374313Y-113489727D01*
X103291763Y-113335287D01*
X103180669Y-113199919D01*
X103146752Y-113172084D01*
X96836931Y-106862264D01*
X96809091Y-106828341D01*
X96673723Y-106717247D01*
X96519283Y-106634697D01*
X96351706Y-106583864D01*
X96221099Y-106571000D01*
X96221092Y-106571000D01*
X96177432Y-106566700D01*
X96133772Y-106571000D01*
X92072468Y-106571000D01*
X92030256Y-106542795D01*
X91841898Y-106464774D01*
X91792105Y-106454870D01*
X89163010Y-103825775D01*
X89163010Y-101777669D01*
X89167310Y-101734009D01*
X89163010Y-101690344D01*
X89163010Y-101690343D01*
X89150146Y-101559736D01*
X89150146Y-101559734D01*
X89099312Y-101392157D01*
X89095599Y-101385210D01*
X89016763Y-101237719D01*
X88905669Y-101102351D01*
X88871747Y-101074512D01*
X88370071Y-100572836D01*
X88434236Y-100361309D01*
X88461943Y-100080000D01*
X88434236Y-99798691D01*
X88352182Y-99528192D01*
X88218932Y-99278899D01*
X88039608Y-99060392D01*
X87821101Y-98881068D01*
X87688142Y-98810000D01*
X87821101Y-98738932D01*
X88039608Y-98559608D01*
X88218932Y-98341101D01*
X88352182Y-98091808D01*
X88434236Y-97821309D01*
X88461943Y-97540000D01*
X88434236Y-97258691D01*
X88352182Y-96988192D01*
X88218932Y-96738899D01*
X88039608Y-96520392D01*
X87821101Y-96341068D01*
X87688142Y-96270000D01*
X87821101Y-96198932D01*
X88039608Y-96019608D01*
X88218932Y-95801101D01*
X88352182Y-95551808D01*
X88434236Y-95281309D01*
X88461943Y-95000000D01*
X88434236Y-94718691D01*
X88352182Y-94448192D01*
X88218932Y-94198899D01*
X88039608Y-93980392D01*
X87821101Y-93801068D01*
X87571808Y-93667818D01*
X87301309Y-93585764D01*
X87090492Y-93565000D01*
X86442235Y-93565000D01*
X86139000Y-93261765D01*
X86139000Y-91381849D01*
X86164759Y-91364637D01*
X86364637Y-91164759D01*
X86521680Y-90929727D01*
X86629853Y-90668574D01*
X86685000Y-90391335D01*
X86685000Y-90108665D01*
X86678956Y-90078279D01*
X89579756Y-87177479D01*
X89613679Y-87149639D01*
X89724773Y-87014271D01*
X89807323Y-86859831D01*
X89852270Y-86711659D01*
X89858156Y-86692256D01*
X89868578Y-86586437D01*
X89871020Y-86561647D01*
X89871020Y-86561641D01*
X89875320Y-86517981D01*
X89871020Y-86474321D01*
X89871020Y-80400000D01*
X97511928Y-80400000D01*
X97511928Y-81600000D01*
X97528992Y-81773254D01*
X97579528Y-81939850D01*
X97661595Y-82093386D01*
X97772038Y-82227962D01*
X97906614Y-82338405D01*
X98033608Y-82406285D01*
X97846525Y-82593368D01*
X97684010Y-82836589D01*
X97572068Y-83106842D01*
X97515000Y-83393740D01*
X97515000Y-83686260D01*
X97572068Y-83973158D01*
X97684010Y-84243411D01*
X97846525Y-84486632D01*
X98053368Y-84693475D01*
X98227760Y-84810000D01*
X98053368Y-84926525D01*
X97846525Y-85133368D01*
X97684010Y-85376589D01*
X97572068Y-85646842D01*
X97515000Y-85933740D01*
X97515000Y-86226260D01*
X97572068Y-86513158D01*
X97684010Y-86783411D01*
X97846525Y-87026632D01*
X98053368Y-87233475D01*
X98227760Y-87350000D01*
X98053368Y-87466525D01*
X97846525Y-87673368D01*
X97684010Y-87916589D01*
X97572068Y-88186842D01*
X97515000Y-88473740D01*
X97515000Y-88766260D01*
X97572068Y-89053158D01*
X97684010Y-89323411D01*
X97846525Y-89566632D01*
X98053368Y-89773475D01*
X98227760Y-89890000D01*
X98053368Y-90006525D01*
X97846525Y-90213368D01*
X97684010Y-90456589D01*
X97572068Y-90726842D01*
X97515000Y-91013740D01*
X97515000Y-91306260D01*
X97572068Y-91593158D01*
X97684010Y-91863411D01*
X97846525Y-92106632D01*
X98053368Y-92313475D01*
X98227760Y-92430000D01*
X98053368Y-92546525D01*
X97846525Y-92753368D01*
X97684010Y-92996589D01*
X97572068Y-93266842D01*
X97515000Y-93553740D01*
X97515000Y-93846260D01*
X97572068Y-94133158D01*
X97684010Y-94403411D01*
X97846525Y-94646632D01*
X98053368Y-94853475D01*
X98227760Y-94970000D01*
X98053368Y-95086525D01*
X97846525Y-95293368D01*
X97684010Y-95536589D01*
X97572068Y-95806842D01*
X97515000Y-96093740D01*
X97515000Y-96386260D01*
X97572068Y-96673158D01*
X97684010Y-96943411D01*
X97846525Y-97186632D01*
X98053368Y-97393475D01*
X98227760Y-97510000D01*
X98053368Y-97626525D01*
X97846525Y-97833368D01*
X97684010Y-98076589D01*
X97572068Y-98346842D01*
X97515000Y-98633740D01*
X97515000Y-98926260D01*
X97572068Y-99213158D01*
X97684010Y-99483411D01*
X97846525Y-99726632D01*
X98053368Y-99933475D01*
X98296589Y-100095990D01*
X98566842Y-100207932D01*
X98853740Y-100265000D01*
X99146260Y-100265000D01*
X99433158Y-100207932D01*
X99703411Y-100095990D01*
X99946632Y-99933475D01*
X100153475Y-99726632D01*
X100191983Y-99669000D01*
X100348017Y-99669000D01*
X100386525Y-99726632D01*
X100593368Y-99933475D01*
X100836589Y-100095990D01*
X101106842Y-100207932D01*
X101393740Y-100265000D01*
X101686260Y-100265000D01*
X101973158Y-100207932D01*
X102243411Y-100095990D01*
X102486632Y-99933475D01*
X102693475Y-99726632D01*
X102855990Y-99483411D01*
X102967932Y-99213158D01*
X103025000Y-98926260D01*
X103025000Y-98633740D01*
X102967932Y-98346842D01*
X102855990Y-98076589D01*
X102693475Y-97833368D01*
X102486632Y-97626525D01*
X102312240Y-97510000D01*
X102486632Y-97393475D01*
X102693475Y-97186632D01*
X102855990Y-96943411D01*
X102967932Y-96673158D01*
X103025000Y-96386260D01*
X103025000Y-96093740D01*
X102967932Y-95806842D01*
X102855990Y-95536589D01*
X102693475Y-95293368D01*
X102486632Y-95086525D01*
X102312240Y-94970000D01*
X102486632Y-94853475D01*
X102693475Y-94646632D01*
X102855990Y-94403411D01*
X102967932Y-94133158D01*
X103025000Y-93846260D01*
X103025000Y-93553740D01*
X102967932Y-93266842D01*
X102855990Y-92996589D01*
X102693475Y-92753368D01*
X102486632Y-92546525D01*
X102312240Y-92430000D01*
X102486632Y-92313475D01*
X102693475Y-92106632D01*
X102855990Y-91863411D01*
X102967932Y-91593158D01*
X103025000Y-91306260D01*
X103025000Y-91013740D01*
X102967932Y-90726842D01*
X102855990Y-90456589D01*
X102693475Y-90213368D01*
X102486632Y-90006525D01*
X102312240Y-89890000D01*
X102486632Y-89773475D01*
X102693475Y-89566632D01*
X102855990Y-89323411D01*
X102967932Y-89053158D01*
X103025000Y-88766260D01*
X103025000Y-88473740D01*
X102967932Y-88186842D01*
X102855990Y-87916589D01*
X102693475Y-87673368D01*
X102486632Y-87466525D01*
X102312240Y-87350000D01*
X102486632Y-87233475D01*
X102693475Y-87026632D01*
X102855990Y-86783411D01*
X102967932Y-86513158D01*
X103025000Y-86226260D01*
X103025000Y-85933740D01*
X102967932Y-85646842D01*
X102855990Y-85376589D01*
X102693475Y-85133368D01*
X102486632Y-84926525D01*
X102312240Y-84810000D01*
X102486632Y-84693475D01*
X102693475Y-84486632D01*
X102855990Y-84243411D01*
X102967932Y-83973158D01*
X103025000Y-83686260D01*
X103025000Y-83393740D01*
X102967932Y-83106842D01*
X102855990Y-82836589D01*
X102693475Y-82593368D01*
X102486632Y-82386525D01*
X102312240Y-82270000D01*
X102486632Y-82153475D01*
X102693475Y-81946632D01*
X102855990Y-81703411D01*
X102967932Y-81433158D01*
X103025000Y-81146260D01*
X103025000Y-80853740D01*
X102967932Y-80566842D01*
X102855990Y-80296589D01*
X102693475Y-80053368D01*
X102486632Y-79846525D01*
X102243411Y-79684010D01*
X101973158Y-79572068D01*
X101686260Y-79515000D01*
X101393740Y-79515000D01*
X101106842Y-79572068D01*
X100836589Y-79684010D01*
X100593368Y-79846525D01*
X100406285Y-80033608D01*
X100338405Y-79906614D01*
X100227962Y-79772038D01*
X100093386Y-79661595D01*
X99939850Y-79579528D01*
X99773254Y-79528992D01*
X99600000Y-79511928D01*
X98400000Y-79511928D01*
X98226746Y-79528992D01*
X98060150Y-79579528D01*
X97906614Y-79661595D01*
X97772038Y-79772038D01*
X97661595Y-79906614D01*
X97579528Y-80060150D01*
X97528992Y-80226746D01*
X97511928Y-80400000D01*
X89871020Y-80400000D01*
X89871020Y-72405680D01*
X89875320Y-72362020D01*
X89871020Y-72318360D01*
X89871020Y-72318353D01*
X89858156Y-72187746D01*
X89857412Y-72185291D01*
X89836785Y-72117293D01*
X89807323Y-72020169D01*
X89724773Y-71865729D01*
X89613679Y-71730361D01*
X89579763Y-71702527D01*
X88766236Y-70889000D01*
X103119227Y-70889000D01*
X103250113Y-70943215D01*
X103450072Y-70982989D01*
X103653950Y-70982989D01*
X103853909Y-70943215D01*
X104042267Y-70865194D01*
X104211785Y-70751926D01*
X104355948Y-70607763D01*
X104469216Y-70438245D01*
X104547237Y-70249887D01*
X104587011Y-70049928D01*
X104587011Y-69846050D01*
X104547237Y-69646091D01*
X104469216Y-69457733D01*
X104355948Y-69288215D01*
X104211785Y-69144052D01*
X104042267Y-69030784D01*
X103853909Y-68952763D01*
X103653950Y-68912989D01*
X103450072Y-68912989D01*
X103250113Y-68952763D01*
X103061755Y-69030784D01*
X102941703Y-69111000D01*
X88146795Y-69111000D01*
X88039608Y-68980392D01*
X87821101Y-68801068D01*
X87571808Y-68667818D01*
X87301309Y-68585764D01*
X87090492Y-68565000D01*
X86442235Y-68565000D01*
X86139000Y-68261765D01*
X86139000Y-66858665D01*
X90565000Y-66858665D01*
X90565000Y-67141335D01*
X90620147Y-67418574D01*
X90728320Y-67679727D01*
X90885363Y-67914759D01*
X91085241Y-68114637D01*
X91320273Y-68271680D01*
X91581426Y-68379853D01*
X91858665Y-68435000D01*
X92141335Y-68435000D01*
X92418574Y-68379853D01*
X92679727Y-68271680D01*
X92914759Y-68114637D01*
X93114637Y-67914759D01*
X93271680Y-67679727D01*
X93379853Y-67418574D01*
X93435000Y-67141335D01*
X93435000Y-66912038D01*
X99640436Y-60706603D01*
X99676778Y-60676778D01*
X99795806Y-60531741D01*
X99884252Y-60366269D01*
X99938717Y-60186723D01*
X99952500Y-60046785D01*
X99957108Y-60000000D01*
X99952500Y-59953215D01*
X99952500Y-59307607D01*
X100147607Y-59112500D01*
X100392393Y-59112500D01*
X100593368Y-59313475D01*
X100836589Y-59475990D01*
X101106842Y-59587932D01*
X101393740Y-59645000D01*
X101686260Y-59645000D01*
X101973158Y-59587932D01*
X102243411Y-59475990D01*
X102486632Y-59313475D01*
X102693475Y-59106632D01*
X102855990Y-58863411D01*
X102967932Y-58593158D01*
X103025000Y-58306260D01*
X103025000Y-58013740D01*
X102967932Y-57726842D01*
X102855990Y-57456589D01*
X102693475Y-57213368D01*
X102486632Y-57006525D01*
X102313271Y-56890689D01*
X102388792Y-56648397D01*
X101540000Y-55799605D01*
X100691208Y-56648397D01*
X100766729Y-56890689D01*
X100593368Y-57006525D01*
X100392393Y-57207500D01*
X100147607Y-57207500D01*
X99946632Y-57006525D01*
X99773271Y-56890689D01*
X99848792Y-56648397D01*
X99000000Y-55799605D01*
X98151208Y-56648397D01*
X98226729Y-56890689D01*
X98053368Y-57006525D01*
X97846525Y-57213368D01*
X97684010Y-57456589D01*
X97572068Y-57726842D01*
X97515000Y-58013740D01*
X97515000Y-58306260D01*
X97572068Y-58593158D01*
X97684010Y-58863411D01*
X97846525Y-59106632D01*
X98047501Y-59307608D01*
X98047501Y-59605460D01*
X92087962Y-65565000D01*
X91858665Y-65565000D01*
X91581426Y-65620147D01*
X91320273Y-65728320D01*
X91085241Y-65885363D01*
X90885363Y-66085241D01*
X90728320Y-66320273D01*
X90620147Y-66581426D01*
X90565000Y-66858665D01*
X86139000Y-66858665D01*
X86139000Y-66381849D01*
X86164759Y-66364637D01*
X86364637Y-66164759D01*
X86521680Y-65929727D01*
X86629853Y-65668574D01*
X86685000Y-65391335D01*
X86685000Y-65108665D01*
X86629853Y-64831426D01*
X86521680Y-64570273D01*
X86364637Y-64335241D01*
X86164759Y-64135363D01*
X85929727Y-63978320D01*
X85668574Y-63870147D01*
X85391335Y-63815000D01*
X85108665Y-63815000D01*
X84831426Y-63870147D01*
X84570273Y-63978320D01*
X84335241Y-64135363D01*
X84135363Y-64335241D01*
X83978320Y-64570273D01*
X83870147Y-64831426D01*
X83815000Y-65108665D01*
X83815000Y-65391335D01*
X83870147Y-65668574D01*
X83978320Y-65929727D01*
X84135363Y-66164759D01*
X84335241Y-66364637D01*
X84361000Y-66381849D01*
X84361001Y-68586330D01*
X84356700Y-68630000D01*
X84373864Y-68804274D01*
X84424698Y-68971852D01*
X84507248Y-69126291D01*
X84572038Y-69205237D01*
X84618342Y-69261659D01*
X84652259Y-69289494D01*
X84869929Y-69507164D01*
X84805764Y-69718691D01*
X84778057Y-70000000D01*
X84805764Y-70281309D01*
X84887818Y-70551808D01*
X85021068Y-70801101D01*
X85200392Y-71019608D01*
X85418899Y-71198932D01*
X85551858Y-71270000D01*
X85418899Y-71341068D01*
X85200392Y-71520392D01*
X85021068Y-71738899D01*
X84887818Y-71988192D01*
X84805764Y-72258691D01*
X84778057Y-72540000D01*
X84805764Y-72821309D01*
X84869929Y-73032835D01*
X81938999Y-75963766D01*
X81938999Y-66093658D01*
X81943299Y-66049998D01*
X81938999Y-66006338D01*
X81938999Y-66006332D01*
X81927084Y-65885363D01*
X81926135Y-65875723D01*
X81875301Y-65708146D01*
X81828264Y-65620147D01*
X81792752Y-65553708D01*
X81681658Y-65418340D01*
X81679913Y-65416908D01*
X81685000Y-65391335D01*
X81685000Y-65108665D01*
X81629853Y-64831426D01*
X81521680Y-64570273D01*
X81364637Y-64335241D01*
X81164759Y-64135363D01*
X80929727Y-63978320D01*
X80924966Y-63976348D01*
X83772314Y-61129000D01*
X85093205Y-61129000D01*
X85200392Y-61259608D01*
X85418899Y-61438932D01*
X85668192Y-61572182D01*
X85938691Y-61654236D01*
X86149508Y-61675000D01*
X87090492Y-61675000D01*
X87301309Y-61654236D01*
X87571808Y-61572182D01*
X87821101Y-61438932D01*
X88039608Y-61259608D01*
X88218932Y-61041101D01*
X88352182Y-60791808D01*
X88434236Y-60521309D01*
X88461943Y-60240000D01*
X88434236Y-59958691D01*
X88352182Y-59688192D01*
X88218932Y-59438899D01*
X88039608Y-59220392D01*
X87821101Y-59041068D01*
X87688142Y-58970000D01*
X87821101Y-58898932D01*
X88039608Y-58719608D01*
X88218932Y-58501101D01*
X88352182Y-58251808D01*
X88434236Y-57981309D01*
X88461943Y-57700000D01*
X88434236Y-57418691D01*
X88352182Y-57148192D01*
X88218932Y-56898899D01*
X88039608Y-56680392D01*
X87821101Y-56501068D01*
X87688142Y-56430000D01*
X87821101Y-56358932D01*
X88039608Y-56179608D01*
X88218932Y-55961101D01*
X88352182Y-55711808D01*
X88434236Y-55441309D01*
X88461943Y-55160000D01*
X88434236Y-54878691D01*
X88352182Y-54608192D01*
X88218932Y-54358899D01*
X88039608Y-54140392D01*
X87821101Y-53961068D01*
X87688142Y-53890000D01*
X87821101Y-53818932D01*
X88039608Y-53639608D01*
X88218932Y-53421101D01*
X88352182Y-53171808D01*
X88434236Y-52901309D01*
X88461943Y-52620000D01*
X88434236Y-52338691D01*
X88352182Y-52068192D01*
X88218932Y-51818899D01*
X88039608Y-51600392D01*
X87821101Y-51421068D01*
X87688142Y-51350000D01*
X87821101Y-51278932D01*
X88039608Y-51099608D01*
X88218932Y-50881101D01*
X88352182Y-50631808D01*
X88434236Y-50361309D01*
X88461943Y-50080000D01*
X88434236Y-49798691D01*
X88352182Y-49528192D01*
X88218932Y-49278899D01*
X88039608Y-49060392D01*
X87821101Y-48881068D01*
X87688142Y-48810000D01*
X87821101Y-48738932D01*
X88039608Y-48559608D01*
X88218932Y-48341101D01*
X88352182Y-48091808D01*
X88434236Y-47821309D01*
X88461943Y-47540000D01*
X88434236Y-47258691D01*
X88352182Y-46988192D01*
X88218932Y-46738899D01*
X88039608Y-46520392D01*
X87821101Y-46341068D01*
X87688142Y-46270000D01*
X87821101Y-46198932D01*
X88039608Y-46019608D01*
X88218932Y-45801101D01*
X88352182Y-45551808D01*
X88434236Y-45281309D01*
X88461943Y-45000000D01*
X88434236Y-44718691D01*
X88352182Y-44448192D01*
X88218932Y-44198899D01*
X88039608Y-43980392D01*
X87821101Y-43801068D01*
X87571808Y-43667818D01*
X87301309Y-43585764D01*
X87090492Y-43565000D01*
X86442235Y-43565000D01*
X86139000Y-43261765D01*
X86139000Y-41381849D01*
X86164759Y-41364637D01*
X86364637Y-41164759D01*
X86521680Y-40929727D01*
X86524876Y-40922012D01*
X92365002Y-46762139D01*
X92365001Y-51609491D01*
X92141335Y-51565000D01*
X91858665Y-51565000D01*
X91581426Y-51620147D01*
X91320273Y-51728320D01*
X91085241Y-51885363D01*
X90885363Y-52085241D01*
X90728320Y-52320273D01*
X90620147Y-52581426D01*
X90565000Y-52858665D01*
X90565000Y-53141335D01*
X90620147Y-53418574D01*
X90728320Y-53679727D01*
X90885363Y-53914759D01*
X91085241Y-54114637D01*
X91320273Y-54271680D01*
X91581426Y-54379853D01*
X91858665Y-54435000D01*
X92141335Y-54435000D01*
X92365001Y-54390509D01*
X92365001Y-55127960D01*
X92087961Y-55405000D01*
X91858665Y-55405000D01*
X91581426Y-55460147D01*
X91320273Y-55568320D01*
X91085241Y-55725363D01*
X90885363Y-55925241D01*
X90728320Y-56160273D01*
X90620147Y-56421426D01*
X90565000Y-56698665D01*
X90565000Y-56981335D01*
X90620147Y-57258574D01*
X90728320Y-57519727D01*
X90885363Y-57754759D01*
X91085241Y-57954637D01*
X91320273Y-58111680D01*
X91581426Y-58219853D01*
X91858665Y-58275000D01*
X92141335Y-58275000D01*
X92418574Y-58219853D01*
X92679727Y-58111680D01*
X92914759Y-57954637D01*
X93114637Y-57754759D01*
X93271680Y-57519727D01*
X93379853Y-57258574D01*
X93435000Y-56981335D01*
X93435000Y-56752039D01*
X93957937Y-56229102D01*
X93994279Y-56199277D01*
X94113307Y-56054240D01*
X94157530Y-55971504D01*
X94201753Y-55888769D01*
X94237025Y-55772492D01*
X94256218Y-55709222D01*
X94258255Y-55688531D01*
X97509389Y-55688531D01*
X97551401Y-55978019D01*
X97649081Y-56253747D01*
X97722528Y-56391157D01*
X97971603Y-56468792D01*
X98820395Y-55620000D01*
X99179605Y-55620000D01*
X100028397Y-56468792D01*
X100270000Y-56393486D01*
X100511603Y-56468792D01*
X101360395Y-55620000D01*
X101719605Y-55620000D01*
X102568397Y-56468792D01*
X102817472Y-56391157D01*
X102943371Y-56127117D01*
X103015339Y-55843589D01*
X103030611Y-55551469D01*
X102988599Y-55261981D01*
X102890919Y-54986253D01*
X102817472Y-54848843D01*
X102568397Y-54771208D01*
X101719605Y-55620000D01*
X101360395Y-55620000D01*
X100511603Y-54771208D01*
X100270000Y-54846514D01*
X100028397Y-54771208D01*
X99179605Y-55620000D01*
X98820395Y-55620000D01*
X97971603Y-54771208D01*
X97722528Y-54848843D01*
X97596629Y-55112883D01*
X97524661Y-55396411D01*
X97509389Y-55688531D01*
X94258255Y-55688531D01*
X94270001Y-55569284D01*
X94270001Y-55569283D01*
X94274609Y-55522499D01*
X94270001Y-55475714D01*
X94270001Y-54108397D01*
X98151208Y-54108397D01*
X98226514Y-54350000D01*
X98151208Y-54591603D01*
X99000000Y-55440395D01*
X99848792Y-54591603D01*
X99773486Y-54350000D01*
X99848792Y-54108397D01*
X100691208Y-54108397D01*
X100766514Y-54350000D01*
X100691208Y-54591603D01*
X101540000Y-55440395D01*
X102388792Y-54591603D01*
X102313486Y-54350000D01*
X102388792Y-54108397D01*
X101540000Y-53259605D01*
X100691208Y-54108397D01*
X99848792Y-54108397D01*
X99000000Y-53259605D01*
X98151208Y-54108397D01*
X94270001Y-54108397D01*
X94270001Y-53148531D01*
X97509389Y-53148531D01*
X97551401Y-53438019D01*
X97649081Y-53713747D01*
X97722528Y-53851157D01*
X97971603Y-53928792D01*
X98820395Y-53080000D01*
X99179605Y-53080000D01*
X100028397Y-53928792D01*
X100270000Y-53853486D01*
X100511603Y-53928792D01*
X101360395Y-53080000D01*
X101719605Y-53080000D01*
X102568397Y-53928792D01*
X102817472Y-53851157D01*
X102943371Y-53587117D01*
X103015339Y-53303589D01*
X103030611Y-53011469D01*
X102988599Y-52721981D01*
X102890919Y-52446253D01*
X102817472Y-52308843D01*
X102568397Y-52231208D01*
X101719605Y-53080000D01*
X101360395Y-53080000D01*
X100511603Y-52231208D01*
X100270000Y-52306514D01*
X100028397Y-52231208D01*
X99179605Y-53080000D01*
X98820395Y-53080000D01*
X97971603Y-52231208D01*
X97722528Y-52308843D01*
X97596629Y-52572883D01*
X97524661Y-52856411D01*
X97509389Y-53148531D01*
X94270001Y-53148531D01*
X94270001Y-51568397D01*
X98151208Y-51568397D01*
X98226514Y-51810000D01*
X98151208Y-52051603D01*
X99000000Y-52900395D01*
X99848792Y-52051603D01*
X99773486Y-51810000D01*
X99848792Y-51568397D01*
X100691208Y-51568397D01*
X100766514Y-51810000D01*
X100691208Y-52051603D01*
X101540000Y-52900395D01*
X102388792Y-52051603D01*
X102313486Y-51810000D01*
X102388792Y-51568397D01*
X101540000Y-50719605D01*
X100691208Y-51568397D01*
X99848792Y-51568397D01*
X99000000Y-50719605D01*
X98151208Y-51568397D01*
X94270001Y-51568397D01*
X94270001Y-50608531D01*
X97509389Y-50608531D01*
X97551401Y-50898019D01*
X97649081Y-51173747D01*
X97722528Y-51311157D01*
X97971603Y-51388792D01*
X98820395Y-50540000D01*
X99179605Y-50540000D01*
X100028397Y-51388792D01*
X100270000Y-51313486D01*
X100511603Y-51388792D01*
X101360395Y-50540000D01*
X101719605Y-50540000D01*
X102568397Y-51388792D01*
X102817472Y-51311157D01*
X102943371Y-51047117D01*
X103015339Y-50763589D01*
X103030611Y-50471469D01*
X102988599Y-50181981D01*
X102890919Y-49906253D01*
X102817472Y-49768843D01*
X102568397Y-49691208D01*
X101719605Y-50540000D01*
X101360395Y-50540000D01*
X100511603Y-49691208D01*
X100270000Y-49766514D01*
X100028397Y-49691208D01*
X99179605Y-50540000D01*
X98820395Y-50540000D01*
X97971603Y-49691208D01*
X97722528Y-49768843D01*
X97596629Y-50032883D01*
X97524661Y-50316411D01*
X97509389Y-50608531D01*
X94270001Y-50608531D01*
X94270001Y-47400000D01*
X97511928Y-47400000D01*
X97511928Y-48600000D01*
X97528992Y-48773254D01*
X97579528Y-48939850D01*
X97661595Y-49093386D01*
X97772038Y-49227962D01*
X97906614Y-49338405D01*
X98060150Y-49420472D01*
X98169293Y-49453580D01*
X98151208Y-49511603D01*
X99000000Y-50360395D01*
X99848792Y-49511603D01*
X99830707Y-49453580D01*
X99939850Y-49420472D01*
X100093386Y-49338405D01*
X100227962Y-49227962D01*
X100338405Y-49093386D01*
X100406285Y-48966392D01*
X100593368Y-49153475D01*
X100766729Y-49269311D01*
X100691208Y-49511603D01*
X101540000Y-50360395D01*
X102388792Y-49511603D01*
X102313271Y-49269311D01*
X102486632Y-49153475D01*
X102693475Y-48946632D01*
X102855990Y-48703411D01*
X102967932Y-48433158D01*
X103025000Y-48146260D01*
X103025000Y-47853740D01*
X102967932Y-47566842D01*
X102855990Y-47296589D01*
X102693475Y-47053368D01*
X102486632Y-46846525D01*
X102243411Y-46684010D01*
X101973158Y-46572068D01*
X101686260Y-46515000D01*
X101393740Y-46515000D01*
X101106842Y-46572068D01*
X100836589Y-46684010D01*
X100593368Y-46846525D01*
X100406285Y-47033608D01*
X100338405Y-46906614D01*
X100227962Y-46772038D01*
X100093386Y-46661595D01*
X99939850Y-46579528D01*
X99773254Y-46528992D01*
X99600000Y-46511928D01*
X98400000Y-46511928D01*
X98226746Y-46528992D01*
X98060150Y-46579528D01*
X97906614Y-46661595D01*
X97772038Y-46772038D01*
X97661595Y-46906614D01*
X97579528Y-47060150D01*
X97528992Y-47226746D01*
X97511928Y-47400000D01*
X94270001Y-47400000D01*
X94270001Y-46414383D01*
X94274609Y-46367598D01*
X94256218Y-46180876D01*
X94239500Y-46125764D01*
X94201753Y-46001330D01*
X94113307Y-45835858D01*
X93994279Y-45690821D01*
X93957937Y-45660996D01*
X92488026Y-44191085D01*
X92679727Y-44111680D01*
X92914759Y-43954637D01*
X93114637Y-43754759D01*
X93271680Y-43519727D01*
X93379853Y-43258574D01*
X93435000Y-42981335D01*
X93435000Y-42698665D01*
X93379853Y-42421426D01*
X93271680Y-42160273D01*
X93114637Y-41925241D01*
X92914759Y-41725363D01*
X92679727Y-41568320D01*
X92418574Y-41460147D01*
X92141335Y-41405000D01*
X91858665Y-41405000D01*
X91581426Y-41460147D01*
X91320273Y-41568320D01*
X91085241Y-41725363D01*
X90885363Y-41925241D01*
X90728320Y-42160273D01*
X90648915Y-42351974D01*
X86589008Y-38292068D01*
X86559179Y-38255721D01*
X86414142Y-38136693D01*
X86248670Y-38048247D01*
X86069124Y-37993782D01*
X85929186Y-37979999D01*
X85882401Y-37975391D01*
X85835616Y-37979999D01*
X79664384Y-37979999D01*
X79617599Y-37975391D01*
X79570814Y-37979999D01*
X79430876Y-37993782D01*
X79251330Y-38048247D01*
X79085858Y-38136693D01*
X78940821Y-38255721D01*
X78910992Y-38292068D01*
X75241228Y-41961832D01*
X75164759Y-41885363D01*
X74929727Y-41728320D01*
X74668574Y-41620147D01*
X74391335Y-41565000D01*
X74108665Y-41565000D01*
X73831426Y-41620147D01*
X73570273Y-41728320D01*
X73335241Y-41885363D01*
X73168661Y-42051943D01*
X73139502Y-41955820D01*
X73080537Y-41845506D01*
X73001185Y-41748815D01*
X72904494Y-41669463D01*
X72794180Y-41610498D01*
X72674482Y-41574188D01*
X72550000Y-41561928D01*
X72035750Y-41565000D01*
X71877000Y-41723750D01*
X71877000Y-42873000D01*
X71897000Y-42873000D01*
X71897000Y-43127000D01*
X71877000Y-43127000D01*
X71877000Y-44276250D01*
X72035750Y-44435000D01*
X72550000Y-44438072D01*
X72674482Y-44425812D01*
X72794180Y-44389502D01*
X72904494Y-44330537D01*
X73001185Y-44251185D01*
X73080537Y-44154494D01*
X73139502Y-44044180D01*
X73168661Y-43948057D01*
X73335241Y-44114637D01*
X73570273Y-44271680D01*
X73831426Y-44379853D01*
X74108665Y-44435000D01*
X74391335Y-44435000D01*
X74615001Y-44390509D01*
X74615002Y-46574212D01*
X74628785Y-46714150D01*
X74678501Y-46878042D01*
X74678502Y-47426185D01*
X71788689Y-50315998D01*
X71655799Y-50117114D01*
X71462886Y-49924201D01*
X71236043Y-49772629D01*
X70983989Y-49668225D01*
X70716411Y-49615000D01*
X70443589Y-49615000D01*
X70176011Y-49668225D01*
X69923957Y-49772629D01*
X69697114Y-49924201D01*
X69504201Y-50117114D01*
X69352629Y-50343957D01*
X69310000Y-50446873D01*
X69267371Y-50343957D01*
X69115799Y-50117114D01*
X68922886Y-49924201D01*
X68696043Y-49772629D01*
X68443989Y-49668225D01*
X68176411Y-49615000D01*
X67903589Y-49615000D01*
X67636011Y-49668225D01*
X67383957Y-49772629D01*
X67157114Y-49924201D01*
X66964201Y-50117114D01*
X66886445Y-50233483D01*
X66875812Y-50125518D01*
X66839502Y-50005820D01*
X66780537Y-49895506D01*
X66701185Y-49798815D01*
X66604494Y-49719463D01*
X66494180Y-49660498D01*
X66374482Y-49624188D01*
X66250000Y-49611928D01*
X65785750Y-49615000D01*
X65627000Y-49773750D01*
X65627000Y-50873000D01*
X65647000Y-50873000D01*
X65647000Y-51127000D01*
X65627000Y-51127000D01*
X65627000Y-52226250D01*
X65785750Y-52385000D01*
X66250000Y-52388072D01*
X66374482Y-52375812D01*
X66494180Y-52339502D01*
X66604494Y-52280537D01*
X66701185Y-52201185D01*
X66780537Y-52104494D01*
X66839502Y-51994180D01*
X66875812Y-51874482D01*
X66886445Y-51766517D01*
X66964201Y-51882886D01*
X67157114Y-52075799D01*
X67383957Y-52227371D01*
X67636011Y-52331775D01*
X67903589Y-52385000D01*
X68176411Y-52385000D01*
X68443989Y-52331775D01*
X68696043Y-52227371D01*
X68922886Y-52075799D01*
X69115799Y-51882886D01*
X69267371Y-51656043D01*
X69310000Y-51553127D01*
X69352629Y-51656043D01*
X69504201Y-51882886D01*
X69697114Y-52075799D01*
X69895998Y-52208689D01*
X67647808Y-54456879D01*
X66792717Y-54456879D01*
X66749049Y-54452578D01*
X66574774Y-54469743D01*
X66529849Y-54483371D01*
X66407198Y-54520576D01*
X66252758Y-54603126D01*
X66117390Y-54714220D01*
X66089554Y-54748138D01*
X65672812Y-55164880D01*
X65408637Y-55164880D01*
X65141059Y-55218105D01*
X64889005Y-55322509D01*
X64662162Y-55474081D01*
X64469249Y-55666994D01*
X64317677Y-55893837D01*
X64213273Y-56145891D01*
X64160048Y-56413469D01*
X62660000Y-56413469D01*
X62660000Y-51750000D01*
X64111928Y-51750000D01*
X64124188Y-51874482D01*
X64160498Y-51994180D01*
X64219463Y-52104494D01*
X64298815Y-52201185D01*
X64395506Y-52280537D01*
X64505820Y-52339502D01*
X64625518Y-52375812D01*
X64750000Y-52388072D01*
X65214250Y-52385000D01*
X65373000Y-52226250D01*
X65373000Y-51127000D01*
X64273750Y-51127000D01*
X64115000Y-51285750D01*
X64111928Y-51750000D01*
X62660000Y-51750000D01*
X62660000Y-50250000D01*
X64111928Y-50250000D01*
X64115000Y-50714250D01*
X64273750Y-50873000D01*
X65373000Y-50873000D01*
X65373000Y-49773750D01*
X65214250Y-49615000D01*
X64750000Y-49611928D01*
X64625518Y-49624188D01*
X64505820Y-49660498D01*
X64395506Y-49719463D01*
X64298815Y-49798815D01*
X64219463Y-49895506D01*
X64160498Y-50005820D01*
X64124188Y-50125518D01*
X64111928Y-50250000D01*
X62660000Y-50250000D01*
X62660000Y-45800000D01*
X64561928Y-45800000D01*
X64574188Y-45924482D01*
X64610498Y-46044180D01*
X64669463Y-46154494D01*
X64748815Y-46251185D01*
X64845506Y-46330537D01*
X64955820Y-46389502D01*
X65075518Y-46425812D01*
X65200000Y-46438072D01*
X65714250Y-46435000D01*
X65873000Y-46276250D01*
X65873000Y-45127000D01*
X64723750Y-45127000D01*
X64565000Y-45285750D01*
X64561928Y-45800000D01*
X62660000Y-45800000D01*
X62660000Y-44200000D01*
X64561928Y-44200000D01*
X64565000Y-44714250D01*
X64723750Y-44873000D01*
X65873000Y-44873000D01*
X65873000Y-43723750D01*
X66127000Y-43723750D01*
X66127000Y-44873000D01*
X66147000Y-44873000D01*
X66147000Y-45127000D01*
X66127000Y-45127000D01*
X66127000Y-46276250D01*
X66285750Y-46435000D01*
X66800000Y-46438072D01*
X66924482Y-46425812D01*
X67044180Y-46389502D01*
X67154494Y-46330537D01*
X67251185Y-46251185D01*
X67330537Y-46154494D01*
X67389502Y-46044180D01*
X67418661Y-45948057D01*
X67585241Y-46114637D01*
X67820273Y-46271680D01*
X68081426Y-46379853D01*
X68358665Y-46435000D01*
X68641335Y-46435000D01*
X68918574Y-46379853D01*
X69179727Y-46271680D01*
X69414759Y-46114637D01*
X69614637Y-45914759D01*
X69771680Y-45679727D01*
X69879853Y-45418574D01*
X69935000Y-45141335D01*
X69935000Y-44858665D01*
X69879853Y-44581426D01*
X69771680Y-44320273D01*
X69614637Y-44085241D01*
X69414759Y-43885363D01*
X69287004Y-43800000D01*
X70311928Y-43800000D01*
X70324188Y-43924482D01*
X70360498Y-44044180D01*
X70419463Y-44154494D01*
X70498815Y-44251185D01*
X70595506Y-44330537D01*
X70705820Y-44389502D01*
X70825518Y-44425812D01*
X70950000Y-44438072D01*
X71464250Y-44435000D01*
X71623000Y-44276250D01*
X71623000Y-43127000D01*
X70473750Y-43127000D01*
X70315000Y-43285750D01*
X70311928Y-43800000D01*
X69287004Y-43800000D01*
X69179727Y-43728320D01*
X68918574Y-43620147D01*
X68641335Y-43565000D01*
X68358665Y-43565000D01*
X68081426Y-43620147D01*
X67820273Y-43728320D01*
X67585241Y-43885363D01*
X67418661Y-44051943D01*
X67389502Y-43955820D01*
X67330537Y-43845506D01*
X67251185Y-43748815D01*
X67154494Y-43669463D01*
X67044180Y-43610498D01*
X66924482Y-43574188D01*
X66800000Y-43561928D01*
X66285750Y-43565000D01*
X66127000Y-43723750D01*
X65873000Y-43723750D01*
X65714250Y-43565000D01*
X65200000Y-43561928D01*
X65075518Y-43574188D01*
X64955820Y-43610498D01*
X64845506Y-43669463D01*
X64748815Y-43748815D01*
X64669463Y-43845506D01*
X64610498Y-43955820D01*
X64574188Y-44075518D01*
X64561928Y-44200000D01*
X62660000Y-44200000D01*
X62660000Y-42200000D01*
X70311928Y-42200000D01*
X70315000Y-42714250D01*
X70473750Y-42873000D01*
X71623000Y-42873000D01*
X71623000Y-41723750D01*
X71464250Y-41565000D01*
X70950000Y-41561928D01*
X70825518Y-41574188D01*
X70705820Y-41610498D01*
X70595506Y-41669463D01*
X70498815Y-41748815D01*
X70419463Y-41845506D01*
X70360498Y-41955820D01*
X70324188Y-42075518D01*
X70311928Y-42200000D01*
X62660000Y-42200000D01*
X62660000Y-37660000D01*
X105340000Y-37660000D01*
X105340001Y-138340000D01*
%TA.AperFunction,Conductor*%
D24*
G36*
X105340001Y-138340000D02*
G01*
X62660000Y-138340000D01*
X62660000Y-74400000D01*
X65511928Y-74400000D01*
X65511928Y-75600000D01*
X65528992Y-75773254D01*
X65579528Y-75939850D01*
X65661595Y-76093386D01*
X65772038Y-76227962D01*
X65906614Y-76338405D01*
X66033608Y-76406285D01*
X65846525Y-76593368D01*
X65684010Y-76836589D01*
X65572068Y-77106842D01*
X65515000Y-77393740D01*
X65515000Y-77686260D01*
X65572068Y-77973158D01*
X65684010Y-78243411D01*
X65846525Y-78486632D01*
X66053368Y-78693475D01*
X66227760Y-78810000D01*
X66053368Y-78926525D01*
X65846525Y-79133368D01*
X65684010Y-79376589D01*
X65572068Y-79646842D01*
X65515000Y-79933740D01*
X65515000Y-80226260D01*
X65572068Y-80513158D01*
X65684010Y-80783411D01*
X65846525Y-81026632D01*
X66053368Y-81233475D01*
X66227760Y-81350000D01*
X66053368Y-81466525D01*
X65846525Y-81673368D01*
X65684010Y-81916589D01*
X65572068Y-82186842D01*
X65515000Y-82473740D01*
X65515000Y-82766260D01*
X65572068Y-83053158D01*
X65684010Y-83323411D01*
X65846525Y-83566632D01*
X66053368Y-83773475D01*
X66227760Y-83890000D01*
X66053368Y-84006525D01*
X65846525Y-84213368D01*
X65684010Y-84456589D01*
X65572068Y-84726842D01*
X65515000Y-85013740D01*
X65515000Y-85306260D01*
X65572068Y-85593158D01*
X65684010Y-85863411D01*
X65846525Y-86106632D01*
X66053368Y-86313475D01*
X66227760Y-86430000D01*
X66053368Y-86546525D01*
X65846525Y-86753368D01*
X65684010Y-86996589D01*
X65572068Y-87266842D01*
X65515000Y-87553740D01*
X65515000Y-87846260D01*
X65572068Y-88133158D01*
X65684010Y-88403411D01*
X65846525Y-88646632D01*
X66053368Y-88853475D01*
X66227760Y-88970000D01*
X66053368Y-89086525D01*
X65846525Y-89293368D01*
X65684010Y-89536589D01*
X65572068Y-89806842D01*
X65515000Y-90093740D01*
X65515000Y-90386260D01*
X65572068Y-90673158D01*
X65684010Y-90943411D01*
X65846525Y-91186632D01*
X66053368Y-91393475D01*
X66227760Y-91510000D01*
X66053368Y-91626525D01*
X65846525Y-91833368D01*
X65684010Y-92076589D01*
X65572068Y-92346842D01*
X65515000Y-92633740D01*
X65515000Y-92926260D01*
X65572068Y-93213158D01*
X65684010Y-93483411D01*
X65846525Y-93726632D01*
X66053368Y-93933475D01*
X66296589Y-94095990D01*
X66566842Y-94207932D01*
X66853740Y-94265000D01*
X67146260Y-94265000D01*
X67433158Y-94207932D01*
X67703411Y-94095990D01*
X67946632Y-93933475D01*
X68153475Y-93726632D01*
X68191983Y-93669000D01*
X68348017Y-93669000D01*
X68386525Y-93726632D01*
X68593368Y-93933475D01*
X68836589Y-94095990D01*
X69106842Y-94207932D01*
X69393740Y-94265000D01*
X69686260Y-94265000D01*
X69973158Y-94207932D01*
X70243411Y-94095990D01*
X70486632Y-93933475D01*
X70693475Y-93726632D01*
X70855990Y-93483411D01*
X70967932Y-93213158D01*
X71025000Y-92926260D01*
X71025000Y-92633740D01*
X70967932Y-92346842D01*
X70855990Y-92076589D01*
X70693475Y-91833368D01*
X70486632Y-91626525D01*
X70312240Y-91510000D01*
X70486632Y-91393475D01*
X70693475Y-91186632D01*
X70855990Y-90943411D01*
X70967932Y-90673158D01*
X71025000Y-90386260D01*
X71025000Y-90093740D01*
X70967932Y-89806842D01*
X70855990Y-89536589D01*
X70693475Y-89293368D01*
X70486632Y-89086525D01*
X70312240Y-88970000D01*
X70486632Y-88853475D01*
X70693475Y-88646632D01*
X70855990Y-88403411D01*
X70967932Y-88133158D01*
X71025000Y-87846260D01*
X71025000Y-87553740D01*
X70967932Y-87266842D01*
X70855990Y-86996589D01*
X70693475Y-86753368D01*
X70486632Y-86546525D01*
X70312240Y-86430000D01*
X70486632Y-86313475D01*
X70693475Y-86106632D01*
X70855990Y-85863411D01*
X70967932Y-85593158D01*
X71025000Y-85306260D01*
X71025000Y-85013740D01*
X70967932Y-84726842D01*
X70855990Y-84456589D01*
X70693475Y-84213368D01*
X70486632Y-84006525D01*
X70312240Y-83890000D01*
X70486632Y-83773475D01*
X70693475Y-83566632D01*
X70855990Y-83323411D01*
X70967932Y-83053158D01*
X71025000Y-82766260D01*
X71025000Y-82473740D01*
X70967932Y-82186842D01*
X70855990Y-81916589D01*
X70693475Y-81673368D01*
X70486632Y-81466525D01*
X70312240Y-81350000D01*
X70486632Y-81233475D01*
X70693475Y-81026632D01*
X70855990Y-80783411D01*
X70967932Y-80513158D01*
X71025000Y-80226260D01*
X71025000Y-79933740D01*
X70967932Y-79646842D01*
X70855990Y-79376589D01*
X70693475Y-79133368D01*
X70486632Y-78926525D01*
X70312240Y-78810000D01*
X70486632Y-78693475D01*
X70693475Y-78486632D01*
X70855990Y-78243411D01*
X70967932Y-77973158D01*
X71025000Y-77686260D01*
X71025000Y-77393740D01*
X70967932Y-77106842D01*
X70855990Y-76836589D01*
X70693475Y-76593368D01*
X70486632Y-76386525D01*
X70312240Y-76270000D01*
X70486632Y-76153475D01*
X70693475Y-75946632D01*
X70855990Y-75703411D01*
X70967932Y-75433158D01*
X71025000Y-75146260D01*
X71025000Y-74853740D01*
X70967932Y-74566842D01*
X70855990Y-74296589D01*
X70693475Y-74053368D01*
X70486632Y-73846525D01*
X70243411Y-73684010D01*
X69973158Y-73572068D01*
X69686260Y-73515000D01*
X69393740Y-73515000D01*
X69106842Y-73572068D01*
X68836589Y-73684010D01*
X68593368Y-73846525D01*
X68406285Y-74033608D01*
X68338405Y-73906614D01*
X68227962Y-73772038D01*
X68093386Y-73661595D01*
X67939850Y-73579528D01*
X67773254Y-73528992D01*
X67600000Y-73511928D01*
X66400000Y-73511928D01*
X66226746Y-73528992D01*
X66060150Y-73579528D01*
X65906614Y-73661595D01*
X65772038Y-73772038D01*
X65661595Y-73906614D01*
X65579528Y-74060150D01*
X65528992Y-74226746D01*
X65511928Y-74400000D01*
X62660000Y-74400000D01*
X62660000Y-63200000D01*
X63311928Y-63200000D01*
X63311928Y-64800000D01*
X63324188Y-64924482D01*
X63360498Y-65044180D01*
X63419463Y-65154494D01*
X63498815Y-65251185D01*
X63595506Y-65330537D01*
X63705820Y-65389502D01*
X63825518Y-65425812D01*
X63950000Y-65438072D01*
X65550000Y-65438072D01*
X65674482Y-65425812D01*
X65794180Y-65389502D01*
X65904494Y-65330537D01*
X66001185Y-65251185D01*
X66080537Y-65154494D01*
X66139502Y-65044180D01*
X66155117Y-64992702D01*
X66436903Y-64992702D01*
X66508486Y-65236671D01*
X66763996Y-65357571D01*
X67038184Y-65426300D01*
X67320512Y-65440217D01*
X67600130Y-65398787D01*
X67866292Y-65303603D01*
X67991514Y-65236671D01*
X68063097Y-64992702D01*
X69936903Y-64992702D01*
X70008486Y-65236671D01*
X70263996Y-65357571D01*
X70538184Y-65426300D01*
X70820512Y-65440217D01*
X71100130Y-65398787D01*
X71366292Y-65303603D01*
X71491514Y-65236671D01*
X71563097Y-64992702D01*
X70750000Y-64179605D01*
X69936903Y-64992702D01*
X68063097Y-64992702D01*
X67250000Y-64179605D01*
X66436903Y-64992702D01*
X66155117Y-64992702D01*
X66175812Y-64924482D01*
X66188072Y-64800000D01*
X66188072Y-64792785D01*
X66257298Y-64813097D01*
X67070395Y-64000000D01*
X67429605Y-64000000D01*
X68242702Y-64813097D01*
X68486671Y-64741514D01*
X68607571Y-64486004D01*
X68676300Y-64211816D01*
X68683265Y-64070512D01*
X69309783Y-64070512D01*
X69351213Y-64350130D01*
X69446397Y-64616292D01*
X69513329Y-64741514D01*
X69757298Y-64813097D01*
X70570395Y-64000000D01*
X70929605Y-64000000D01*
X71742702Y-64813097D01*
X71811928Y-64792785D01*
X71811928Y-64800000D01*
X71824188Y-64924482D01*
X71860498Y-65044180D01*
X71919463Y-65154494D01*
X71998815Y-65251185D01*
X72095506Y-65330537D01*
X72205820Y-65389502D01*
X72325518Y-65425812D01*
X72450000Y-65438072D01*
X74050000Y-65438072D01*
X74174482Y-65425812D01*
X74294180Y-65389502D01*
X74404494Y-65330537D01*
X74501185Y-65251185D01*
X74580537Y-65154494D01*
X74639502Y-65044180D01*
X74675812Y-64924482D01*
X74688072Y-64800000D01*
X74688072Y-63200000D01*
X74675812Y-63075518D01*
X74639502Y-62955820D01*
X74580537Y-62845506D01*
X74501185Y-62748815D01*
X74404494Y-62669463D01*
X74294180Y-62610498D01*
X74174482Y-62574188D01*
X74050000Y-62561928D01*
X72450000Y-62561928D01*
X72325518Y-62574188D01*
X72205820Y-62610498D01*
X72095506Y-62669463D01*
X71998815Y-62748815D01*
X71919463Y-62845506D01*
X71860498Y-62955820D01*
X71824188Y-63075518D01*
X71811928Y-63200000D01*
X71811928Y-63207215D01*
X71742702Y-63186903D01*
X70929605Y-64000000D01*
X70570395Y-64000000D01*
X69757298Y-63186903D01*
X69513329Y-63258486D01*
X69392429Y-63513996D01*
X69323700Y-63788184D01*
X69309783Y-64070512D01*
X68683265Y-64070512D01*
X68690217Y-63929488D01*
X68648787Y-63649870D01*
X68553603Y-63383708D01*
X68486671Y-63258486D01*
X68242702Y-63186903D01*
X67429605Y-64000000D01*
X67070395Y-64000000D01*
X66257298Y-63186903D01*
X66188072Y-63207215D01*
X66188072Y-63200000D01*
X66175812Y-63075518D01*
X66155118Y-63007298D01*
X66436903Y-63007298D01*
X67250000Y-63820395D01*
X68063097Y-63007298D01*
X69936903Y-63007298D01*
X70750000Y-63820395D01*
X71563097Y-63007298D01*
X71491514Y-62763329D01*
X71236004Y-62642429D01*
X70961816Y-62573700D01*
X70679488Y-62559783D01*
X70399870Y-62601213D01*
X70133708Y-62696397D01*
X70008486Y-62763329D01*
X69936903Y-63007298D01*
X68063097Y-63007298D01*
X67991514Y-62763329D01*
X67736004Y-62642429D01*
X67461816Y-62573700D01*
X67179488Y-62559783D01*
X66899870Y-62601213D01*
X66633708Y-62696397D01*
X66508486Y-62763329D01*
X66436903Y-63007298D01*
X66155118Y-63007298D01*
X66139502Y-62955820D01*
X66080537Y-62845506D01*
X66001185Y-62748815D01*
X65904494Y-62669463D01*
X65794180Y-62610498D01*
X65674482Y-62574188D01*
X65550000Y-62561928D01*
X63950000Y-62561928D01*
X63825518Y-62574188D01*
X63705820Y-62610498D01*
X63595506Y-62669463D01*
X63498815Y-62748815D01*
X63419463Y-62845506D01*
X63360498Y-62955820D01*
X63324188Y-63075518D01*
X63311928Y-63200000D01*
X62660000Y-63200000D01*
X62660000Y-56413469D01*
X64160048Y-56413469D01*
X64160048Y-56686291D01*
X64213273Y-56953869D01*
X64317677Y-57205923D01*
X64469249Y-57432766D01*
X64662162Y-57625679D01*
X64889005Y-57777251D01*
X65141059Y-57881655D01*
X65408637Y-57934880D01*
X65681459Y-57934880D01*
X65949037Y-57881655D01*
X66201091Y-57777251D01*
X66427934Y-57625679D01*
X66546740Y-57506873D01*
X67307660Y-57506873D01*
X67373185Y-57745740D01*
X67620164Y-57861640D01*
X67885008Y-57927130D01*
X68157540Y-57939692D01*
X68427286Y-57898845D01*
X68683880Y-57806157D01*
X68796911Y-57745740D01*
X68862436Y-57506873D01*
X68085048Y-56729485D01*
X67307660Y-57506873D01*
X66546740Y-57506873D01*
X66620847Y-57432766D01*
X66772419Y-57205923D01*
X66813559Y-57106601D01*
X66828771Y-57148712D01*
X66889188Y-57261743D01*
X67128055Y-57327268D01*
X67905443Y-56549880D01*
X68264653Y-56549880D01*
X69042041Y-57327268D01*
X69236976Y-57273794D01*
X69236976Y-57299880D01*
X69249236Y-57424362D01*
X69285546Y-57544060D01*
X69344511Y-57654374D01*
X69423863Y-57751065D01*
X69520554Y-57830417D01*
X69630868Y-57889382D01*
X69750566Y-57925692D01*
X69875048Y-57937952D01*
X71375048Y-57937952D01*
X71499530Y-57925692D01*
X71619228Y-57889382D01*
X71729542Y-57830417D01*
X71826233Y-57751065D01*
X71905585Y-57654374D01*
X71964550Y-57544060D01*
X72000860Y-57424362D01*
X72013120Y-57299880D01*
X72013120Y-55799880D01*
X72000860Y-55675398D01*
X71964550Y-55555700D01*
X71905585Y-55445386D01*
X71826233Y-55348695D01*
X71729542Y-55269343D01*
X71619228Y-55210378D01*
X71499530Y-55174068D01*
X71375048Y-55161808D01*
X69875048Y-55161808D01*
X69750566Y-55174068D01*
X69630868Y-55210378D01*
X69520554Y-55269343D01*
X69423863Y-55348695D01*
X69344511Y-55445386D01*
X69285546Y-55555700D01*
X69249236Y-55675398D01*
X69236976Y-55799880D01*
X69236976Y-55825966D01*
X69042041Y-55772492D01*
X68264653Y-56549880D01*
X67905443Y-56549880D01*
X67891301Y-56535738D01*
X68070906Y-56356133D01*
X68085048Y-56370275D01*
X68252027Y-56203296D01*
X68357894Y-56171182D01*
X68512334Y-56088632D01*
X68647702Y-55977538D01*
X68675542Y-55943615D01*
X76165237Y-48453920D01*
X76199160Y-48426080D01*
X76310254Y-48290712D01*
X76392804Y-48136272D01*
X76423132Y-48036292D01*
X76443637Y-47968697D01*
X76452190Y-47881853D01*
X76456501Y-47838088D01*
X76456501Y-47838082D01*
X76460801Y-47794422D01*
X76456501Y-47750762D01*
X76456501Y-46878044D01*
X76506218Y-46714150D01*
X76520001Y-46574212D01*
X76520001Y-43377135D01*
X78975124Y-40922012D01*
X78978320Y-40929727D01*
X79135363Y-41164759D01*
X79335241Y-41364637D01*
X79570273Y-41521680D01*
X79831426Y-41629853D01*
X80108665Y-41685000D01*
X80160999Y-41685000D01*
X80160999Y-43561928D01*
X77800000Y-43561928D01*
X77675518Y-43574188D01*
X77555820Y-43610498D01*
X77445506Y-43669463D01*
X77348815Y-43748815D01*
X77269463Y-43845506D01*
X77210498Y-43955820D01*
X77174188Y-44075518D01*
X77161928Y-44200000D01*
X77161928Y-45800000D01*
X77174188Y-45924482D01*
X77210498Y-46044180D01*
X77269463Y-46154494D01*
X77348815Y-46251185D01*
X77445506Y-46330537D01*
X77555820Y-46389502D01*
X77675518Y-46425812D01*
X77693482Y-46427581D01*
X77580392Y-46520392D01*
X77401068Y-46738899D01*
X77267818Y-46988192D01*
X77185764Y-47258691D01*
X77158057Y-47540000D01*
X77185764Y-47821309D01*
X77267818Y-48091808D01*
X77401068Y-48341101D01*
X77580392Y-48559608D01*
X77798899Y-48738932D01*
X77931858Y-48810000D01*
X77798899Y-48881068D01*
X77580392Y-49060392D01*
X77401068Y-49278899D01*
X77267818Y-49528192D01*
X77185764Y-49798691D01*
X77158057Y-50080000D01*
X77185764Y-50361309D01*
X77267818Y-50631808D01*
X77401068Y-50881101D01*
X77580392Y-51099608D01*
X77798899Y-51278932D01*
X77931858Y-51350000D01*
X77798899Y-51421068D01*
X77580392Y-51600392D01*
X77401068Y-51818899D01*
X77267818Y-52068192D01*
X77185764Y-52338691D01*
X77158057Y-52620000D01*
X77185764Y-52901309D01*
X77249929Y-53112836D01*
X76748254Y-53614511D01*
X76714331Y-53642351D01*
X76655738Y-53713747D01*
X76603238Y-53777719D01*
X76520688Y-53932158D01*
X76483425Y-54055000D01*
X76469854Y-54099737D01*
X76456990Y-54230344D01*
X76456990Y-54230350D01*
X76452690Y-54274010D01*
X76456990Y-54317670D01*
X76456991Y-63702457D01*
X73278234Y-66881214D01*
X73244311Y-66909054D01*
X73133217Y-67044423D01*
X73061328Y-67178918D01*
X73050668Y-67198861D01*
X73008362Y-67338328D01*
X72999834Y-67366440D01*
X72986970Y-67497047D01*
X72986970Y-67497053D01*
X72982670Y-67540713D01*
X72986970Y-67584373D01*
X72986971Y-103295793D01*
X69754242Y-106528523D01*
X69686260Y-106515000D01*
X69393740Y-106515000D01*
X69106842Y-106572068D01*
X68836589Y-106684010D01*
X68593368Y-106846525D01*
X68406285Y-107033608D01*
X68338405Y-106906614D01*
X68227962Y-106772038D01*
X68093386Y-106661595D01*
X67939850Y-106579528D01*
X67773254Y-106528992D01*
X67600000Y-106511928D01*
X66400000Y-106511928D01*
X66226746Y-106528992D01*
X66060150Y-106579528D01*
X65906614Y-106661595D01*
X65772038Y-106772038D01*
X65661595Y-106906614D01*
X65579528Y-107060150D01*
X65528992Y-107226746D01*
X65511928Y-107400000D01*
X65511928Y-108600000D01*
X65528992Y-108773254D01*
X65579528Y-108939850D01*
X65661595Y-109093386D01*
X65772038Y-109227962D01*
X65906614Y-109338405D01*
X66033608Y-109406285D01*
X65846525Y-109593368D01*
X65684010Y-109836589D01*
X65572068Y-110106842D01*
X65515000Y-110393740D01*
X65515000Y-110686260D01*
X65572068Y-110973158D01*
X65684010Y-111243411D01*
X65846525Y-111486632D01*
X66053368Y-111693475D01*
X66227760Y-111810000D01*
X66053368Y-111926525D01*
X65846525Y-112133368D01*
X65684010Y-112376589D01*
X65572068Y-112646842D01*
X65515000Y-112933740D01*
X65515000Y-113226260D01*
X65572068Y-113513158D01*
X65684010Y-113783411D01*
X65846525Y-114026632D01*
X66053368Y-114233475D01*
X66227760Y-114350000D01*
X66053368Y-114466525D01*
X65846525Y-114673368D01*
X65684010Y-114916589D01*
X65572068Y-115186842D01*
X65515000Y-115473740D01*
X65515000Y-115766260D01*
X65572068Y-116053158D01*
X65684010Y-116323411D01*
X65846525Y-116566632D01*
X66053368Y-116773475D01*
X66227760Y-116890000D01*
X66053368Y-117006525D01*
X65846525Y-117213368D01*
X65684010Y-117456589D01*
X65572068Y-117726842D01*
X65515000Y-118013740D01*
X65515000Y-118306260D01*
X65572068Y-118593158D01*
X65684010Y-118863411D01*
X65846525Y-119106632D01*
X66053368Y-119313475D01*
X66227760Y-119430000D01*
X66053368Y-119546525D01*
X65846525Y-119753368D01*
X65684010Y-119996589D01*
X65572068Y-120266842D01*
X65515000Y-120553740D01*
X65515000Y-120846260D01*
X65572068Y-121133158D01*
X65684010Y-121403411D01*
X65846525Y-121646632D01*
X66053368Y-121853475D01*
X66227760Y-121970000D01*
X66053368Y-122086525D01*
X65846525Y-122293368D01*
X65684010Y-122536589D01*
X65572068Y-122806842D01*
X65515000Y-123093740D01*
X65515000Y-123386260D01*
X65572068Y-123673158D01*
X65684010Y-123943411D01*
X65846525Y-124186632D01*
X66053368Y-124393475D01*
X66227760Y-124510000D01*
X66053368Y-124626525D01*
X65846525Y-124833368D01*
X65684010Y-125076589D01*
X65572068Y-125346842D01*
X65515000Y-125633740D01*
X65515000Y-125926260D01*
X65572068Y-126213158D01*
X65684010Y-126483411D01*
X65846525Y-126726632D01*
X66053368Y-126933475D01*
X66296589Y-127095990D01*
X66566842Y-127207932D01*
X66853740Y-127265000D01*
X67146260Y-127265000D01*
X67433158Y-127207932D01*
X67703411Y-127095990D01*
X67946632Y-126933475D01*
X68153475Y-126726632D01*
X68270000Y-126552240D01*
X68386525Y-126726632D01*
X68593368Y-126933475D01*
X68651000Y-126971984D01*
X68651000Y-127909777D01*
X68646700Y-127953437D01*
X68651000Y-127997097D01*
X68651000Y-127997103D01*
X68663864Y-128127710D01*
X68714697Y-128295287D01*
X68797247Y-128449727D01*
X68908341Y-128585096D01*
X68942264Y-128612936D01*
X77421079Y-137091752D01*
X77448914Y-137125669D01*
X77584282Y-137236763D01*
X77738722Y-137319313D01*
X77804631Y-137339306D01*
X77906297Y-137370146D01*
X77939497Y-137373416D01*
X78036906Y-137383010D01*
X78036912Y-137383010D01*
X78080572Y-137387310D01*
X78124232Y-137383010D01*
X79875767Y-137383010D01*
X79919427Y-137387310D01*
X79963087Y-137383010D01*
X79963094Y-137383010D01*
X80093701Y-137370146D01*
X80261278Y-137319313D01*
X80415718Y-137236763D01*
X80551086Y-137125669D01*
X80578926Y-137091746D01*
X84795327Y-132875346D01*
X84805764Y-132981309D01*
X84887818Y-133251808D01*
X85021068Y-133501101D01*
X85200392Y-133719608D01*
X85418899Y-133898932D01*
X85551858Y-133970000D01*
X85418899Y-134041068D01*
X85200392Y-134220392D01*
X85021068Y-134438899D01*
X84887818Y-134688192D01*
X84805764Y-134958691D01*
X84778057Y-135240000D01*
X84805764Y-135521309D01*
X84887818Y-135791808D01*
X85021068Y-136041101D01*
X85200392Y-136259608D01*
X85418899Y-136438932D01*
X85668192Y-136572182D01*
X85938691Y-136654236D01*
X86149508Y-136675000D01*
X87090492Y-136675000D01*
X87301309Y-136654236D01*
X87571808Y-136572182D01*
X87821101Y-136438932D01*
X88039608Y-136259608D01*
X88218932Y-136041101D01*
X88352182Y-135791808D01*
X88434236Y-135521309D01*
X88461943Y-135240000D01*
X88434236Y-134958691D01*
X88352182Y-134688192D01*
X88218932Y-134438899D01*
X88039608Y-134220392D01*
X87821101Y-134041068D01*
X87688142Y-133970000D01*
X87821101Y-133898932D01*
X88039608Y-133719608D01*
X88218932Y-133501101D01*
X88352182Y-133251808D01*
X88434236Y-132981309D01*
X88461943Y-132700000D01*
X88434236Y-132418691D01*
X88352182Y-132148192D01*
X88218932Y-131898899D01*
X88039608Y-131680392D01*
X87821101Y-131501068D01*
X87688142Y-131430000D01*
X87821101Y-131358932D01*
X88039608Y-131179608D01*
X88218932Y-130961101D01*
X88352182Y-130711808D01*
X88434236Y-130441309D01*
X88461943Y-130160000D01*
X88434236Y-129878691D01*
X88352182Y-129608192D01*
X88218932Y-129358899D01*
X88039608Y-129140392D01*
X87821101Y-128961068D01*
X87688142Y-128890000D01*
X87821101Y-128818932D01*
X88039608Y-128639608D01*
X88218932Y-128421101D01*
X88352182Y-128171808D01*
X88434236Y-127901309D01*
X88461943Y-127620000D01*
X88434236Y-127338691D01*
X88408846Y-127254990D01*
X88697755Y-127254990D01*
X90271044Y-128828280D01*
X90265000Y-128858665D01*
X90265000Y-129141335D01*
X90320147Y-129418574D01*
X90428320Y-129679727D01*
X90585363Y-129914759D01*
X90785241Y-130114637D01*
X90811001Y-130131849D01*
X90811000Y-131118151D01*
X90785241Y-131135363D01*
X90585363Y-131335241D01*
X90428320Y-131570273D01*
X90320147Y-131831426D01*
X90265000Y-132108665D01*
X90265000Y-132391335D01*
X90320147Y-132668574D01*
X90428320Y-132929727D01*
X90585363Y-133164759D01*
X90785241Y-133364637D01*
X91020273Y-133521680D01*
X91281426Y-133629853D01*
X91558665Y-133685000D01*
X91841335Y-133685000D01*
X92118574Y-133629853D01*
X92379727Y-133521680D01*
X92614759Y-133364637D01*
X92814637Y-133164759D01*
X92971680Y-132929727D01*
X93079853Y-132668574D01*
X93135000Y-132391335D01*
X93135000Y-132108665D01*
X93079853Y-131831426D01*
X92971680Y-131570273D01*
X92814637Y-131335241D01*
X92614759Y-131135363D01*
X92589000Y-131118151D01*
X92589000Y-130131849D01*
X92614759Y-130114637D01*
X92814637Y-129914759D01*
X92971680Y-129679727D01*
X93079853Y-129418574D01*
X93135000Y-129141335D01*
X93135000Y-128858665D01*
X93079853Y-128581426D01*
X92971680Y-128320273D01*
X92814637Y-128085241D01*
X92614759Y-127885363D01*
X92379727Y-127728320D01*
X92118574Y-127620147D01*
X91841335Y-127565000D01*
X91558665Y-127565000D01*
X91528280Y-127571044D01*
X89926235Y-125969000D01*
X97571765Y-125969000D01*
X100431044Y-128828280D01*
X100425000Y-128858665D01*
X100425000Y-129141335D01*
X100480147Y-129418574D01*
X100588320Y-129679727D01*
X100745363Y-129914759D01*
X100945241Y-130114637D01*
X101180273Y-130271680D01*
X101441426Y-130379853D01*
X101718665Y-130435000D01*
X102001335Y-130435000D01*
X102225002Y-130390509D01*
X102225002Y-130627762D01*
X102031720Y-130821044D01*
X102001335Y-130815000D01*
X101718665Y-130815000D01*
X101441426Y-130870147D01*
X101180273Y-130978320D01*
X100945241Y-131135363D01*
X100745363Y-131335241D01*
X100588320Y-131570273D01*
X100480147Y-131831426D01*
X100425000Y-132108665D01*
X100425000Y-132391335D01*
X100480147Y-132668574D01*
X100588320Y-132929727D01*
X100745363Y-133164759D01*
X100945241Y-133364637D01*
X101180273Y-133521680D01*
X101441426Y-133629853D01*
X101718665Y-133685000D01*
X102001335Y-133685000D01*
X102278574Y-133629853D01*
X102539727Y-133521680D01*
X102774759Y-133364637D01*
X102974637Y-133164759D01*
X103131680Y-132929727D01*
X103239853Y-132668574D01*
X103295000Y-132391335D01*
X103295000Y-132108665D01*
X103288956Y-132078280D01*
X103711742Y-131655493D01*
X103745660Y-131627658D01*
X103856754Y-131492290D01*
X103939304Y-131337850D01*
X103961402Y-131265000D01*
X103990137Y-131170275D01*
X103996507Y-131105595D01*
X104003001Y-131039666D01*
X104003001Y-131039660D01*
X104007301Y-130996000D01*
X104003001Y-130952340D01*
X104003001Y-127777661D01*
X104007301Y-127734001D01*
X104003001Y-127690341D01*
X104003001Y-127690334D01*
X103990137Y-127559727D01*
X103939304Y-127392150D01*
X103856754Y-127237710D01*
X103745660Y-127102342D01*
X103711744Y-127074508D01*
X100144399Y-123507163D01*
X100714250Y-123505000D01*
X100873000Y-123346250D01*
X100873000Y-122127000D01*
X101127000Y-122127000D01*
X101127000Y-123346250D01*
X101285750Y-123505000D01*
X102095000Y-123508072D01*
X102219482Y-123495812D01*
X102339180Y-123459502D01*
X102449494Y-123400537D01*
X102546185Y-123321185D01*
X102625537Y-123224494D01*
X102684502Y-123114180D01*
X102720812Y-122994482D01*
X102733072Y-122870000D01*
X102730000Y-122285750D01*
X102571250Y-122127000D01*
X101127000Y-122127000D01*
X100873000Y-122127000D01*
X100853000Y-122127000D01*
X100853000Y-121873000D01*
X100873000Y-121873000D01*
X100873000Y-121853000D01*
X101127000Y-121853000D01*
X101127000Y-121873000D01*
X102571250Y-121873000D01*
X102730000Y-121714250D01*
X102733072Y-121130000D01*
X102720812Y-121005518D01*
X102684502Y-120885820D01*
X102625537Y-120775506D01*
X102546185Y-120678815D01*
X102449494Y-120599463D01*
X102339180Y-120540498D01*
X102295953Y-120527385D01*
X102482417Y-120300179D01*
X102622166Y-120038725D01*
X102708224Y-119755032D01*
X102737282Y-119460000D01*
X102708224Y-119164968D01*
X102622166Y-118881275D01*
X102482417Y-118619821D01*
X102294345Y-118390655D01*
X102065179Y-118202583D01*
X102041638Y-118190000D01*
X102065179Y-118177417D01*
X102294345Y-117989345D01*
X102482417Y-117760179D01*
X102622166Y-117498725D01*
X102708224Y-117215032D01*
X102737282Y-116920000D01*
X102708224Y-116624968D01*
X102671926Y-116505310D01*
X103146753Y-116030483D01*
X103180669Y-116002649D01*
X103291763Y-115867281D01*
X103374313Y-115712841D01*
X103411014Y-115591852D01*
X103425146Y-115545265D01*
X103427355Y-115522834D01*
X103438010Y-115414657D01*
X103438010Y-115414650D01*
X103442310Y-115370990D01*
X103438010Y-115327330D01*
X103438010Y-113875237D01*
X103442310Y-113831577D01*
X103438010Y-113787917D01*
X103438010Y-113787911D01*
X103425146Y-113657304D01*
X103424904Y-113656504D01*
X103393172Y-113551898D01*
X103374313Y-113489727D01*
X103291763Y-113335287D01*
X103180669Y-113199919D01*
X103146752Y-113172084D01*
X96836931Y-106862264D01*
X96809091Y-106828341D01*
X96673723Y-106717247D01*
X96519283Y-106634697D01*
X96351706Y-106583864D01*
X96221099Y-106571000D01*
X96221092Y-106571000D01*
X96177432Y-106566700D01*
X96133772Y-106571000D01*
X92072468Y-106571000D01*
X92030256Y-106542795D01*
X91841898Y-106464774D01*
X91792105Y-106454870D01*
X89163010Y-103825775D01*
X89163010Y-101777669D01*
X89167310Y-101734009D01*
X89163010Y-101690344D01*
X89163010Y-101690343D01*
X89150146Y-101559736D01*
X89150146Y-101559734D01*
X89099312Y-101392157D01*
X89095599Y-101385210D01*
X89016763Y-101237719D01*
X88905669Y-101102351D01*
X88871747Y-101074512D01*
X88370071Y-100572836D01*
X88434236Y-100361309D01*
X88461943Y-100080000D01*
X88434236Y-99798691D01*
X88352182Y-99528192D01*
X88218932Y-99278899D01*
X88039608Y-99060392D01*
X87821101Y-98881068D01*
X87688142Y-98810000D01*
X87821101Y-98738932D01*
X88039608Y-98559608D01*
X88218932Y-98341101D01*
X88352182Y-98091808D01*
X88434236Y-97821309D01*
X88461943Y-97540000D01*
X88434236Y-97258691D01*
X88352182Y-96988192D01*
X88218932Y-96738899D01*
X88039608Y-96520392D01*
X87821101Y-96341068D01*
X87688142Y-96270000D01*
X87821101Y-96198932D01*
X88039608Y-96019608D01*
X88218932Y-95801101D01*
X88352182Y-95551808D01*
X88434236Y-95281309D01*
X88461943Y-95000000D01*
X88434236Y-94718691D01*
X88352182Y-94448192D01*
X88218932Y-94198899D01*
X88039608Y-93980392D01*
X87821101Y-93801068D01*
X87571808Y-93667818D01*
X87301309Y-93585764D01*
X87090492Y-93565000D01*
X86442235Y-93565000D01*
X86139000Y-93261765D01*
X86139000Y-91381849D01*
X86164759Y-91364637D01*
X86364637Y-91164759D01*
X86521680Y-90929727D01*
X86629853Y-90668574D01*
X86685000Y-90391335D01*
X86685000Y-90108665D01*
X86678956Y-90078279D01*
X89579756Y-87177479D01*
X89613679Y-87149639D01*
X89724773Y-87014271D01*
X89807323Y-86859831D01*
X89852270Y-86711659D01*
X89858156Y-86692256D01*
X89868578Y-86586437D01*
X89871020Y-86561647D01*
X89871020Y-86561641D01*
X89875320Y-86517981D01*
X89871020Y-86474321D01*
X89871020Y-80400000D01*
X97511928Y-80400000D01*
X97511928Y-81600000D01*
X97528992Y-81773254D01*
X97579528Y-81939850D01*
X97661595Y-82093386D01*
X97772038Y-82227962D01*
X97906614Y-82338405D01*
X98033608Y-82406285D01*
X97846525Y-82593368D01*
X97684010Y-82836589D01*
X97572068Y-83106842D01*
X97515000Y-83393740D01*
X97515000Y-83686260D01*
X97572068Y-83973158D01*
X97684010Y-84243411D01*
X97846525Y-84486632D01*
X98053368Y-84693475D01*
X98227760Y-84810000D01*
X98053368Y-84926525D01*
X97846525Y-85133368D01*
X97684010Y-85376589D01*
X97572068Y-85646842D01*
X97515000Y-85933740D01*
X97515000Y-86226260D01*
X97572068Y-86513158D01*
X97684010Y-86783411D01*
X97846525Y-87026632D01*
X98053368Y-87233475D01*
X98227760Y-87350000D01*
X98053368Y-87466525D01*
X97846525Y-87673368D01*
X97684010Y-87916589D01*
X97572068Y-88186842D01*
X97515000Y-88473740D01*
X97515000Y-88766260D01*
X97572068Y-89053158D01*
X97684010Y-89323411D01*
X97846525Y-89566632D01*
X98053368Y-89773475D01*
X98227760Y-89890000D01*
X98053368Y-90006525D01*
X97846525Y-90213368D01*
X97684010Y-90456589D01*
X97572068Y-90726842D01*
X97515000Y-91013740D01*
X97515000Y-91306260D01*
X97572068Y-91593158D01*
X97684010Y-91863411D01*
X97846525Y-92106632D01*
X98053368Y-92313475D01*
X98227760Y-92430000D01*
X98053368Y-92546525D01*
X97846525Y-92753368D01*
X97684010Y-92996589D01*
X97572068Y-93266842D01*
X97515000Y-93553740D01*
X97515000Y-93846260D01*
X97572068Y-94133158D01*
X97684010Y-94403411D01*
X97846525Y-94646632D01*
X98053368Y-94853475D01*
X98227760Y-94970000D01*
X98053368Y-95086525D01*
X97846525Y-95293368D01*
X97684010Y-95536589D01*
X97572068Y-95806842D01*
X97515000Y-96093740D01*
X97515000Y-96386260D01*
X97572068Y-96673158D01*
X97684010Y-96943411D01*
X97846525Y-97186632D01*
X98053368Y-97393475D01*
X98227760Y-97510000D01*
X98053368Y-97626525D01*
X97846525Y-97833368D01*
X97684010Y-98076589D01*
X97572068Y-98346842D01*
X97515000Y-98633740D01*
X97515000Y-98926260D01*
X97572068Y-99213158D01*
X97684010Y-99483411D01*
X97846525Y-99726632D01*
X98053368Y-99933475D01*
X98296589Y-100095990D01*
X98566842Y-100207932D01*
X98853740Y-100265000D01*
X99146260Y-100265000D01*
X99433158Y-100207932D01*
X99703411Y-100095990D01*
X99946632Y-99933475D01*
X100153475Y-99726632D01*
X100191983Y-99669000D01*
X100348017Y-99669000D01*
X100386525Y-99726632D01*
X100593368Y-99933475D01*
X100836589Y-100095990D01*
X101106842Y-100207932D01*
X101393740Y-100265000D01*
X101686260Y-100265000D01*
X101973158Y-100207932D01*
X102243411Y-100095990D01*
X102486632Y-99933475D01*
X102693475Y-99726632D01*
X102855990Y-99483411D01*
X102967932Y-99213158D01*
X103025000Y-98926260D01*
X103025000Y-98633740D01*
X102967932Y-98346842D01*
X102855990Y-98076589D01*
X102693475Y-97833368D01*
X102486632Y-97626525D01*
X102312240Y-97510000D01*
X102486632Y-97393475D01*
X102693475Y-97186632D01*
X102855990Y-96943411D01*
X102967932Y-96673158D01*
X103025000Y-96386260D01*
X103025000Y-96093740D01*
X102967932Y-95806842D01*
X102855990Y-95536589D01*
X102693475Y-95293368D01*
X102486632Y-95086525D01*
X102312240Y-94970000D01*
X102486632Y-94853475D01*
X102693475Y-94646632D01*
X102855990Y-94403411D01*
X102967932Y-94133158D01*
X103025000Y-93846260D01*
X103025000Y-93553740D01*
X102967932Y-93266842D01*
X102855990Y-92996589D01*
X102693475Y-92753368D01*
X102486632Y-92546525D01*
X102312240Y-92430000D01*
X102486632Y-92313475D01*
X102693475Y-92106632D01*
X102855990Y-91863411D01*
X102967932Y-91593158D01*
X103025000Y-91306260D01*
X103025000Y-91013740D01*
X102967932Y-90726842D01*
X102855990Y-90456589D01*
X102693475Y-90213368D01*
X102486632Y-90006525D01*
X102312240Y-89890000D01*
X102486632Y-89773475D01*
X102693475Y-89566632D01*
X102855990Y-89323411D01*
X102967932Y-89053158D01*
X103025000Y-88766260D01*
X103025000Y-88473740D01*
X102967932Y-88186842D01*
X102855990Y-87916589D01*
X102693475Y-87673368D01*
X102486632Y-87466525D01*
X102312240Y-87350000D01*
X102486632Y-87233475D01*
X102693475Y-87026632D01*
X102855990Y-86783411D01*
X102967932Y-86513158D01*
X103025000Y-86226260D01*
X103025000Y-85933740D01*
X102967932Y-85646842D01*
X102855990Y-85376589D01*
X102693475Y-85133368D01*
X102486632Y-84926525D01*
X102312240Y-84810000D01*
X102486632Y-84693475D01*
X102693475Y-84486632D01*
X102855990Y-84243411D01*
X102967932Y-83973158D01*
X103025000Y-83686260D01*
X103025000Y-83393740D01*
X102967932Y-83106842D01*
X102855990Y-82836589D01*
X102693475Y-82593368D01*
X102486632Y-82386525D01*
X102312240Y-82270000D01*
X102486632Y-82153475D01*
X102693475Y-81946632D01*
X102855990Y-81703411D01*
X102967932Y-81433158D01*
X103025000Y-81146260D01*
X103025000Y-80853740D01*
X102967932Y-80566842D01*
X102855990Y-80296589D01*
X102693475Y-80053368D01*
X102486632Y-79846525D01*
X102243411Y-79684010D01*
X101973158Y-79572068D01*
X101686260Y-79515000D01*
X101393740Y-79515000D01*
X101106842Y-79572068D01*
X100836589Y-79684010D01*
X100593368Y-79846525D01*
X100406285Y-80033608D01*
X100338405Y-79906614D01*
X100227962Y-79772038D01*
X100093386Y-79661595D01*
X99939850Y-79579528D01*
X99773254Y-79528992D01*
X99600000Y-79511928D01*
X98400000Y-79511928D01*
X98226746Y-79528992D01*
X98060150Y-79579528D01*
X97906614Y-79661595D01*
X97772038Y-79772038D01*
X97661595Y-79906614D01*
X97579528Y-80060150D01*
X97528992Y-80226746D01*
X97511928Y-80400000D01*
X89871020Y-80400000D01*
X89871020Y-72405680D01*
X89875320Y-72362020D01*
X89871020Y-72318360D01*
X89871020Y-72318353D01*
X89858156Y-72187746D01*
X89857412Y-72185291D01*
X89836785Y-72117293D01*
X89807323Y-72020169D01*
X89724773Y-71865729D01*
X89613679Y-71730361D01*
X89579763Y-71702527D01*
X88766236Y-70889000D01*
X103119227Y-70889000D01*
X103250113Y-70943215D01*
X103450072Y-70982989D01*
X103653950Y-70982989D01*
X103853909Y-70943215D01*
X104042267Y-70865194D01*
X104211785Y-70751926D01*
X104355948Y-70607763D01*
X104469216Y-70438245D01*
X104547237Y-70249887D01*
X104587011Y-70049928D01*
X104587011Y-69846050D01*
X104547237Y-69646091D01*
X104469216Y-69457733D01*
X104355948Y-69288215D01*
X104211785Y-69144052D01*
X104042267Y-69030784D01*
X103853909Y-68952763D01*
X103653950Y-68912989D01*
X103450072Y-68912989D01*
X103250113Y-68952763D01*
X103061755Y-69030784D01*
X102941703Y-69111000D01*
X88146795Y-69111000D01*
X88039608Y-68980392D01*
X87821101Y-68801068D01*
X87571808Y-68667818D01*
X87301309Y-68585764D01*
X87090492Y-68565000D01*
X86442235Y-68565000D01*
X86139000Y-68261765D01*
X86139000Y-66858665D01*
X90565000Y-66858665D01*
X90565000Y-67141335D01*
X90620147Y-67418574D01*
X90728320Y-67679727D01*
X90885363Y-67914759D01*
X91085241Y-68114637D01*
X91320273Y-68271680D01*
X91581426Y-68379853D01*
X91858665Y-68435000D01*
X92141335Y-68435000D01*
X92418574Y-68379853D01*
X92679727Y-68271680D01*
X92914759Y-68114637D01*
X93114637Y-67914759D01*
X93271680Y-67679727D01*
X93379853Y-67418574D01*
X93435000Y-67141335D01*
X93435000Y-66912038D01*
X99640436Y-60706603D01*
X99676778Y-60676778D01*
X99795806Y-60531741D01*
X99884252Y-60366269D01*
X99938717Y-60186723D01*
X99952500Y-60046785D01*
X99957108Y-60000000D01*
X99952500Y-59953215D01*
X99952500Y-59307607D01*
X100147607Y-59112500D01*
X100392393Y-59112500D01*
X100593368Y-59313475D01*
X100836589Y-59475990D01*
X101106842Y-59587932D01*
X101393740Y-59645000D01*
X101686260Y-59645000D01*
X101973158Y-59587932D01*
X102243411Y-59475990D01*
X102486632Y-59313475D01*
X102693475Y-59106632D01*
X102855990Y-58863411D01*
X102967932Y-58593158D01*
X103025000Y-58306260D01*
X103025000Y-58013740D01*
X102967932Y-57726842D01*
X102855990Y-57456589D01*
X102693475Y-57213368D01*
X102486632Y-57006525D01*
X102313271Y-56890689D01*
X102388792Y-56648397D01*
X101540000Y-55799605D01*
X100691208Y-56648397D01*
X100766729Y-56890689D01*
X100593368Y-57006525D01*
X100392393Y-57207500D01*
X100147607Y-57207500D01*
X99946632Y-57006525D01*
X99773271Y-56890689D01*
X99848792Y-56648397D01*
X99000000Y-55799605D01*
X98151208Y-56648397D01*
X98226729Y-56890689D01*
X98053368Y-57006525D01*
X97846525Y-57213368D01*
X97684010Y-57456589D01*
X97572068Y-57726842D01*
X97515000Y-58013740D01*
X97515000Y-58306260D01*
X97572068Y-58593158D01*
X97684010Y-58863411D01*
X97846525Y-59106632D01*
X98047501Y-59307608D01*
X98047501Y-59605460D01*
X92087962Y-65565000D01*
X91858665Y-65565000D01*
X91581426Y-65620147D01*
X91320273Y-65728320D01*
X91085241Y-65885363D01*
X90885363Y-66085241D01*
X90728320Y-66320273D01*
X90620147Y-66581426D01*
X90565000Y-66858665D01*
X86139000Y-66858665D01*
X86139000Y-66381849D01*
X86164759Y-66364637D01*
X86364637Y-66164759D01*
X86521680Y-65929727D01*
X86629853Y-65668574D01*
X86685000Y-65391335D01*
X86685000Y-65108665D01*
X86629853Y-64831426D01*
X86521680Y-64570273D01*
X86364637Y-64335241D01*
X86164759Y-64135363D01*
X85929727Y-63978320D01*
X85668574Y-63870147D01*
X85391335Y-63815000D01*
X85108665Y-63815000D01*
X84831426Y-63870147D01*
X84570273Y-63978320D01*
X84335241Y-64135363D01*
X84135363Y-64335241D01*
X83978320Y-64570273D01*
X83870147Y-64831426D01*
X83815000Y-65108665D01*
X83815000Y-65391335D01*
X83870147Y-65668574D01*
X83978320Y-65929727D01*
X84135363Y-66164759D01*
X84335241Y-66364637D01*
X84361000Y-66381849D01*
X84361001Y-68586330D01*
X84356700Y-68630000D01*
X84373864Y-68804274D01*
X84424698Y-68971852D01*
X84507248Y-69126291D01*
X84572038Y-69205237D01*
X84618342Y-69261659D01*
X84652259Y-69289494D01*
X84869929Y-69507164D01*
X84805764Y-69718691D01*
X84778057Y-70000000D01*
X84805764Y-70281309D01*
X84887818Y-70551808D01*
X85021068Y-70801101D01*
X85200392Y-71019608D01*
X85418899Y-71198932D01*
X85551858Y-71270000D01*
X85418899Y-71341068D01*
X85200392Y-71520392D01*
X85021068Y-71738899D01*
X84887818Y-71988192D01*
X84805764Y-72258691D01*
X84778057Y-72540000D01*
X84805764Y-72821309D01*
X84869929Y-73032835D01*
X81938999Y-75963766D01*
X81938999Y-66093658D01*
X81943299Y-66049998D01*
X81938999Y-66006338D01*
X81938999Y-66006332D01*
X81927084Y-65885363D01*
X81926135Y-65875723D01*
X81875301Y-65708146D01*
X81828264Y-65620147D01*
X81792752Y-65553708D01*
X81681658Y-65418340D01*
X81679913Y-65416908D01*
X81685000Y-65391335D01*
X81685000Y-65108665D01*
X81629853Y-64831426D01*
X81521680Y-64570273D01*
X81364637Y-64335241D01*
X81164759Y-64135363D01*
X80929727Y-63978320D01*
X80924966Y-63976348D01*
X83772314Y-61129000D01*
X85093205Y-61129000D01*
X85200392Y-61259608D01*
X85418899Y-61438932D01*
X85668192Y-61572182D01*
X85938691Y-61654236D01*
X86149508Y-61675000D01*
X87090492Y-61675000D01*
X87301309Y-61654236D01*
X87571808Y-61572182D01*
X87821101Y-61438932D01*
X88039608Y-61259608D01*
X88218932Y-61041101D01*
X88352182Y-60791808D01*
X88434236Y-60521309D01*
X88461943Y-60240000D01*
X88434236Y-59958691D01*
X88352182Y-59688192D01*
X88218932Y-59438899D01*
X88039608Y-59220392D01*
X87821101Y-59041068D01*
X87688142Y-58970000D01*
X87821101Y-58898932D01*
X88039608Y-58719608D01*
X88218932Y-58501101D01*
X88352182Y-58251808D01*
X88434236Y-57981309D01*
X88461943Y-57700000D01*
X88434236Y-57418691D01*
X88352182Y-57148192D01*
X88218932Y-56898899D01*
X88039608Y-56680392D01*
X87821101Y-56501068D01*
X87688142Y-56430000D01*
X87821101Y-56358932D01*
X88039608Y-56179608D01*
X88218932Y-55961101D01*
X88352182Y-55711808D01*
X88434236Y-55441309D01*
X88461943Y-55160000D01*
X88434236Y-54878691D01*
X88352182Y-54608192D01*
X88218932Y-54358899D01*
X88039608Y-54140392D01*
X87821101Y-53961068D01*
X87688142Y-53890000D01*
X87821101Y-53818932D01*
X88039608Y-53639608D01*
X88218932Y-53421101D01*
X88352182Y-53171808D01*
X88434236Y-52901309D01*
X88461943Y-52620000D01*
X88434236Y-52338691D01*
X88352182Y-52068192D01*
X88218932Y-51818899D01*
X88039608Y-51600392D01*
X87821101Y-51421068D01*
X87688142Y-51350000D01*
X87821101Y-51278932D01*
X88039608Y-51099608D01*
X88218932Y-50881101D01*
X88352182Y-50631808D01*
X88434236Y-50361309D01*
X88461943Y-50080000D01*
X88434236Y-49798691D01*
X88352182Y-49528192D01*
X88218932Y-49278899D01*
X88039608Y-49060392D01*
X87821101Y-48881068D01*
X87688142Y-48810000D01*
X87821101Y-48738932D01*
X88039608Y-48559608D01*
X88218932Y-48341101D01*
X88352182Y-48091808D01*
X88434236Y-47821309D01*
X88461943Y-47540000D01*
X88434236Y-47258691D01*
X88352182Y-46988192D01*
X88218932Y-46738899D01*
X88039608Y-46520392D01*
X87821101Y-46341068D01*
X87688142Y-46270000D01*
X87821101Y-46198932D01*
X88039608Y-46019608D01*
X88218932Y-45801101D01*
X88352182Y-45551808D01*
X88434236Y-45281309D01*
X88461943Y-45000000D01*
X88434236Y-44718691D01*
X88352182Y-44448192D01*
X88218932Y-44198899D01*
X88039608Y-43980392D01*
X87821101Y-43801068D01*
X87571808Y-43667818D01*
X87301309Y-43585764D01*
X87090492Y-43565000D01*
X86442235Y-43565000D01*
X86139000Y-43261765D01*
X86139000Y-41381849D01*
X86164759Y-41364637D01*
X86364637Y-41164759D01*
X86521680Y-40929727D01*
X86524876Y-40922012D01*
X92365002Y-46762139D01*
X92365001Y-51609491D01*
X92141335Y-51565000D01*
X91858665Y-51565000D01*
X91581426Y-51620147D01*
X91320273Y-51728320D01*
X91085241Y-51885363D01*
X90885363Y-52085241D01*
X90728320Y-52320273D01*
X90620147Y-52581426D01*
X90565000Y-52858665D01*
X90565000Y-53141335D01*
X90620147Y-53418574D01*
X90728320Y-53679727D01*
X90885363Y-53914759D01*
X91085241Y-54114637D01*
X91320273Y-54271680D01*
X91581426Y-54379853D01*
X91858665Y-54435000D01*
X92141335Y-54435000D01*
X92365001Y-54390509D01*
X92365001Y-55127960D01*
X92087961Y-55405000D01*
X91858665Y-55405000D01*
X91581426Y-55460147D01*
X91320273Y-55568320D01*
X91085241Y-55725363D01*
X90885363Y-55925241D01*
X90728320Y-56160273D01*
X90620147Y-56421426D01*
X90565000Y-56698665D01*
X90565000Y-56981335D01*
X90620147Y-57258574D01*
X90728320Y-57519727D01*
X90885363Y-57754759D01*
X91085241Y-57954637D01*
X91320273Y-58111680D01*
X91581426Y-58219853D01*
X91858665Y-58275000D01*
X92141335Y-58275000D01*
X92418574Y-58219853D01*
X92679727Y-58111680D01*
X92914759Y-57954637D01*
X93114637Y-57754759D01*
X93271680Y-57519727D01*
X93379853Y-57258574D01*
X93435000Y-56981335D01*
X93435000Y-56752039D01*
X93957937Y-56229102D01*
X93994279Y-56199277D01*
X94113307Y-56054240D01*
X94157530Y-55971504D01*
X94201753Y-55888769D01*
X94237025Y-55772492D01*
X94256218Y-55709222D01*
X94258255Y-55688531D01*
X97509389Y-55688531D01*
X97551401Y-55978019D01*
X97649081Y-56253747D01*
X97722528Y-56391157D01*
X97971603Y-56468792D01*
X98820395Y-55620000D01*
X99179605Y-55620000D01*
X100028397Y-56468792D01*
X100270000Y-56393486D01*
X100511603Y-56468792D01*
X101360395Y-55620000D01*
X101719605Y-55620000D01*
X102568397Y-56468792D01*
X102817472Y-56391157D01*
X102943371Y-56127117D01*
X103015339Y-55843589D01*
X103030611Y-55551469D01*
X102988599Y-55261981D01*
X102890919Y-54986253D01*
X102817472Y-54848843D01*
X102568397Y-54771208D01*
X101719605Y-55620000D01*
X101360395Y-55620000D01*
X100511603Y-54771208D01*
X100270000Y-54846514D01*
X100028397Y-54771208D01*
X99179605Y-55620000D01*
X98820395Y-55620000D01*
X97971603Y-54771208D01*
X97722528Y-54848843D01*
X97596629Y-55112883D01*
X97524661Y-55396411D01*
X97509389Y-55688531D01*
X94258255Y-55688531D01*
X94270001Y-55569284D01*
X94270001Y-55569283D01*
X94274609Y-55522499D01*
X94270001Y-55475714D01*
X94270001Y-54108397D01*
X98151208Y-54108397D01*
X98226514Y-54350000D01*
X98151208Y-54591603D01*
X99000000Y-55440395D01*
X99848792Y-54591603D01*
X99773486Y-54350000D01*
X99848792Y-54108397D01*
X100691208Y-54108397D01*
X100766514Y-54350000D01*
X100691208Y-54591603D01*
X101540000Y-55440395D01*
X102388792Y-54591603D01*
X102313486Y-54350000D01*
X102388792Y-54108397D01*
X101540000Y-53259605D01*
X100691208Y-54108397D01*
X99848792Y-54108397D01*
X99000000Y-53259605D01*
X98151208Y-54108397D01*
X94270001Y-54108397D01*
X94270001Y-53148531D01*
X97509389Y-53148531D01*
X97551401Y-53438019D01*
X97649081Y-53713747D01*
X97722528Y-53851157D01*
X97971603Y-53928792D01*
X98820395Y-53080000D01*
X99179605Y-53080000D01*
X100028397Y-53928792D01*
X100270000Y-53853486D01*
X100511603Y-53928792D01*
X101360395Y-53080000D01*
X101719605Y-53080000D01*
X102568397Y-53928792D01*
X102817472Y-53851157D01*
X102943371Y-53587117D01*
X103015339Y-53303589D01*
X103030611Y-53011469D01*
X102988599Y-52721981D01*
X102890919Y-52446253D01*
X102817472Y-52308843D01*
X102568397Y-52231208D01*
X101719605Y-53080000D01*
X101360395Y-53080000D01*
X100511603Y-52231208D01*
X100270000Y-52306514D01*
X100028397Y-52231208D01*
X99179605Y-53080000D01*
X98820395Y-53080000D01*
X97971603Y-52231208D01*
X97722528Y-52308843D01*
X97596629Y-52572883D01*
X97524661Y-52856411D01*
X97509389Y-53148531D01*
X94270001Y-53148531D01*
X94270001Y-51568397D01*
X98151208Y-51568397D01*
X98226514Y-51810000D01*
X98151208Y-52051603D01*
X99000000Y-52900395D01*
X99848792Y-52051603D01*
X99773486Y-51810000D01*
X99848792Y-51568397D01*
X100691208Y-51568397D01*
X100766514Y-51810000D01*
X100691208Y-52051603D01*
X101540000Y-52900395D01*
X102388792Y-52051603D01*
X102313486Y-51810000D01*
X102388792Y-51568397D01*
X101540000Y-50719605D01*
X100691208Y-51568397D01*
X99848792Y-51568397D01*
X99000000Y-50719605D01*
X98151208Y-51568397D01*
X94270001Y-51568397D01*
X94270001Y-50608531D01*
X97509389Y-50608531D01*
X97551401Y-50898019D01*
X97649081Y-51173747D01*
X97722528Y-51311157D01*
X97971603Y-51388792D01*
X98820395Y-50540000D01*
X99179605Y-50540000D01*
X100028397Y-51388792D01*
X100270000Y-51313486D01*
X100511603Y-51388792D01*
X101360395Y-50540000D01*
X101719605Y-50540000D01*
X102568397Y-51388792D01*
X102817472Y-51311157D01*
X102943371Y-51047117D01*
X103015339Y-50763589D01*
X103030611Y-50471469D01*
X102988599Y-50181981D01*
X102890919Y-49906253D01*
X102817472Y-49768843D01*
X102568397Y-49691208D01*
X101719605Y-50540000D01*
X101360395Y-50540000D01*
X100511603Y-49691208D01*
X100270000Y-49766514D01*
X100028397Y-49691208D01*
X99179605Y-50540000D01*
X98820395Y-50540000D01*
X97971603Y-49691208D01*
X97722528Y-49768843D01*
X97596629Y-50032883D01*
X97524661Y-50316411D01*
X97509389Y-50608531D01*
X94270001Y-50608531D01*
X94270001Y-47400000D01*
X97511928Y-47400000D01*
X97511928Y-48600000D01*
X97528992Y-48773254D01*
X97579528Y-48939850D01*
X97661595Y-49093386D01*
X97772038Y-49227962D01*
X97906614Y-49338405D01*
X98060150Y-49420472D01*
X98169293Y-49453580D01*
X98151208Y-49511603D01*
X99000000Y-50360395D01*
X99848792Y-49511603D01*
X99830707Y-49453580D01*
X99939850Y-49420472D01*
X100093386Y-49338405D01*
X100227962Y-49227962D01*
X100338405Y-49093386D01*
X100406285Y-48966392D01*
X100593368Y-49153475D01*
X100766729Y-49269311D01*
X100691208Y-49511603D01*
X101540000Y-50360395D01*
X102388792Y-49511603D01*
X102313271Y-49269311D01*
X102486632Y-49153475D01*
X102693475Y-48946632D01*
X102855990Y-48703411D01*
X102967932Y-48433158D01*
X103025000Y-48146260D01*
X103025000Y-47853740D01*
X102967932Y-47566842D01*
X102855990Y-47296589D01*
X102693475Y-47053368D01*
X102486632Y-46846525D01*
X102243411Y-46684010D01*
X101973158Y-46572068D01*
X101686260Y-46515000D01*
X101393740Y-46515000D01*
X101106842Y-46572068D01*
X100836589Y-46684010D01*
X100593368Y-46846525D01*
X100406285Y-47033608D01*
X100338405Y-46906614D01*
X100227962Y-46772038D01*
X100093386Y-46661595D01*
X99939850Y-46579528D01*
X99773254Y-46528992D01*
X99600000Y-46511928D01*
X98400000Y-46511928D01*
X98226746Y-46528992D01*
X98060150Y-46579528D01*
X97906614Y-46661595D01*
X97772038Y-46772038D01*
X97661595Y-46906614D01*
X97579528Y-47060150D01*
X97528992Y-47226746D01*
X97511928Y-47400000D01*
X94270001Y-47400000D01*
X94270001Y-46414383D01*
X94274609Y-46367598D01*
X94256218Y-46180876D01*
X94239500Y-46125764D01*
X94201753Y-46001330D01*
X94113307Y-45835858D01*
X93994279Y-45690821D01*
X93957937Y-45660996D01*
X92488026Y-44191085D01*
X92679727Y-44111680D01*
X92914759Y-43954637D01*
X93114637Y-43754759D01*
X93271680Y-43519727D01*
X93379853Y-43258574D01*
X93435000Y-42981335D01*
X93435000Y-42698665D01*
X93379853Y-42421426D01*
X93271680Y-42160273D01*
X93114637Y-41925241D01*
X92914759Y-41725363D01*
X92679727Y-41568320D01*
X92418574Y-41460147D01*
X92141335Y-41405000D01*
X91858665Y-41405000D01*
X91581426Y-41460147D01*
X91320273Y-41568320D01*
X91085241Y-41725363D01*
X90885363Y-41925241D01*
X90728320Y-42160273D01*
X90648915Y-42351974D01*
X86589008Y-38292068D01*
X86559179Y-38255721D01*
X86414142Y-38136693D01*
X86248670Y-38048247D01*
X86069124Y-37993782D01*
X85929186Y-37979999D01*
X85882401Y-37975391D01*
X85835616Y-37979999D01*
X79664384Y-37979999D01*
X79617599Y-37975391D01*
X79570814Y-37979999D01*
X79430876Y-37993782D01*
X79251330Y-38048247D01*
X79085858Y-38136693D01*
X78940821Y-38255721D01*
X78910992Y-38292068D01*
X75241228Y-41961832D01*
X75164759Y-41885363D01*
X74929727Y-41728320D01*
X74668574Y-41620147D01*
X74391335Y-41565000D01*
X74108665Y-41565000D01*
X73831426Y-41620147D01*
X73570273Y-41728320D01*
X73335241Y-41885363D01*
X73168661Y-42051943D01*
X73139502Y-41955820D01*
X73080537Y-41845506D01*
X73001185Y-41748815D01*
X72904494Y-41669463D01*
X72794180Y-41610498D01*
X72674482Y-41574188D01*
X72550000Y-41561928D01*
X72035750Y-41565000D01*
X71877000Y-41723750D01*
X71877000Y-42873000D01*
X71897000Y-42873000D01*
X71897000Y-43127000D01*
X71877000Y-43127000D01*
X71877000Y-44276250D01*
X72035750Y-44435000D01*
X72550000Y-44438072D01*
X72674482Y-44425812D01*
X72794180Y-44389502D01*
X72904494Y-44330537D01*
X73001185Y-44251185D01*
X73080537Y-44154494D01*
X73139502Y-44044180D01*
X73168661Y-43948057D01*
X73335241Y-44114637D01*
X73570273Y-44271680D01*
X73831426Y-44379853D01*
X74108665Y-44435000D01*
X74391335Y-44435000D01*
X74615001Y-44390509D01*
X74615002Y-46574212D01*
X74628785Y-46714150D01*
X74678501Y-46878042D01*
X74678502Y-47426185D01*
X71788689Y-50315998D01*
X71655799Y-50117114D01*
X71462886Y-49924201D01*
X71236043Y-49772629D01*
X70983989Y-49668225D01*
X70716411Y-49615000D01*
X70443589Y-49615000D01*
X70176011Y-49668225D01*
X69923957Y-49772629D01*
X69697114Y-49924201D01*
X69504201Y-50117114D01*
X69352629Y-50343957D01*
X69310000Y-50446873D01*
X69267371Y-50343957D01*
X69115799Y-50117114D01*
X68922886Y-49924201D01*
X68696043Y-49772629D01*
X68443989Y-49668225D01*
X68176411Y-49615000D01*
X67903589Y-49615000D01*
X67636011Y-49668225D01*
X67383957Y-49772629D01*
X67157114Y-49924201D01*
X66964201Y-50117114D01*
X66886445Y-50233483D01*
X66875812Y-50125518D01*
X66839502Y-50005820D01*
X66780537Y-49895506D01*
X66701185Y-49798815D01*
X66604494Y-49719463D01*
X66494180Y-49660498D01*
X66374482Y-49624188D01*
X66250000Y-49611928D01*
X65785750Y-49615000D01*
X65627000Y-49773750D01*
X65627000Y-50873000D01*
X65647000Y-50873000D01*
X65647000Y-51127000D01*
X65627000Y-51127000D01*
X65627000Y-52226250D01*
X65785750Y-52385000D01*
X66250000Y-52388072D01*
X66374482Y-52375812D01*
X66494180Y-52339502D01*
X66604494Y-52280537D01*
X66701185Y-52201185D01*
X66780537Y-52104494D01*
X66839502Y-51994180D01*
X66875812Y-51874482D01*
X66886445Y-51766517D01*
X66964201Y-51882886D01*
X67157114Y-52075799D01*
X67383957Y-52227371D01*
X67636011Y-52331775D01*
X67903589Y-52385000D01*
X68176411Y-52385000D01*
X68443989Y-52331775D01*
X68696043Y-52227371D01*
X68922886Y-52075799D01*
X69115799Y-51882886D01*
X69267371Y-51656043D01*
X69310000Y-51553127D01*
X69352629Y-51656043D01*
X69504201Y-51882886D01*
X69697114Y-52075799D01*
X69895998Y-52208689D01*
X67647808Y-54456879D01*
X66792717Y-54456879D01*
X66749049Y-54452578D01*
X66574774Y-54469743D01*
X66529849Y-54483371D01*
X66407198Y-54520576D01*
X66252758Y-54603126D01*
X66117390Y-54714220D01*
X66089554Y-54748138D01*
X65672812Y-55164880D01*
X65408637Y-55164880D01*
X65141059Y-55218105D01*
X64889005Y-55322509D01*
X64662162Y-55474081D01*
X64469249Y-55666994D01*
X64317677Y-55893837D01*
X64213273Y-56145891D01*
X64160048Y-56413469D01*
X62660000Y-56413469D01*
X62660000Y-51750000D01*
X64111928Y-51750000D01*
X64124188Y-51874482D01*
X64160498Y-51994180D01*
X64219463Y-52104494D01*
X64298815Y-52201185D01*
X64395506Y-52280537D01*
X64505820Y-52339502D01*
X64625518Y-52375812D01*
X64750000Y-52388072D01*
X65214250Y-52385000D01*
X65373000Y-52226250D01*
X65373000Y-51127000D01*
X64273750Y-51127000D01*
X64115000Y-51285750D01*
X64111928Y-51750000D01*
X62660000Y-51750000D01*
X62660000Y-50250000D01*
X64111928Y-50250000D01*
X64115000Y-50714250D01*
X64273750Y-50873000D01*
X65373000Y-50873000D01*
X65373000Y-49773750D01*
X65214250Y-49615000D01*
X64750000Y-49611928D01*
X64625518Y-49624188D01*
X64505820Y-49660498D01*
X64395506Y-49719463D01*
X64298815Y-49798815D01*
X64219463Y-49895506D01*
X64160498Y-50005820D01*
X64124188Y-50125518D01*
X64111928Y-50250000D01*
X62660000Y-50250000D01*
X62660000Y-45800000D01*
X64561928Y-45800000D01*
X64574188Y-45924482D01*
X64610498Y-46044180D01*
X64669463Y-46154494D01*
X64748815Y-46251185D01*
X64845506Y-46330537D01*
X64955820Y-46389502D01*
X65075518Y-46425812D01*
X65200000Y-46438072D01*
X65714250Y-46435000D01*
X65873000Y-46276250D01*
X65873000Y-45127000D01*
X64723750Y-45127000D01*
X64565000Y-45285750D01*
X64561928Y-45800000D01*
X62660000Y-45800000D01*
X62660000Y-44200000D01*
X64561928Y-44200000D01*
X64565000Y-44714250D01*
X64723750Y-44873000D01*
X65873000Y-44873000D01*
X65873000Y-43723750D01*
X66127000Y-43723750D01*
X66127000Y-44873000D01*
X66147000Y-44873000D01*
X66147000Y-45127000D01*
X66127000Y-45127000D01*
X66127000Y-46276250D01*
X66285750Y-46435000D01*
X66800000Y-46438072D01*
X66924482Y-46425812D01*
X67044180Y-46389502D01*
X67154494Y-46330537D01*
X67251185Y-46251185D01*
X67330537Y-46154494D01*
X67389502Y-46044180D01*
X67418661Y-45948057D01*
X67585241Y-46114637D01*
X67820273Y-46271680D01*
X68081426Y-46379853D01*
X68358665Y-46435000D01*
X68641335Y-46435000D01*
X68918574Y-46379853D01*
X69179727Y-46271680D01*
X69414759Y-46114637D01*
X69614637Y-45914759D01*
X69771680Y-45679727D01*
X69879853Y-45418574D01*
X69935000Y-45141335D01*
X69935000Y-44858665D01*
X69879853Y-44581426D01*
X69771680Y-44320273D01*
X69614637Y-44085241D01*
X69414759Y-43885363D01*
X69287004Y-43800000D01*
X70311928Y-43800000D01*
X70324188Y-43924482D01*
X70360498Y-44044180D01*
X70419463Y-44154494D01*
X70498815Y-44251185D01*
X70595506Y-44330537D01*
X70705820Y-44389502D01*
X70825518Y-44425812D01*
X70950000Y-44438072D01*
X71464250Y-44435000D01*
X71623000Y-44276250D01*
X71623000Y-43127000D01*
X70473750Y-43127000D01*
X70315000Y-43285750D01*
X70311928Y-43800000D01*
X69287004Y-43800000D01*
X69179727Y-43728320D01*
X68918574Y-43620147D01*
X68641335Y-43565000D01*
X68358665Y-43565000D01*
X68081426Y-43620147D01*
X67820273Y-43728320D01*
X67585241Y-43885363D01*
X67418661Y-44051943D01*
X67389502Y-43955820D01*
X67330537Y-43845506D01*
X67251185Y-43748815D01*
X67154494Y-43669463D01*
X67044180Y-43610498D01*
X66924482Y-43574188D01*
X66800000Y-43561928D01*
X66285750Y-43565000D01*
X66127000Y-43723750D01*
X65873000Y-43723750D01*
X65714250Y-43565000D01*
X65200000Y-43561928D01*
X65075518Y-43574188D01*
X64955820Y-43610498D01*
X64845506Y-43669463D01*
X64748815Y-43748815D01*
X64669463Y-43845506D01*
X64610498Y-43955820D01*
X64574188Y-44075518D01*
X64561928Y-44200000D01*
X62660000Y-44200000D01*
X62660000Y-42200000D01*
X70311928Y-42200000D01*
X70315000Y-42714250D01*
X70473750Y-42873000D01*
X71623000Y-42873000D01*
X71623000Y-41723750D01*
X71464250Y-41565000D01*
X70950000Y-41561928D01*
X70825518Y-41574188D01*
X70705820Y-41610498D01*
X70595506Y-41669463D01*
X70498815Y-41748815D01*
X70419463Y-41845506D01*
X70360498Y-41955820D01*
X70324188Y-42075518D01*
X70311928Y-42200000D01*
X62660000Y-42200000D01*
X62660000Y-37660000D01*
X105340000Y-37660000D01*
X105340001Y-138340000D01*
G37*
%TD.AperFunction*%
%TD*%
M02*
