%TF.GenerationSoftware,KiCad,Pcbnew,5.1.10-88a1d61d58~88~ubuntu20.10.1*%
%TF.CreationDate,2021-06-30T17:02:04+02:00*%
%TF.ProjectId,multiplexer-8,6d756c74-6970-46c6-9578-65722d382e6b,v1.0.0*%
%TF.SameCoordinates,Original*%
%TF.FileFunction,Copper,L2,Bot*%
%TF.FilePolarity,Positive*%
%FSLAX46Y46*%
G04 Gerber Fmt 4.6, Leading zero omitted, Abs format (unit mm)*
G04 Created by KiCad (PCBNEW 5.1.10-88a1d61d58~88~ubuntu20.10.1) date 2021-06-30 17:02:04*
%MOMM*%
%LPD*%
G01*
G04 APERTURE LIST*
%TA.AperFunction,ComponentPad*%
%ADD10R,1.500000X1.500000*%
%TD*%
%TA.AperFunction,ComponentPad*%
%ADD11C,1.500000*%
%TD*%
%TA.AperFunction,ComponentPad*%
%ADD12O,2.190000X1.740000*%
%TD*%
%TA.AperFunction,ComponentPad*%
%ADD13O,1.600000X1.600000*%
%TD*%
%TA.AperFunction,ComponentPad*%
%ADD14C,1.600000*%
%TD*%
%TA.AperFunction,ComponentPad*%
%ADD15C,1.700000*%
%TD*%
%TA.AperFunction,ComponentPad*%
%ADD16R,1.600000X1.600000*%
%TD*%
%TA.AperFunction,ComponentPad*%
%ADD17O,2.400000X1.600000*%
%TD*%
%TA.AperFunction,ComponentPad*%
%ADD18R,2.400000X1.600000*%
%TD*%
%TA.AperFunction,ViaPad*%
%ADD19C,3.300000*%
%TD*%
%TA.AperFunction,ViaPad*%
%ADD20C,0.800000*%
%TD*%
%TA.AperFunction,Conductor*%
%ADD21C,0.508000*%
%TD*%
%TA.AperFunction,Conductor*%
%ADD22C,0.635000*%
%TD*%
%TA.AperFunction,Conductor*%
%ADD23C,0.254000*%
%TD*%
%TA.AperFunction,Conductor*%
%ADD24C,0.100000*%
%TD*%
G04 APERTURE END LIST*
D10*
%TO.P,U3,1*%
%TO.N,GND*%
X65500000Y-51000000D03*
D11*
%TO.P,U3,3*%
%TO.N,-5V*%
X70580000Y-51000000D03*
%TO.P,U3,2*%
%TO.N,Net-(C3-Pad2)*%
X68040000Y-51000000D03*
%TD*%
D10*
%TO.P,U2,1*%
%TO.N,+5V*%
X70625048Y-56549880D03*
D11*
%TO.P,U2,3*%
%TO.N,Net-(C2-Pad1)*%
X65545048Y-56549880D03*
%TO.P,U2,2*%
%TO.N,GND*%
X68085048Y-56549880D03*
%TD*%
D12*
%TO.P,J3,4*%
%TO.N,+5V*%
X101000000Y-114380000D03*
%TO.P,J3,3*%
%TO.N,/MUX1/SELECT_B*%
X101000000Y-116920000D03*
%TO.P,J3,2*%
%TO.N,/MUX1/SELECT_A*%
X101000000Y-119460000D03*
%TO.P,J3,1*%
%TO.N,GND*%
%TA.AperFunction,ComponentPad*%
G36*
G01*
X101845001Y-122870000D02*
X100154999Y-122870000D01*
G75*
G02*
X99905000Y-122620001I0J249999D01*
G01*
X99905000Y-121379999D01*
G75*
G02*
X100154999Y-121130000I249999J0D01*
G01*
X101845001Y-121130000D01*
G75*
G02*
X102095000Y-121379999I0J-249999D01*
G01*
X102095000Y-122620001D01*
G75*
G02*
X101845001Y-122870000I-249999J0D01*
G01*
G37*
%TD.AperFunction*%
%TD*%
D13*
%TO.P,FB2,2*%
%TO.N,Net-(C3-Pad2)*%
X92000000Y-42840000D03*
D14*
%TO.P,FB2,1*%
%TO.N,Net-(FB2-Pad1)*%
X92000000Y-53000000D03*
%TD*%
D13*
%TO.P,FB1,2*%
%TO.N,Net-(C2-Pad1)*%
X92000000Y-56840000D03*
D14*
%TO.P,FB1,1*%
%TO.N,Net-(FB1-Pad1)*%
X92000000Y-67000000D03*
%TD*%
D15*
%TO.P,J5,10*%
%TO.N,Net-(FB1-Pad1)*%
X101540000Y-58160000D03*
%TO.P,J5,8*%
%TO.N,GND*%
X101540000Y-55620000D03*
%TO.P,J5,6*%
X101540000Y-53080000D03*
%TO.P,J5,4*%
X101540000Y-50540000D03*
%TO.P,J5,2*%
%TO.N,Net-(FB2-Pad1)*%
X101540000Y-48000000D03*
%TO.P,J5,9*%
%TO.N,Net-(FB1-Pad1)*%
X99000000Y-58160000D03*
%TO.P,J5,7*%
%TO.N,GND*%
X99000000Y-55620000D03*
%TO.P,J5,5*%
X99000000Y-53080000D03*
%TO.P,J5,3*%
X99000000Y-50540000D03*
%TO.P,J5,1*%
%TO.N,Net-(FB2-Pad1)*%
%TA.AperFunction,ComponentPad*%
G36*
G01*
X98150000Y-48600000D02*
X98150000Y-47400000D01*
G75*
G02*
X98400000Y-47150000I250000J0D01*
G01*
X99600000Y-47150000D01*
G75*
G02*
X99850000Y-47400000I0J-250000D01*
G01*
X99850000Y-48600000D01*
G75*
G02*
X99600000Y-48850000I-250000J0D01*
G01*
X98400000Y-48850000D01*
G75*
G02*
X98150000Y-48600000I0J250000D01*
G01*
G37*
%TD.AperFunction*%
%TD*%
D14*
%TO.P,C5,2*%
%TO.N,-5V*%
X74250000Y-43000000D03*
D16*
%TO.P,C5,1*%
%TO.N,GND*%
X71750000Y-43000000D03*
%TD*%
D14*
%TO.P,C4,2*%
%TO.N,GND*%
X70750000Y-64000000D03*
D16*
%TO.P,C4,1*%
%TO.N,+5V*%
X73250000Y-64000000D03*
%TD*%
D14*
%TO.P,C3,2*%
%TO.N,Net-(C3-Pad2)*%
X68500000Y-45000000D03*
D16*
%TO.P,C3,1*%
%TO.N,GND*%
X66000000Y-45000000D03*
%TD*%
D14*
%TO.P,C2,2*%
%TO.N,GND*%
X67250000Y-64000000D03*
D16*
%TO.P,C2,1*%
%TO.N,Net-(C2-Pad1)*%
X64750000Y-64000000D03*
%TD*%
D17*
%TO.P,U6,14*%
%TO.N,+5V*%
X86620000Y-120000000D03*
%TO.P,U6,7*%
%TO.N,-5V*%
X79000000Y-135240000D03*
%TO.P,U6,13*%
%TO.N,/MUX1/SELECT_A*%
X86620000Y-122540000D03*
%TO.P,U6,6*%
X79000000Y-132700000D03*
%TO.P,U6,12*%
%TO.N,/MUX1/SELECT_B*%
X86620000Y-125080000D03*
%TO.P,U6,5*%
X79000000Y-130160000D03*
%TO.P,U6,11*%
%TO.N,/MUX4/B2*%
X86620000Y-127620000D03*
%TO.P,U6,4*%
%TO.N,/MUX4/B1*%
X79000000Y-127620000D03*
%TO.P,U6,10*%
%TO.N,/MUX4/OUT_2*%
X86620000Y-130160000D03*
%TO.P,U6,3*%
%TO.N,/MUX4/OUT_1*%
X79000000Y-125080000D03*
%TO.P,U6,9*%
%TO.N,/MUX4/OUT_2*%
X86620000Y-132700000D03*
%TO.P,U6,2*%
%TO.N,/MUX4/OUT_1*%
X79000000Y-122540000D03*
%TO.P,U6,8*%
%TO.N,/MUX4/A2*%
X86620000Y-135240000D03*
D18*
%TO.P,U6,1*%
%TO.N,/MUX4/A1*%
X79000000Y-120000000D03*
%TD*%
D17*
%TO.P,U5,14*%
%TO.N,+5V*%
X86620000Y-95000000D03*
%TO.P,U5,7*%
%TO.N,-5V*%
X79000000Y-110240000D03*
%TO.P,U5,13*%
%TO.N,/MUX1/SELECT_A*%
X86620000Y-97540000D03*
%TO.P,U5,6*%
X79000000Y-107700000D03*
%TO.P,U5,12*%
%TO.N,/MUX1/SELECT_B*%
X86620000Y-100080000D03*
%TO.P,U5,5*%
X79000000Y-105160000D03*
%TO.P,U5,11*%
%TO.N,/MUX3/B2*%
X86620000Y-102620000D03*
%TO.P,U5,4*%
%TO.N,/MUX3/B1*%
X79000000Y-102620000D03*
%TO.P,U5,10*%
%TO.N,/MUX3/OUT_2*%
X86620000Y-105160000D03*
%TO.P,U5,3*%
%TO.N,/MUX3/OUT_1*%
X79000000Y-100080000D03*
%TO.P,U5,9*%
%TO.N,/MUX3/OUT_2*%
X86620000Y-107700000D03*
%TO.P,U5,2*%
%TO.N,/MUX3/OUT_1*%
X79000000Y-97540000D03*
%TO.P,U5,8*%
%TO.N,/MUX3/A2*%
X86620000Y-110240000D03*
D18*
%TO.P,U5,1*%
%TO.N,/MUX3/A1*%
X79000000Y-95000000D03*
%TD*%
D17*
%TO.P,U4,14*%
%TO.N,+5V*%
X86620000Y-70000000D03*
%TO.P,U4,7*%
%TO.N,-5V*%
X79000000Y-85240000D03*
%TO.P,U4,13*%
%TO.N,/MUX1/SELECT_A*%
X86620000Y-72540000D03*
%TO.P,U4,6*%
X79000000Y-82700000D03*
%TO.P,U4,12*%
%TO.N,/MUX1/SELECT_B*%
X86620000Y-75080000D03*
%TO.P,U4,5*%
X79000000Y-80160000D03*
%TO.P,U4,11*%
%TO.N,/MUX2/B2*%
X86620000Y-77620000D03*
%TO.P,U4,4*%
%TO.N,/MUX2/B1*%
X79000000Y-77620000D03*
%TO.P,U4,10*%
%TO.N,/MUX2/OUT_2*%
X86620000Y-80160000D03*
%TO.P,U4,3*%
%TO.N,/MUX2/OUT_1*%
X79000000Y-75080000D03*
%TO.P,U4,9*%
%TO.N,/MUX2/OUT_2*%
X86620000Y-82700000D03*
%TO.P,U4,2*%
%TO.N,/MUX2/OUT_1*%
X79000000Y-72540000D03*
%TO.P,U4,8*%
%TO.N,/MUX2/A2*%
X86620000Y-85240000D03*
D18*
%TO.P,U4,1*%
%TO.N,/MUX2/A1*%
X79000000Y-70000000D03*
%TD*%
D13*
%TO.P,R2,2*%
%TO.N,-5V*%
X91700000Y-132250000D03*
D14*
%TO.P,R2,1*%
%TO.N,/MUX1/SELECT_A*%
X101860000Y-132250000D03*
%TD*%
D13*
%TO.P,R1,2*%
%TO.N,-5V*%
X91700000Y-129000000D03*
D14*
%TO.P,R1,1*%
%TO.N,/MUX1/SELECT_B*%
X101860000Y-129000000D03*
%TD*%
D15*
%TO.P,J4,16*%
%TO.N,/MUX4/OUT_2*%
X101540000Y-98780000D03*
%TO.P,J4,14*%
%TO.N,/MUX4/OUT_1*%
X101540000Y-96240000D03*
%TO.P,J4,12*%
%TO.N,/MUX3/OUT_2*%
X101540000Y-93700000D03*
%TO.P,J4,10*%
%TO.N,/MUX3/OUT_1*%
X101540000Y-91160000D03*
%TO.P,J4,8*%
%TO.N,/MUX2/OUT_2*%
X101540000Y-88620000D03*
%TO.P,J4,6*%
%TO.N,/MUX2/OUT_1*%
X101540000Y-86080000D03*
%TO.P,J4,4*%
%TO.N,/MUX1/OUT_2*%
X101540000Y-83540000D03*
%TO.P,J4,2*%
%TO.N,/MUX1/OUT_1*%
X101540000Y-81000000D03*
%TO.P,J4,15*%
%TO.N,/MUX4/OUT_2*%
X99000000Y-98780000D03*
%TO.P,J4,13*%
%TO.N,/MUX4/OUT_1*%
X99000000Y-96240000D03*
%TO.P,J4,11*%
%TO.N,/MUX3/OUT_2*%
X99000000Y-93700000D03*
%TO.P,J4,9*%
%TO.N,/MUX3/OUT_1*%
X99000000Y-91160000D03*
%TO.P,J4,7*%
%TO.N,/MUX2/OUT_2*%
X99000000Y-88620000D03*
%TO.P,J4,5*%
%TO.N,/MUX2/OUT_1*%
X99000000Y-86080000D03*
%TO.P,J4,3*%
%TO.N,/MUX1/OUT_2*%
X99000000Y-83540000D03*
%TO.P,J4,1*%
%TO.N,/MUX1/OUT_1*%
%TA.AperFunction,ComponentPad*%
G36*
G01*
X98150000Y-81600000D02*
X98150000Y-80400000D01*
G75*
G02*
X98400000Y-80150000I250000J0D01*
G01*
X99600000Y-80150000D01*
G75*
G02*
X99850000Y-80400000I0J-250000D01*
G01*
X99850000Y-81600000D01*
G75*
G02*
X99600000Y-81850000I-250000J0D01*
G01*
X98400000Y-81850000D01*
G75*
G02*
X98150000Y-81600000I0J250000D01*
G01*
G37*
%TD.AperFunction*%
%TD*%
%TO.P,J2,16*%
%TO.N,/MUX4/B2*%
X69540000Y-125780000D03*
%TO.P,J2,14*%
%TO.N,/MUX4/B1*%
X69540000Y-123240000D03*
%TO.P,J2,12*%
%TO.N,/MUX3/B2*%
X69540000Y-120700000D03*
%TO.P,J2,10*%
%TO.N,/MUX3/B1*%
X69540000Y-118160000D03*
%TO.P,J2,8*%
%TO.N,/MUX2/B2*%
X69540000Y-115620000D03*
%TO.P,J2,6*%
%TO.N,/MUX2/B1*%
X69540000Y-113080000D03*
%TO.P,J2,4*%
%TO.N,/MUX1/B2*%
X69540000Y-110540000D03*
%TO.P,J2,2*%
%TO.N,/MUX1/B1*%
X69540000Y-108000000D03*
%TO.P,J2,15*%
%TO.N,/MUX4/B2*%
X67000000Y-125780000D03*
%TO.P,J2,13*%
%TO.N,/MUX4/B1*%
X67000000Y-123240000D03*
%TO.P,J2,11*%
%TO.N,/MUX3/B2*%
X67000000Y-120700000D03*
%TO.P,J2,9*%
%TO.N,/MUX3/B1*%
X67000000Y-118160000D03*
%TO.P,J2,7*%
%TO.N,/MUX2/B2*%
X67000000Y-115620000D03*
%TO.P,J2,5*%
%TO.N,/MUX2/B1*%
X67000000Y-113080000D03*
%TO.P,J2,3*%
%TO.N,/MUX1/B2*%
X67000000Y-110540000D03*
%TO.P,J2,1*%
%TO.N,/MUX1/B1*%
%TA.AperFunction,ComponentPad*%
G36*
G01*
X66150000Y-108600000D02*
X66150000Y-107400000D01*
G75*
G02*
X66400000Y-107150000I250000J0D01*
G01*
X67600000Y-107150000D01*
G75*
G02*
X67850000Y-107400000I0J-250000D01*
G01*
X67850000Y-108600000D01*
G75*
G02*
X67600000Y-108850000I-250000J0D01*
G01*
X66400000Y-108850000D01*
G75*
G02*
X66150000Y-108600000I0J250000D01*
G01*
G37*
%TD.AperFunction*%
%TD*%
%TO.P,J1,16*%
%TO.N,/MUX4/A2*%
X69540000Y-92780000D03*
%TO.P,J1,14*%
%TO.N,/MUX4/A1*%
X69540000Y-90240000D03*
%TO.P,J1,12*%
%TO.N,/MUX3/A2*%
X69540000Y-87700000D03*
%TO.P,J1,10*%
%TO.N,/MUX3/A1*%
X69540000Y-85160000D03*
%TO.P,J1,8*%
%TO.N,/MUX2/A2*%
X69540000Y-82620000D03*
%TO.P,J1,6*%
%TO.N,/MUX2/A1*%
X69540000Y-80080000D03*
%TO.P,J1,4*%
%TO.N,/MUX1/A2*%
X69540000Y-77540000D03*
%TO.P,J1,2*%
%TO.N,/MUX1/A1*%
X69540000Y-75000000D03*
%TO.P,J1,15*%
%TO.N,/MUX4/A2*%
X67000000Y-92780000D03*
%TO.P,J1,13*%
%TO.N,/MUX4/A1*%
X67000000Y-90240000D03*
%TO.P,J1,11*%
%TO.N,/MUX3/A2*%
X67000000Y-87700000D03*
%TO.P,J1,9*%
%TO.N,/MUX3/A1*%
X67000000Y-85160000D03*
%TO.P,J1,7*%
%TO.N,/MUX2/A2*%
X67000000Y-82620000D03*
%TO.P,J1,5*%
%TO.N,/MUX2/A1*%
X67000000Y-80080000D03*
%TO.P,J1,3*%
%TO.N,/MUX1/A2*%
X67000000Y-77540000D03*
%TO.P,J1,1*%
%TO.N,/MUX1/A1*%
%TA.AperFunction,ComponentPad*%
G36*
G01*
X66150000Y-75600000D02*
X66150000Y-74400000D01*
G75*
G02*
X66400000Y-74150000I250000J0D01*
G01*
X67600000Y-74150000D01*
G75*
G02*
X67850000Y-74400000I0J-250000D01*
G01*
X67850000Y-75600000D01*
G75*
G02*
X67600000Y-75850000I-250000J0D01*
G01*
X66400000Y-75850000D01*
G75*
G02*
X66150000Y-75600000I0J250000D01*
G01*
G37*
%TD.AperFunction*%
%TD*%
D14*
%TO.P,C8,2*%
%TO.N,-5V*%
X80250000Y-90250000D03*
%TO.P,C8,1*%
%TO.N,+5V*%
X85250000Y-90250000D03*
%TD*%
%TO.P,C7,2*%
%TO.N,-5V*%
X80250000Y-115250000D03*
%TO.P,C7,1*%
%TO.N,+5V*%
X85250000Y-115250000D03*
%TD*%
%TO.P,C6,2*%
%TO.N,-5V*%
X80250000Y-65250000D03*
%TO.P,C6,1*%
%TO.N,+5V*%
X85250000Y-65250000D03*
%TD*%
D17*
%TO.P,U1,14*%
%TO.N,+5V*%
X86620000Y-45000000D03*
%TO.P,U1,7*%
%TO.N,-5V*%
X79000000Y-60240000D03*
%TO.P,U1,13*%
%TO.N,/MUX1/SELECT_A*%
X86620000Y-47540000D03*
%TO.P,U1,6*%
X79000000Y-57700000D03*
%TO.P,U1,12*%
%TO.N,/MUX1/SELECT_B*%
X86620000Y-50080000D03*
%TO.P,U1,5*%
X79000000Y-55160000D03*
%TO.P,U1,11*%
%TO.N,/MUX1/B2*%
X86620000Y-52620000D03*
%TO.P,U1,4*%
%TO.N,/MUX1/B1*%
X79000000Y-52620000D03*
%TO.P,U1,10*%
%TO.N,/MUX1/OUT_2*%
X86620000Y-55160000D03*
%TO.P,U1,3*%
%TO.N,/MUX1/OUT_1*%
X79000000Y-50080000D03*
%TO.P,U1,9*%
%TO.N,/MUX1/OUT_2*%
X86620000Y-57700000D03*
%TO.P,U1,2*%
%TO.N,/MUX1/OUT_1*%
X79000000Y-47540000D03*
%TO.P,U1,8*%
%TO.N,/MUX1/A2*%
X86620000Y-60240000D03*
D18*
%TO.P,U1,1*%
%TO.N,/MUX1/A1*%
X79000000Y-45000000D03*
%TD*%
D14*
%TO.P,C1,2*%
%TO.N,-5V*%
X80250000Y-40250000D03*
%TO.P,C1,1*%
%TO.N,+5V*%
X85250000Y-40250000D03*
%TD*%
D19*
%TO.N,GND*%
X103500000Y-136500000D03*
X64500000Y-136500000D03*
X103500000Y-39500000D03*
X64500000Y-39500000D03*
D20*
%TO.N,+5V*%
X103552011Y-69947989D03*
%TO.N,/MUX1/SELECT_A*%
X82750000Y-113250000D03*
X81800000Y-107950000D03*
X82450000Y-82700000D03*
X82200000Y-57700000D03*
%TO.N,/MUX1/SELECT_B*%
X91540000Y-107460000D03*
X84000000Y-80250000D03*
%TO.N,/MUX1/A2*%
X75708010Y-71291990D03*
%TO.N,/MUX2/A2*%
X76787989Y-88287989D03*
%TD*%
D21*
%TO.N,-5V*%
X80250000Y-111490000D02*
X79000000Y-110240000D01*
X80250000Y-115250000D02*
X80250000Y-111490000D01*
X80250000Y-86490000D02*
X79000000Y-85240000D01*
X80250000Y-90250000D02*
X80250000Y-86490000D01*
D22*
X77000000Y-40250000D02*
X74250000Y-43000000D01*
X80250000Y-40250000D02*
X77000000Y-40250000D01*
D21*
X70580000Y-46670000D02*
X70580000Y-51000000D01*
X74250000Y-43000000D02*
X70580000Y-46670000D01*
X80250000Y-61490000D02*
X79000000Y-60240000D01*
X80250000Y-65250000D02*
X80250000Y-61490000D01*
%TO.N,+5V*%
X100469922Y-45000000D02*
X86620000Y-45000000D01*
X103552011Y-48082089D02*
X100469922Y-45000000D01*
X103552011Y-111827989D02*
X103552011Y-69947989D01*
X101000000Y-114380000D02*
X103552011Y-111827989D01*
X103552011Y-69947989D02*
X103552011Y-48082089D01*
D22*
X83932499Y-41567501D02*
X85250000Y-40250000D01*
X71847501Y-49220997D02*
X79500997Y-41567501D01*
X79500997Y-41567501D02*
X83932499Y-41567501D01*
X71847501Y-55327427D02*
X71847501Y-49220997D01*
X70625048Y-56549880D02*
X71847501Y-55327427D01*
X73250000Y-59174832D02*
X70625048Y-56549880D01*
X73250000Y-64000000D02*
X73250000Y-59174832D01*
D21*
%TO.N,/MUX1/SELECT_A*%
X79000000Y-132700000D02*
X83502020Y-137202020D01*
X79000000Y-107700000D02*
X81550000Y-107700000D01*
X82750000Y-108900000D02*
X81800000Y-107950000D01*
X82750000Y-113250000D02*
X82750000Y-108900000D01*
X81800000Y-107950000D02*
X81550000Y-107700000D01*
X82041990Y-92961990D02*
X86620000Y-97540000D01*
X82041990Y-85741990D02*
X82041990Y-92961990D01*
X79000000Y-82700000D02*
X82041990Y-85741990D01*
X79000000Y-82700000D02*
X82450000Y-82700000D01*
X82450000Y-82700000D02*
X82450000Y-82700000D01*
X79000000Y-57700000D02*
X82200000Y-57700000D01*
X82200000Y-57700000D02*
X82200000Y-57700000D01*
X99611277Y-132250000D02*
X101860000Y-132250000D01*
X94659257Y-137202020D02*
X99611277Y-132250000D01*
X83502020Y-137202020D02*
X94659257Y-137202020D01*
X82200000Y-68120000D02*
X82200000Y-57700000D01*
X86620000Y-72540000D02*
X82200000Y-68120000D01*
%TO.N,/MUX1/SELECT_B*%
X94365990Y-136494010D02*
X101860000Y-129000000D01*
X85700573Y-136494010D02*
X94365990Y-136494010D01*
X83960573Y-134754010D02*
X85700573Y-136494010D01*
X83960573Y-134720573D02*
X83960573Y-134754010D01*
X79400000Y-130160000D02*
X83960573Y-134720573D01*
X79000000Y-130160000D02*
X79400000Y-130160000D01*
X102659999Y-118579999D02*
X101000000Y-116920000D01*
X102659999Y-128200001D02*
X102659999Y-118579999D01*
X101860000Y-129000000D02*
X102659999Y-128200001D01*
X79000000Y-105160000D02*
X82712161Y-105160000D01*
X87539427Y-111494010D02*
X90000000Y-109033437D01*
X85700573Y-111494010D02*
X87539427Y-111494010D01*
X84257980Y-110051417D02*
X85700573Y-111494010D01*
X84257980Y-106705819D02*
X84257980Y-110051417D01*
X82712161Y-105160000D02*
X84257980Y-106705819D01*
X90000000Y-109000000D02*
X91540000Y-107460000D01*
X90000000Y-109033437D02*
X90000000Y-109000000D01*
X88274010Y-66418088D02*
X88274010Y-73425990D01*
X88274010Y-73425990D02*
X86620000Y-75080000D01*
X79090000Y-80250000D02*
X79000000Y-80160000D01*
X84000000Y-80250000D02*
X79090000Y-80250000D01*
X88274010Y-98425990D02*
X86620000Y-100080000D01*
X88274010Y-89067447D02*
X88274010Y-98425990D01*
X84000000Y-84793437D02*
X88274010Y-89067447D01*
X84000000Y-80250000D02*
X84000000Y-84793437D01*
X79000000Y-55160000D02*
X81540000Y-55160000D01*
X83725000Y-61775000D02*
X83677961Y-61822039D01*
X83725000Y-52975000D02*
X83725000Y-61775000D01*
X81540000Y-55160000D02*
X83725000Y-52975000D01*
X83677961Y-61822039D02*
X88274010Y-66418088D01*
X83725000Y-52975000D02*
X86620000Y-50080000D01*
%TO.N,/MUX1/B2*%
X69540000Y-110540000D02*
X67000000Y-110540000D01*
%TO.N,/MUX1/B1*%
X67000000Y-108000000D02*
X69540000Y-108000000D01*
%TO.N,/MUX1/A2*%
X75708010Y-71371990D02*
X75708010Y-71291990D01*
X69540000Y-77540000D02*
X75708010Y-71371990D01*
%TO.N,/MUX1/A1*%
X69540000Y-75000000D02*
X75000000Y-69540000D01*
X75000000Y-49000000D02*
X79000000Y-45000000D01*
X75000000Y-69540000D02*
X75000000Y-49000000D01*
%TO.N,/MUX4/A2*%
X69540000Y-92780000D02*
X71078724Y-92780000D01*
X71078724Y-92780000D02*
X73041990Y-94743266D01*
X84965990Y-133585990D02*
X86620000Y-135240000D01*
X84965990Y-131412553D02*
X84965990Y-133585990D01*
X79919427Y-126365990D02*
X84965990Y-131412553D01*
X78112553Y-126365990D02*
X79919427Y-126365990D01*
X73041990Y-121295427D02*
X78112553Y-126365990D01*
X73041990Y-94743266D02*
X73041990Y-121295427D01*
%TO.N,/MUX4/A1*%
X69540000Y-90240000D02*
X73750000Y-94450000D01*
X73750000Y-114750000D02*
X79000000Y-120000000D01*
X73750000Y-94450000D02*
X73750000Y-114750000D01*
%TO.N,/MUX3/A2*%
X69540000Y-87700000D02*
X69540000Y-88357202D01*
X84965990Y-108585990D02*
X86620000Y-110240000D01*
X84965990Y-106412553D02*
X84965990Y-108585990D01*
X79887447Y-101334010D02*
X84965990Y-106412553D01*
X78080573Y-101334010D02*
X79887447Y-101334010D01*
X77345990Y-100599427D02*
X78080573Y-101334010D01*
X77345990Y-95505990D02*
X77345990Y-100599427D01*
X69540000Y-87700000D02*
X77345990Y-95505990D01*
%TO.N,/MUX3/A1*%
X79000000Y-94620000D02*
X79000000Y-95000000D01*
X69540000Y-85160000D02*
X79000000Y-94620000D01*
%TO.N,/MUX2/A2*%
X75207989Y-88287989D02*
X69540000Y-82620000D01*
X76787989Y-88287989D02*
X75207989Y-88287989D01*
%TO.N,/MUX2/A1*%
X79000000Y-70366563D02*
X79000000Y-70000000D01*
X69540000Y-79826563D02*
X79000000Y-70366563D01*
X69540000Y-80080000D02*
X69540000Y-79826563D01*
%TO.N,/MUX4/B2*%
X69540000Y-125780000D02*
X67000000Y-125780000D01*
%TO.N,/MUX3/B2*%
X69540000Y-120700000D02*
X67000000Y-120700000D01*
%TO.N,/MUX3/B1*%
X67000000Y-118160000D02*
X69540000Y-118160000D01*
%TO.N,/MUX2/B2*%
X69540000Y-115620000D02*
X67000000Y-115620000D01*
%TO.N,/MUX2/B1*%
X67000000Y-113080000D02*
X69540000Y-113080000D01*
%TO.N,/MUX4/OUT_2*%
X88014078Y-130160000D02*
X86620000Y-130160000D01*
X99000000Y-119174078D02*
X88014078Y-130160000D01*
X99000000Y-98780000D02*
X99000000Y-119174078D01*
X86620000Y-130160000D02*
X86620000Y-132700000D01*
%TO.N,/MUX4/OUT_1*%
X97695999Y-104659923D02*
X79815922Y-122540000D01*
X79815922Y-122540000D02*
X79000000Y-122540000D01*
X97695999Y-97544001D02*
X97695999Y-104659923D01*
X99000000Y-96240000D02*
X97695999Y-97544001D01*
X79000000Y-122540000D02*
X79000000Y-125080000D01*
%TO.N,/MUX3/OUT_2*%
X87540000Y-105160000D02*
X86620000Y-105160000D01*
X99000000Y-93700000D02*
X87540000Y-105160000D01*
X86620000Y-105160000D02*
X86620000Y-107700000D01*
%TO.N,/MUX3/OUT_1*%
X79815922Y-97540000D02*
X79000000Y-97540000D01*
X79000000Y-97540000D02*
X79000000Y-100080000D01*
X88794010Y-101365990D02*
X99000000Y-91160000D01*
X82825990Y-101365990D02*
X88794010Y-101365990D01*
X79000000Y-97540000D02*
X82825990Y-101365990D01*
%TO.N,/MUX2/OUT_2*%
X92540000Y-88620000D02*
X86620000Y-82700000D01*
X99000000Y-88620000D02*
X92540000Y-88620000D01*
X86620000Y-82700000D02*
X86620000Y-80160000D01*
%TO.N,/MUX2/OUT_1*%
X79000000Y-75080000D02*
X79000000Y-72540000D01*
X89285990Y-76365990D02*
X99000000Y-86080000D01*
X80285990Y-76365990D02*
X89285990Y-76365990D01*
X79000000Y-75080000D02*
X80285990Y-76365990D01*
%TO.N,/MUX1/OUT_2*%
X88982020Y-60062020D02*
X86620000Y-57700000D01*
X88982020Y-73522020D02*
X88982020Y-60062020D01*
X99000000Y-83540000D02*
X88982020Y-73522020D01*
X86620000Y-57700000D02*
X86620000Y-55160000D01*
%TO.N,/MUX1/OUT_1*%
X79000000Y-50080000D02*
X79000000Y-47540000D01*
X80254010Y-46285990D02*
X79000000Y-47540000D01*
X90745999Y-49492562D02*
X87539427Y-46285990D01*
X90745999Y-72745999D02*
X90745999Y-49492562D01*
X87539427Y-46285990D02*
X80254010Y-46285990D01*
X99000000Y-81000000D02*
X90745999Y-72745999D01*
D22*
%TO.N,Net-(C2-Pad1)*%
X64750000Y-57344928D02*
X65545048Y-56549880D01*
X64750000Y-64000000D02*
X64750000Y-57344928D01*
%TO.N,Net-(C3-Pad2)*%
X88092499Y-38932499D02*
X72067501Y-38932499D01*
X92000000Y-42840000D02*
X88092499Y-38932499D01*
D21*
X68040000Y-45460000D02*
X68500000Y-45000000D01*
X68040000Y-51000000D02*
X68040000Y-45460000D01*
X68500000Y-42500000D02*
X72067501Y-38932499D01*
X68500000Y-45000000D02*
X68500000Y-42500000D01*
%TO.N,/MUX4/B1*%
X67000000Y-123240000D02*
X69540000Y-123240000D01*
D22*
%TO.N,Net-(FB2-Pad1)*%
X97000000Y-48000000D02*
X92000000Y-53000000D01*
X99000000Y-48000000D02*
X97000000Y-48000000D01*
%TD*%
D23*
%TO.N,GND*%
X105340001Y-138340000D02*
X62660000Y-138340000D01*
X62660000Y-107400000D01*
X65511928Y-107400000D01*
X65511928Y-108600000D01*
X65528992Y-108773254D01*
X65579528Y-108939850D01*
X65661595Y-109093386D01*
X65772038Y-109227962D01*
X65906614Y-109338405D01*
X66033608Y-109406285D01*
X65846525Y-109593368D01*
X65684010Y-109836589D01*
X65572068Y-110106842D01*
X65515000Y-110393740D01*
X65515000Y-110686260D01*
X65572068Y-110973158D01*
X65684010Y-111243411D01*
X65846525Y-111486632D01*
X66053368Y-111693475D01*
X66227760Y-111810000D01*
X66053368Y-111926525D01*
X65846525Y-112133368D01*
X65684010Y-112376589D01*
X65572068Y-112646842D01*
X65515000Y-112933740D01*
X65515000Y-113226260D01*
X65572068Y-113513158D01*
X65684010Y-113783411D01*
X65846525Y-114026632D01*
X66053368Y-114233475D01*
X66227760Y-114350000D01*
X66053368Y-114466525D01*
X65846525Y-114673368D01*
X65684010Y-114916589D01*
X65572068Y-115186842D01*
X65515000Y-115473740D01*
X65515000Y-115766260D01*
X65572068Y-116053158D01*
X65684010Y-116323411D01*
X65846525Y-116566632D01*
X66053368Y-116773475D01*
X66227760Y-116890000D01*
X66053368Y-117006525D01*
X65846525Y-117213368D01*
X65684010Y-117456589D01*
X65572068Y-117726842D01*
X65515000Y-118013740D01*
X65515000Y-118306260D01*
X65572068Y-118593158D01*
X65684010Y-118863411D01*
X65846525Y-119106632D01*
X66053368Y-119313475D01*
X66227760Y-119430000D01*
X66053368Y-119546525D01*
X65846525Y-119753368D01*
X65684010Y-119996589D01*
X65572068Y-120266842D01*
X65515000Y-120553740D01*
X65515000Y-120846260D01*
X65572068Y-121133158D01*
X65684010Y-121403411D01*
X65846525Y-121646632D01*
X66053368Y-121853475D01*
X66227760Y-121970000D01*
X66053368Y-122086525D01*
X65846525Y-122293368D01*
X65684010Y-122536589D01*
X65572068Y-122806842D01*
X65515000Y-123093740D01*
X65515000Y-123386260D01*
X65572068Y-123673158D01*
X65684010Y-123943411D01*
X65846525Y-124186632D01*
X66053368Y-124393475D01*
X66227760Y-124510000D01*
X66053368Y-124626525D01*
X65846525Y-124833368D01*
X65684010Y-125076589D01*
X65572068Y-125346842D01*
X65515000Y-125633740D01*
X65515000Y-125926260D01*
X65572068Y-126213158D01*
X65684010Y-126483411D01*
X65846525Y-126726632D01*
X66053368Y-126933475D01*
X66296589Y-127095990D01*
X66566842Y-127207932D01*
X66853740Y-127265000D01*
X67146260Y-127265000D01*
X67433158Y-127207932D01*
X67703411Y-127095990D01*
X67946632Y-126933475D01*
X68153475Y-126726632D01*
X68191983Y-126669000D01*
X68348017Y-126669000D01*
X68386525Y-126726632D01*
X68593368Y-126933475D01*
X68836589Y-127095990D01*
X69106842Y-127207932D01*
X69393740Y-127265000D01*
X69686260Y-127265000D01*
X69973158Y-127207932D01*
X70243411Y-127095990D01*
X70486632Y-126933475D01*
X70693475Y-126726632D01*
X70855990Y-126483411D01*
X70967932Y-126213158D01*
X71025000Y-125926260D01*
X71025000Y-125633740D01*
X70967932Y-125346842D01*
X70855990Y-125076589D01*
X70693475Y-124833368D01*
X70486632Y-124626525D01*
X70312240Y-124510000D01*
X70486632Y-124393475D01*
X70693475Y-124186632D01*
X70855990Y-123943411D01*
X70967932Y-123673158D01*
X71025000Y-123386260D01*
X71025000Y-123093740D01*
X70967932Y-122806842D01*
X70855990Y-122536589D01*
X70693475Y-122293368D01*
X70486632Y-122086525D01*
X70312240Y-121970000D01*
X70486632Y-121853475D01*
X70693475Y-121646632D01*
X70855990Y-121403411D01*
X70967932Y-121133158D01*
X71025000Y-120846260D01*
X71025000Y-120553740D01*
X70967932Y-120266842D01*
X70855990Y-119996589D01*
X70693475Y-119753368D01*
X70486632Y-119546525D01*
X70312240Y-119430000D01*
X70486632Y-119313475D01*
X70693475Y-119106632D01*
X70855990Y-118863411D01*
X70967932Y-118593158D01*
X71025000Y-118306260D01*
X71025000Y-118013740D01*
X70967932Y-117726842D01*
X70855990Y-117456589D01*
X70693475Y-117213368D01*
X70486632Y-117006525D01*
X70312240Y-116890000D01*
X70486632Y-116773475D01*
X70693475Y-116566632D01*
X70855990Y-116323411D01*
X70967932Y-116053158D01*
X71025000Y-115766260D01*
X71025000Y-115473740D01*
X70967932Y-115186842D01*
X70855990Y-114916589D01*
X70693475Y-114673368D01*
X70486632Y-114466525D01*
X70312240Y-114350000D01*
X70486632Y-114233475D01*
X70693475Y-114026632D01*
X70855990Y-113783411D01*
X70967932Y-113513158D01*
X71025000Y-113226260D01*
X71025000Y-112933740D01*
X70967932Y-112646842D01*
X70855990Y-112376589D01*
X70693475Y-112133368D01*
X70486632Y-111926525D01*
X70312240Y-111810000D01*
X70486632Y-111693475D01*
X70693475Y-111486632D01*
X70855990Y-111243411D01*
X70967932Y-110973158D01*
X71025000Y-110686260D01*
X71025000Y-110393740D01*
X70967932Y-110106842D01*
X70855990Y-109836589D01*
X70693475Y-109593368D01*
X70486632Y-109386525D01*
X70312240Y-109270000D01*
X70486632Y-109153475D01*
X70693475Y-108946632D01*
X70855990Y-108703411D01*
X70967932Y-108433158D01*
X71025000Y-108146260D01*
X71025000Y-107853740D01*
X70967932Y-107566842D01*
X70855990Y-107296589D01*
X70693475Y-107053368D01*
X70486632Y-106846525D01*
X70243411Y-106684010D01*
X69973158Y-106572068D01*
X69686260Y-106515000D01*
X69393740Y-106515000D01*
X69106842Y-106572068D01*
X68836589Y-106684010D01*
X68593368Y-106846525D01*
X68406285Y-107033608D01*
X68338405Y-106906614D01*
X68227962Y-106772038D01*
X68093386Y-106661595D01*
X67939850Y-106579528D01*
X67773254Y-106528992D01*
X67600000Y-106511928D01*
X66400000Y-106511928D01*
X66226746Y-106528992D01*
X66060150Y-106579528D01*
X65906614Y-106661595D01*
X65772038Y-106772038D01*
X65661595Y-106906614D01*
X65579528Y-107060150D01*
X65528992Y-107226746D01*
X65511928Y-107400000D01*
X62660000Y-107400000D01*
X62660000Y-74400000D01*
X65511928Y-74400000D01*
X65511928Y-75600000D01*
X65528992Y-75773254D01*
X65579528Y-75939850D01*
X65661595Y-76093386D01*
X65772038Y-76227962D01*
X65906614Y-76338405D01*
X66033608Y-76406285D01*
X65846525Y-76593368D01*
X65684010Y-76836589D01*
X65572068Y-77106842D01*
X65515000Y-77393740D01*
X65515000Y-77686260D01*
X65572068Y-77973158D01*
X65684010Y-78243411D01*
X65846525Y-78486632D01*
X66053368Y-78693475D01*
X66227760Y-78810000D01*
X66053368Y-78926525D01*
X65846525Y-79133368D01*
X65684010Y-79376589D01*
X65572068Y-79646842D01*
X65515000Y-79933740D01*
X65515000Y-80226260D01*
X65572068Y-80513158D01*
X65684010Y-80783411D01*
X65846525Y-81026632D01*
X66053368Y-81233475D01*
X66227760Y-81350000D01*
X66053368Y-81466525D01*
X65846525Y-81673368D01*
X65684010Y-81916589D01*
X65572068Y-82186842D01*
X65515000Y-82473740D01*
X65515000Y-82766260D01*
X65572068Y-83053158D01*
X65684010Y-83323411D01*
X65846525Y-83566632D01*
X66053368Y-83773475D01*
X66227760Y-83890000D01*
X66053368Y-84006525D01*
X65846525Y-84213368D01*
X65684010Y-84456589D01*
X65572068Y-84726842D01*
X65515000Y-85013740D01*
X65515000Y-85306260D01*
X65572068Y-85593158D01*
X65684010Y-85863411D01*
X65846525Y-86106632D01*
X66053368Y-86313475D01*
X66227760Y-86430000D01*
X66053368Y-86546525D01*
X65846525Y-86753368D01*
X65684010Y-86996589D01*
X65572068Y-87266842D01*
X65515000Y-87553740D01*
X65515000Y-87846260D01*
X65572068Y-88133158D01*
X65684010Y-88403411D01*
X65846525Y-88646632D01*
X66053368Y-88853475D01*
X66227760Y-88970000D01*
X66053368Y-89086525D01*
X65846525Y-89293368D01*
X65684010Y-89536589D01*
X65572068Y-89806842D01*
X65515000Y-90093740D01*
X65515000Y-90386260D01*
X65572068Y-90673158D01*
X65684010Y-90943411D01*
X65846525Y-91186632D01*
X66053368Y-91393475D01*
X66227760Y-91510000D01*
X66053368Y-91626525D01*
X65846525Y-91833368D01*
X65684010Y-92076589D01*
X65572068Y-92346842D01*
X65515000Y-92633740D01*
X65515000Y-92926260D01*
X65572068Y-93213158D01*
X65684010Y-93483411D01*
X65846525Y-93726632D01*
X66053368Y-93933475D01*
X66296589Y-94095990D01*
X66566842Y-94207932D01*
X66853740Y-94265000D01*
X67146260Y-94265000D01*
X67433158Y-94207932D01*
X67703411Y-94095990D01*
X67946632Y-93933475D01*
X68153475Y-93726632D01*
X68270000Y-93552240D01*
X68386525Y-93726632D01*
X68593368Y-93933475D01*
X68836589Y-94095990D01*
X69106842Y-94207932D01*
X69393740Y-94265000D01*
X69686260Y-94265000D01*
X69973158Y-94207932D01*
X70243411Y-94095990D01*
X70486632Y-93933475D01*
X70693475Y-93726632D01*
X70723374Y-93681885D01*
X72152990Y-95111501D01*
X72152991Y-121251757D01*
X72148690Y-121295427D01*
X72165854Y-121469701D01*
X72216688Y-121637279D01*
X72299238Y-121791718D01*
X72365945Y-121873000D01*
X72410332Y-121927086D01*
X72444249Y-121954921D01*
X77368729Y-126879402D01*
X77267818Y-127068192D01*
X77185764Y-127338691D01*
X77158057Y-127620000D01*
X77185764Y-127901309D01*
X77267818Y-128171808D01*
X77401068Y-128421101D01*
X77580392Y-128639608D01*
X77798899Y-128818932D01*
X77931858Y-128890000D01*
X77798899Y-128961068D01*
X77580392Y-129140392D01*
X77401068Y-129358899D01*
X77267818Y-129608192D01*
X77185764Y-129878691D01*
X77158057Y-130160000D01*
X77185764Y-130441309D01*
X77267818Y-130711808D01*
X77401068Y-130961101D01*
X77580392Y-131179608D01*
X77798899Y-131358932D01*
X77931858Y-131430000D01*
X77798899Y-131501068D01*
X77580392Y-131680392D01*
X77401068Y-131898899D01*
X77267818Y-132148192D01*
X77185764Y-132418691D01*
X77158057Y-132700000D01*
X77185764Y-132981309D01*
X77267818Y-133251808D01*
X77401068Y-133501101D01*
X77580392Y-133719608D01*
X77798899Y-133898932D01*
X77931858Y-133970000D01*
X77798899Y-134041068D01*
X77580392Y-134220392D01*
X77401068Y-134438899D01*
X77267818Y-134688192D01*
X77185764Y-134958691D01*
X77158057Y-135240000D01*
X77185764Y-135521309D01*
X77267818Y-135791808D01*
X77401068Y-136041101D01*
X77580392Y-136259608D01*
X77798899Y-136438932D01*
X78048192Y-136572182D01*
X78318691Y-136654236D01*
X78529508Y-136675000D01*
X79470492Y-136675000D01*
X79681309Y-136654236D01*
X79951808Y-136572182D01*
X80201101Y-136438932D01*
X80419608Y-136259608D01*
X80598932Y-136041101D01*
X80732182Y-135791808D01*
X80756013Y-135713248D01*
X82842526Y-137799762D01*
X82870361Y-137833679D01*
X83005729Y-137944773D01*
X83160169Y-138027323D01*
X83254778Y-138056022D01*
X83327745Y-138078156D01*
X83344345Y-138079791D01*
X83458353Y-138091020D01*
X83458360Y-138091020D01*
X83502020Y-138095320D01*
X83545680Y-138091020D01*
X94615597Y-138091020D01*
X94659257Y-138095320D01*
X94702917Y-138091020D01*
X94702924Y-138091020D01*
X94833531Y-138078156D01*
X95001108Y-138027323D01*
X95155548Y-137944773D01*
X95290916Y-137833679D01*
X95318756Y-137799756D01*
X99979513Y-133139000D01*
X100728151Y-133139000D01*
X100745363Y-133164759D01*
X100945241Y-133364637D01*
X101180273Y-133521680D01*
X101441426Y-133629853D01*
X101718665Y-133685000D01*
X102001335Y-133685000D01*
X102278574Y-133629853D01*
X102539727Y-133521680D01*
X102774759Y-133364637D01*
X102974637Y-133164759D01*
X103131680Y-132929727D01*
X103239853Y-132668574D01*
X103295000Y-132391335D01*
X103295000Y-132108665D01*
X103239853Y-131831426D01*
X103131680Y-131570273D01*
X102974637Y-131335241D01*
X102774759Y-131135363D01*
X102539727Y-130978320D01*
X102278574Y-130870147D01*
X102001335Y-130815000D01*
X101718665Y-130815000D01*
X101441426Y-130870147D01*
X101180273Y-130978320D01*
X101055637Y-131061599D01*
X101688280Y-130428956D01*
X101718665Y-130435000D01*
X102001335Y-130435000D01*
X102278574Y-130379853D01*
X102539727Y-130271680D01*
X102774759Y-130114637D01*
X102974637Y-129914759D01*
X103131680Y-129679727D01*
X103239853Y-129418574D01*
X103295000Y-129141335D01*
X103295000Y-128858665D01*
X103289913Y-128833092D01*
X103291658Y-128831660D01*
X103402752Y-128696292D01*
X103485302Y-128541852D01*
X103527646Y-128402260D01*
X103536135Y-128374277D01*
X103547661Y-128257248D01*
X103548999Y-128243668D01*
X103548999Y-128243662D01*
X103553299Y-128200002D01*
X103548999Y-128156342D01*
X103548999Y-118623658D01*
X103553299Y-118579998D01*
X103548999Y-118536338D01*
X103548999Y-118536332D01*
X103538657Y-118431326D01*
X103536135Y-118405723D01*
X103485301Y-118238146D01*
X103466292Y-118202583D01*
X103402752Y-118083708D01*
X103291658Y-117948340D01*
X103257741Y-117920505D01*
X102671926Y-117334690D01*
X102708224Y-117215032D01*
X102737282Y-116920000D01*
X102708224Y-116624968D01*
X102622166Y-116341275D01*
X102482417Y-116079821D01*
X102294345Y-115850655D01*
X102065179Y-115662583D01*
X102041638Y-115650000D01*
X102065179Y-115637417D01*
X102294345Y-115449345D01*
X102482417Y-115220179D01*
X102622166Y-114958725D01*
X102708224Y-114675032D01*
X102737282Y-114380000D01*
X102708224Y-114084968D01*
X102671926Y-113965310D01*
X104149754Y-112487482D01*
X104183670Y-112459648D01*
X104294764Y-112324280D01*
X104377314Y-112169840D01*
X104428147Y-112002263D01*
X104441011Y-111871656D01*
X104441011Y-111871655D01*
X104445312Y-111827989D01*
X104441011Y-111784321D01*
X104441011Y-70480457D01*
X104469216Y-70438245D01*
X104547237Y-70249887D01*
X104587011Y-70049928D01*
X104587011Y-69846050D01*
X104547237Y-69646091D01*
X104469216Y-69457733D01*
X104441011Y-69415521D01*
X104441011Y-48125748D01*
X104445311Y-48082088D01*
X104441011Y-48038428D01*
X104441011Y-48038422D01*
X104428147Y-47907815D01*
X104420272Y-47881852D01*
X104377313Y-47740236D01*
X104363436Y-47714274D01*
X104294764Y-47585798D01*
X104183670Y-47450430D01*
X104149753Y-47422595D01*
X101129421Y-44402264D01*
X101101581Y-44368341D01*
X100966213Y-44257247D01*
X100811773Y-44174697D01*
X100644196Y-44123864D01*
X100513589Y-44111000D01*
X100513582Y-44111000D01*
X100469922Y-44106700D01*
X100426262Y-44111000D01*
X92680745Y-44111000D01*
X92914759Y-43954637D01*
X93114637Y-43754759D01*
X93271680Y-43519727D01*
X93379853Y-43258574D01*
X93435000Y-42981335D01*
X93435000Y-42698665D01*
X93379853Y-42421426D01*
X93271680Y-42160273D01*
X93114637Y-41925241D01*
X92914759Y-41725363D01*
X92679727Y-41568320D01*
X92418574Y-41460147D01*
X92141335Y-41405000D01*
X91912039Y-41405000D01*
X88799106Y-38292068D01*
X88769277Y-38255721D01*
X88624240Y-38136693D01*
X88458768Y-38048247D01*
X88279222Y-37993782D01*
X88139284Y-37979999D01*
X88092499Y-37975391D01*
X88045714Y-37979999D01*
X72020716Y-37979999D01*
X71880778Y-37993782D01*
X71701232Y-38048247D01*
X71535760Y-38136693D01*
X71390723Y-38255721D01*
X71271695Y-38400758D01*
X71190958Y-38551807D01*
X67902259Y-41840506D01*
X67868342Y-41868341D01*
X67840507Y-41902258D01*
X67840505Y-41902260D01*
X67757248Y-42003709D01*
X67674698Y-42158148D01*
X67623864Y-42325726D01*
X67606700Y-42500000D01*
X67611001Y-42543670D01*
X67611000Y-43868151D01*
X67585241Y-43885363D01*
X67418661Y-44051943D01*
X67389502Y-43955820D01*
X67330537Y-43845506D01*
X67251185Y-43748815D01*
X67154494Y-43669463D01*
X67044180Y-43610498D01*
X66924482Y-43574188D01*
X66800000Y-43561928D01*
X66285750Y-43565000D01*
X66127000Y-43723750D01*
X66127000Y-44873000D01*
X66147000Y-44873000D01*
X66147000Y-45127000D01*
X66127000Y-45127000D01*
X66127000Y-46276250D01*
X66285750Y-46435000D01*
X66800000Y-46438072D01*
X66924482Y-46425812D01*
X67044180Y-46389502D01*
X67151001Y-46332404D01*
X67151000Y-49930315D01*
X66964201Y-50117114D01*
X66886445Y-50233483D01*
X66875812Y-50125518D01*
X66839502Y-50005820D01*
X66780537Y-49895506D01*
X66701185Y-49798815D01*
X66604494Y-49719463D01*
X66494180Y-49660498D01*
X66374482Y-49624188D01*
X66250000Y-49611928D01*
X65785750Y-49615000D01*
X65627000Y-49773750D01*
X65627000Y-50873000D01*
X65647000Y-50873000D01*
X65647000Y-51127000D01*
X65627000Y-51127000D01*
X65627000Y-52226250D01*
X65785750Y-52385000D01*
X66250000Y-52388072D01*
X66374482Y-52375812D01*
X66494180Y-52339502D01*
X66604494Y-52280537D01*
X66701185Y-52201185D01*
X66780537Y-52104494D01*
X66839502Y-51994180D01*
X66875812Y-51874482D01*
X66886445Y-51766517D01*
X66964201Y-51882886D01*
X67157114Y-52075799D01*
X67383957Y-52227371D01*
X67636011Y-52331775D01*
X67903589Y-52385000D01*
X68176411Y-52385000D01*
X68443989Y-52331775D01*
X68696043Y-52227371D01*
X68922886Y-52075799D01*
X69115799Y-51882886D01*
X69267371Y-51656043D01*
X69310000Y-51553127D01*
X69352629Y-51656043D01*
X69504201Y-51882886D01*
X69697114Y-52075799D01*
X69923957Y-52227371D01*
X70176011Y-52331775D01*
X70443589Y-52385000D01*
X70716411Y-52385000D01*
X70895001Y-52349476D01*
X70895001Y-54932889D01*
X70666082Y-55161808D01*
X69875048Y-55161808D01*
X69750566Y-55174068D01*
X69630868Y-55210378D01*
X69520554Y-55269343D01*
X69423863Y-55348695D01*
X69344511Y-55445386D01*
X69285546Y-55555700D01*
X69249236Y-55675398D01*
X69236976Y-55799880D01*
X69236976Y-55825966D01*
X69042041Y-55772492D01*
X68264653Y-56549880D01*
X69042041Y-57327268D01*
X69236976Y-57273794D01*
X69236976Y-57299880D01*
X69249236Y-57424362D01*
X69285546Y-57544060D01*
X69344511Y-57654374D01*
X69423863Y-57751065D01*
X69520554Y-57830417D01*
X69630868Y-57889382D01*
X69750566Y-57925692D01*
X69875048Y-57937952D01*
X70666082Y-57937952D01*
X72297501Y-59569372D01*
X72297500Y-62582687D01*
X72205820Y-62610498D01*
X72095506Y-62669463D01*
X71998815Y-62748815D01*
X71919463Y-62845506D01*
X71860498Y-62955820D01*
X71824188Y-63075518D01*
X71811928Y-63200000D01*
X71811928Y-63207215D01*
X71742702Y-63186903D01*
X70929605Y-64000000D01*
X71742702Y-64813097D01*
X71811928Y-64792785D01*
X71811928Y-64800000D01*
X71824188Y-64924482D01*
X71860498Y-65044180D01*
X71919463Y-65154494D01*
X71998815Y-65251185D01*
X72095506Y-65330537D01*
X72205820Y-65389502D01*
X72325518Y-65425812D01*
X72450000Y-65438072D01*
X74050000Y-65438072D01*
X74111000Y-65432064D01*
X74111000Y-69171764D01*
X69754242Y-73528523D01*
X69686260Y-73515000D01*
X69393740Y-73515000D01*
X69106842Y-73572068D01*
X68836589Y-73684010D01*
X68593368Y-73846525D01*
X68406285Y-74033608D01*
X68338405Y-73906614D01*
X68227962Y-73772038D01*
X68093386Y-73661595D01*
X67939850Y-73579528D01*
X67773254Y-73528992D01*
X67600000Y-73511928D01*
X66400000Y-73511928D01*
X66226746Y-73528992D01*
X66060150Y-73579528D01*
X65906614Y-73661595D01*
X65772038Y-73772038D01*
X65661595Y-73906614D01*
X65579528Y-74060150D01*
X65528992Y-74226746D01*
X65511928Y-74400000D01*
X62660000Y-74400000D01*
X62660000Y-63200000D01*
X63311928Y-63200000D01*
X63311928Y-64800000D01*
X63324188Y-64924482D01*
X63360498Y-65044180D01*
X63419463Y-65154494D01*
X63498815Y-65251185D01*
X63595506Y-65330537D01*
X63705820Y-65389502D01*
X63825518Y-65425812D01*
X63950000Y-65438072D01*
X65550000Y-65438072D01*
X65674482Y-65425812D01*
X65794180Y-65389502D01*
X65904494Y-65330537D01*
X66001185Y-65251185D01*
X66080537Y-65154494D01*
X66139502Y-65044180D01*
X66155117Y-64992702D01*
X66436903Y-64992702D01*
X66508486Y-65236671D01*
X66763996Y-65357571D01*
X67038184Y-65426300D01*
X67320512Y-65440217D01*
X67600130Y-65398787D01*
X67866292Y-65303603D01*
X67991514Y-65236671D01*
X68063097Y-64992702D01*
X69936903Y-64992702D01*
X70008486Y-65236671D01*
X70263996Y-65357571D01*
X70538184Y-65426300D01*
X70820512Y-65440217D01*
X71100130Y-65398787D01*
X71366292Y-65303603D01*
X71491514Y-65236671D01*
X71563097Y-64992702D01*
X70750000Y-64179605D01*
X69936903Y-64992702D01*
X68063097Y-64992702D01*
X67250000Y-64179605D01*
X66436903Y-64992702D01*
X66155117Y-64992702D01*
X66175812Y-64924482D01*
X66188072Y-64800000D01*
X66188072Y-64792785D01*
X66257298Y-64813097D01*
X67070395Y-64000000D01*
X67429605Y-64000000D01*
X68242702Y-64813097D01*
X68486671Y-64741514D01*
X68607571Y-64486004D01*
X68676300Y-64211816D01*
X68683265Y-64070512D01*
X69309783Y-64070512D01*
X69351213Y-64350130D01*
X69446397Y-64616292D01*
X69513329Y-64741514D01*
X69757298Y-64813097D01*
X70570395Y-64000000D01*
X69757298Y-63186903D01*
X69513329Y-63258486D01*
X69392429Y-63513996D01*
X69323700Y-63788184D01*
X69309783Y-64070512D01*
X68683265Y-64070512D01*
X68690217Y-63929488D01*
X68648787Y-63649870D01*
X68553603Y-63383708D01*
X68486671Y-63258486D01*
X68242702Y-63186903D01*
X67429605Y-64000000D01*
X67070395Y-64000000D01*
X66257298Y-63186903D01*
X66188072Y-63207215D01*
X66188072Y-63200000D01*
X66175812Y-63075518D01*
X66155118Y-63007298D01*
X66436903Y-63007298D01*
X67250000Y-63820395D01*
X68063097Y-63007298D01*
X69936903Y-63007298D01*
X70750000Y-63820395D01*
X71563097Y-63007298D01*
X71491514Y-62763329D01*
X71236004Y-62642429D01*
X70961816Y-62573700D01*
X70679488Y-62559783D01*
X70399870Y-62601213D01*
X70133708Y-62696397D01*
X70008486Y-62763329D01*
X69936903Y-63007298D01*
X68063097Y-63007298D01*
X67991514Y-62763329D01*
X67736004Y-62642429D01*
X67461816Y-62573700D01*
X67179488Y-62559783D01*
X66899870Y-62601213D01*
X66633708Y-62696397D01*
X66508486Y-62763329D01*
X66436903Y-63007298D01*
X66155118Y-63007298D01*
X66139502Y-62955820D01*
X66080537Y-62845506D01*
X66001185Y-62748815D01*
X65904494Y-62669463D01*
X65794180Y-62610498D01*
X65702500Y-62582687D01*
X65702500Y-57930695D01*
X65949037Y-57881655D01*
X66201091Y-57777251D01*
X66427934Y-57625679D01*
X66546740Y-57506873D01*
X67307660Y-57506873D01*
X67373185Y-57745740D01*
X67620164Y-57861640D01*
X67885008Y-57927130D01*
X68157540Y-57939692D01*
X68427286Y-57898845D01*
X68683880Y-57806157D01*
X68796911Y-57745740D01*
X68862436Y-57506873D01*
X68085048Y-56729485D01*
X67307660Y-57506873D01*
X66546740Y-57506873D01*
X66620847Y-57432766D01*
X66772419Y-57205923D01*
X66813559Y-57106601D01*
X66828771Y-57148712D01*
X66889188Y-57261743D01*
X67128055Y-57327268D01*
X67905443Y-56549880D01*
X67128055Y-55772492D01*
X66889188Y-55838017D01*
X66814884Y-55996357D01*
X66772419Y-55893837D01*
X66620847Y-55666994D01*
X66546740Y-55592887D01*
X67307660Y-55592887D01*
X68085048Y-56370275D01*
X68862436Y-55592887D01*
X68796911Y-55354020D01*
X68549932Y-55238120D01*
X68285088Y-55172630D01*
X68012556Y-55160068D01*
X67742810Y-55200915D01*
X67486216Y-55293603D01*
X67373185Y-55354020D01*
X67307660Y-55592887D01*
X66546740Y-55592887D01*
X66427934Y-55474081D01*
X66201091Y-55322509D01*
X65949037Y-55218105D01*
X65681459Y-55164880D01*
X65408637Y-55164880D01*
X65141059Y-55218105D01*
X64889005Y-55322509D01*
X64662162Y-55474081D01*
X64469249Y-55666994D01*
X64317677Y-55893837D01*
X64213273Y-56145891D01*
X64160048Y-56413469D01*
X64160048Y-56587842D01*
X64109565Y-56638325D01*
X64073223Y-56668150D01*
X64043399Y-56704491D01*
X63954194Y-56813188D01*
X63865749Y-56978659D01*
X63811283Y-57158206D01*
X63792892Y-57344928D01*
X63797501Y-57391723D01*
X63797500Y-62582687D01*
X63705820Y-62610498D01*
X63595506Y-62669463D01*
X63498815Y-62748815D01*
X63419463Y-62845506D01*
X63360498Y-62955820D01*
X63324188Y-63075518D01*
X63311928Y-63200000D01*
X62660000Y-63200000D01*
X62660000Y-51750000D01*
X64111928Y-51750000D01*
X64124188Y-51874482D01*
X64160498Y-51994180D01*
X64219463Y-52104494D01*
X64298815Y-52201185D01*
X64395506Y-52280537D01*
X64505820Y-52339502D01*
X64625518Y-52375812D01*
X64750000Y-52388072D01*
X65214250Y-52385000D01*
X65373000Y-52226250D01*
X65373000Y-51127000D01*
X64273750Y-51127000D01*
X64115000Y-51285750D01*
X64111928Y-51750000D01*
X62660000Y-51750000D01*
X62660000Y-50250000D01*
X64111928Y-50250000D01*
X64115000Y-50714250D01*
X64273750Y-50873000D01*
X65373000Y-50873000D01*
X65373000Y-49773750D01*
X65214250Y-49615000D01*
X64750000Y-49611928D01*
X64625518Y-49624188D01*
X64505820Y-49660498D01*
X64395506Y-49719463D01*
X64298815Y-49798815D01*
X64219463Y-49895506D01*
X64160498Y-50005820D01*
X64124188Y-50125518D01*
X64111928Y-50250000D01*
X62660000Y-50250000D01*
X62660000Y-45800000D01*
X64561928Y-45800000D01*
X64574188Y-45924482D01*
X64610498Y-46044180D01*
X64669463Y-46154494D01*
X64748815Y-46251185D01*
X64845506Y-46330537D01*
X64955820Y-46389502D01*
X65075518Y-46425812D01*
X65200000Y-46438072D01*
X65714250Y-46435000D01*
X65873000Y-46276250D01*
X65873000Y-45127000D01*
X64723750Y-45127000D01*
X64565000Y-45285750D01*
X64561928Y-45800000D01*
X62660000Y-45800000D01*
X62660000Y-44200000D01*
X64561928Y-44200000D01*
X64565000Y-44714250D01*
X64723750Y-44873000D01*
X65873000Y-44873000D01*
X65873000Y-43723750D01*
X65714250Y-43565000D01*
X65200000Y-43561928D01*
X65075518Y-43574188D01*
X64955820Y-43610498D01*
X64845506Y-43669463D01*
X64748815Y-43748815D01*
X64669463Y-43845506D01*
X64610498Y-43955820D01*
X64574188Y-44075518D01*
X64561928Y-44200000D01*
X62660000Y-44200000D01*
X62660000Y-37660000D01*
X105340000Y-37660000D01*
X105340001Y-138340000D01*
%TA.AperFunction,Conductor*%
D24*
G36*
X105340001Y-138340000D02*
G01*
X62660000Y-138340000D01*
X62660000Y-107400000D01*
X65511928Y-107400000D01*
X65511928Y-108600000D01*
X65528992Y-108773254D01*
X65579528Y-108939850D01*
X65661595Y-109093386D01*
X65772038Y-109227962D01*
X65906614Y-109338405D01*
X66033608Y-109406285D01*
X65846525Y-109593368D01*
X65684010Y-109836589D01*
X65572068Y-110106842D01*
X65515000Y-110393740D01*
X65515000Y-110686260D01*
X65572068Y-110973158D01*
X65684010Y-111243411D01*
X65846525Y-111486632D01*
X66053368Y-111693475D01*
X66227760Y-111810000D01*
X66053368Y-111926525D01*
X65846525Y-112133368D01*
X65684010Y-112376589D01*
X65572068Y-112646842D01*
X65515000Y-112933740D01*
X65515000Y-113226260D01*
X65572068Y-113513158D01*
X65684010Y-113783411D01*
X65846525Y-114026632D01*
X66053368Y-114233475D01*
X66227760Y-114350000D01*
X66053368Y-114466525D01*
X65846525Y-114673368D01*
X65684010Y-114916589D01*
X65572068Y-115186842D01*
X65515000Y-115473740D01*
X65515000Y-115766260D01*
X65572068Y-116053158D01*
X65684010Y-116323411D01*
X65846525Y-116566632D01*
X66053368Y-116773475D01*
X66227760Y-116890000D01*
X66053368Y-117006525D01*
X65846525Y-117213368D01*
X65684010Y-117456589D01*
X65572068Y-117726842D01*
X65515000Y-118013740D01*
X65515000Y-118306260D01*
X65572068Y-118593158D01*
X65684010Y-118863411D01*
X65846525Y-119106632D01*
X66053368Y-119313475D01*
X66227760Y-119430000D01*
X66053368Y-119546525D01*
X65846525Y-119753368D01*
X65684010Y-119996589D01*
X65572068Y-120266842D01*
X65515000Y-120553740D01*
X65515000Y-120846260D01*
X65572068Y-121133158D01*
X65684010Y-121403411D01*
X65846525Y-121646632D01*
X66053368Y-121853475D01*
X66227760Y-121970000D01*
X66053368Y-122086525D01*
X65846525Y-122293368D01*
X65684010Y-122536589D01*
X65572068Y-122806842D01*
X65515000Y-123093740D01*
X65515000Y-123386260D01*
X65572068Y-123673158D01*
X65684010Y-123943411D01*
X65846525Y-124186632D01*
X66053368Y-124393475D01*
X66227760Y-124510000D01*
X66053368Y-124626525D01*
X65846525Y-124833368D01*
X65684010Y-125076589D01*
X65572068Y-125346842D01*
X65515000Y-125633740D01*
X65515000Y-125926260D01*
X65572068Y-126213158D01*
X65684010Y-126483411D01*
X65846525Y-126726632D01*
X66053368Y-126933475D01*
X66296589Y-127095990D01*
X66566842Y-127207932D01*
X66853740Y-127265000D01*
X67146260Y-127265000D01*
X67433158Y-127207932D01*
X67703411Y-127095990D01*
X67946632Y-126933475D01*
X68153475Y-126726632D01*
X68191983Y-126669000D01*
X68348017Y-126669000D01*
X68386525Y-126726632D01*
X68593368Y-126933475D01*
X68836589Y-127095990D01*
X69106842Y-127207932D01*
X69393740Y-127265000D01*
X69686260Y-127265000D01*
X69973158Y-127207932D01*
X70243411Y-127095990D01*
X70486632Y-126933475D01*
X70693475Y-126726632D01*
X70855990Y-126483411D01*
X70967932Y-126213158D01*
X71025000Y-125926260D01*
X71025000Y-125633740D01*
X70967932Y-125346842D01*
X70855990Y-125076589D01*
X70693475Y-124833368D01*
X70486632Y-124626525D01*
X70312240Y-124510000D01*
X70486632Y-124393475D01*
X70693475Y-124186632D01*
X70855990Y-123943411D01*
X70967932Y-123673158D01*
X71025000Y-123386260D01*
X71025000Y-123093740D01*
X70967932Y-122806842D01*
X70855990Y-122536589D01*
X70693475Y-122293368D01*
X70486632Y-122086525D01*
X70312240Y-121970000D01*
X70486632Y-121853475D01*
X70693475Y-121646632D01*
X70855990Y-121403411D01*
X70967932Y-121133158D01*
X71025000Y-120846260D01*
X71025000Y-120553740D01*
X70967932Y-120266842D01*
X70855990Y-119996589D01*
X70693475Y-119753368D01*
X70486632Y-119546525D01*
X70312240Y-119430000D01*
X70486632Y-119313475D01*
X70693475Y-119106632D01*
X70855990Y-118863411D01*
X70967932Y-118593158D01*
X71025000Y-118306260D01*
X71025000Y-118013740D01*
X70967932Y-117726842D01*
X70855990Y-117456589D01*
X70693475Y-117213368D01*
X70486632Y-117006525D01*
X70312240Y-116890000D01*
X70486632Y-116773475D01*
X70693475Y-116566632D01*
X70855990Y-116323411D01*
X70967932Y-116053158D01*
X71025000Y-115766260D01*
X71025000Y-115473740D01*
X70967932Y-115186842D01*
X70855990Y-114916589D01*
X70693475Y-114673368D01*
X70486632Y-114466525D01*
X70312240Y-114350000D01*
X70486632Y-114233475D01*
X70693475Y-114026632D01*
X70855990Y-113783411D01*
X70967932Y-113513158D01*
X71025000Y-113226260D01*
X71025000Y-112933740D01*
X70967932Y-112646842D01*
X70855990Y-112376589D01*
X70693475Y-112133368D01*
X70486632Y-111926525D01*
X70312240Y-111810000D01*
X70486632Y-111693475D01*
X70693475Y-111486632D01*
X70855990Y-111243411D01*
X70967932Y-110973158D01*
X71025000Y-110686260D01*
X71025000Y-110393740D01*
X70967932Y-110106842D01*
X70855990Y-109836589D01*
X70693475Y-109593368D01*
X70486632Y-109386525D01*
X70312240Y-109270000D01*
X70486632Y-109153475D01*
X70693475Y-108946632D01*
X70855990Y-108703411D01*
X70967932Y-108433158D01*
X71025000Y-108146260D01*
X71025000Y-107853740D01*
X70967932Y-107566842D01*
X70855990Y-107296589D01*
X70693475Y-107053368D01*
X70486632Y-106846525D01*
X70243411Y-106684010D01*
X69973158Y-106572068D01*
X69686260Y-106515000D01*
X69393740Y-106515000D01*
X69106842Y-106572068D01*
X68836589Y-106684010D01*
X68593368Y-106846525D01*
X68406285Y-107033608D01*
X68338405Y-106906614D01*
X68227962Y-106772038D01*
X68093386Y-106661595D01*
X67939850Y-106579528D01*
X67773254Y-106528992D01*
X67600000Y-106511928D01*
X66400000Y-106511928D01*
X66226746Y-106528992D01*
X66060150Y-106579528D01*
X65906614Y-106661595D01*
X65772038Y-106772038D01*
X65661595Y-106906614D01*
X65579528Y-107060150D01*
X65528992Y-107226746D01*
X65511928Y-107400000D01*
X62660000Y-107400000D01*
X62660000Y-74400000D01*
X65511928Y-74400000D01*
X65511928Y-75600000D01*
X65528992Y-75773254D01*
X65579528Y-75939850D01*
X65661595Y-76093386D01*
X65772038Y-76227962D01*
X65906614Y-76338405D01*
X66033608Y-76406285D01*
X65846525Y-76593368D01*
X65684010Y-76836589D01*
X65572068Y-77106842D01*
X65515000Y-77393740D01*
X65515000Y-77686260D01*
X65572068Y-77973158D01*
X65684010Y-78243411D01*
X65846525Y-78486632D01*
X66053368Y-78693475D01*
X66227760Y-78810000D01*
X66053368Y-78926525D01*
X65846525Y-79133368D01*
X65684010Y-79376589D01*
X65572068Y-79646842D01*
X65515000Y-79933740D01*
X65515000Y-80226260D01*
X65572068Y-80513158D01*
X65684010Y-80783411D01*
X65846525Y-81026632D01*
X66053368Y-81233475D01*
X66227760Y-81350000D01*
X66053368Y-81466525D01*
X65846525Y-81673368D01*
X65684010Y-81916589D01*
X65572068Y-82186842D01*
X65515000Y-82473740D01*
X65515000Y-82766260D01*
X65572068Y-83053158D01*
X65684010Y-83323411D01*
X65846525Y-83566632D01*
X66053368Y-83773475D01*
X66227760Y-83890000D01*
X66053368Y-84006525D01*
X65846525Y-84213368D01*
X65684010Y-84456589D01*
X65572068Y-84726842D01*
X65515000Y-85013740D01*
X65515000Y-85306260D01*
X65572068Y-85593158D01*
X65684010Y-85863411D01*
X65846525Y-86106632D01*
X66053368Y-86313475D01*
X66227760Y-86430000D01*
X66053368Y-86546525D01*
X65846525Y-86753368D01*
X65684010Y-86996589D01*
X65572068Y-87266842D01*
X65515000Y-87553740D01*
X65515000Y-87846260D01*
X65572068Y-88133158D01*
X65684010Y-88403411D01*
X65846525Y-88646632D01*
X66053368Y-88853475D01*
X66227760Y-88970000D01*
X66053368Y-89086525D01*
X65846525Y-89293368D01*
X65684010Y-89536589D01*
X65572068Y-89806842D01*
X65515000Y-90093740D01*
X65515000Y-90386260D01*
X65572068Y-90673158D01*
X65684010Y-90943411D01*
X65846525Y-91186632D01*
X66053368Y-91393475D01*
X66227760Y-91510000D01*
X66053368Y-91626525D01*
X65846525Y-91833368D01*
X65684010Y-92076589D01*
X65572068Y-92346842D01*
X65515000Y-92633740D01*
X65515000Y-92926260D01*
X65572068Y-93213158D01*
X65684010Y-93483411D01*
X65846525Y-93726632D01*
X66053368Y-93933475D01*
X66296589Y-94095990D01*
X66566842Y-94207932D01*
X66853740Y-94265000D01*
X67146260Y-94265000D01*
X67433158Y-94207932D01*
X67703411Y-94095990D01*
X67946632Y-93933475D01*
X68153475Y-93726632D01*
X68270000Y-93552240D01*
X68386525Y-93726632D01*
X68593368Y-93933475D01*
X68836589Y-94095990D01*
X69106842Y-94207932D01*
X69393740Y-94265000D01*
X69686260Y-94265000D01*
X69973158Y-94207932D01*
X70243411Y-94095990D01*
X70486632Y-93933475D01*
X70693475Y-93726632D01*
X70723374Y-93681885D01*
X72152990Y-95111501D01*
X72152991Y-121251757D01*
X72148690Y-121295427D01*
X72165854Y-121469701D01*
X72216688Y-121637279D01*
X72299238Y-121791718D01*
X72365945Y-121873000D01*
X72410332Y-121927086D01*
X72444249Y-121954921D01*
X77368729Y-126879402D01*
X77267818Y-127068192D01*
X77185764Y-127338691D01*
X77158057Y-127620000D01*
X77185764Y-127901309D01*
X77267818Y-128171808D01*
X77401068Y-128421101D01*
X77580392Y-128639608D01*
X77798899Y-128818932D01*
X77931858Y-128890000D01*
X77798899Y-128961068D01*
X77580392Y-129140392D01*
X77401068Y-129358899D01*
X77267818Y-129608192D01*
X77185764Y-129878691D01*
X77158057Y-130160000D01*
X77185764Y-130441309D01*
X77267818Y-130711808D01*
X77401068Y-130961101D01*
X77580392Y-131179608D01*
X77798899Y-131358932D01*
X77931858Y-131430000D01*
X77798899Y-131501068D01*
X77580392Y-131680392D01*
X77401068Y-131898899D01*
X77267818Y-132148192D01*
X77185764Y-132418691D01*
X77158057Y-132700000D01*
X77185764Y-132981309D01*
X77267818Y-133251808D01*
X77401068Y-133501101D01*
X77580392Y-133719608D01*
X77798899Y-133898932D01*
X77931858Y-133970000D01*
X77798899Y-134041068D01*
X77580392Y-134220392D01*
X77401068Y-134438899D01*
X77267818Y-134688192D01*
X77185764Y-134958691D01*
X77158057Y-135240000D01*
X77185764Y-135521309D01*
X77267818Y-135791808D01*
X77401068Y-136041101D01*
X77580392Y-136259608D01*
X77798899Y-136438932D01*
X78048192Y-136572182D01*
X78318691Y-136654236D01*
X78529508Y-136675000D01*
X79470492Y-136675000D01*
X79681309Y-136654236D01*
X79951808Y-136572182D01*
X80201101Y-136438932D01*
X80419608Y-136259608D01*
X80598932Y-136041101D01*
X80732182Y-135791808D01*
X80756013Y-135713248D01*
X82842526Y-137799762D01*
X82870361Y-137833679D01*
X83005729Y-137944773D01*
X83160169Y-138027323D01*
X83254778Y-138056022D01*
X83327745Y-138078156D01*
X83344345Y-138079791D01*
X83458353Y-138091020D01*
X83458360Y-138091020D01*
X83502020Y-138095320D01*
X83545680Y-138091020D01*
X94615597Y-138091020D01*
X94659257Y-138095320D01*
X94702917Y-138091020D01*
X94702924Y-138091020D01*
X94833531Y-138078156D01*
X95001108Y-138027323D01*
X95155548Y-137944773D01*
X95290916Y-137833679D01*
X95318756Y-137799756D01*
X99979513Y-133139000D01*
X100728151Y-133139000D01*
X100745363Y-133164759D01*
X100945241Y-133364637D01*
X101180273Y-133521680D01*
X101441426Y-133629853D01*
X101718665Y-133685000D01*
X102001335Y-133685000D01*
X102278574Y-133629853D01*
X102539727Y-133521680D01*
X102774759Y-133364637D01*
X102974637Y-133164759D01*
X103131680Y-132929727D01*
X103239853Y-132668574D01*
X103295000Y-132391335D01*
X103295000Y-132108665D01*
X103239853Y-131831426D01*
X103131680Y-131570273D01*
X102974637Y-131335241D01*
X102774759Y-131135363D01*
X102539727Y-130978320D01*
X102278574Y-130870147D01*
X102001335Y-130815000D01*
X101718665Y-130815000D01*
X101441426Y-130870147D01*
X101180273Y-130978320D01*
X101055637Y-131061599D01*
X101688280Y-130428956D01*
X101718665Y-130435000D01*
X102001335Y-130435000D01*
X102278574Y-130379853D01*
X102539727Y-130271680D01*
X102774759Y-130114637D01*
X102974637Y-129914759D01*
X103131680Y-129679727D01*
X103239853Y-129418574D01*
X103295000Y-129141335D01*
X103295000Y-128858665D01*
X103289913Y-128833092D01*
X103291658Y-128831660D01*
X103402752Y-128696292D01*
X103485302Y-128541852D01*
X103527646Y-128402260D01*
X103536135Y-128374277D01*
X103547661Y-128257248D01*
X103548999Y-128243668D01*
X103548999Y-128243662D01*
X103553299Y-128200002D01*
X103548999Y-128156342D01*
X103548999Y-118623658D01*
X103553299Y-118579998D01*
X103548999Y-118536338D01*
X103548999Y-118536332D01*
X103538657Y-118431326D01*
X103536135Y-118405723D01*
X103485301Y-118238146D01*
X103466292Y-118202583D01*
X103402752Y-118083708D01*
X103291658Y-117948340D01*
X103257741Y-117920505D01*
X102671926Y-117334690D01*
X102708224Y-117215032D01*
X102737282Y-116920000D01*
X102708224Y-116624968D01*
X102622166Y-116341275D01*
X102482417Y-116079821D01*
X102294345Y-115850655D01*
X102065179Y-115662583D01*
X102041638Y-115650000D01*
X102065179Y-115637417D01*
X102294345Y-115449345D01*
X102482417Y-115220179D01*
X102622166Y-114958725D01*
X102708224Y-114675032D01*
X102737282Y-114380000D01*
X102708224Y-114084968D01*
X102671926Y-113965310D01*
X104149754Y-112487482D01*
X104183670Y-112459648D01*
X104294764Y-112324280D01*
X104377314Y-112169840D01*
X104428147Y-112002263D01*
X104441011Y-111871656D01*
X104441011Y-111871655D01*
X104445312Y-111827989D01*
X104441011Y-111784321D01*
X104441011Y-70480457D01*
X104469216Y-70438245D01*
X104547237Y-70249887D01*
X104587011Y-70049928D01*
X104587011Y-69846050D01*
X104547237Y-69646091D01*
X104469216Y-69457733D01*
X104441011Y-69415521D01*
X104441011Y-48125748D01*
X104445311Y-48082088D01*
X104441011Y-48038428D01*
X104441011Y-48038422D01*
X104428147Y-47907815D01*
X104420272Y-47881852D01*
X104377313Y-47740236D01*
X104363436Y-47714274D01*
X104294764Y-47585798D01*
X104183670Y-47450430D01*
X104149753Y-47422595D01*
X101129421Y-44402264D01*
X101101581Y-44368341D01*
X100966213Y-44257247D01*
X100811773Y-44174697D01*
X100644196Y-44123864D01*
X100513589Y-44111000D01*
X100513582Y-44111000D01*
X100469922Y-44106700D01*
X100426262Y-44111000D01*
X92680745Y-44111000D01*
X92914759Y-43954637D01*
X93114637Y-43754759D01*
X93271680Y-43519727D01*
X93379853Y-43258574D01*
X93435000Y-42981335D01*
X93435000Y-42698665D01*
X93379853Y-42421426D01*
X93271680Y-42160273D01*
X93114637Y-41925241D01*
X92914759Y-41725363D01*
X92679727Y-41568320D01*
X92418574Y-41460147D01*
X92141335Y-41405000D01*
X91912039Y-41405000D01*
X88799106Y-38292068D01*
X88769277Y-38255721D01*
X88624240Y-38136693D01*
X88458768Y-38048247D01*
X88279222Y-37993782D01*
X88139284Y-37979999D01*
X88092499Y-37975391D01*
X88045714Y-37979999D01*
X72020716Y-37979999D01*
X71880778Y-37993782D01*
X71701232Y-38048247D01*
X71535760Y-38136693D01*
X71390723Y-38255721D01*
X71271695Y-38400758D01*
X71190958Y-38551807D01*
X67902259Y-41840506D01*
X67868342Y-41868341D01*
X67840507Y-41902258D01*
X67840505Y-41902260D01*
X67757248Y-42003709D01*
X67674698Y-42158148D01*
X67623864Y-42325726D01*
X67606700Y-42500000D01*
X67611001Y-42543670D01*
X67611000Y-43868151D01*
X67585241Y-43885363D01*
X67418661Y-44051943D01*
X67389502Y-43955820D01*
X67330537Y-43845506D01*
X67251185Y-43748815D01*
X67154494Y-43669463D01*
X67044180Y-43610498D01*
X66924482Y-43574188D01*
X66800000Y-43561928D01*
X66285750Y-43565000D01*
X66127000Y-43723750D01*
X66127000Y-44873000D01*
X66147000Y-44873000D01*
X66147000Y-45127000D01*
X66127000Y-45127000D01*
X66127000Y-46276250D01*
X66285750Y-46435000D01*
X66800000Y-46438072D01*
X66924482Y-46425812D01*
X67044180Y-46389502D01*
X67151001Y-46332404D01*
X67151000Y-49930315D01*
X66964201Y-50117114D01*
X66886445Y-50233483D01*
X66875812Y-50125518D01*
X66839502Y-50005820D01*
X66780537Y-49895506D01*
X66701185Y-49798815D01*
X66604494Y-49719463D01*
X66494180Y-49660498D01*
X66374482Y-49624188D01*
X66250000Y-49611928D01*
X65785750Y-49615000D01*
X65627000Y-49773750D01*
X65627000Y-50873000D01*
X65647000Y-50873000D01*
X65647000Y-51127000D01*
X65627000Y-51127000D01*
X65627000Y-52226250D01*
X65785750Y-52385000D01*
X66250000Y-52388072D01*
X66374482Y-52375812D01*
X66494180Y-52339502D01*
X66604494Y-52280537D01*
X66701185Y-52201185D01*
X66780537Y-52104494D01*
X66839502Y-51994180D01*
X66875812Y-51874482D01*
X66886445Y-51766517D01*
X66964201Y-51882886D01*
X67157114Y-52075799D01*
X67383957Y-52227371D01*
X67636011Y-52331775D01*
X67903589Y-52385000D01*
X68176411Y-52385000D01*
X68443989Y-52331775D01*
X68696043Y-52227371D01*
X68922886Y-52075799D01*
X69115799Y-51882886D01*
X69267371Y-51656043D01*
X69310000Y-51553127D01*
X69352629Y-51656043D01*
X69504201Y-51882886D01*
X69697114Y-52075799D01*
X69923957Y-52227371D01*
X70176011Y-52331775D01*
X70443589Y-52385000D01*
X70716411Y-52385000D01*
X70895001Y-52349476D01*
X70895001Y-54932889D01*
X70666082Y-55161808D01*
X69875048Y-55161808D01*
X69750566Y-55174068D01*
X69630868Y-55210378D01*
X69520554Y-55269343D01*
X69423863Y-55348695D01*
X69344511Y-55445386D01*
X69285546Y-55555700D01*
X69249236Y-55675398D01*
X69236976Y-55799880D01*
X69236976Y-55825966D01*
X69042041Y-55772492D01*
X68264653Y-56549880D01*
X69042041Y-57327268D01*
X69236976Y-57273794D01*
X69236976Y-57299880D01*
X69249236Y-57424362D01*
X69285546Y-57544060D01*
X69344511Y-57654374D01*
X69423863Y-57751065D01*
X69520554Y-57830417D01*
X69630868Y-57889382D01*
X69750566Y-57925692D01*
X69875048Y-57937952D01*
X70666082Y-57937952D01*
X72297501Y-59569372D01*
X72297500Y-62582687D01*
X72205820Y-62610498D01*
X72095506Y-62669463D01*
X71998815Y-62748815D01*
X71919463Y-62845506D01*
X71860498Y-62955820D01*
X71824188Y-63075518D01*
X71811928Y-63200000D01*
X71811928Y-63207215D01*
X71742702Y-63186903D01*
X70929605Y-64000000D01*
X71742702Y-64813097D01*
X71811928Y-64792785D01*
X71811928Y-64800000D01*
X71824188Y-64924482D01*
X71860498Y-65044180D01*
X71919463Y-65154494D01*
X71998815Y-65251185D01*
X72095506Y-65330537D01*
X72205820Y-65389502D01*
X72325518Y-65425812D01*
X72450000Y-65438072D01*
X74050000Y-65438072D01*
X74111000Y-65432064D01*
X74111000Y-69171764D01*
X69754242Y-73528523D01*
X69686260Y-73515000D01*
X69393740Y-73515000D01*
X69106842Y-73572068D01*
X68836589Y-73684010D01*
X68593368Y-73846525D01*
X68406285Y-74033608D01*
X68338405Y-73906614D01*
X68227962Y-73772038D01*
X68093386Y-73661595D01*
X67939850Y-73579528D01*
X67773254Y-73528992D01*
X67600000Y-73511928D01*
X66400000Y-73511928D01*
X66226746Y-73528992D01*
X66060150Y-73579528D01*
X65906614Y-73661595D01*
X65772038Y-73772038D01*
X65661595Y-73906614D01*
X65579528Y-74060150D01*
X65528992Y-74226746D01*
X65511928Y-74400000D01*
X62660000Y-74400000D01*
X62660000Y-63200000D01*
X63311928Y-63200000D01*
X63311928Y-64800000D01*
X63324188Y-64924482D01*
X63360498Y-65044180D01*
X63419463Y-65154494D01*
X63498815Y-65251185D01*
X63595506Y-65330537D01*
X63705820Y-65389502D01*
X63825518Y-65425812D01*
X63950000Y-65438072D01*
X65550000Y-65438072D01*
X65674482Y-65425812D01*
X65794180Y-65389502D01*
X65904494Y-65330537D01*
X66001185Y-65251185D01*
X66080537Y-65154494D01*
X66139502Y-65044180D01*
X66155117Y-64992702D01*
X66436903Y-64992702D01*
X66508486Y-65236671D01*
X66763996Y-65357571D01*
X67038184Y-65426300D01*
X67320512Y-65440217D01*
X67600130Y-65398787D01*
X67866292Y-65303603D01*
X67991514Y-65236671D01*
X68063097Y-64992702D01*
X69936903Y-64992702D01*
X70008486Y-65236671D01*
X70263996Y-65357571D01*
X70538184Y-65426300D01*
X70820512Y-65440217D01*
X71100130Y-65398787D01*
X71366292Y-65303603D01*
X71491514Y-65236671D01*
X71563097Y-64992702D01*
X70750000Y-64179605D01*
X69936903Y-64992702D01*
X68063097Y-64992702D01*
X67250000Y-64179605D01*
X66436903Y-64992702D01*
X66155117Y-64992702D01*
X66175812Y-64924482D01*
X66188072Y-64800000D01*
X66188072Y-64792785D01*
X66257298Y-64813097D01*
X67070395Y-64000000D01*
X67429605Y-64000000D01*
X68242702Y-64813097D01*
X68486671Y-64741514D01*
X68607571Y-64486004D01*
X68676300Y-64211816D01*
X68683265Y-64070512D01*
X69309783Y-64070512D01*
X69351213Y-64350130D01*
X69446397Y-64616292D01*
X69513329Y-64741514D01*
X69757298Y-64813097D01*
X70570395Y-64000000D01*
X69757298Y-63186903D01*
X69513329Y-63258486D01*
X69392429Y-63513996D01*
X69323700Y-63788184D01*
X69309783Y-64070512D01*
X68683265Y-64070512D01*
X68690217Y-63929488D01*
X68648787Y-63649870D01*
X68553603Y-63383708D01*
X68486671Y-63258486D01*
X68242702Y-63186903D01*
X67429605Y-64000000D01*
X67070395Y-64000000D01*
X66257298Y-63186903D01*
X66188072Y-63207215D01*
X66188072Y-63200000D01*
X66175812Y-63075518D01*
X66155118Y-63007298D01*
X66436903Y-63007298D01*
X67250000Y-63820395D01*
X68063097Y-63007298D01*
X69936903Y-63007298D01*
X70750000Y-63820395D01*
X71563097Y-63007298D01*
X71491514Y-62763329D01*
X71236004Y-62642429D01*
X70961816Y-62573700D01*
X70679488Y-62559783D01*
X70399870Y-62601213D01*
X70133708Y-62696397D01*
X70008486Y-62763329D01*
X69936903Y-63007298D01*
X68063097Y-63007298D01*
X67991514Y-62763329D01*
X67736004Y-62642429D01*
X67461816Y-62573700D01*
X67179488Y-62559783D01*
X66899870Y-62601213D01*
X66633708Y-62696397D01*
X66508486Y-62763329D01*
X66436903Y-63007298D01*
X66155118Y-63007298D01*
X66139502Y-62955820D01*
X66080537Y-62845506D01*
X66001185Y-62748815D01*
X65904494Y-62669463D01*
X65794180Y-62610498D01*
X65702500Y-62582687D01*
X65702500Y-57930695D01*
X65949037Y-57881655D01*
X66201091Y-57777251D01*
X66427934Y-57625679D01*
X66546740Y-57506873D01*
X67307660Y-57506873D01*
X67373185Y-57745740D01*
X67620164Y-57861640D01*
X67885008Y-57927130D01*
X68157540Y-57939692D01*
X68427286Y-57898845D01*
X68683880Y-57806157D01*
X68796911Y-57745740D01*
X68862436Y-57506873D01*
X68085048Y-56729485D01*
X67307660Y-57506873D01*
X66546740Y-57506873D01*
X66620847Y-57432766D01*
X66772419Y-57205923D01*
X66813559Y-57106601D01*
X66828771Y-57148712D01*
X66889188Y-57261743D01*
X67128055Y-57327268D01*
X67905443Y-56549880D01*
X67128055Y-55772492D01*
X66889188Y-55838017D01*
X66814884Y-55996357D01*
X66772419Y-55893837D01*
X66620847Y-55666994D01*
X66546740Y-55592887D01*
X67307660Y-55592887D01*
X68085048Y-56370275D01*
X68862436Y-55592887D01*
X68796911Y-55354020D01*
X68549932Y-55238120D01*
X68285088Y-55172630D01*
X68012556Y-55160068D01*
X67742810Y-55200915D01*
X67486216Y-55293603D01*
X67373185Y-55354020D01*
X67307660Y-55592887D01*
X66546740Y-55592887D01*
X66427934Y-55474081D01*
X66201091Y-55322509D01*
X65949037Y-55218105D01*
X65681459Y-55164880D01*
X65408637Y-55164880D01*
X65141059Y-55218105D01*
X64889005Y-55322509D01*
X64662162Y-55474081D01*
X64469249Y-55666994D01*
X64317677Y-55893837D01*
X64213273Y-56145891D01*
X64160048Y-56413469D01*
X64160048Y-56587842D01*
X64109565Y-56638325D01*
X64073223Y-56668150D01*
X64043399Y-56704491D01*
X63954194Y-56813188D01*
X63865749Y-56978659D01*
X63811283Y-57158206D01*
X63792892Y-57344928D01*
X63797501Y-57391723D01*
X63797500Y-62582687D01*
X63705820Y-62610498D01*
X63595506Y-62669463D01*
X63498815Y-62748815D01*
X63419463Y-62845506D01*
X63360498Y-62955820D01*
X63324188Y-63075518D01*
X63311928Y-63200000D01*
X62660000Y-63200000D01*
X62660000Y-51750000D01*
X64111928Y-51750000D01*
X64124188Y-51874482D01*
X64160498Y-51994180D01*
X64219463Y-52104494D01*
X64298815Y-52201185D01*
X64395506Y-52280537D01*
X64505820Y-52339502D01*
X64625518Y-52375812D01*
X64750000Y-52388072D01*
X65214250Y-52385000D01*
X65373000Y-52226250D01*
X65373000Y-51127000D01*
X64273750Y-51127000D01*
X64115000Y-51285750D01*
X64111928Y-51750000D01*
X62660000Y-51750000D01*
X62660000Y-50250000D01*
X64111928Y-50250000D01*
X64115000Y-50714250D01*
X64273750Y-50873000D01*
X65373000Y-50873000D01*
X65373000Y-49773750D01*
X65214250Y-49615000D01*
X64750000Y-49611928D01*
X64625518Y-49624188D01*
X64505820Y-49660498D01*
X64395506Y-49719463D01*
X64298815Y-49798815D01*
X64219463Y-49895506D01*
X64160498Y-50005820D01*
X64124188Y-50125518D01*
X64111928Y-50250000D01*
X62660000Y-50250000D01*
X62660000Y-45800000D01*
X64561928Y-45800000D01*
X64574188Y-45924482D01*
X64610498Y-46044180D01*
X64669463Y-46154494D01*
X64748815Y-46251185D01*
X64845506Y-46330537D01*
X64955820Y-46389502D01*
X65075518Y-46425812D01*
X65200000Y-46438072D01*
X65714250Y-46435000D01*
X65873000Y-46276250D01*
X65873000Y-45127000D01*
X64723750Y-45127000D01*
X64565000Y-45285750D01*
X64561928Y-45800000D01*
X62660000Y-45800000D01*
X62660000Y-44200000D01*
X64561928Y-44200000D01*
X64565000Y-44714250D01*
X64723750Y-44873000D01*
X65873000Y-44873000D01*
X65873000Y-43723750D01*
X65714250Y-43565000D01*
X65200000Y-43561928D01*
X65075518Y-43574188D01*
X64955820Y-43610498D01*
X64845506Y-43669463D01*
X64748815Y-43748815D01*
X64669463Y-43845506D01*
X64610498Y-43955820D01*
X64574188Y-44075518D01*
X64561928Y-44200000D01*
X62660000Y-44200000D01*
X62660000Y-37660000D01*
X105340000Y-37660000D01*
X105340001Y-138340000D01*
G37*
%TD.AperFunction*%
D23*
X99517583Y-120300179D02*
X99704047Y-120527385D01*
X99660820Y-120540498D01*
X99550506Y-120599463D01*
X99453815Y-120678815D01*
X99374463Y-120775506D01*
X99315498Y-120885820D01*
X99279188Y-121005518D01*
X99266928Y-121130000D01*
X99270000Y-121714250D01*
X99428750Y-121873000D01*
X100873000Y-121873000D01*
X100873000Y-121853000D01*
X101127000Y-121853000D01*
X101127000Y-121873000D01*
X101147000Y-121873000D01*
X101147000Y-122127000D01*
X101127000Y-122127000D01*
X101127000Y-123346250D01*
X101285750Y-123505000D01*
X101770999Y-123506842D01*
X101770999Y-127565000D01*
X101718665Y-127565000D01*
X101441426Y-127620147D01*
X101180273Y-127728320D01*
X100945241Y-127885363D01*
X100745363Y-128085241D01*
X100588320Y-128320273D01*
X100480147Y-128581426D01*
X100425000Y-128858665D01*
X100425000Y-129141335D01*
X100431044Y-129171720D01*
X93997755Y-135605010D01*
X88408846Y-135605010D01*
X88434236Y-135521309D01*
X88461943Y-135240000D01*
X88434236Y-134958691D01*
X88352182Y-134688192D01*
X88218932Y-134438899D01*
X88039608Y-134220392D01*
X87821101Y-134041068D01*
X87688142Y-133970000D01*
X87821101Y-133898932D01*
X88039608Y-133719608D01*
X88218932Y-133501101D01*
X88352182Y-133251808D01*
X88434236Y-132981309D01*
X88461943Y-132700000D01*
X88434236Y-132418691D01*
X88352182Y-132148192D01*
X88331055Y-132108665D01*
X90265000Y-132108665D01*
X90265000Y-132391335D01*
X90320147Y-132668574D01*
X90428320Y-132929727D01*
X90585363Y-133164759D01*
X90785241Y-133364637D01*
X91020273Y-133521680D01*
X91281426Y-133629853D01*
X91558665Y-133685000D01*
X91841335Y-133685000D01*
X92118574Y-133629853D01*
X92379727Y-133521680D01*
X92614759Y-133364637D01*
X92814637Y-133164759D01*
X92971680Y-132929727D01*
X93079853Y-132668574D01*
X93135000Y-132391335D01*
X93135000Y-132108665D01*
X93079853Y-131831426D01*
X92971680Y-131570273D01*
X92814637Y-131335241D01*
X92614759Y-131135363D01*
X92379727Y-130978320D01*
X92118574Y-130870147D01*
X91841335Y-130815000D01*
X91558665Y-130815000D01*
X91281426Y-130870147D01*
X91020273Y-130978320D01*
X90785241Y-131135363D01*
X90585363Y-131335241D01*
X90428320Y-131570273D01*
X90320147Y-131831426D01*
X90265000Y-132108665D01*
X88331055Y-132108665D01*
X88218932Y-131898899D01*
X88039608Y-131680392D01*
X87821101Y-131501068D01*
X87688142Y-131430000D01*
X87821101Y-131358932D01*
X88039608Y-131179608D01*
X88154626Y-131039458D01*
X88188352Y-131036136D01*
X88355929Y-130985303D01*
X88510369Y-130902753D01*
X88645737Y-130791659D01*
X88673577Y-130757736D01*
X90269144Y-129162169D01*
X90320147Y-129418574D01*
X90428320Y-129679727D01*
X90585363Y-129914759D01*
X90785241Y-130114637D01*
X91020273Y-130271680D01*
X91281426Y-130379853D01*
X91558665Y-130435000D01*
X91841335Y-130435000D01*
X92118574Y-130379853D01*
X92379727Y-130271680D01*
X92614759Y-130114637D01*
X92814637Y-129914759D01*
X92971680Y-129679727D01*
X93079853Y-129418574D01*
X93135000Y-129141335D01*
X93135000Y-128858665D01*
X93079853Y-128581426D01*
X92971680Y-128320273D01*
X92814637Y-128085241D01*
X92614759Y-127885363D01*
X92379727Y-127728320D01*
X92118574Y-127620147D01*
X91862169Y-127569144D01*
X96561313Y-122870000D01*
X99266928Y-122870000D01*
X99279188Y-122994482D01*
X99315498Y-123114180D01*
X99374463Y-123224494D01*
X99453815Y-123321185D01*
X99550506Y-123400537D01*
X99660820Y-123459502D01*
X99780518Y-123495812D01*
X99905000Y-123508072D01*
X100714250Y-123505000D01*
X100873000Y-123346250D01*
X100873000Y-122127000D01*
X99428750Y-122127000D01*
X99270000Y-122285750D01*
X99266928Y-122870000D01*
X96561313Y-122870000D01*
X99382974Y-120048340D01*
X99517583Y-120300179D01*
%TA.AperFunction,Conductor*%
D24*
G36*
X99517583Y-120300179D02*
G01*
X99704047Y-120527385D01*
X99660820Y-120540498D01*
X99550506Y-120599463D01*
X99453815Y-120678815D01*
X99374463Y-120775506D01*
X99315498Y-120885820D01*
X99279188Y-121005518D01*
X99266928Y-121130000D01*
X99270000Y-121714250D01*
X99428750Y-121873000D01*
X100873000Y-121873000D01*
X100873000Y-121853000D01*
X101127000Y-121853000D01*
X101127000Y-121873000D01*
X101147000Y-121873000D01*
X101147000Y-122127000D01*
X101127000Y-122127000D01*
X101127000Y-123346250D01*
X101285750Y-123505000D01*
X101770999Y-123506842D01*
X101770999Y-127565000D01*
X101718665Y-127565000D01*
X101441426Y-127620147D01*
X101180273Y-127728320D01*
X100945241Y-127885363D01*
X100745363Y-128085241D01*
X100588320Y-128320273D01*
X100480147Y-128581426D01*
X100425000Y-128858665D01*
X100425000Y-129141335D01*
X100431044Y-129171720D01*
X93997755Y-135605010D01*
X88408846Y-135605010D01*
X88434236Y-135521309D01*
X88461943Y-135240000D01*
X88434236Y-134958691D01*
X88352182Y-134688192D01*
X88218932Y-134438899D01*
X88039608Y-134220392D01*
X87821101Y-134041068D01*
X87688142Y-133970000D01*
X87821101Y-133898932D01*
X88039608Y-133719608D01*
X88218932Y-133501101D01*
X88352182Y-133251808D01*
X88434236Y-132981309D01*
X88461943Y-132700000D01*
X88434236Y-132418691D01*
X88352182Y-132148192D01*
X88331055Y-132108665D01*
X90265000Y-132108665D01*
X90265000Y-132391335D01*
X90320147Y-132668574D01*
X90428320Y-132929727D01*
X90585363Y-133164759D01*
X90785241Y-133364637D01*
X91020273Y-133521680D01*
X91281426Y-133629853D01*
X91558665Y-133685000D01*
X91841335Y-133685000D01*
X92118574Y-133629853D01*
X92379727Y-133521680D01*
X92614759Y-133364637D01*
X92814637Y-133164759D01*
X92971680Y-132929727D01*
X93079853Y-132668574D01*
X93135000Y-132391335D01*
X93135000Y-132108665D01*
X93079853Y-131831426D01*
X92971680Y-131570273D01*
X92814637Y-131335241D01*
X92614759Y-131135363D01*
X92379727Y-130978320D01*
X92118574Y-130870147D01*
X91841335Y-130815000D01*
X91558665Y-130815000D01*
X91281426Y-130870147D01*
X91020273Y-130978320D01*
X90785241Y-131135363D01*
X90585363Y-131335241D01*
X90428320Y-131570273D01*
X90320147Y-131831426D01*
X90265000Y-132108665D01*
X88331055Y-132108665D01*
X88218932Y-131898899D01*
X88039608Y-131680392D01*
X87821101Y-131501068D01*
X87688142Y-131430000D01*
X87821101Y-131358932D01*
X88039608Y-131179608D01*
X88154626Y-131039458D01*
X88188352Y-131036136D01*
X88355929Y-130985303D01*
X88510369Y-130902753D01*
X88645737Y-130791659D01*
X88673577Y-130757736D01*
X90269144Y-129162169D01*
X90320147Y-129418574D01*
X90428320Y-129679727D01*
X90585363Y-129914759D01*
X90785241Y-130114637D01*
X91020273Y-130271680D01*
X91281426Y-130379853D01*
X91558665Y-130435000D01*
X91841335Y-130435000D01*
X92118574Y-130379853D01*
X92379727Y-130271680D01*
X92614759Y-130114637D01*
X92814637Y-129914759D01*
X92971680Y-129679727D01*
X93079853Y-129418574D01*
X93135000Y-129141335D01*
X93135000Y-128858665D01*
X93079853Y-128581426D01*
X92971680Y-128320273D01*
X92814637Y-128085241D01*
X92614759Y-127885363D01*
X92379727Y-127728320D01*
X92118574Y-127620147D01*
X91862169Y-127569144D01*
X96561313Y-122870000D01*
X99266928Y-122870000D01*
X99279188Y-122994482D01*
X99315498Y-123114180D01*
X99374463Y-123224494D01*
X99453815Y-123321185D01*
X99550506Y-123400537D01*
X99660820Y-123459502D01*
X99780518Y-123495812D01*
X99905000Y-123508072D01*
X100714250Y-123505000D01*
X100873000Y-123346250D01*
X100873000Y-122127000D01*
X99428750Y-122127000D01*
X99270000Y-122285750D01*
X99266928Y-122870000D01*
X96561313Y-122870000D01*
X99382974Y-120048340D01*
X99517583Y-120300179D01*
G37*
%TD.AperFunction*%
D23*
X97661595Y-49093386D02*
X97772038Y-49227962D01*
X97906614Y-49338405D01*
X98060150Y-49420472D01*
X98169293Y-49453580D01*
X98151208Y-49511603D01*
X99000000Y-50360395D01*
X99848792Y-49511603D01*
X99830707Y-49453580D01*
X99939850Y-49420472D01*
X100093386Y-49338405D01*
X100227962Y-49227962D01*
X100338405Y-49093386D01*
X100406285Y-48966392D01*
X100593368Y-49153475D01*
X100766729Y-49269311D01*
X100691208Y-49511603D01*
X101540000Y-50360395D01*
X102388792Y-49511603D01*
X102313271Y-49269311D01*
X102486632Y-49153475D01*
X102663012Y-48977095D01*
X102663012Y-49720699D01*
X102568397Y-49691208D01*
X101719605Y-50540000D01*
X102568397Y-51388792D01*
X102663012Y-51359301D01*
X102663012Y-52260699D01*
X102568397Y-52231208D01*
X101719605Y-53080000D01*
X102568397Y-53928792D01*
X102663012Y-53899301D01*
X102663012Y-54800699D01*
X102568397Y-54771208D01*
X101719605Y-55620000D01*
X102568397Y-56468792D01*
X102663012Y-56439301D01*
X102663012Y-57182905D01*
X102486632Y-57006525D01*
X102313271Y-56890689D01*
X102388792Y-56648397D01*
X101540000Y-55799605D01*
X100691208Y-56648397D01*
X100766729Y-56890689D01*
X100593368Y-57006525D01*
X100386525Y-57213368D01*
X100270000Y-57387760D01*
X100153475Y-57213368D01*
X99946632Y-57006525D01*
X99773271Y-56890689D01*
X99848792Y-56648397D01*
X99000000Y-55799605D01*
X98151208Y-56648397D01*
X98226729Y-56890689D01*
X98053368Y-57006525D01*
X97846525Y-57213368D01*
X97684010Y-57456589D01*
X97572068Y-57726842D01*
X97515000Y-58013740D01*
X97515000Y-58306260D01*
X97572068Y-58593158D01*
X97684010Y-58863411D01*
X97846525Y-59106632D01*
X98053368Y-59313475D01*
X98296589Y-59475990D01*
X98566842Y-59587932D01*
X98853740Y-59645000D01*
X99146260Y-59645000D01*
X99433158Y-59587932D01*
X99703411Y-59475990D01*
X99946632Y-59313475D01*
X100153475Y-59106632D01*
X100270000Y-58932240D01*
X100386525Y-59106632D01*
X100593368Y-59313475D01*
X100836589Y-59475990D01*
X101106842Y-59587932D01*
X101393740Y-59645000D01*
X101686260Y-59645000D01*
X101973158Y-59587932D01*
X102243411Y-59475990D01*
X102486632Y-59313475D01*
X102663011Y-59137096D01*
X102663011Y-69415521D01*
X102634806Y-69457733D01*
X102556785Y-69646091D01*
X102517011Y-69846050D01*
X102517011Y-70049928D01*
X102556785Y-70249887D01*
X102634806Y-70438245D01*
X102663012Y-70480458D01*
X102663012Y-80022905D01*
X102486632Y-79846525D01*
X102243411Y-79684010D01*
X101973158Y-79572068D01*
X101686260Y-79515000D01*
X101393740Y-79515000D01*
X101106842Y-79572068D01*
X100836589Y-79684010D01*
X100593368Y-79846525D01*
X100406285Y-80033608D01*
X100338405Y-79906614D01*
X100227962Y-79772038D01*
X100093386Y-79661595D01*
X99939850Y-79579528D01*
X99773254Y-79528992D01*
X99600000Y-79511928D01*
X98769164Y-79511928D01*
X91634999Y-72377764D01*
X91634999Y-68390509D01*
X91858665Y-68435000D01*
X92141335Y-68435000D01*
X92418574Y-68379853D01*
X92679727Y-68271680D01*
X92914759Y-68114637D01*
X93114637Y-67914759D01*
X93271680Y-67679727D01*
X93379853Y-67418574D01*
X93435000Y-67141335D01*
X93435000Y-66858665D01*
X93379853Y-66581426D01*
X93271680Y-66320273D01*
X93114637Y-66085241D01*
X92914759Y-65885363D01*
X92679727Y-65728320D01*
X92418574Y-65620147D01*
X92141335Y-65565000D01*
X91858665Y-65565000D01*
X91634999Y-65609491D01*
X91634999Y-58230509D01*
X91858665Y-58275000D01*
X92141335Y-58275000D01*
X92418574Y-58219853D01*
X92679727Y-58111680D01*
X92914759Y-57954637D01*
X93114637Y-57754759D01*
X93271680Y-57519727D01*
X93379853Y-57258574D01*
X93435000Y-56981335D01*
X93435000Y-56698665D01*
X93379853Y-56421426D01*
X93271680Y-56160273D01*
X93114637Y-55925241D01*
X92914759Y-55725363D01*
X92859636Y-55688531D01*
X97509389Y-55688531D01*
X97551401Y-55978019D01*
X97649081Y-56253747D01*
X97722528Y-56391157D01*
X97971603Y-56468792D01*
X98820395Y-55620000D01*
X99179605Y-55620000D01*
X100028397Y-56468792D01*
X100270000Y-56393486D01*
X100511603Y-56468792D01*
X101360395Y-55620000D01*
X100511603Y-54771208D01*
X100270000Y-54846514D01*
X100028397Y-54771208D01*
X99179605Y-55620000D01*
X98820395Y-55620000D01*
X97971603Y-54771208D01*
X97722528Y-54848843D01*
X97596629Y-55112883D01*
X97524661Y-55396411D01*
X97509389Y-55688531D01*
X92859636Y-55688531D01*
X92679727Y-55568320D01*
X92418574Y-55460147D01*
X92141335Y-55405000D01*
X91858665Y-55405000D01*
X91634999Y-55449491D01*
X91634999Y-54390509D01*
X91858665Y-54435000D01*
X92141335Y-54435000D01*
X92418574Y-54379853D01*
X92679727Y-54271680D01*
X92914759Y-54114637D01*
X92920999Y-54108397D01*
X98151208Y-54108397D01*
X98226514Y-54350000D01*
X98151208Y-54591603D01*
X99000000Y-55440395D01*
X99848792Y-54591603D01*
X99773486Y-54350000D01*
X99848792Y-54108397D01*
X100691208Y-54108397D01*
X100766514Y-54350000D01*
X100691208Y-54591603D01*
X101540000Y-55440395D01*
X102388792Y-54591603D01*
X102313486Y-54350000D01*
X102388792Y-54108397D01*
X101540000Y-53259605D01*
X100691208Y-54108397D01*
X99848792Y-54108397D01*
X99000000Y-53259605D01*
X98151208Y-54108397D01*
X92920999Y-54108397D01*
X93114637Y-53914759D01*
X93271680Y-53679727D01*
X93379853Y-53418574D01*
X93433568Y-53148531D01*
X97509389Y-53148531D01*
X97551401Y-53438019D01*
X97649081Y-53713747D01*
X97722528Y-53851157D01*
X97971603Y-53928792D01*
X98820395Y-53080000D01*
X99179605Y-53080000D01*
X100028397Y-53928792D01*
X100270000Y-53853486D01*
X100511603Y-53928792D01*
X101360395Y-53080000D01*
X100511603Y-52231208D01*
X100270000Y-52306514D01*
X100028397Y-52231208D01*
X99179605Y-53080000D01*
X98820395Y-53080000D01*
X97971603Y-52231208D01*
X97722528Y-52308843D01*
X97596629Y-52572883D01*
X97524661Y-52856411D01*
X97509389Y-53148531D01*
X93433568Y-53148531D01*
X93435000Y-53141335D01*
X93435000Y-52912038D01*
X94778641Y-51568397D01*
X98151208Y-51568397D01*
X98226514Y-51810000D01*
X98151208Y-52051603D01*
X99000000Y-52900395D01*
X99848792Y-52051603D01*
X99773486Y-51810000D01*
X99848792Y-51568397D01*
X100691208Y-51568397D01*
X100766514Y-51810000D01*
X100691208Y-52051603D01*
X101540000Y-52900395D01*
X102388792Y-52051603D01*
X102313486Y-51810000D01*
X102388792Y-51568397D01*
X101540000Y-50719605D01*
X100691208Y-51568397D01*
X99848792Y-51568397D01*
X99000000Y-50719605D01*
X98151208Y-51568397D01*
X94778641Y-51568397D01*
X95738507Y-50608531D01*
X97509389Y-50608531D01*
X97551401Y-50898019D01*
X97649081Y-51173747D01*
X97722528Y-51311157D01*
X97971603Y-51388792D01*
X98820395Y-50540000D01*
X99179605Y-50540000D01*
X100028397Y-51388792D01*
X100270000Y-51313486D01*
X100511603Y-51388792D01*
X101360395Y-50540000D01*
X100511603Y-49691208D01*
X100270000Y-49766514D01*
X100028397Y-49691208D01*
X99179605Y-50540000D01*
X98820395Y-50540000D01*
X97971603Y-49691208D01*
X97722528Y-49768843D01*
X97596629Y-50032883D01*
X97524661Y-50316411D01*
X97509389Y-50608531D01*
X95738507Y-50608531D01*
X97394539Y-48952500D01*
X97586290Y-48952500D01*
X97661595Y-49093386D01*
%TA.AperFunction,Conductor*%
D24*
G36*
X97661595Y-49093386D02*
G01*
X97772038Y-49227962D01*
X97906614Y-49338405D01*
X98060150Y-49420472D01*
X98169293Y-49453580D01*
X98151208Y-49511603D01*
X99000000Y-50360395D01*
X99848792Y-49511603D01*
X99830707Y-49453580D01*
X99939850Y-49420472D01*
X100093386Y-49338405D01*
X100227962Y-49227962D01*
X100338405Y-49093386D01*
X100406285Y-48966392D01*
X100593368Y-49153475D01*
X100766729Y-49269311D01*
X100691208Y-49511603D01*
X101540000Y-50360395D01*
X102388792Y-49511603D01*
X102313271Y-49269311D01*
X102486632Y-49153475D01*
X102663012Y-48977095D01*
X102663012Y-49720699D01*
X102568397Y-49691208D01*
X101719605Y-50540000D01*
X102568397Y-51388792D01*
X102663012Y-51359301D01*
X102663012Y-52260699D01*
X102568397Y-52231208D01*
X101719605Y-53080000D01*
X102568397Y-53928792D01*
X102663012Y-53899301D01*
X102663012Y-54800699D01*
X102568397Y-54771208D01*
X101719605Y-55620000D01*
X102568397Y-56468792D01*
X102663012Y-56439301D01*
X102663012Y-57182905D01*
X102486632Y-57006525D01*
X102313271Y-56890689D01*
X102388792Y-56648397D01*
X101540000Y-55799605D01*
X100691208Y-56648397D01*
X100766729Y-56890689D01*
X100593368Y-57006525D01*
X100386525Y-57213368D01*
X100270000Y-57387760D01*
X100153475Y-57213368D01*
X99946632Y-57006525D01*
X99773271Y-56890689D01*
X99848792Y-56648397D01*
X99000000Y-55799605D01*
X98151208Y-56648397D01*
X98226729Y-56890689D01*
X98053368Y-57006525D01*
X97846525Y-57213368D01*
X97684010Y-57456589D01*
X97572068Y-57726842D01*
X97515000Y-58013740D01*
X97515000Y-58306260D01*
X97572068Y-58593158D01*
X97684010Y-58863411D01*
X97846525Y-59106632D01*
X98053368Y-59313475D01*
X98296589Y-59475990D01*
X98566842Y-59587932D01*
X98853740Y-59645000D01*
X99146260Y-59645000D01*
X99433158Y-59587932D01*
X99703411Y-59475990D01*
X99946632Y-59313475D01*
X100153475Y-59106632D01*
X100270000Y-58932240D01*
X100386525Y-59106632D01*
X100593368Y-59313475D01*
X100836589Y-59475990D01*
X101106842Y-59587932D01*
X101393740Y-59645000D01*
X101686260Y-59645000D01*
X101973158Y-59587932D01*
X102243411Y-59475990D01*
X102486632Y-59313475D01*
X102663011Y-59137096D01*
X102663011Y-69415521D01*
X102634806Y-69457733D01*
X102556785Y-69646091D01*
X102517011Y-69846050D01*
X102517011Y-70049928D01*
X102556785Y-70249887D01*
X102634806Y-70438245D01*
X102663012Y-70480458D01*
X102663012Y-80022905D01*
X102486632Y-79846525D01*
X102243411Y-79684010D01*
X101973158Y-79572068D01*
X101686260Y-79515000D01*
X101393740Y-79515000D01*
X101106842Y-79572068D01*
X100836589Y-79684010D01*
X100593368Y-79846525D01*
X100406285Y-80033608D01*
X100338405Y-79906614D01*
X100227962Y-79772038D01*
X100093386Y-79661595D01*
X99939850Y-79579528D01*
X99773254Y-79528992D01*
X99600000Y-79511928D01*
X98769164Y-79511928D01*
X91634999Y-72377764D01*
X91634999Y-68390509D01*
X91858665Y-68435000D01*
X92141335Y-68435000D01*
X92418574Y-68379853D01*
X92679727Y-68271680D01*
X92914759Y-68114637D01*
X93114637Y-67914759D01*
X93271680Y-67679727D01*
X93379853Y-67418574D01*
X93435000Y-67141335D01*
X93435000Y-66858665D01*
X93379853Y-66581426D01*
X93271680Y-66320273D01*
X93114637Y-66085241D01*
X92914759Y-65885363D01*
X92679727Y-65728320D01*
X92418574Y-65620147D01*
X92141335Y-65565000D01*
X91858665Y-65565000D01*
X91634999Y-65609491D01*
X91634999Y-58230509D01*
X91858665Y-58275000D01*
X92141335Y-58275000D01*
X92418574Y-58219853D01*
X92679727Y-58111680D01*
X92914759Y-57954637D01*
X93114637Y-57754759D01*
X93271680Y-57519727D01*
X93379853Y-57258574D01*
X93435000Y-56981335D01*
X93435000Y-56698665D01*
X93379853Y-56421426D01*
X93271680Y-56160273D01*
X93114637Y-55925241D01*
X92914759Y-55725363D01*
X92859636Y-55688531D01*
X97509389Y-55688531D01*
X97551401Y-55978019D01*
X97649081Y-56253747D01*
X97722528Y-56391157D01*
X97971603Y-56468792D01*
X98820395Y-55620000D01*
X99179605Y-55620000D01*
X100028397Y-56468792D01*
X100270000Y-56393486D01*
X100511603Y-56468792D01*
X101360395Y-55620000D01*
X100511603Y-54771208D01*
X100270000Y-54846514D01*
X100028397Y-54771208D01*
X99179605Y-55620000D01*
X98820395Y-55620000D01*
X97971603Y-54771208D01*
X97722528Y-54848843D01*
X97596629Y-55112883D01*
X97524661Y-55396411D01*
X97509389Y-55688531D01*
X92859636Y-55688531D01*
X92679727Y-55568320D01*
X92418574Y-55460147D01*
X92141335Y-55405000D01*
X91858665Y-55405000D01*
X91634999Y-55449491D01*
X91634999Y-54390509D01*
X91858665Y-54435000D01*
X92141335Y-54435000D01*
X92418574Y-54379853D01*
X92679727Y-54271680D01*
X92914759Y-54114637D01*
X92920999Y-54108397D01*
X98151208Y-54108397D01*
X98226514Y-54350000D01*
X98151208Y-54591603D01*
X99000000Y-55440395D01*
X99848792Y-54591603D01*
X99773486Y-54350000D01*
X99848792Y-54108397D01*
X100691208Y-54108397D01*
X100766514Y-54350000D01*
X100691208Y-54591603D01*
X101540000Y-55440395D01*
X102388792Y-54591603D01*
X102313486Y-54350000D01*
X102388792Y-54108397D01*
X101540000Y-53259605D01*
X100691208Y-54108397D01*
X99848792Y-54108397D01*
X99000000Y-53259605D01*
X98151208Y-54108397D01*
X92920999Y-54108397D01*
X93114637Y-53914759D01*
X93271680Y-53679727D01*
X93379853Y-53418574D01*
X93433568Y-53148531D01*
X97509389Y-53148531D01*
X97551401Y-53438019D01*
X97649081Y-53713747D01*
X97722528Y-53851157D01*
X97971603Y-53928792D01*
X98820395Y-53080000D01*
X99179605Y-53080000D01*
X100028397Y-53928792D01*
X100270000Y-53853486D01*
X100511603Y-53928792D01*
X101360395Y-53080000D01*
X100511603Y-52231208D01*
X100270000Y-52306514D01*
X100028397Y-52231208D01*
X99179605Y-53080000D01*
X98820395Y-53080000D01*
X97971603Y-52231208D01*
X97722528Y-52308843D01*
X97596629Y-52572883D01*
X97524661Y-52856411D01*
X97509389Y-53148531D01*
X93433568Y-53148531D01*
X93435000Y-53141335D01*
X93435000Y-52912038D01*
X94778641Y-51568397D01*
X98151208Y-51568397D01*
X98226514Y-51810000D01*
X98151208Y-52051603D01*
X99000000Y-52900395D01*
X99848792Y-52051603D01*
X99773486Y-51810000D01*
X99848792Y-51568397D01*
X100691208Y-51568397D01*
X100766514Y-51810000D01*
X100691208Y-52051603D01*
X101540000Y-52900395D01*
X102388792Y-52051603D01*
X102313486Y-51810000D01*
X102388792Y-51568397D01*
X101540000Y-50719605D01*
X100691208Y-51568397D01*
X99848792Y-51568397D01*
X99000000Y-50719605D01*
X98151208Y-51568397D01*
X94778641Y-51568397D01*
X95738507Y-50608531D01*
X97509389Y-50608531D01*
X97551401Y-50898019D01*
X97649081Y-51173747D01*
X97722528Y-51311157D01*
X97971603Y-51388792D01*
X98820395Y-50540000D01*
X99179605Y-50540000D01*
X100028397Y-51388792D01*
X100270000Y-51313486D01*
X100511603Y-51388792D01*
X101360395Y-50540000D01*
X100511603Y-49691208D01*
X100270000Y-49766514D01*
X100028397Y-49691208D01*
X99179605Y-50540000D01*
X98820395Y-50540000D01*
X97971603Y-49691208D01*
X97722528Y-49768843D01*
X97596629Y-50032883D01*
X97524661Y-50316411D01*
X97509389Y-50608531D01*
X95738507Y-50608531D01*
X97394539Y-48952500D01*
X97586290Y-48952500D01*
X97661595Y-49093386D01*
G37*
%TD.AperFunction*%
D23*
X74337962Y-41565000D02*
X74108665Y-41565000D01*
X73831426Y-41620147D01*
X73570273Y-41728320D01*
X73335241Y-41885363D01*
X73168661Y-42051943D01*
X73139502Y-41955820D01*
X73080537Y-41845506D01*
X73001185Y-41748815D01*
X72904494Y-41669463D01*
X72794180Y-41610498D01*
X72674482Y-41574188D01*
X72550000Y-41561928D01*
X72035750Y-41565000D01*
X71877000Y-41723750D01*
X71877000Y-42873000D01*
X71897000Y-42873000D01*
X71897000Y-43127000D01*
X71877000Y-43127000D01*
X71877000Y-43147000D01*
X71623000Y-43147000D01*
X71623000Y-43127000D01*
X70473750Y-43127000D01*
X70315000Y-43285750D01*
X70311928Y-43800000D01*
X70324188Y-43924482D01*
X70360498Y-44044180D01*
X70419463Y-44154494D01*
X70498815Y-44251185D01*
X70595506Y-44330537D01*
X70705820Y-44389502D01*
X70825518Y-44425812D01*
X70950000Y-44438072D01*
X71464250Y-44435000D01*
X71622998Y-44276252D01*
X71622998Y-44369766D01*
X69982264Y-46010501D01*
X69948341Y-46038341D01*
X69837247Y-46173710D01*
X69754697Y-46328150D01*
X69703864Y-46495727D01*
X69691000Y-46626334D01*
X69691000Y-46626340D01*
X69686700Y-46670000D01*
X69691000Y-46713660D01*
X69691001Y-49930314D01*
X69504201Y-50117114D01*
X69352629Y-50343957D01*
X69310000Y-50446873D01*
X69267371Y-50343957D01*
X69115799Y-50117114D01*
X68929000Y-49930315D01*
X68929000Y-46375534D01*
X69179727Y-46271680D01*
X69414759Y-46114637D01*
X69614637Y-45914759D01*
X69771680Y-45679727D01*
X69879853Y-45418574D01*
X69935000Y-45141335D01*
X69935000Y-44858665D01*
X69879853Y-44581426D01*
X69771680Y-44320273D01*
X69614637Y-44085241D01*
X69414759Y-43885363D01*
X69389000Y-43868151D01*
X69389000Y-42868235D01*
X70454858Y-41802377D01*
X70419463Y-41845506D01*
X70360498Y-41955820D01*
X70324188Y-42075518D01*
X70311928Y-42200000D01*
X70315000Y-42714250D01*
X70473750Y-42873000D01*
X71623000Y-42873000D01*
X71623000Y-41723750D01*
X71464250Y-41565000D01*
X70950000Y-41561928D01*
X70825518Y-41574188D01*
X70705820Y-41610498D01*
X70595506Y-41669463D01*
X70552377Y-41704858D01*
X72372236Y-39884999D01*
X76017963Y-39884999D01*
X74337962Y-41565000D01*
%TA.AperFunction,Conductor*%
D24*
G36*
X74337962Y-41565000D02*
G01*
X74108665Y-41565000D01*
X73831426Y-41620147D01*
X73570273Y-41728320D01*
X73335241Y-41885363D01*
X73168661Y-42051943D01*
X73139502Y-41955820D01*
X73080537Y-41845506D01*
X73001185Y-41748815D01*
X72904494Y-41669463D01*
X72794180Y-41610498D01*
X72674482Y-41574188D01*
X72550000Y-41561928D01*
X72035750Y-41565000D01*
X71877000Y-41723750D01*
X71877000Y-42873000D01*
X71897000Y-42873000D01*
X71897000Y-43127000D01*
X71877000Y-43127000D01*
X71877000Y-43147000D01*
X71623000Y-43147000D01*
X71623000Y-43127000D01*
X70473750Y-43127000D01*
X70315000Y-43285750D01*
X70311928Y-43800000D01*
X70324188Y-43924482D01*
X70360498Y-44044180D01*
X70419463Y-44154494D01*
X70498815Y-44251185D01*
X70595506Y-44330537D01*
X70705820Y-44389502D01*
X70825518Y-44425812D01*
X70950000Y-44438072D01*
X71464250Y-44435000D01*
X71622998Y-44276252D01*
X71622998Y-44369766D01*
X69982264Y-46010501D01*
X69948341Y-46038341D01*
X69837247Y-46173710D01*
X69754697Y-46328150D01*
X69703864Y-46495727D01*
X69691000Y-46626334D01*
X69691000Y-46626340D01*
X69686700Y-46670000D01*
X69691000Y-46713660D01*
X69691001Y-49930314D01*
X69504201Y-50117114D01*
X69352629Y-50343957D01*
X69310000Y-50446873D01*
X69267371Y-50343957D01*
X69115799Y-50117114D01*
X68929000Y-49930315D01*
X68929000Y-46375534D01*
X69179727Y-46271680D01*
X69414759Y-46114637D01*
X69614637Y-45914759D01*
X69771680Y-45679727D01*
X69879853Y-45418574D01*
X69935000Y-45141335D01*
X69935000Y-44858665D01*
X69879853Y-44581426D01*
X69771680Y-44320273D01*
X69614637Y-44085241D01*
X69414759Y-43885363D01*
X69389000Y-43868151D01*
X69389000Y-42868235D01*
X70454858Y-41802377D01*
X70419463Y-41845506D01*
X70360498Y-41955820D01*
X70324188Y-42075518D01*
X70311928Y-42200000D01*
X70315000Y-42714250D01*
X70473750Y-42873000D01*
X71623000Y-42873000D01*
X71623000Y-41723750D01*
X71464250Y-41565000D01*
X70950000Y-41561928D01*
X70825518Y-41574188D01*
X70705820Y-41610498D01*
X70595506Y-41669463D01*
X70552377Y-41704858D01*
X72372236Y-39884999D01*
X76017963Y-39884999D01*
X74337962Y-41565000D01*
G37*
%TD.AperFunction*%
%TD*%
M02*
