%TF.GenerationSoftware,KiCad,Pcbnew,5.1.10-88a1d61d58~88~ubuntu20.10.1*%
%TF.CreationDate,2021-06-30T17:02:04+02:00*%
%TF.ProjectId,multiplexer-8,6d756c74-6970-46c6-9578-65722d382e6b,v1.0.0*%
%TF.SameCoordinates,Original*%
%TF.FileFunction,Soldermask,Top*%
%TF.FilePolarity,Negative*%
%FSLAX46Y46*%
G04 Gerber Fmt 4.6, Leading zero omitted, Abs format (unit mm)*
G04 Created by KiCad (PCBNEW 5.1.10-88a1d61d58~88~ubuntu20.10.1) date 2021-06-30 17:02:04*
%MOMM*%
%LPD*%
G01*
G04 APERTURE LIST*
%ADD10R,1.500000X1.500000*%
%ADD11C,1.500000*%
%ADD12O,2.190000X1.740000*%
%ADD13O,1.600000X1.600000*%
%ADD14C,1.600000*%
%ADD15C,1.700000*%
%ADD16R,1.600000X1.600000*%
%ADD17O,2.400000X1.600000*%
%ADD18R,2.400000X1.600000*%
G04 APERTURE END LIST*
D10*
%TO.C,U3*%
X65500000Y-51000000D03*
D11*
X70580000Y-51000000D03*
X68040000Y-51000000D03*
%TD*%
D10*
%TO.C,U2*%
X70625048Y-56549880D03*
D11*
X65545048Y-56549880D03*
X68085048Y-56549880D03*
%TD*%
D12*
%TO.C,J3*%
X101000000Y-114380000D03*
X101000000Y-116920000D03*
X101000000Y-119460000D03*
G36*
G01*
X101845001Y-122870000D02*
X100154999Y-122870000D01*
G75*
G02*
X99905000Y-122620001I0J249999D01*
G01*
X99905000Y-121379999D01*
G75*
G02*
X100154999Y-121130000I249999J0D01*
G01*
X101845001Y-121130000D01*
G75*
G02*
X102095000Y-121379999I0J-249999D01*
G01*
X102095000Y-122620001D01*
G75*
G02*
X101845001Y-122870000I-249999J0D01*
G01*
G37*
%TD*%
D13*
%TO.C,FB2*%
X92000000Y-42840000D03*
D14*
X92000000Y-53000000D03*
%TD*%
D13*
%TO.C,FB1*%
X92000000Y-56840000D03*
D14*
X92000000Y-67000000D03*
%TD*%
D15*
%TO.C,J5*%
X101540000Y-58160000D03*
X101540000Y-55620000D03*
X101540000Y-53080000D03*
X101540000Y-50540000D03*
X101540000Y-48000000D03*
X99000000Y-58160000D03*
X99000000Y-55620000D03*
X99000000Y-53080000D03*
X99000000Y-50540000D03*
G36*
G01*
X98150000Y-48600000D02*
X98150000Y-47400000D01*
G75*
G02*
X98400000Y-47150000I250000J0D01*
G01*
X99600000Y-47150000D01*
G75*
G02*
X99850000Y-47400000I0J-250000D01*
G01*
X99850000Y-48600000D01*
G75*
G02*
X99600000Y-48850000I-250000J0D01*
G01*
X98400000Y-48850000D01*
G75*
G02*
X98150000Y-48600000I0J250000D01*
G01*
G37*
%TD*%
D14*
%TO.C,C5*%
X74250000Y-43000000D03*
D16*
X71750000Y-43000000D03*
%TD*%
D14*
%TO.C,C4*%
X70750000Y-64000000D03*
D16*
X73250000Y-64000000D03*
%TD*%
D14*
%TO.C,C3*%
X68500000Y-45000000D03*
D16*
X66000000Y-45000000D03*
%TD*%
D14*
%TO.C,C2*%
X67250000Y-64000000D03*
D16*
X64750000Y-64000000D03*
%TD*%
D17*
%TO.C,U6*%
X86620000Y-120000000D03*
X79000000Y-135240000D03*
X86620000Y-122540000D03*
X79000000Y-132700000D03*
X86620000Y-125080000D03*
X79000000Y-130160000D03*
X86620000Y-127620000D03*
X79000000Y-127620000D03*
X86620000Y-130160000D03*
X79000000Y-125080000D03*
X86620000Y-132700000D03*
X79000000Y-122540000D03*
X86620000Y-135240000D03*
D18*
X79000000Y-120000000D03*
%TD*%
D17*
%TO.C,U5*%
X86620000Y-95000000D03*
X79000000Y-110240000D03*
X86620000Y-97540000D03*
X79000000Y-107700000D03*
X86620000Y-100080000D03*
X79000000Y-105160000D03*
X86620000Y-102620000D03*
X79000000Y-102620000D03*
X86620000Y-105160000D03*
X79000000Y-100080000D03*
X86620000Y-107700000D03*
X79000000Y-97540000D03*
X86620000Y-110240000D03*
D18*
X79000000Y-95000000D03*
%TD*%
D17*
%TO.C,U4*%
X86620000Y-70000000D03*
X79000000Y-85240000D03*
X86620000Y-72540000D03*
X79000000Y-82700000D03*
X86620000Y-75080000D03*
X79000000Y-80160000D03*
X86620000Y-77620000D03*
X79000000Y-77620000D03*
X86620000Y-80160000D03*
X79000000Y-75080000D03*
X86620000Y-82700000D03*
X79000000Y-72540000D03*
X86620000Y-85240000D03*
D18*
X79000000Y-70000000D03*
%TD*%
D13*
%TO.C,R2*%
X91700000Y-132250000D03*
D14*
X101860000Y-132250000D03*
%TD*%
D13*
%TO.C,R1*%
X91700000Y-129000000D03*
D14*
X101860000Y-129000000D03*
%TD*%
D15*
%TO.C,J4*%
X101540000Y-98780000D03*
X101540000Y-96240000D03*
X101540000Y-93700000D03*
X101540000Y-91160000D03*
X101540000Y-88620000D03*
X101540000Y-86080000D03*
X101540000Y-83540000D03*
X101540000Y-81000000D03*
X99000000Y-98780000D03*
X99000000Y-96240000D03*
X99000000Y-93700000D03*
X99000000Y-91160000D03*
X99000000Y-88620000D03*
X99000000Y-86080000D03*
X99000000Y-83540000D03*
G36*
G01*
X98150000Y-81600000D02*
X98150000Y-80400000D01*
G75*
G02*
X98400000Y-80150000I250000J0D01*
G01*
X99600000Y-80150000D01*
G75*
G02*
X99850000Y-80400000I0J-250000D01*
G01*
X99850000Y-81600000D01*
G75*
G02*
X99600000Y-81850000I-250000J0D01*
G01*
X98400000Y-81850000D01*
G75*
G02*
X98150000Y-81600000I0J250000D01*
G01*
G37*
%TD*%
%TO.C,J2*%
X69540000Y-125780000D03*
X69540000Y-123240000D03*
X69540000Y-120700000D03*
X69540000Y-118160000D03*
X69540000Y-115620000D03*
X69540000Y-113080000D03*
X69540000Y-110540000D03*
X69540000Y-108000000D03*
X67000000Y-125780000D03*
X67000000Y-123240000D03*
X67000000Y-120700000D03*
X67000000Y-118160000D03*
X67000000Y-115620000D03*
X67000000Y-113080000D03*
X67000000Y-110540000D03*
G36*
G01*
X66150000Y-108600000D02*
X66150000Y-107400000D01*
G75*
G02*
X66400000Y-107150000I250000J0D01*
G01*
X67600000Y-107150000D01*
G75*
G02*
X67850000Y-107400000I0J-250000D01*
G01*
X67850000Y-108600000D01*
G75*
G02*
X67600000Y-108850000I-250000J0D01*
G01*
X66400000Y-108850000D01*
G75*
G02*
X66150000Y-108600000I0J250000D01*
G01*
G37*
%TD*%
%TO.C,J1*%
X69540000Y-92780000D03*
X69540000Y-90240000D03*
X69540000Y-87700000D03*
X69540000Y-85160000D03*
X69540000Y-82620000D03*
X69540000Y-80080000D03*
X69540000Y-77540000D03*
X69540000Y-75000000D03*
X67000000Y-92780000D03*
X67000000Y-90240000D03*
X67000000Y-87700000D03*
X67000000Y-85160000D03*
X67000000Y-82620000D03*
X67000000Y-80080000D03*
X67000000Y-77540000D03*
G36*
G01*
X66150000Y-75600000D02*
X66150000Y-74400000D01*
G75*
G02*
X66400000Y-74150000I250000J0D01*
G01*
X67600000Y-74150000D01*
G75*
G02*
X67850000Y-74400000I0J-250000D01*
G01*
X67850000Y-75600000D01*
G75*
G02*
X67600000Y-75850000I-250000J0D01*
G01*
X66400000Y-75850000D01*
G75*
G02*
X66150000Y-75600000I0J250000D01*
G01*
G37*
%TD*%
D14*
%TO.C,C8*%
X80250000Y-90250000D03*
X85250000Y-90250000D03*
%TD*%
%TO.C,C7*%
X80250000Y-115250000D03*
X85250000Y-115250000D03*
%TD*%
%TO.C,C6*%
X80250000Y-65250000D03*
X85250000Y-65250000D03*
%TD*%
D17*
%TO.C,U1*%
X86620000Y-45000000D03*
X79000000Y-60240000D03*
X86620000Y-47540000D03*
X79000000Y-57700000D03*
X86620000Y-50080000D03*
X79000000Y-55160000D03*
X86620000Y-52620000D03*
X79000000Y-52620000D03*
X86620000Y-55160000D03*
X79000000Y-50080000D03*
X86620000Y-57700000D03*
X79000000Y-47540000D03*
X86620000Y-60240000D03*
D18*
X79000000Y-45000000D03*
%TD*%
D14*
%TO.C,C1*%
X80250000Y-40250000D03*
X85250000Y-40250000D03*
%TD*%
M02*
