%TF.GenerationSoftware,KiCad,Pcbnew,5.1.10-88a1d61d58~88~ubuntu20.10.1*%
%TF.CreationDate,2021-06-30T17:02:04+02:00*%
%TF.ProjectId,multiplexer-8,6d756c74-6970-46c6-9578-65722d382e6b,v1.0.0*%
%TF.SameCoordinates,Original*%
%TF.FileFunction,Legend,Top*%
%TF.FilePolarity,Positive*%
%FSLAX46Y46*%
G04 Gerber Fmt 4.6, Leading zero omitted, Abs format (unit mm)*
G04 Created by KiCad (PCBNEW 5.1.10-88a1d61d58~88~ubuntu20.10.1) date 2021-06-30 17:02:04*
%MOMM*%
%LPD*%
G01*
G04 APERTURE LIST*
%ADD10C,0.200000*%
%ADD11C,0.010000*%
%ADD12C,0.120000*%
%ADD13C,0.150000*%
G04 APERTURE END LIST*
D10*
X95750000Y-121571428D02*
X95678571Y-121714285D01*
X95678571Y-121928571D01*
X95750000Y-122142857D01*
X95892857Y-122285714D01*
X96035714Y-122357142D01*
X96321428Y-122428571D01*
X96535714Y-122428571D01*
X96821428Y-122357142D01*
X96964285Y-122285714D01*
X97107142Y-122142857D01*
X97178571Y-121928571D01*
X97178571Y-121785714D01*
X97107142Y-121571428D01*
X97035714Y-121500000D01*
X96535714Y-121500000D01*
X96535714Y-121785714D01*
X96750000Y-119785714D02*
X96750000Y-119071428D01*
X97178571Y-119928571D02*
X95678571Y-119428571D01*
X97178571Y-118928571D01*
X96392857Y-116785714D02*
X96464285Y-116571428D01*
X96535714Y-116500000D01*
X96678571Y-116428571D01*
X96892857Y-116428571D01*
X97035714Y-116500000D01*
X97107142Y-116571428D01*
X97178571Y-116714285D01*
X97178571Y-117285714D01*
X95678571Y-117285714D01*
X95678571Y-116785714D01*
X95750000Y-116642857D01*
X95821428Y-116571428D01*
X95964285Y-116500000D01*
X96107142Y-116500000D01*
X96250000Y-116571428D01*
X96321428Y-116642857D01*
X96392857Y-116785714D01*
X96392857Y-117285714D01*
X95678571Y-113928571D02*
X95678571Y-114642857D01*
X96392857Y-114714285D01*
X96321428Y-114642857D01*
X96250000Y-114500000D01*
X96250000Y-114142857D01*
X96321428Y-114000000D01*
X96392857Y-113928571D01*
X96535714Y-113857142D01*
X96892857Y-113857142D01*
X97035714Y-113928571D01*
X97107142Y-114000000D01*
X97178571Y-114142857D01*
X97178571Y-114500000D01*
X97107142Y-114642857D01*
X97035714Y-114714285D01*
X95678571Y-113428571D02*
X97178571Y-112928571D01*
X95678571Y-112428571D01*
D11*
%TO.C,G\u002A\u002A\u002A*%
G36*
X92601273Y-111581562D02*
G01*
X92743659Y-111599840D01*
X92842208Y-111634138D01*
X92869473Y-111650115D01*
X92967908Y-111698046D01*
X93055891Y-111689155D01*
X93087897Y-111675939D01*
X93227139Y-111651931D01*
X93355603Y-111695758D01*
X93457398Y-111790743D01*
X93516630Y-111920209D01*
X93517409Y-112067479D01*
X93503918Y-112112506D01*
X93481668Y-112206354D01*
X93491005Y-112312349D01*
X93534850Y-112461804D01*
X93537101Y-112468367D01*
X93582979Y-112629042D01*
X93627903Y-112831449D01*
X93662492Y-113033074D01*
X93663756Y-113042184D01*
X93686095Y-113302991D01*
X93677448Y-113560293D01*
X93634870Y-113833849D01*
X93555414Y-114143419D01*
X93451938Y-114463384D01*
X93378421Y-114694264D01*
X93311123Y-114938150D01*
X93258971Y-115160979D01*
X93236203Y-115286557D01*
X93205174Y-115679514D01*
X93218360Y-116098677D01*
X93272360Y-116517957D01*
X93363775Y-116911263D01*
X93489204Y-117252505D01*
X93493696Y-117262175D01*
X93571325Y-117458062D01*
X93594958Y-117596770D01*
X93564507Y-117675443D01*
X93506527Y-117693334D01*
X93486786Y-117692783D01*
X93471586Y-117696604D01*
X93461807Y-117713003D01*
X93458325Y-117750188D01*
X93462017Y-117816365D01*
X93473762Y-117919743D01*
X93494436Y-118068528D01*
X93524918Y-118270929D01*
X93566084Y-118535151D01*
X93618814Y-118869403D01*
X93660424Y-119132667D01*
X93711320Y-119458409D01*
X93749092Y-119711126D01*
X93774697Y-119901281D01*
X93789088Y-120039334D01*
X93793222Y-120135750D01*
X93788054Y-120200991D01*
X93774539Y-120245519D01*
X93763823Y-120265084D01*
X93737384Y-120301132D01*
X93702179Y-120326711D01*
X93644651Y-120343614D01*
X93551244Y-120353633D01*
X93408400Y-120358561D01*
X93202563Y-120360192D01*
X93043602Y-120360334D01*
X92383822Y-120360334D01*
X92412597Y-120243917D01*
X92496921Y-120071733D01*
X92649287Y-119933128D01*
X92856572Y-119837585D01*
X93024372Y-119801776D01*
X93065520Y-119790011D01*
X93065256Y-119763384D01*
X93015610Y-119712408D01*
X92908616Y-119627596D01*
X92826369Y-119566006D01*
X92674431Y-119442976D01*
X92491086Y-119279071D01*
X92300895Y-119096941D01*
X92149219Y-118941550D01*
X91772279Y-118539923D01*
X91591494Y-118783378D01*
X91409154Y-119051960D01*
X91272697Y-119313283D01*
X91166397Y-119601223D01*
X91100439Y-119841063D01*
X91052698Y-120019602D01*
X91005827Y-120170602D01*
X90966856Y-120272431D01*
X90951485Y-120299463D01*
X90913726Y-120323838D01*
X90839552Y-120341092D01*
X90717219Y-120352244D01*
X90534985Y-120358312D01*
X90281105Y-120360317D01*
X90249983Y-120360334D01*
X89599000Y-120360334D01*
X89599000Y-120250267D01*
X89638560Y-120116465D01*
X89746531Y-119990405D01*
X89906852Y-119885548D01*
X90103461Y-119815357D01*
X90122975Y-119811078D01*
X90259327Y-119779695D01*
X90329070Y-119750928D01*
X90349144Y-119713672D01*
X90340297Y-119668598D01*
X90326218Y-119589081D01*
X90311038Y-119447537D01*
X90296915Y-119266542D01*
X90289002Y-119132138D01*
X90296953Y-118688761D01*
X90371599Y-118280815D01*
X90517747Y-117893175D01*
X90740208Y-117510716D01*
X90855355Y-117350885D01*
X91066977Y-117071937D01*
X90989866Y-116694718D01*
X90954729Y-116508075D01*
X90927798Y-116336985D01*
X90913360Y-116209820D01*
X90912045Y-116179917D01*
X90896894Y-116077094D01*
X90848888Y-116042513D01*
X90843417Y-116042334D01*
X90781543Y-116050462D01*
X90651394Y-116073030D01*
X90467601Y-116107317D01*
X90244799Y-116150598D01*
X90022394Y-116195117D01*
X89269288Y-116347901D01*
X88862644Y-116105235D01*
X88699539Y-116003389D01*
X88567627Y-115912436D01*
X88481742Y-115843172D01*
X88456000Y-115809153D01*
X88493186Y-115740222D01*
X88585880Y-115675224D01*
X88705786Y-115630146D01*
X88792570Y-115619000D01*
X88914377Y-115630272D01*
X89064516Y-115658471D01*
X89112752Y-115670433D01*
X89305052Y-115721865D01*
X90108193Y-115322073D01*
X90345888Y-115202736D01*
X90555560Y-115095524D01*
X90726167Y-115006245D01*
X90846664Y-114940707D01*
X90906009Y-114904717D01*
X90910293Y-114900224D01*
X90877649Y-114869530D01*
X90786785Y-114795765D01*
X90647360Y-114686464D01*
X90469033Y-114549159D01*
X90261463Y-114391385D01*
X90155407Y-114311443D01*
X89401562Y-113744719D01*
X89224883Y-113358943D01*
X89149950Y-113190252D01*
X89090834Y-113047504D01*
X89055268Y-112949926D01*
X89048435Y-112920250D01*
X89085911Y-112889954D01*
X89179152Y-112871310D01*
X89299843Y-112866005D01*
X89419673Y-112875725D01*
X89491820Y-112893841D01*
X89550522Y-112942078D01*
X89632101Y-113040043D01*
X89700886Y-113139184D01*
X89840873Y-113358020D01*
X90594745Y-113641924D01*
X90829771Y-113729769D01*
X91035629Y-113805444D01*
X91200032Y-113864537D01*
X91310695Y-113902636D01*
X91355330Y-113915328D01*
X91355657Y-113915164D01*
X91382711Y-113878393D01*
X91445831Y-113793711D01*
X91515170Y-113701055D01*
X91604047Y-113567499D01*
X91671396Y-113439097D01*
X91695397Y-113371251D01*
X91690072Y-113222371D01*
X91618947Y-113093875D01*
X91497898Y-113014077D01*
X91494545Y-113013005D01*
X91386031Y-112954951D01*
X91337881Y-112879810D01*
X91354235Y-112807526D01*
X91439236Y-112758045D01*
X91441488Y-112757470D01*
X91552614Y-112697742D01*
X91639492Y-112597547D01*
X91673334Y-112492695D01*
X91652819Y-112457582D01*
X91580244Y-112446342D01*
X91464810Y-112453265D01*
X91335774Y-112460792D01*
X91257249Y-112443594D01*
X91196039Y-112389660D01*
X91159938Y-112342981D01*
X91078787Y-112169026D01*
X91061544Y-112021414D01*
X91059500Y-111830167D01*
X91313500Y-111818927D01*
X91606056Y-111769994D01*
X91800334Y-111691927D01*
X91934375Y-111631851D01*
X92057702Y-111596679D01*
X92202258Y-111580191D01*
X92394919Y-111576167D01*
X92601273Y-111581562D01*
G37*
X92601273Y-111581562D02*
X92743659Y-111599840D01*
X92842208Y-111634138D01*
X92869473Y-111650115D01*
X92967908Y-111698046D01*
X93055891Y-111689155D01*
X93087897Y-111675939D01*
X93227139Y-111651931D01*
X93355603Y-111695758D01*
X93457398Y-111790743D01*
X93516630Y-111920209D01*
X93517409Y-112067479D01*
X93503918Y-112112506D01*
X93481668Y-112206354D01*
X93491005Y-112312349D01*
X93534850Y-112461804D01*
X93537101Y-112468367D01*
X93582979Y-112629042D01*
X93627903Y-112831449D01*
X93662492Y-113033074D01*
X93663756Y-113042184D01*
X93686095Y-113302991D01*
X93677448Y-113560293D01*
X93634870Y-113833849D01*
X93555414Y-114143419D01*
X93451938Y-114463384D01*
X93378421Y-114694264D01*
X93311123Y-114938150D01*
X93258971Y-115160979D01*
X93236203Y-115286557D01*
X93205174Y-115679514D01*
X93218360Y-116098677D01*
X93272360Y-116517957D01*
X93363775Y-116911263D01*
X93489204Y-117252505D01*
X93493696Y-117262175D01*
X93571325Y-117458062D01*
X93594958Y-117596770D01*
X93564507Y-117675443D01*
X93506527Y-117693334D01*
X93486786Y-117692783D01*
X93471586Y-117696604D01*
X93461807Y-117713003D01*
X93458325Y-117750188D01*
X93462017Y-117816365D01*
X93473762Y-117919743D01*
X93494436Y-118068528D01*
X93524918Y-118270929D01*
X93566084Y-118535151D01*
X93618814Y-118869403D01*
X93660424Y-119132667D01*
X93711320Y-119458409D01*
X93749092Y-119711126D01*
X93774697Y-119901281D01*
X93789088Y-120039334D01*
X93793222Y-120135750D01*
X93788054Y-120200991D01*
X93774539Y-120245519D01*
X93763823Y-120265084D01*
X93737384Y-120301132D01*
X93702179Y-120326711D01*
X93644651Y-120343614D01*
X93551244Y-120353633D01*
X93408400Y-120358561D01*
X93202563Y-120360192D01*
X93043602Y-120360334D01*
X92383822Y-120360334D01*
X92412597Y-120243917D01*
X92496921Y-120071733D01*
X92649287Y-119933128D01*
X92856572Y-119837585D01*
X93024372Y-119801776D01*
X93065520Y-119790011D01*
X93065256Y-119763384D01*
X93015610Y-119712408D01*
X92908616Y-119627596D01*
X92826369Y-119566006D01*
X92674431Y-119442976D01*
X92491086Y-119279071D01*
X92300895Y-119096941D01*
X92149219Y-118941550D01*
X91772279Y-118539923D01*
X91591494Y-118783378D01*
X91409154Y-119051960D01*
X91272697Y-119313283D01*
X91166397Y-119601223D01*
X91100439Y-119841063D01*
X91052698Y-120019602D01*
X91005827Y-120170602D01*
X90966856Y-120272431D01*
X90951485Y-120299463D01*
X90913726Y-120323838D01*
X90839552Y-120341092D01*
X90717219Y-120352244D01*
X90534985Y-120358312D01*
X90281105Y-120360317D01*
X90249983Y-120360334D01*
X89599000Y-120360334D01*
X89599000Y-120250267D01*
X89638560Y-120116465D01*
X89746531Y-119990405D01*
X89906852Y-119885548D01*
X90103461Y-119815357D01*
X90122975Y-119811078D01*
X90259327Y-119779695D01*
X90329070Y-119750928D01*
X90349144Y-119713672D01*
X90340297Y-119668598D01*
X90326218Y-119589081D01*
X90311038Y-119447537D01*
X90296915Y-119266542D01*
X90289002Y-119132138D01*
X90296953Y-118688761D01*
X90371599Y-118280815D01*
X90517747Y-117893175D01*
X90740208Y-117510716D01*
X90855355Y-117350885D01*
X91066977Y-117071937D01*
X90989866Y-116694718D01*
X90954729Y-116508075D01*
X90927798Y-116336985D01*
X90913360Y-116209820D01*
X90912045Y-116179917D01*
X90896894Y-116077094D01*
X90848888Y-116042513D01*
X90843417Y-116042334D01*
X90781543Y-116050462D01*
X90651394Y-116073030D01*
X90467601Y-116107317D01*
X90244799Y-116150598D01*
X90022394Y-116195117D01*
X89269288Y-116347901D01*
X88862644Y-116105235D01*
X88699539Y-116003389D01*
X88567627Y-115912436D01*
X88481742Y-115843172D01*
X88456000Y-115809153D01*
X88493186Y-115740222D01*
X88585880Y-115675224D01*
X88705786Y-115630146D01*
X88792570Y-115619000D01*
X88914377Y-115630272D01*
X89064516Y-115658471D01*
X89112752Y-115670433D01*
X89305052Y-115721865D01*
X90108193Y-115322073D01*
X90345888Y-115202736D01*
X90555560Y-115095524D01*
X90726167Y-115006245D01*
X90846664Y-114940707D01*
X90906009Y-114904717D01*
X90910293Y-114900224D01*
X90877649Y-114869530D01*
X90786785Y-114795765D01*
X90647360Y-114686464D01*
X90469033Y-114549159D01*
X90261463Y-114391385D01*
X90155407Y-114311443D01*
X89401562Y-113744719D01*
X89224883Y-113358943D01*
X89149950Y-113190252D01*
X89090834Y-113047504D01*
X89055268Y-112949926D01*
X89048435Y-112920250D01*
X89085911Y-112889954D01*
X89179152Y-112871310D01*
X89299843Y-112866005D01*
X89419673Y-112875725D01*
X89491820Y-112893841D01*
X89550522Y-112942078D01*
X89632101Y-113040043D01*
X89700886Y-113139184D01*
X89840873Y-113358020D01*
X90594745Y-113641924D01*
X90829771Y-113729769D01*
X91035629Y-113805444D01*
X91200032Y-113864537D01*
X91310695Y-113902636D01*
X91355330Y-113915328D01*
X91355657Y-113915164D01*
X91382711Y-113878393D01*
X91445831Y-113793711D01*
X91515170Y-113701055D01*
X91604047Y-113567499D01*
X91671396Y-113439097D01*
X91695397Y-113371251D01*
X91690072Y-113222371D01*
X91618947Y-113093875D01*
X91497898Y-113014077D01*
X91494545Y-113013005D01*
X91386031Y-112954951D01*
X91337881Y-112879810D01*
X91354235Y-112807526D01*
X91439236Y-112758045D01*
X91441488Y-112757470D01*
X91552614Y-112697742D01*
X91639492Y-112597547D01*
X91673334Y-112492695D01*
X91652819Y-112457582D01*
X91580244Y-112446342D01*
X91464810Y-112453265D01*
X91335774Y-112460792D01*
X91257249Y-112443594D01*
X91196039Y-112389660D01*
X91159938Y-112342981D01*
X91078787Y-112169026D01*
X91061544Y-112021414D01*
X91059500Y-111830167D01*
X91313500Y-111818927D01*
X91606056Y-111769994D01*
X91800334Y-111691927D01*
X91934375Y-111631851D01*
X92057702Y-111596679D01*
X92202258Y-111580191D01*
X92394919Y-111576167D01*
X92601273Y-111581562D01*
G36*
X89786407Y-90562818D02*
G01*
X89809428Y-90530021D01*
X89855091Y-90465308D01*
X89921547Y-90371293D01*
X90006945Y-90250588D01*
X90109433Y-90105806D01*
X90227163Y-89939561D01*
X90358283Y-89754465D01*
X90500943Y-89553131D01*
X90653293Y-89338172D01*
X90813482Y-89112200D01*
X90979659Y-88877830D01*
X91001935Y-88846416D01*
X92142691Y-87237750D01*
X93178471Y-87232261D01*
X94214250Y-87226772D01*
X94944939Y-88258844D01*
X95076634Y-88444926D01*
X95201145Y-88620987D01*
X95316301Y-88783947D01*
X95419928Y-88930726D01*
X95509855Y-89058244D01*
X95583908Y-89163418D01*
X95639916Y-89243170D01*
X95675705Y-89294419D01*
X95689024Y-89313940D01*
X95681284Y-89337223D01*
X95652166Y-89389625D01*
X95604977Y-89465881D01*
X95543026Y-89560720D01*
X95469623Y-89668874D01*
X95433418Y-89720938D01*
X95164417Y-90104911D01*
X94372189Y-90105833D01*
X94567220Y-90383925D01*
X94633098Y-90478278D01*
X94689468Y-90559811D01*
X94732247Y-90622552D01*
X94757348Y-90660528D01*
X94762250Y-90669092D01*
X94750378Y-90687165D01*
X94716165Y-90736803D01*
X94661712Y-90815009D01*
X94589122Y-90918786D01*
X94500498Y-91045137D01*
X94397942Y-91191063D01*
X94283557Y-91353569D01*
X94159444Y-91529655D01*
X94027707Y-91716326D01*
X94021936Y-91724500D01*
X93281621Y-92772833D01*
X93085919Y-92772833D01*
X93085919Y-89869626D01*
X93102027Y-89854950D01*
X93137379Y-89812907D01*
X93186656Y-89750606D01*
X93244540Y-89675160D01*
X93305713Y-89593679D01*
X93364857Y-89513274D01*
X93416653Y-89441057D01*
X93455783Y-89384138D01*
X93476928Y-89349629D01*
X93479147Y-89343833D01*
X93468007Y-89323765D01*
X93436501Y-89275455D01*
X93388828Y-89205138D01*
X93329186Y-89119049D01*
X93295216Y-89070659D01*
X93229616Y-88979404D01*
X93171483Y-88901880D01*
X93125530Y-88844115D01*
X93096468Y-88812135D01*
X93089682Y-88807697D01*
X93072276Y-88823596D01*
X93035693Y-88866686D01*
X92985390Y-88929730D01*
X92926822Y-89005489D01*
X92865443Y-89086726D01*
X92806711Y-89166202D01*
X92756081Y-89236681D01*
X92719007Y-89290924D01*
X92700946Y-89321692D01*
X92700066Y-89324596D01*
X92711033Y-89346375D01*
X92741969Y-89394865D01*
X92787682Y-89462730D01*
X92842979Y-89542638D01*
X92902669Y-89627254D01*
X92961559Y-89709244D01*
X93014457Y-89781273D01*
X93056170Y-89836008D01*
X93081507Y-89866114D01*
X93085919Y-89869626D01*
X93085919Y-92772833D01*
X92632406Y-92772833D01*
X92632406Y-89205401D01*
X92656708Y-89175778D01*
X92697074Y-89120899D01*
X92748316Y-89048408D01*
X92805249Y-88965947D01*
X92862686Y-88881161D01*
X92915440Y-88801693D01*
X92958325Y-88735186D01*
X92986153Y-88689285D01*
X92994100Y-88672375D01*
X92982744Y-88646805D01*
X92950962Y-88593496D01*
X92902992Y-88519112D01*
X92843072Y-88430323D01*
X92809625Y-88382139D01*
X92744884Y-88290668D01*
X92688600Y-88212914D01*
X92645200Y-88154858D01*
X92619115Y-88122481D01*
X92613834Y-88117778D01*
X92595620Y-88134502D01*
X92559993Y-88179717D01*
X92511933Y-88245987D01*
X92456416Y-88325875D01*
X92398422Y-88411946D01*
X92342928Y-88496762D01*
X92294913Y-88572888D01*
X92259355Y-88632887D01*
X92241232Y-88669323D01*
X92240094Y-88676055D01*
X92258315Y-88708855D01*
X92294882Y-88764416D01*
X92344629Y-88835769D01*
X92402393Y-88915947D01*
X92463008Y-88997981D01*
X92521312Y-89074904D01*
X92572140Y-89139748D01*
X92610327Y-89185544D01*
X92630710Y-89205325D01*
X92632406Y-89205401D01*
X92632406Y-92772833D01*
X92151609Y-92772833D01*
X92151609Y-91229355D01*
X92348400Y-90948126D01*
X92545191Y-90666898D01*
X92461142Y-90550407D01*
X92407149Y-90475061D01*
X92341802Y-90383140D01*
X92277986Y-90292777D01*
X92269328Y-90280458D01*
X92220101Y-90212213D01*
X92179745Y-90159702D01*
X92154408Y-90130779D01*
X92149573Y-90127550D01*
X92148877Y-90128072D01*
X92148877Y-88528916D01*
X92166075Y-88512701D01*
X92201932Y-88468955D01*
X92251116Y-88405023D01*
X92308296Y-88328253D01*
X92368139Y-88245994D01*
X92425315Y-88165591D01*
X92474490Y-88094391D01*
X92510334Y-88039743D01*
X92527514Y-88008993D01*
X92528262Y-88006127D01*
X92517010Y-87984620D01*
X92485345Y-87934803D01*
X92437375Y-87862873D01*
X92377205Y-87775031D01*
X92335764Y-87715566D01*
X92142362Y-87439795D01*
X91944593Y-87717498D01*
X91746824Y-87995200D01*
X91817673Y-88092725D01*
X91862622Y-88154931D01*
X91921865Y-88237370D01*
X91985160Y-88325780D01*
X92009293Y-88359583D01*
X92062468Y-88431620D01*
X92107818Y-88488418D01*
X92139168Y-88522490D01*
X92148877Y-88528916D01*
X92148877Y-90128072D01*
X92140502Y-90134362D01*
X92121299Y-90156608D01*
X92089436Y-90197670D01*
X92042386Y-90260931D01*
X91977620Y-90349770D01*
X91892610Y-90467572D01*
X91824410Y-90562517D01*
X91747333Y-90669950D01*
X91897466Y-90880017D01*
X91961391Y-90969202D01*
X92021482Y-91052578D01*
X92070602Y-91120270D01*
X92099604Y-91159719D01*
X92151609Y-91229355D01*
X92151609Y-92772833D01*
X91678787Y-92772833D01*
X91678787Y-91882845D01*
X91695044Y-91866291D01*
X91730106Y-91822198D01*
X91778719Y-91757856D01*
X91835629Y-91680558D01*
X91895582Y-91597596D01*
X91953324Y-91516263D01*
X92003601Y-91443849D01*
X92041159Y-91387648D01*
X92060744Y-91354950D01*
X92062377Y-91350460D01*
X92051200Y-91328955D01*
X92019601Y-91279141D01*
X91971682Y-91207217D01*
X91911544Y-91119380D01*
X91870098Y-91059900D01*
X91689529Y-90802428D01*
X91689529Y-90528784D01*
X91695794Y-90524636D01*
X91727271Y-90487371D01*
X91772513Y-90426948D01*
X91826493Y-90350889D01*
X91884184Y-90266713D01*
X91940558Y-90181939D01*
X91990590Y-90104086D01*
X92029251Y-90040675D01*
X92051516Y-89999224D01*
X92054809Y-89987607D01*
X92040050Y-89963056D01*
X92005079Y-89910823D01*
X91954460Y-89837555D01*
X91892754Y-89749899D01*
X91861720Y-89706318D01*
X91797200Y-89616868D01*
X91741834Y-89541675D01*
X91699982Y-89486537D01*
X91676006Y-89457255D01*
X91672077Y-89454128D01*
X91669931Y-89457075D01*
X91669931Y-89198004D01*
X91689048Y-89185027D01*
X91725705Y-89143452D01*
X91774875Y-89080500D01*
X91831532Y-89003390D01*
X91890648Y-88919341D01*
X91947196Y-88835575D01*
X91996150Y-88759309D01*
X92032482Y-88697763D01*
X92051166Y-88658158D01*
X92052316Y-88648830D01*
X92036899Y-88622310D01*
X92001258Y-88568421D01*
X91950076Y-88494029D01*
X91888031Y-88405996D01*
X91859887Y-88366644D01*
X91795104Y-88278918D01*
X91738368Y-88206716D01*
X91694313Y-88155580D01*
X91667570Y-88131049D01*
X91662274Y-88130314D01*
X91644462Y-88153931D01*
X91607970Y-88204302D01*
X91558466Y-88273551D01*
X91512480Y-88338416D01*
X91451942Y-88423785D01*
X91395275Y-88503122D01*
X91350053Y-88565852D01*
X91329174Y-88594340D01*
X91280448Y-88659763D01*
X91465599Y-88924761D01*
X91531058Y-89017250D01*
X91588938Y-89096782D01*
X91634569Y-89157116D01*
X91663283Y-89192008D01*
X91669931Y-89198004D01*
X91669931Y-89457075D01*
X91658670Y-89472545D01*
X91624941Y-89519386D01*
X91575205Y-89588650D01*
X91513773Y-89674332D01*
X91474135Y-89729672D01*
X91281221Y-89999094D01*
X91475051Y-90275475D01*
X91550202Y-90381226D01*
X91605722Y-90455478D01*
X91645115Y-90502185D01*
X91671883Y-90525303D01*
X91689529Y-90528784D01*
X91689529Y-90802428D01*
X91676695Y-90784128D01*
X91280555Y-91340378D01*
X91329492Y-91405731D01*
X91361274Y-91449476D01*
X91410032Y-91518120D01*
X91468728Y-91601701D01*
X91521460Y-91677458D01*
X91578272Y-91757716D01*
X91626912Y-91823229D01*
X91662173Y-91867202D01*
X91678787Y-91882845D01*
X91678787Y-92772833D01*
X91216594Y-92772833D01*
X91216594Y-92546988D01*
X91233717Y-92524208D01*
X91270311Y-92473176D01*
X91321738Y-92400438D01*
X91383357Y-92312536D01*
X91415122Y-92266980D01*
X91489243Y-92157276D01*
X91542702Y-92071176D01*
X91573698Y-92011803D01*
X91580434Y-91982278D01*
X91579819Y-91981230D01*
X91561699Y-91956193D01*
X91524233Y-91903376D01*
X91472311Y-91829706D01*
X91410823Y-91742113D01*
X91387780Y-91709208D01*
X91324818Y-91620647D01*
X91269954Y-91546111D01*
X91227870Y-91491760D01*
X91203249Y-91463757D01*
X91201528Y-91462662D01*
X91201528Y-89893285D01*
X91398391Y-89614451D01*
X91464033Y-89519034D01*
X91518701Y-89434854D01*
X91558563Y-89368199D01*
X91579790Y-89325361D01*
X91581780Y-89313267D01*
X91565211Y-89288721D01*
X91528874Y-89236518D01*
X91477555Y-89163486D01*
X91416042Y-89076454D01*
X91391754Y-89042208D01*
X91327989Y-88953833D01*
X91272331Y-88879415D01*
X91229508Y-88825072D01*
X91204254Y-88796924D01*
X91200143Y-88794369D01*
X91184435Y-88810798D01*
X91149830Y-88854707D01*
X91101587Y-88918812D01*
X91044965Y-88995829D01*
X90985224Y-89078471D01*
X90927620Y-89159455D01*
X90877414Y-89231495D01*
X90839864Y-89287308D01*
X90820229Y-89319607D01*
X90819008Y-89322348D01*
X90828442Y-89344440D01*
X90858541Y-89394744D01*
X90905327Y-89467052D01*
X90964825Y-89555154D01*
X91007147Y-89616118D01*
X91201528Y-89893285D01*
X91201528Y-91462662D01*
X91199401Y-91461307D01*
X91181245Y-91477939D01*
X91147192Y-91520850D01*
X91104499Y-91580874D01*
X91103044Y-91583015D01*
X91049641Y-91661174D01*
X90984933Y-91755104D01*
X90921933Y-91845926D01*
X90915216Y-91855561D01*
X90809428Y-92007206D01*
X91005085Y-92285883D01*
X91071798Y-92378555D01*
X91130724Y-92455989D01*
X91177496Y-92512796D01*
X91207749Y-92543586D01*
X91216594Y-92546988D01*
X91216594Y-92772833D01*
X91197757Y-92772833D01*
X90923470Y-92389539D01*
X90649183Y-92006246D01*
X90848737Y-91728081D01*
X91048290Y-91449916D01*
X90727563Y-91441464D01*
X90727563Y-90554042D01*
X90829323Y-90412059D01*
X90892573Y-90324407D01*
X90960813Y-90230766D01*
X91019331Y-90151321D01*
X91019635Y-90150913D01*
X91064090Y-90087755D01*
X91096339Y-90035604D01*
X91109564Y-90005509D01*
X91109593Y-90005121D01*
X91098416Y-89978127D01*
X91067017Y-89925112D01*
X91020386Y-89854060D01*
X90970656Y-89782871D01*
X90908315Y-89696215D01*
X90849609Y-89615032D01*
X90802147Y-89549822D01*
X90778325Y-89517470D01*
X90726338Y-89447689D01*
X90537669Y-89714517D01*
X90472575Y-89807728D01*
X90417198Y-89889221D01*
X90375767Y-89952596D01*
X90352512Y-89991453D01*
X90349000Y-90000000D01*
X90360644Y-90022894D01*
X90392760Y-90073785D01*
X90441128Y-90146285D01*
X90501523Y-90234008D01*
X90538281Y-90286349D01*
X90727563Y-90554042D01*
X90727563Y-91441464D01*
X90646732Y-91439333D01*
X90251082Y-91428906D01*
X90251082Y-91205389D01*
X90270446Y-91191052D01*
X90307479Y-91148326D01*
X90357071Y-91084505D01*
X90414113Y-91006883D01*
X90473497Y-90922755D01*
X90530113Y-90839415D01*
X90578854Y-90764157D01*
X90614609Y-90704277D01*
X90632271Y-90667067D01*
X90633073Y-90659983D01*
X90618373Y-90633558D01*
X90583688Y-90579394D01*
X90533520Y-90504285D01*
X90472369Y-90415026D01*
X90440508Y-90369254D01*
X90376605Y-90278589D01*
X90321803Y-90202122D01*
X90280360Y-90145694D01*
X90256537Y-90115145D01*
X90252518Y-90111437D01*
X90237659Y-90131965D01*
X90203889Y-90179743D01*
X90156455Y-90247260D01*
X90100605Y-90327005D01*
X90041587Y-90411465D01*
X89984649Y-90493129D01*
X89935038Y-90564485D01*
X89898003Y-90618021D01*
X89878792Y-90646226D01*
X89877593Y-90648095D01*
X89884688Y-90671408D01*
X89911781Y-90721524D01*
X89953919Y-90791051D01*
X90006146Y-90872594D01*
X90063507Y-90958760D01*
X90121048Y-91042157D01*
X90173814Y-91115391D01*
X90216850Y-91171068D01*
X90245200Y-91201795D01*
X90251082Y-91205389D01*
X90251082Y-91428906D01*
X90245175Y-91428750D01*
X89978404Y-91049651D01*
X89711634Y-90670553D01*
X89786407Y-90562818D01*
G37*
X89786407Y-90562818D02*
X89809428Y-90530021D01*
X89855091Y-90465308D01*
X89921547Y-90371293D01*
X90006945Y-90250588D01*
X90109433Y-90105806D01*
X90227163Y-89939561D01*
X90358283Y-89754465D01*
X90500943Y-89553131D01*
X90653293Y-89338172D01*
X90813482Y-89112200D01*
X90979659Y-88877830D01*
X91001935Y-88846416D01*
X92142691Y-87237750D01*
X93178471Y-87232261D01*
X94214250Y-87226772D01*
X94944939Y-88258844D01*
X95076634Y-88444926D01*
X95201145Y-88620987D01*
X95316301Y-88783947D01*
X95419928Y-88930726D01*
X95509855Y-89058244D01*
X95583908Y-89163418D01*
X95639916Y-89243170D01*
X95675705Y-89294419D01*
X95689024Y-89313940D01*
X95681284Y-89337223D01*
X95652166Y-89389625D01*
X95604977Y-89465881D01*
X95543026Y-89560720D01*
X95469623Y-89668874D01*
X95433418Y-89720938D01*
X95164417Y-90104911D01*
X94372189Y-90105833D01*
X94567220Y-90383925D01*
X94633098Y-90478278D01*
X94689468Y-90559811D01*
X94732247Y-90622552D01*
X94757348Y-90660528D01*
X94762250Y-90669092D01*
X94750378Y-90687165D01*
X94716165Y-90736803D01*
X94661712Y-90815009D01*
X94589122Y-90918786D01*
X94500498Y-91045137D01*
X94397942Y-91191063D01*
X94283557Y-91353569D01*
X94159444Y-91529655D01*
X94027707Y-91716326D01*
X94021936Y-91724500D01*
X93281621Y-92772833D01*
X93085919Y-92772833D01*
X93085919Y-89869626D01*
X93102027Y-89854950D01*
X93137379Y-89812907D01*
X93186656Y-89750606D01*
X93244540Y-89675160D01*
X93305713Y-89593679D01*
X93364857Y-89513274D01*
X93416653Y-89441057D01*
X93455783Y-89384138D01*
X93476928Y-89349629D01*
X93479147Y-89343833D01*
X93468007Y-89323765D01*
X93436501Y-89275455D01*
X93388828Y-89205138D01*
X93329186Y-89119049D01*
X93295216Y-89070659D01*
X93229616Y-88979404D01*
X93171483Y-88901880D01*
X93125530Y-88844115D01*
X93096468Y-88812135D01*
X93089682Y-88807697D01*
X93072276Y-88823596D01*
X93035693Y-88866686D01*
X92985390Y-88929730D01*
X92926822Y-89005489D01*
X92865443Y-89086726D01*
X92806711Y-89166202D01*
X92756081Y-89236681D01*
X92719007Y-89290924D01*
X92700946Y-89321692D01*
X92700066Y-89324596D01*
X92711033Y-89346375D01*
X92741969Y-89394865D01*
X92787682Y-89462730D01*
X92842979Y-89542638D01*
X92902669Y-89627254D01*
X92961559Y-89709244D01*
X93014457Y-89781273D01*
X93056170Y-89836008D01*
X93081507Y-89866114D01*
X93085919Y-89869626D01*
X93085919Y-92772833D01*
X92632406Y-92772833D01*
X92632406Y-89205401D01*
X92656708Y-89175778D01*
X92697074Y-89120899D01*
X92748316Y-89048408D01*
X92805249Y-88965947D01*
X92862686Y-88881161D01*
X92915440Y-88801693D01*
X92958325Y-88735186D01*
X92986153Y-88689285D01*
X92994100Y-88672375D01*
X92982744Y-88646805D01*
X92950962Y-88593496D01*
X92902992Y-88519112D01*
X92843072Y-88430323D01*
X92809625Y-88382139D01*
X92744884Y-88290668D01*
X92688600Y-88212914D01*
X92645200Y-88154858D01*
X92619115Y-88122481D01*
X92613834Y-88117778D01*
X92595620Y-88134502D01*
X92559993Y-88179717D01*
X92511933Y-88245987D01*
X92456416Y-88325875D01*
X92398422Y-88411946D01*
X92342928Y-88496762D01*
X92294913Y-88572888D01*
X92259355Y-88632887D01*
X92241232Y-88669323D01*
X92240094Y-88676055D01*
X92258315Y-88708855D01*
X92294882Y-88764416D01*
X92344629Y-88835769D01*
X92402393Y-88915947D01*
X92463008Y-88997981D01*
X92521312Y-89074904D01*
X92572140Y-89139748D01*
X92610327Y-89185544D01*
X92630710Y-89205325D01*
X92632406Y-89205401D01*
X92632406Y-92772833D01*
X92151609Y-92772833D01*
X92151609Y-91229355D01*
X92348400Y-90948126D01*
X92545191Y-90666898D01*
X92461142Y-90550407D01*
X92407149Y-90475061D01*
X92341802Y-90383140D01*
X92277986Y-90292777D01*
X92269328Y-90280458D01*
X92220101Y-90212213D01*
X92179745Y-90159702D01*
X92154408Y-90130779D01*
X92149573Y-90127550D01*
X92148877Y-90128072D01*
X92148877Y-88528916D01*
X92166075Y-88512701D01*
X92201932Y-88468955D01*
X92251116Y-88405023D01*
X92308296Y-88328253D01*
X92368139Y-88245994D01*
X92425315Y-88165591D01*
X92474490Y-88094391D01*
X92510334Y-88039743D01*
X92527514Y-88008993D01*
X92528262Y-88006127D01*
X92517010Y-87984620D01*
X92485345Y-87934803D01*
X92437375Y-87862873D01*
X92377205Y-87775031D01*
X92335764Y-87715566D01*
X92142362Y-87439795D01*
X91944593Y-87717498D01*
X91746824Y-87995200D01*
X91817673Y-88092725D01*
X91862622Y-88154931D01*
X91921865Y-88237370D01*
X91985160Y-88325780D01*
X92009293Y-88359583D01*
X92062468Y-88431620D01*
X92107818Y-88488418D01*
X92139168Y-88522490D01*
X92148877Y-88528916D01*
X92148877Y-90128072D01*
X92140502Y-90134362D01*
X92121299Y-90156608D01*
X92089436Y-90197670D01*
X92042386Y-90260931D01*
X91977620Y-90349770D01*
X91892610Y-90467572D01*
X91824410Y-90562517D01*
X91747333Y-90669950D01*
X91897466Y-90880017D01*
X91961391Y-90969202D01*
X92021482Y-91052578D01*
X92070602Y-91120270D01*
X92099604Y-91159719D01*
X92151609Y-91229355D01*
X92151609Y-92772833D01*
X91678787Y-92772833D01*
X91678787Y-91882845D01*
X91695044Y-91866291D01*
X91730106Y-91822198D01*
X91778719Y-91757856D01*
X91835629Y-91680558D01*
X91895582Y-91597596D01*
X91953324Y-91516263D01*
X92003601Y-91443849D01*
X92041159Y-91387648D01*
X92060744Y-91354950D01*
X92062377Y-91350460D01*
X92051200Y-91328955D01*
X92019601Y-91279141D01*
X91971682Y-91207217D01*
X91911544Y-91119380D01*
X91870098Y-91059900D01*
X91689529Y-90802428D01*
X91689529Y-90528784D01*
X91695794Y-90524636D01*
X91727271Y-90487371D01*
X91772513Y-90426948D01*
X91826493Y-90350889D01*
X91884184Y-90266713D01*
X91940558Y-90181939D01*
X91990590Y-90104086D01*
X92029251Y-90040675D01*
X92051516Y-89999224D01*
X92054809Y-89987607D01*
X92040050Y-89963056D01*
X92005079Y-89910823D01*
X91954460Y-89837555D01*
X91892754Y-89749899D01*
X91861720Y-89706318D01*
X91797200Y-89616868D01*
X91741834Y-89541675D01*
X91699982Y-89486537D01*
X91676006Y-89457255D01*
X91672077Y-89454128D01*
X91669931Y-89457075D01*
X91669931Y-89198004D01*
X91689048Y-89185027D01*
X91725705Y-89143452D01*
X91774875Y-89080500D01*
X91831532Y-89003390D01*
X91890648Y-88919341D01*
X91947196Y-88835575D01*
X91996150Y-88759309D01*
X92032482Y-88697763D01*
X92051166Y-88658158D01*
X92052316Y-88648830D01*
X92036899Y-88622310D01*
X92001258Y-88568421D01*
X91950076Y-88494029D01*
X91888031Y-88405996D01*
X91859887Y-88366644D01*
X91795104Y-88278918D01*
X91738368Y-88206716D01*
X91694313Y-88155580D01*
X91667570Y-88131049D01*
X91662274Y-88130314D01*
X91644462Y-88153931D01*
X91607970Y-88204302D01*
X91558466Y-88273551D01*
X91512480Y-88338416D01*
X91451942Y-88423785D01*
X91395275Y-88503122D01*
X91350053Y-88565852D01*
X91329174Y-88594340D01*
X91280448Y-88659763D01*
X91465599Y-88924761D01*
X91531058Y-89017250D01*
X91588938Y-89096782D01*
X91634569Y-89157116D01*
X91663283Y-89192008D01*
X91669931Y-89198004D01*
X91669931Y-89457075D01*
X91658670Y-89472545D01*
X91624941Y-89519386D01*
X91575205Y-89588650D01*
X91513773Y-89674332D01*
X91474135Y-89729672D01*
X91281221Y-89999094D01*
X91475051Y-90275475D01*
X91550202Y-90381226D01*
X91605722Y-90455478D01*
X91645115Y-90502185D01*
X91671883Y-90525303D01*
X91689529Y-90528784D01*
X91689529Y-90802428D01*
X91676695Y-90784128D01*
X91280555Y-91340378D01*
X91329492Y-91405731D01*
X91361274Y-91449476D01*
X91410032Y-91518120D01*
X91468728Y-91601701D01*
X91521460Y-91677458D01*
X91578272Y-91757716D01*
X91626912Y-91823229D01*
X91662173Y-91867202D01*
X91678787Y-91882845D01*
X91678787Y-92772833D01*
X91216594Y-92772833D01*
X91216594Y-92546988D01*
X91233717Y-92524208D01*
X91270311Y-92473176D01*
X91321738Y-92400438D01*
X91383357Y-92312536D01*
X91415122Y-92266980D01*
X91489243Y-92157276D01*
X91542702Y-92071176D01*
X91573698Y-92011803D01*
X91580434Y-91982278D01*
X91579819Y-91981230D01*
X91561699Y-91956193D01*
X91524233Y-91903376D01*
X91472311Y-91829706D01*
X91410823Y-91742113D01*
X91387780Y-91709208D01*
X91324818Y-91620647D01*
X91269954Y-91546111D01*
X91227870Y-91491760D01*
X91203249Y-91463757D01*
X91201528Y-91462662D01*
X91201528Y-89893285D01*
X91398391Y-89614451D01*
X91464033Y-89519034D01*
X91518701Y-89434854D01*
X91558563Y-89368199D01*
X91579790Y-89325361D01*
X91581780Y-89313267D01*
X91565211Y-89288721D01*
X91528874Y-89236518D01*
X91477555Y-89163486D01*
X91416042Y-89076454D01*
X91391754Y-89042208D01*
X91327989Y-88953833D01*
X91272331Y-88879415D01*
X91229508Y-88825072D01*
X91204254Y-88796924D01*
X91200143Y-88794369D01*
X91184435Y-88810798D01*
X91149830Y-88854707D01*
X91101587Y-88918812D01*
X91044965Y-88995829D01*
X90985224Y-89078471D01*
X90927620Y-89159455D01*
X90877414Y-89231495D01*
X90839864Y-89287308D01*
X90820229Y-89319607D01*
X90819008Y-89322348D01*
X90828442Y-89344440D01*
X90858541Y-89394744D01*
X90905327Y-89467052D01*
X90964825Y-89555154D01*
X91007147Y-89616118D01*
X91201528Y-89893285D01*
X91201528Y-91462662D01*
X91199401Y-91461307D01*
X91181245Y-91477939D01*
X91147192Y-91520850D01*
X91104499Y-91580874D01*
X91103044Y-91583015D01*
X91049641Y-91661174D01*
X90984933Y-91755104D01*
X90921933Y-91845926D01*
X90915216Y-91855561D01*
X90809428Y-92007206D01*
X91005085Y-92285883D01*
X91071798Y-92378555D01*
X91130724Y-92455989D01*
X91177496Y-92512796D01*
X91207749Y-92543586D01*
X91216594Y-92546988D01*
X91216594Y-92772833D01*
X91197757Y-92772833D01*
X90923470Y-92389539D01*
X90649183Y-92006246D01*
X90848737Y-91728081D01*
X91048290Y-91449916D01*
X90727563Y-91441464D01*
X90727563Y-90554042D01*
X90829323Y-90412059D01*
X90892573Y-90324407D01*
X90960813Y-90230766D01*
X91019331Y-90151321D01*
X91019635Y-90150913D01*
X91064090Y-90087755D01*
X91096339Y-90035604D01*
X91109564Y-90005509D01*
X91109593Y-90005121D01*
X91098416Y-89978127D01*
X91067017Y-89925112D01*
X91020386Y-89854060D01*
X90970656Y-89782871D01*
X90908315Y-89696215D01*
X90849609Y-89615032D01*
X90802147Y-89549822D01*
X90778325Y-89517470D01*
X90726338Y-89447689D01*
X90537669Y-89714517D01*
X90472575Y-89807728D01*
X90417198Y-89889221D01*
X90375767Y-89952596D01*
X90352512Y-89991453D01*
X90349000Y-90000000D01*
X90360644Y-90022894D01*
X90392760Y-90073785D01*
X90441128Y-90146285D01*
X90501523Y-90234008D01*
X90538281Y-90286349D01*
X90727563Y-90554042D01*
X90727563Y-91441464D01*
X90646732Y-91439333D01*
X90251082Y-91428906D01*
X90251082Y-91205389D01*
X90270446Y-91191052D01*
X90307479Y-91148326D01*
X90357071Y-91084505D01*
X90414113Y-91006883D01*
X90473497Y-90922755D01*
X90530113Y-90839415D01*
X90578854Y-90764157D01*
X90614609Y-90704277D01*
X90632271Y-90667067D01*
X90633073Y-90659983D01*
X90618373Y-90633558D01*
X90583688Y-90579394D01*
X90533520Y-90504285D01*
X90472369Y-90415026D01*
X90440508Y-90369254D01*
X90376605Y-90278589D01*
X90321803Y-90202122D01*
X90280360Y-90145694D01*
X90256537Y-90115145D01*
X90252518Y-90111437D01*
X90237659Y-90131965D01*
X90203889Y-90179743D01*
X90156455Y-90247260D01*
X90100605Y-90327005D01*
X90041587Y-90411465D01*
X89984649Y-90493129D01*
X89935038Y-90564485D01*
X89898003Y-90618021D01*
X89878792Y-90646226D01*
X89877593Y-90648095D01*
X89884688Y-90671408D01*
X89911781Y-90721524D01*
X89953919Y-90791051D01*
X90006146Y-90872594D01*
X90063507Y-90958760D01*
X90121048Y-91042157D01*
X90173814Y-91115391D01*
X90216850Y-91171068D01*
X90245200Y-91201795D01*
X90251082Y-91205389D01*
X90251082Y-91428906D01*
X90245175Y-91428750D01*
X89978404Y-91049651D01*
X89711634Y-90670553D01*
X89786407Y-90562818D01*
G36*
X89750365Y-100224855D02*
G01*
X89769325Y-100197302D01*
X89810488Y-100138512D01*
X89871540Y-100051763D01*
X89950167Y-99940328D01*
X90044055Y-99807483D01*
X90150888Y-99656503D01*
X90268353Y-99490663D01*
X90394135Y-99313239D01*
X90496796Y-99168539D01*
X91205509Y-98169940D01*
X92242540Y-98175428D01*
X93279570Y-98180916D01*
X93957410Y-99136536D01*
X94086248Y-99318148D01*
X94209483Y-99491815D01*
X94324614Y-99654016D01*
X94429140Y-99801230D01*
X94520560Y-99929934D01*
X94596372Y-100036608D01*
X94654076Y-100117730D01*
X94691170Y-100169779D01*
X94701885Y-100184743D01*
X94768520Y-100277331D01*
X94024867Y-101330110D01*
X93281213Y-102382889D01*
X92235517Y-102377403D01*
X92151306Y-102376962D01*
X92151306Y-100839454D01*
X92348248Y-100558009D01*
X92545191Y-100276564D01*
X92461142Y-100160074D01*
X92407149Y-100084728D01*
X92341802Y-99992807D01*
X92277986Y-99902444D01*
X92269328Y-99890125D01*
X92220101Y-99821877D01*
X92179744Y-99769360D01*
X92154408Y-99740429D01*
X92149573Y-99737196D01*
X92130450Y-99754320D01*
X92094061Y-99799938D01*
X92045399Y-99866594D01*
X91989460Y-99946829D01*
X91931240Y-100033185D01*
X91875732Y-100118205D01*
X91827933Y-100194430D01*
X91792836Y-100254403D01*
X91775438Y-100290665D01*
X91774613Y-100297041D01*
X91790186Y-100323467D01*
X91825837Y-100377420D01*
X91876924Y-100452062D01*
X91938802Y-100540556D01*
X91968322Y-100582222D01*
X92151306Y-100839454D01*
X92151306Y-102376962D01*
X91679177Y-102374484D01*
X91679177Y-101492879D01*
X91694522Y-101476390D01*
X91728552Y-101432141D01*
X91776157Y-101367385D01*
X91832225Y-101289375D01*
X91891647Y-101205362D01*
X91949311Y-101122598D01*
X92000105Y-101048337D01*
X92038920Y-100989830D01*
X92060643Y-100954330D01*
X92063500Y-100947535D01*
X92051863Y-100927951D01*
X92019731Y-100880026D01*
X91971274Y-100809827D01*
X91910661Y-100723419D01*
X91870135Y-100666235D01*
X91689529Y-100412332D01*
X91689529Y-100138451D01*
X91695794Y-100134303D01*
X91727271Y-100097037D01*
X91772513Y-100036615D01*
X91826493Y-99960556D01*
X91884184Y-99876380D01*
X91940558Y-99791606D01*
X91990590Y-99713753D01*
X92029251Y-99650342D01*
X92051516Y-99608891D01*
X92054809Y-99597274D01*
X92040050Y-99572722D01*
X92005079Y-99520490D01*
X91954460Y-99447222D01*
X91892754Y-99359566D01*
X91861720Y-99315985D01*
X91797200Y-99226535D01*
X91741834Y-99151342D01*
X91699982Y-99096204D01*
X91676006Y-99066921D01*
X91672077Y-99063795D01*
X91658670Y-99082211D01*
X91624941Y-99129053D01*
X91575205Y-99198317D01*
X91513773Y-99283999D01*
X91474135Y-99339339D01*
X91281221Y-99608761D01*
X91475051Y-99885142D01*
X91550202Y-99990893D01*
X91605722Y-100065144D01*
X91645115Y-100111852D01*
X91671883Y-100134969D01*
X91689529Y-100138451D01*
X91689529Y-100412332D01*
X91676769Y-100394393D01*
X91620354Y-100472988D01*
X91585006Y-100522803D01*
X91533164Y-100596570D01*
X91472437Y-100683438D01*
X91423216Y-100754144D01*
X91282494Y-100956705D01*
X91473883Y-101225103D01*
X91540330Y-101317062D01*
X91598577Y-101395364D01*
X91644116Y-101454133D01*
X91672443Y-101487490D01*
X91679177Y-101492879D01*
X91679177Y-102374484D01*
X91207328Y-102372008D01*
X91207328Y-102165604D01*
X91220509Y-102147379D01*
X91253825Y-102100541D01*
X91303030Y-102031081D01*
X91363875Y-101944992D01*
X91404208Y-101887841D01*
X91596356Y-101615432D01*
X91497393Y-101475091D01*
X91435856Y-101388053D01*
X91370137Y-101295455D01*
X91315172Y-101218333D01*
X91270623Y-101156635D01*
X91234918Y-101108262D01*
X91216296Y-101084314D01*
X91201704Y-101094768D01*
X91201704Y-99502704D01*
X91398884Y-99223421D01*
X91472133Y-99119353D01*
X91523826Y-99043920D01*
X91556828Y-98991177D01*
X91574004Y-98955179D01*
X91578217Y-98929981D01*
X91572334Y-98909638D01*
X91559907Y-98889253D01*
X91533874Y-98850517D01*
X91489994Y-98786031D01*
X91434471Y-98704887D01*
X91375584Y-98619187D01*
X91317890Y-98536895D01*
X91268374Y-98469062D01*
X91232087Y-98422415D01*
X91214080Y-98403678D01*
X91213646Y-98403586D01*
X91198362Y-98419548D01*
X91163823Y-98462934D01*
X91115261Y-98526634D01*
X91057907Y-98603539D01*
X90996994Y-98686539D01*
X90937752Y-98768525D01*
X90885414Y-98842387D01*
X90845211Y-98901016D01*
X90828141Y-98927463D01*
X90833613Y-98956106D01*
X90864705Y-99015373D01*
X90920173Y-99103166D01*
X90998774Y-99217391D01*
X91006675Y-99228524D01*
X91201704Y-99502704D01*
X91201704Y-101094768D01*
X91200591Y-101095566D01*
X91165618Y-101134598D01*
X91116551Y-101194624D01*
X91058564Y-101268858D01*
X90996830Y-101350515D01*
X90936524Y-101432810D01*
X90882818Y-101508958D01*
X90840888Y-101572173D01*
X90827314Y-101594463D01*
X90833235Y-101622420D01*
X90863657Y-101680213D01*
X90916651Y-101764607D01*
X90990290Y-101872366D01*
X91007122Y-101896151D01*
X91073501Y-101988760D01*
X91130819Y-102067376D01*
X91174867Y-102126336D01*
X91201438Y-102159978D01*
X91207328Y-102165604D01*
X91207328Y-102372008D01*
X91189820Y-102371916D01*
X90734290Y-101727607D01*
X90734290Y-101492693D01*
X90750875Y-101476611D01*
X90785770Y-101432641D01*
X90833818Y-101368131D01*
X90889859Y-101290426D01*
X90948737Y-101206872D01*
X91005294Y-101124816D01*
X91054370Y-101051602D01*
X91090810Y-100994579D01*
X91109453Y-100961090D01*
X91110822Y-100956425D01*
X91099306Y-100933484D01*
X91067459Y-100882564D01*
X91019529Y-100810152D01*
X90959766Y-100722735D01*
X90927153Y-100675967D01*
X90862335Y-100584895D01*
X90805588Y-100507584D01*
X90761465Y-100450052D01*
X90734521Y-100418315D01*
X90730000Y-100414854D01*
X90730000Y-100159446D01*
X90746349Y-100142972D01*
X90781039Y-100098589D01*
X90828950Y-100033626D01*
X90884962Y-99955411D01*
X90943954Y-99871273D01*
X91000807Y-99788541D01*
X91050401Y-99714544D01*
X91087615Y-99656610D01*
X91107331Y-99622067D01*
X91109162Y-99616720D01*
X91098269Y-99591476D01*
X91067045Y-99538458D01*
X91019711Y-99464380D01*
X90960488Y-99375955D01*
X90929857Y-99331508D01*
X90866173Y-99240107D01*
X90811361Y-99161796D01*
X90769799Y-99102803D01*
X90745867Y-99069356D01*
X90741918Y-99064195D01*
X90727706Y-99077316D01*
X90695104Y-99118797D01*
X90648959Y-99181612D01*
X90594115Y-99258735D01*
X90535419Y-99343139D01*
X90477718Y-99427799D01*
X90425856Y-99505688D01*
X90384680Y-99569779D01*
X90359035Y-99613047D01*
X90353006Y-99628083D01*
X90368739Y-99654302D01*
X90403007Y-99705664D01*
X90450650Y-99774898D01*
X90506509Y-99854731D01*
X90565424Y-99937892D01*
X90622236Y-100017110D01*
X90671786Y-100085112D01*
X90708915Y-100134627D01*
X90728463Y-100158384D01*
X90730000Y-100159446D01*
X90730000Y-100414854D01*
X90728886Y-100414000D01*
X90712435Y-100430468D01*
X90676567Y-100475880D01*
X90625780Y-100544246D01*
X90564569Y-100629576D01*
X90529010Y-100680247D01*
X90343553Y-100946495D01*
X90449445Y-101098289D01*
X90511397Y-101187515D01*
X90576582Y-101282062D01*
X90632005Y-101363075D01*
X90637377Y-101370985D01*
X90680314Y-101431425D01*
X90714962Y-101475041D01*
X90734020Y-101492661D01*
X90734290Y-101492693D01*
X90734290Y-101727607D01*
X90451233Y-101327245D01*
X90269336Y-101069967D01*
X90269336Y-100810971D01*
X90291372Y-100790576D01*
X90330027Y-100742488D01*
X90380154Y-100674341D01*
X90436606Y-100593771D01*
X90494240Y-100508411D01*
X90547908Y-100425897D01*
X90592466Y-100353862D01*
X90622766Y-100299941D01*
X90633665Y-100271768D01*
X90633497Y-100270685D01*
X90618976Y-100244397D01*
X90584723Y-100190399D01*
X90535297Y-100115653D01*
X90475254Y-100027120D01*
X90450038Y-99990494D01*
X90387406Y-99900907D01*
X90333195Y-99825256D01*
X90291913Y-99769690D01*
X90268071Y-99740354D01*
X90264334Y-99737333D01*
X90244809Y-99754263D01*
X90208189Y-99799827D01*
X90159457Y-99866539D01*
X90103595Y-99946915D01*
X90045587Y-100033467D01*
X89990415Y-100118710D01*
X89943061Y-100195159D01*
X89908510Y-100255327D01*
X89891743Y-100291728D01*
X89891143Y-100297988D01*
X89911094Y-100335219D01*
X89949033Y-100394258D01*
X89999626Y-100467867D01*
X90057536Y-100548808D01*
X90117429Y-100629844D01*
X90173967Y-100703738D01*
X90221816Y-100763252D01*
X90255639Y-100801149D01*
X90269336Y-100810971D01*
X90269336Y-101069967D01*
X89712646Y-100282573D01*
X89750365Y-100224855D01*
G37*
X89750365Y-100224855D02*
X89769325Y-100197302D01*
X89810488Y-100138512D01*
X89871540Y-100051763D01*
X89950167Y-99940328D01*
X90044055Y-99807483D01*
X90150888Y-99656503D01*
X90268353Y-99490663D01*
X90394135Y-99313239D01*
X90496796Y-99168539D01*
X91205509Y-98169940D01*
X92242540Y-98175428D01*
X93279570Y-98180916D01*
X93957410Y-99136536D01*
X94086248Y-99318148D01*
X94209483Y-99491815D01*
X94324614Y-99654016D01*
X94429140Y-99801230D01*
X94520560Y-99929934D01*
X94596372Y-100036608D01*
X94654076Y-100117730D01*
X94691170Y-100169779D01*
X94701885Y-100184743D01*
X94768520Y-100277331D01*
X94024867Y-101330110D01*
X93281213Y-102382889D01*
X92235517Y-102377403D01*
X92151306Y-102376962D01*
X92151306Y-100839454D01*
X92348248Y-100558009D01*
X92545191Y-100276564D01*
X92461142Y-100160074D01*
X92407149Y-100084728D01*
X92341802Y-99992807D01*
X92277986Y-99902444D01*
X92269328Y-99890125D01*
X92220101Y-99821877D01*
X92179744Y-99769360D01*
X92154408Y-99740429D01*
X92149573Y-99737196D01*
X92130450Y-99754320D01*
X92094061Y-99799938D01*
X92045399Y-99866594D01*
X91989460Y-99946829D01*
X91931240Y-100033185D01*
X91875732Y-100118205D01*
X91827933Y-100194430D01*
X91792836Y-100254403D01*
X91775438Y-100290665D01*
X91774613Y-100297041D01*
X91790186Y-100323467D01*
X91825837Y-100377420D01*
X91876924Y-100452062D01*
X91938802Y-100540556D01*
X91968322Y-100582222D01*
X92151306Y-100839454D01*
X92151306Y-102376962D01*
X91679177Y-102374484D01*
X91679177Y-101492879D01*
X91694522Y-101476390D01*
X91728552Y-101432141D01*
X91776157Y-101367385D01*
X91832225Y-101289375D01*
X91891647Y-101205362D01*
X91949311Y-101122598D01*
X92000105Y-101048337D01*
X92038920Y-100989830D01*
X92060643Y-100954330D01*
X92063500Y-100947535D01*
X92051863Y-100927951D01*
X92019731Y-100880026D01*
X91971274Y-100809827D01*
X91910661Y-100723419D01*
X91870135Y-100666235D01*
X91689529Y-100412332D01*
X91689529Y-100138451D01*
X91695794Y-100134303D01*
X91727271Y-100097037D01*
X91772513Y-100036615D01*
X91826493Y-99960556D01*
X91884184Y-99876380D01*
X91940558Y-99791606D01*
X91990590Y-99713753D01*
X92029251Y-99650342D01*
X92051516Y-99608891D01*
X92054809Y-99597274D01*
X92040050Y-99572722D01*
X92005079Y-99520490D01*
X91954460Y-99447222D01*
X91892754Y-99359566D01*
X91861720Y-99315985D01*
X91797200Y-99226535D01*
X91741834Y-99151342D01*
X91699982Y-99096204D01*
X91676006Y-99066921D01*
X91672077Y-99063795D01*
X91658670Y-99082211D01*
X91624941Y-99129053D01*
X91575205Y-99198317D01*
X91513773Y-99283999D01*
X91474135Y-99339339D01*
X91281221Y-99608761D01*
X91475051Y-99885142D01*
X91550202Y-99990893D01*
X91605722Y-100065144D01*
X91645115Y-100111852D01*
X91671883Y-100134969D01*
X91689529Y-100138451D01*
X91689529Y-100412332D01*
X91676769Y-100394393D01*
X91620354Y-100472988D01*
X91585006Y-100522803D01*
X91533164Y-100596570D01*
X91472437Y-100683438D01*
X91423216Y-100754144D01*
X91282494Y-100956705D01*
X91473883Y-101225103D01*
X91540330Y-101317062D01*
X91598577Y-101395364D01*
X91644116Y-101454133D01*
X91672443Y-101487490D01*
X91679177Y-101492879D01*
X91679177Y-102374484D01*
X91207328Y-102372008D01*
X91207328Y-102165604D01*
X91220509Y-102147379D01*
X91253825Y-102100541D01*
X91303030Y-102031081D01*
X91363875Y-101944992D01*
X91404208Y-101887841D01*
X91596356Y-101615432D01*
X91497393Y-101475091D01*
X91435856Y-101388053D01*
X91370137Y-101295455D01*
X91315172Y-101218333D01*
X91270623Y-101156635D01*
X91234918Y-101108262D01*
X91216296Y-101084314D01*
X91201704Y-101094768D01*
X91201704Y-99502704D01*
X91398884Y-99223421D01*
X91472133Y-99119353D01*
X91523826Y-99043920D01*
X91556828Y-98991177D01*
X91574004Y-98955179D01*
X91578217Y-98929981D01*
X91572334Y-98909638D01*
X91559907Y-98889253D01*
X91533874Y-98850517D01*
X91489994Y-98786031D01*
X91434471Y-98704887D01*
X91375584Y-98619187D01*
X91317890Y-98536895D01*
X91268374Y-98469062D01*
X91232087Y-98422415D01*
X91214080Y-98403678D01*
X91213646Y-98403586D01*
X91198362Y-98419548D01*
X91163823Y-98462934D01*
X91115261Y-98526634D01*
X91057907Y-98603539D01*
X90996994Y-98686539D01*
X90937752Y-98768525D01*
X90885414Y-98842387D01*
X90845211Y-98901016D01*
X90828141Y-98927463D01*
X90833613Y-98956106D01*
X90864705Y-99015373D01*
X90920173Y-99103166D01*
X90998774Y-99217391D01*
X91006675Y-99228524D01*
X91201704Y-99502704D01*
X91201704Y-101094768D01*
X91200591Y-101095566D01*
X91165618Y-101134598D01*
X91116551Y-101194624D01*
X91058564Y-101268858D01*
X90996830Y-101350515D01*
X90936524Y-101432810D01*
X90882818Y-101508958D01*
X90840888Y-101572173D01*
X90827314Y-101594463D01*
X90833235Y-101622420D01*
X90863657Y-101680213D01*
X90916651Y-101764607D01*
X90990290Y-101872366D01*
X91007122Y-101896151D01*
X91073501Y-101988760D01*
X91130819Y-102067376D01*
X91174867Y-102126336D01*
X91201438Y-102159978D01*
X91207328Y-102165604D01*
X91207328Y-102372008D01*
X91189820Y-102371916D01*
X90734290Y-101727607D01*
X90734290Y-101492693D01*
X90750875Y-101476611D01*
X90785770Y-101432641D01*
X90833818Y-101368131D01*
X90889859Y-101290426D01*
X90948737Y-101206872D01*
X91005294Y-101124816D01*
X91054370Y-101051602D01*
X91090810Y-100994579D01*
X91109453Y-100961090D01*
X91110822Y-100956425D01*
X91099306Y-100933484D01*
X91067459Y-100882564D01*
X91019529Y-100810152D01*
X90959766Y-100722735D01*
X90927153Y-100675967D01*
X90862335Y-100584895D01*
X90805588Y-100507584D01*
X90761465Y-100450052D01*
X90734521Y-100418315D01*
X90730000Y-100414854D01*
X90730000Y-100159446D01*
X90746349Y-100142972D01*
X90781039Y-100098589D01*
X90828950Y-100033626D01*
X90884962Y-99955411D01*
X90943954Y-99871273D01*
X91000807Y-99788541D01*
X91050401Y-99714544D01*
X91087615Y-99656610D01*
X91107331Y-99622067D01*
X91109162Y-99616720D01*
X91098269Y-99591476D01*
X91067045Y-99538458D01*
X91019711Y-99464380D01*
X90960488Y-99375955D01*
X90929857Y-99331508D01*
X90866173Y-99240107D01*
X90811361Y-99161796D01*
X90769799Y-99102803D01*
X90745867Y-99069356D01*
X90741918Y-99064195D01*
X90727706Y-99077316D01*
X90695104Y-99118797D01*
X90648959Y-99181612D01*
X90594115Y-99258735D01*
X90535419Y-99343139D01*
X90477718Y-99427799D01*
X90425856Y-99505688D01*
X90384680Y-99569779D01*
X90359035Y-99613047D01*
X90353006Y-99628083D01*
X90368739Y-99654302D01*
X90403007Y-99705664D01*
X90450650Y-99774898D01*
X90506509Y-99854731D01*
X90565424Y-99937892D01*
X90622236Y-100017110D01*
X90671786Y-100085112D01*
X90708915Y-100134627D01*
X90728463Y-100158384D01*
X90730000Y-100159446D01*
X90730000Y-100414854D01*
X90728886Y-100414000D01*
X90712435Y-100430468D01*
X90676567Y-100475880D01*
X90625780Y-100544246D01*
X90564569Y-100629576D01*
X90529010Y-100680247D01*
X90343553Y-100946495D01*
X90449445Y-101098289D01*
X90511397Y-101187515D01*
X90576582Y-101282062D01*
X90632005Y-101363075D01*
X90637377Y-101370985D01*
X90680314Y-101431425D01*
X90714962Y-101475041D01*
X90734020Y-101492661D01*
X90734290Y-101492693D01*
X90734290Y-101727607D01*
X90451233Y-101327245D01*
X90269336Y-101069967D01*
X90269336Y-100810971D01*
X90291372Y-100790576D01*
X90330027Y-100742488D01*
X90380154Y-100674341D01*
X90436606Y-100593771D01*
X90494240Y-100508411D01*
X90547908Y-100425897D01*
X90592466Y-100353862D01*
X90622766Y-100299941D01*
X90633665Y-100271768D01*
X90633497Y-100270685D01*
X90618976Y-100244397D01*
X90584723Y-100190399D01*
X90535297Y-100115653D01*
X90475254Y-100027120D01*
X90450038Y-99990494D01*
X90387406Y-99900907D01*
X90333195Y-99825256D01*
X90291913Y-99769690D01*
X90268071Y-99740354D01*
X90264334Y-99737333D01*
X90244809Y-99754263D01*
X90208189Y-99799827D01*
X90159457Y-99866539D01*
X90103595Y-99946915D01*
X90045587Y-100033467D01*
X89990415Y-100118710D01*
X89943061Y-100195159D01*
X89908510Y-100255327D01*
X89891743Y-100291728D01*
X89891143Y-100297988D01*
X89911094Y-100335219D01*
X89949033Y-100394258D01*
X89999626Y-100467867D01*
X90057536Y-100548808D01*
X90117429Y-100629844D01*
X90173967Y-100703738D01*
X90221816Y-100763252D01*
X90255639Y-100801149D01*
X90269336Y-100810971D01*
X90269336Y-101069967D01*
X89712646Y-100282573D01*
X89750365Y-100224855D01*
G36*
X90924194Y-95091304D02*
G01*
X92137584Y-93367044D01*
X94215660Y-93365500D01*
X94407942Y-93635375D01*
X94482298Y-93739668D01*
X94555530Y-93842263D01*
X94620686Y-93933429D01*
X94670815Y-94003436D01*
X94684160Y-94022024D01*
X94768097Y-94138799D01*
X93616803Y-95768274D01*
X93449472Y-96005055D01*
X93287873Y-96233627D01*
X93133838Y-96451404D01*
X92989199Y-96655801D01*
X92855787Y-96844234D01*
X92735433Y-97014117D01*
X92629970Y-97162865D01*
X92541228Y-97287893D01*
X92471040Y-97386615D01*
X92421238Y-97456447D01*
X92393651Y-97494803D01*
X92390944Y-97498493D01*
X92316379Y-97599235D01*
X92137616Y-97598283D01*
X92137616Y-94694533D01*
X92150885Y-94680771D01*
X92183136Y-94639122D01*
X92229392Y-94576602D01*
X92284675Y-94500224D01*
X92344009Y-94417004D01*
X92402415Y-94333956D01*
X92454916Y-94258094D01*
X92496536Y-94196434D01*
X92522296Y-94155988D01*
X92528226Y-94144058D01*
X92516868Y-94122362D01*
X92484976Y-94072826D01*
X92436863Y-94001882D01*
X92376847Y-93915963D01*
X92347080Y-93874091D01*
X92281919Y-93783713D01*
X92224873Y-93706085D01*
X92180686Y-93647545D01*
X92154098Y-93614434D01*
X92149186Y-93609547D01*
X92131139Y-93621502D01*
X92095035Y-93661528D01*
X92046726Y-93722758D01*
X92009404Y-93773680D01*
X91947093Y-93861084D01*
X91885180Y-93947928D01*
X91833519Y-94020391D01*
X91816113Y-94044806D01*
X91746798Y-94142028D01*
X91939634Y-94415222D01*
X92005606Y-94508615D01*
X92062523Y-94589057D01*
X92106132Y-94650545D01*
X92132178Y-94687077D01*
X92137616Y-94694533D01*
X92137616Y-97598283D01*
X91690615Y-97595902D01*
X91690615Y-95334352D01*
X91709621Y-95310345D01*
X91747825Y-95258403D01*
X91800284Y-95185369D01*
X91862052Y-95098083D01*
X91885514Y-95064635D01*
X91953653Y-94966595D01*
X92000242Y-94896681D01*
X92028315Y-94848560D01*
X92040909Y-94815898D01*
X92041060Y-94792359D01*
X92031804Y-94771611D01*
X92028498Y-94766308D01*
X92004603Y-94730969D01*
X91961743Y-94669473D01*
X91905681Y-94590024D01*
X91842180Y-94500824D01*
X91832376Y-94487120D01*
X91667673Y-94257040D01*
X91485615Y-94517268D01*
X91421430Y-94609762D01*
X91366297Y-94690632D01*
X91324652Y-94753263D01*
X91300929Y-94791036D01*
X91297237Y-94798305D01*
X91305652Y-94824451D01*
X91334540Y-94875088D01*
X91378808Y-94943273D01*
X91433363Y-95022066D01*
X91493112Y-95104528D01*
X91552961Y-95183718D01*
X91607817Y-95252695D01*
X91652587Y-95304519D01*
X91682178Y-95332249D01*
X91690615Y-95334352D01*
X91690615Y-97595902D01*
X91285335Y-97593743D01*
X91216594Y-97593377D01*
X91216594Y-96018321D01*
X91233717Y-95995541D01*
X91270311Y-95944510D01*
X91321738Y-95871771D01*
X91383357Y-95783870D01*
X91415122Y-95738313D01*
X91489243Y-95628609D01*
X91542702Y-95542509D01*
X91573698Y-95483136D01*
X91580434Y-95453611D01*
X91579819Y-95452563D01*
X91561699Y-95427526D01*
X91524233Y-95374709D01*
X91472311Y-95301040D01*
X91410823Y-95213446D01*
X91387780Y-95180541D01*
X91324818Y-95091981D01*
X91269954Y-95017444D01*
X91227870Y-94963094D01*
X91203249Y-94935090D01*
X91199401Y-94932640D01*
X91181245Y-94949273D01*
X91147192Y-94992183D01*
X91104499Y-95052207D01*
X91103044Y-95054348D01*
X91049641Y-95132507D01*
X90984933Y-95226438D01*
X90921933Y-95317260D01*
X90915216Y-95326895D01*
X90809428Y-95478540D01*
X91005085Y-95757216D01*
X91071798Y-95849888D01*
X91130724Y-95927322D01*
X91177496Y-95984129D01*
X91207749Y-96014920D01*
X91216594Y-96018321D01*
X91216594Y-97593377D01*
X90726002Y-97590764D01*
X90726002Y-96682908D01*
X90742519Y-96668410D01*
X90777615Y-96626073D01*
X90826110Y-96563098D01*
X90882822Y-96486684D01*
X90942573Y-96404030D01*
X91000182Y-96322337D01*
X91050469Y-96248802D01*
X91088254Y-96190626D01*
X91108355Y-96155008D01*
X91110282Y-96148831D01*
X91099054Y-96123986D01*
X91068006Y-96072463D01*
X91021998Y-96001980D01*
X90970326Y-95926581D01*
X90908515Y-95838617D01*
X90850263Y-95756336D01*
X90802948Y-95690128D01*
X90777994Y-95655803D01*
X90726338Y-95586023D01*
X90537669Y-95852850D01*
X90472545Y-95946213D01*
X90417150Y-96028033D01*
X90375719Y-96091862D01*
X90352487Y-96131251D01*
X90349000Y-96140086D01*
X90360565Y-96163639D01*
X90391790Y-96213828D01*
X90437466Y-96283154D01*
X90492386Y-96364119D01*
X90551343Y-96449227D01*
X90609131Y-96530979D01*
X90660540Y-96601877D01*
X90700365Y-96654424D01*
X90723398Y-96681123D01*
X90726002Y-96682908D01*
X90726002Y-97590764D01*
X90255146Y-97588255D01*
X90255146Y-97355416D01*
X90269373Y-97339337D01*
X90302881Y-97295868D01*
X90350476Y-97232162D01*
X90406967Y-97155374D01*
X90467163Y-97072655D01*
X90525870Y-96991161D01*
X90577898Y-96918044D01*
X90618053Y-96860457D01*
X90641145Y-96825554D01*
X90644689Y-96818713D01*
X90633463Y-96799660D01*
X90602096Y-96752134D01*
X90554758Y-96682316D01*
X90495621Y-96596388D01*
X90461999Y-96547974D01*
X90397150Y-96455690D01*
X90340231Y-96376219D01*
X90295842Y-96315866D01*
X90268585Y-96280938D01*
X90262840Y-96274993D01*
X90246012Y-96288059D01*
X90209744Y-96330479D01*
X90158452Y-96396631D01*
X90096549Y-96480896D01*
X90053963Y-96540933D01*
X89860910Y-96816653D01*
X90053503Y-97086035D01*
X90119876Y-97178106D01*
X90177534Y-97256638D01*
X90222091Y-97315772D01*
X90249161Y-97349648D01*
X90255146Y-97355416D01*
X90255146Y-97588255D01*
X90254290Y-97588250D01*
X89982547Y-97201907D01*
X89710804Y-96815563D01*
X90924194Y-95091304D01*
G37*
X90924194Y-95091304D02*
X92137584Y-93367044D01*
X94215660Y-93365500D01*
X94407942Y-93635375D01*
X94482298Y-93739668D01*
X94555530Y-93842263D01*
X94620686Y-93933429D01*
X94670815Y-94003436D01*
X94684160Y-94022024D01*
X94768097Y-94138799D01*
X93616803Y-95768274D01*
X93449472Y-96005055D01*
X93287873Y-96233627D01*
X93133838Y-96451404D01*
X92989199Y-96655801D01*
X92855787Y-96844234D01*
X92735433Y-97014117D01*
X92629970Y-97162865D01*
X92541228Y-97287893D01*
X92471040Y-97386615D01*
X92421238Y-97456447D01*
X92393651Y-97494803D01*
X92390944Y-97498493D01*
X92316379Y-97599235D01*
X92137616Y-97598283D01*
X92137616Y-94694533D01*
X92150885Y-94680771D01*
X92183136Y-94639122D01*
X92229392Y-94576602D01*
X92284675Y-94500224D01*
X92344009Y-94417004D01*
X92402415Y-94333956D01*
X92454916Y-94258094D01*
X92496536Y-94196434D01*
X92522296Y-94155988D01*
X92528226Y-94144058D01*
X92516868Y-94122362D01*
X92484976Y-94072826D01*
X92436863Y-94001882D01*
X92376847Y-93915963D01*
X92347080Y-93874091D01*
X92281919Y-93783713D01*
X92224873Y-93706085D01*
X92180686Y-93647545D01*
X92154098Y-93614434D01*
X92149186Y-93609547D01*
X92131139Y-93621502D01*
X92095035Y-93661528D01*
X92046726Y-93722758D01*
X92009404Y-93773680D01*
X91947093Y-93861084D01*
X91885180Y-93947928D01*
X91833519Y-94020391D01*
X91816113Y-94044806D01*
X91746798Y-94142028D01*
X91939634Y-94415222D01*
X92005606Y-94508615D01*
X92062523Y-94589057D01*
X92106132Y-94650545D01*
X92132178Y-94687077D01*
X92137616Y-94694533D01*
X92137616Y-97598283D01*
X91690615Y-97595902D01*
X91690615Y-95334352D01*
X91709621Y-95310345D01*
X91747825Y-95258403D01*
X91800284Y-95185369D01*
X91862052Y-95098083D01*
X91885514Y-95064635D01*
X91953653Y-94966595D01*
X92000242Y-94896681D01*
X92028315Y-94848560D01*
X92040909Y-94815898D01*
X92041060Y-94792359D01*
X92031804Y-94771611D01*
X92028498Y-94766308D01*
X92004603Y-94730969D01*
X91961743Y-94669473D01*
X91905681Y-94590024D01*
X91842180Y-94500824D01*
X91832376Y-94487120D01*
X91667673Y-94257040D01*
X91485615Y-94517268D01*
X91421430Y-94609762D01*
X91366297Y-94690632D01*
X91324652Y-94753263D01*
X91300929Y-94791036D01*
X91297237Y-94798305D01*
X91305652Y-94824451D01*
X91334540Y-94875088D01*
X91378808Y-94943273D01*
X91433363Y-95022066D01*
X91493112Y-95104528D01*
X91552961Y-95183718D01*
X91607817Y-95252695D01*
X91652587Y-95304519D01*
X91682178Y-95332249D01*
X91690615Y-95334352D01*
X91690615Y-97595902D01*
X91285335Y-97593743D01*
X91216594Y-97593377D01*
X91216594Y-96018321D01*
X91233717Y-95995541D01*
X91270311Y-95944510D01*
X91321738Y-95871771D01*
X91383357Y-95783870D01*
X91415122Y-95738313D01*
X91489243Y-95628609D01*
X91542702Y-95542509D01*
X91573698Y-95483136D01*
X91580434Y-95453611D01*
X91579819Y-95452563D01*
X91561699Y-95427526D01*
X91524233Y-95374709D01*
X91472311Y-95301040D01*
X91410823Y-95213446D01*
X91387780Y-95180541D01*
X91324818Y-95091981D01*
X91269954Y-95017444D01*
X91227870Y-94963094D01*
X91203249Y-94935090D01*
X91199401Y-94932640D01*
X91181245Y-94949273D01*
X91147192Y-94992183D01*
X91104499Y-95052207D01*
X91103044Y-95054348D01*
X91049641Y-95132507D01*
X90984933Y-95226438D01*
X90921933Y-95317260D01*
X90915216Y-95326895D01*
X90809428Y-95478540D01*
X91005085Y-95757216D01*
X91071798Y-95849888D01*
X91130724Y-95927322D01*
X91177496Y-95984129D01*
X91207749Y-96014920D01*
X91216594Y-96018321D01*
X91216594Y-97593377D01*
X90726002Y-97590764D01*
X90726002Y-96682908D01*
X90742519Y-96668410D01*
X90777615Y-96626073D01*
X90826110Y-96563098D01*
X90882822Y-96486684D01*
X90942573Y-96404030D01*
X91000182Y-96322337D01*
X91050469Y-96248802D01*
X91088254Y-96190626D01*
X91108355Y-96155008D01*
X91110282Y-96148831D01*
X91099054Y-96123986D01*
X91068006Y-96072463D01*
X91021998Y-96001980D01*
X90970326Y-95926581D01*
X90908515Y-95838617D01*
X90850263Y-95756336D01*
X90802948Y-95690128D01*
X90777994Y-95655803D01*
X90726338Y-95586023D01*
X90537669Y-95852850D01*
X90472545Y-95946213D01*
X90417150Y-96028033D01*
X90375719Y-96091862D01*
X90352487Y-96131251D01*
X90349000Y-96140086D01*
X90360565Y-96163639D01*
X90391790Y-96213828D01*
X90437466Y-96283154D01*
X90492386Y-96364119D01*
X90551343Y-96449227D01*
X90609131Y-96530979D01*
X90660540Y-96601877D01*
X90700365Y-96654424D01*
X90723398Y-96681123D01*
X90726002Y-96682908D01*
X90726002Y-97590764D01*
X90255146Y-97588255D01*
X90255146Y-97355416D01*
X90269373Y-97339337D01*
X90302881Y-97295868D01*
X90350476Y-97232162D01*
X90406967Y-97155374D01*
X90467163Y-97072655D01*
X90525870Y-96991161D01*
X90577898Y-96918044D01*
X90618053Y-96860457D01*
X90641145Y-96825554D01*
X90644689Y-96818713D01*
X90633463Y-96799660D01*
X90602096Y-96752134D01*
X90554758Y-96682316D01*
X90495621Y-96596388D01*
X90461999Y-96547974D01*
X90397150Y-96455690D01*
X90340231Y-96376219D01*
X90295842Y-96315866D01*
X90268585Y-96280938D01*
X90262840Y-96274993D01*
X90246012Y-96288059D01*
X90209744Y-96330479D01*
X90158452Y-96396631D01*
X90096549Y-96480896D01*
X90053963Y-96540933D01*
X89860910Y-96816653D01*
X90053503Y-97086035D01*
X90119876Y-97178106D01*
X90177534Y-97256638D01*
X90222091Y-97315772D01*
X90249161Y-97349648D01*
X90255146Y-97355416D01*
X90255146Y-97588255D01*
X90254290Y-97588250D01*
X89982547Y-97201907D01*
X89710804Y-96815563D01*
X90924194Y-95091304D01*
G36*
X89745716Y-79680590D02*
G01*
X89782765Y-79626355D01*
X89836295Y-79548618D01*
X89902439Y-79452988D01*
X89977331Y-79345077D01*
X89998615Y-79314470D01*
X90251480Y-78951000D01*
X91046533Y-78951000D01*
X90855922Y-78681125D01*
X90790388Y-78587421D01*
X90734352Y-78505548D01*
X90692053Y-78441843D01*
X90667735Y-78402642D01*
X90663547Y-78393711D01*
X90675110Y-78373739D01*
X90709042Y-78322262D01*
X90763239Y-78242317D01*
X90835600Y-78136943D01*
X90924021Y-78009177D01*
X91026400Y-77862058D01*
X91140634Y-77698624D01*
X91264621Y-77521913D01*
X91396258Y-77334963D01*
X91399684Y-77330106D01*
X92137584Y-76284039D01*
X93177937Y-76284020D01*
X94218290Y-76284000D01*
X94477702Y-76649125D01*
X94555630Y-76758804D01*
X94625636Y-76857323D01*
X94683870Y-76939264D01*
X94726481Y-76999210D01*
X94749620Y-77031743D01*
X94752237Y-77035416D01*
X94743049Y-77056003D01*
X94711347Y-77108029D01*
X94659189Y-77188461D01*
X94588632Y-77294267D01*
X94501734Y-77422414D01*
X94400552Y-77569869D01*
X94287143Y-77733598D01*
X94163566Y-77910569D01*
X94031878Y-78097748D01*
X94023972Y-78108942D01*
X93280584Y-79161301D01*
X92885160Y-79167276D01*
X92489736Y-79173250D01*
X92680729Y-79443959D01*
X92754267Y-79551273D01*
X92810434Y-79639657D01*
X92846591Y-79704649D01*
X92860097Y-79741786D01*
X92859614Y-79746222D01*
X92844087Y-79772349D01*
X92807679Y-79827186D01*
X92754262Y-79905103D01*
X92687709Y-80000466D01*
X92611892Y-80107643D01*
X92590981Y-80136971D01*
X92334457Y-80496166D01*
X92142647Y-80496166D01*
X92142647Y-77616231D01*
X92334084Y-77346991D01*
X92399901Y-77253537D01*
X92456187Y-77171927D01*
X92498681Y-77108473D01*
X92523124Y-77069487D01*
X92527344Y-77060652D01*
X92516370Y-77038264D01*
X92484921Y-76987902D01*
X92437207Y-76915982D01*
X92377437Y-76828920D01*
X92343959Y-76781166D01*
X92278797Y-76690022D01*
X92221802Y-76612502D01*
X92177524Y-76554625D01*
X92150514Y-76522413D01*
X92144844Y-76517806D01*
X92128428Y-76533809D01*
X92092218Y-76578609D01*
X92040718Y-76646336D01*
X91978432Y-76731123D01*
X91939549Y-76785230D01*
X91748161Y-77053628D01*
X91888883Y-77256189D01*
X91951266Y-77345757D01*
X92010785Y-77430810D01*
X92059823Y-77500487D01*
X92086126Y-77537491D01*
X92142647Y-77616231D01*
X92142647Y-80496166D01*
X91689575Y-80496166D01*
X91689575Y-78252141D01*
X91695885Y-78247970D01*
X91713792Y-78225105D01*
X91750103Y-78175541D01*
X91799371Y-78106996D01*
X91856145Y-78027187D01*
X91914978Y-77943833D01*
X91970420Y-77864650D01*
X92017021Y-77797357D01*
X92049334Y-77749670D01*
X92061737Y-77729799D01*
X92050756Y-77712083D01*
X92019290Y-77665847D01*
X91971449Y-77597022D01*
X91911347Y-77511541D01*
X91871043Y-77454632D01*
X91804923Y-77361656D01*
X91747786Y-77281586D01*
X91703947Y-77220447D01*
X91677721Y-77184264D01*
X91672255Y-77177059D01*
X91658732Y-77191249D01*
X91625453Y-77234666D01*
X91576598Y-77301623D01*
X91516343Y-77386427D01*
X91473985Y-77447070D01*
X91282046Y-77723604D01*
X91475464Y-77999397D01*
X91550497Y-78104983D01*
X91605909Y-78179085D01*
X91645214Y-78225668D01*
X91671931Y-78248698D01*
X91689575Y-78252141D01*
X91689575Y-80496166D01*
X91208631Y-80496166D01*
X91208631Y-78945091D01*
X91222837Y-78925917D01*
X91256925Y-78878115D01*
X91306578Y-78807792D01*
X91367477Y-78721054D01*
X91406332Y-78665513D01*
X91596189Y-78393780D01*
X91455209Y-78190848D01*
X91392834Y-78101290D01*
X91333382Y-78016327D01*
X91284434Y-77946771D01*
X91258077Y-77909684D01*
X91201924Y-77831452D01*
X91013587Y-78098671D01*
X90948179Y-78191883D01*
X90891766Y-78273052D01*
X90848721Y-78335824D01*
X90823419Y-78373844D01*
X90818672Y-78381846D01*
X90827786Y-78403014D01*
X90856496Y-78450671D01*
X90899947Y-78517804D01*
X90953281Y-78597399D01*
X91011643Y-78682440D01*
X91070176Y-78765915D01*
X91124026Y-78840809D01*
X91168335Y-78900109D01*
X91198247Y-78936800D01*
X91208631Y-78945091D01*
X91208631Y-80496166D01*
X90258161Y-80496166D01*
X90258161Y-80276405D01*
X90274438Y-80255616D01*
X90309294Y-80208236D01*
X90357590Y-80141487D01*
X90414185Y-80062586D01*
X90473940Y-79978754D01*
X90531716Y-79897211D01*
X90582373Y-79825176D01*
X90620771Y-79769869D01*
X90641771Y-79738510D01*
X90644175Y-79734166D01*
X90632981Y-79714084D01*
X90601465Y-79665725D01*
X90553819Y-79595323D01*
X90494235Y-79509116D01*
X90460045Y-79460282D01*
X90394480Y-79369001D01*
X90336274Y-79291643D01*
X90290135Y-79234187D01*
X90260775Y-79202614D01*
X90253750Y-79198405D01*
X90234873Y-79215393D01*
X90196800Y-79261286D01*
X90144221Y-79330039D01*
X90081827Y-79415608D01*
X90046631Y-79465354D01*
X89860678Y-79730879D01*
X90057214Y-80005769D01*
X90123885Y-80098404D01*
X90181426Y-80177183D01*
X90225624Y-80236431D01*
X90252265Y-80270473D01*
X90258161Y-80276405D01*
X90258161Y-80496166D01*
X90250225Y-80496166D01*
X89981253Y-80114824D01*
X89880249Y-79969240D01*
X89804562Y-79854824D01*
X89754504Y-79772085D01*
X89730389Y-79721528D01*
X89729015Y-79705710D01*
X89745716Y-79680590D01*
G37*
X89745716Y-79680590D02*
X89782765Y-79626355D01*
X89836295Y-79548618D01*
X89902439Y-79452988D01*
X89977331Y-79345077D01*
X89998615Y-79314470D01*
X90251480Y-78951000D01*
X91046533Y-78951000D01*
X90855922Y-78681125D01*
X90790388Y-78587421D01*
X90734352Y-78505548D01*
X90692053Y-78441843D01*
X90667735Y-78402642D01*
X90663547Y-78393711D01*
X90675110Y-78373739D01*
X90709042Y-78322262D01*
X90763239Y-78242317D01*
X90835600Y-78136943D01*
X90924021Y-78009177D01*
X91026400Y-77862058D01*
X91140634Y-77698624D01*
X91264621Y-77521913D01*
X91396258Y-77334963D01*
X91399684Y-77330106D01*
X92137584Y-76284039D01*
X93177937Y-76284020D01*
X94218290Y-76284000D01*
X94477702Y-76649125D01*
X94555630Y-76758804D01*
X94625636Y-76857323D01*
X94683870Y-76939264D01*
X94726481Y-76999210D01*
X94749620Y-77031743D01*
X94752237Y-77035416D01*
X94743049Y-77056003D01*
X94711347Y-77108029D01*
X94659189Y-77188461D01*
X94588632Y-77294267D01*
X94501734Y-77422414D01*
X94400552Y-77569869D01*
X94287143Y-77733598D01*
X94163566Y-77910569D01*
X94031878Y-78097748D01*
X94023972Y-78108942D01*
X93280584Y-79161301D01*
X92885160Y-79167276D01*
X92489736Y-79173250D01*
X92680729Y-79443959D01*
X92754267Y-79551273D01*
X92810434Y-79639657D01*
X92846591Y-79704649D01*
X92860097Y-79741786D01*
X92859614Y-79746222D01*
X92844087Y-79772349D01*
X92807679Y-79827186D01*
X92754262Y-79905103D01*
X92687709Y-80000466D01*
X92611892Y-80107643D01*
X92590981Y-80136971D01*
X92334457Y-80496166D01*
X92142647Y-80496166D01*
X92142647Y-77616231D01*
X92334084Y-77346991D01*
X92399901Y-77253537D01*
X92456187Y-77171927D01*
X92498681Y-77108473D01*
X92523124Y-77069487D01*
X92527344Y-77060652D01*
X92516370Y-77038264D01*
X92484921Y-76987902D01*
X92437207Y-76915982D01*
X92377437Y-76828920D01*
X92343959Y-76781166D01*
X92278797Y-76690022D01*
X92221802Y-76612502D01*
X92177524Y-76554625D01*
X92150514Y-76522413D01*
X92144844Y-76517806D01*
X92128428Y-76533809D01*
X92092218Y-76578609D01*
X92040718Y-76646336D01*
X91978432Y-76731123D01*
X91939549Y-76785230D01*
X91748161Y-77053628D01*
X91888883Y-77256189D01*
X91951266Y-77345757D01*
X92010785Y-77430810D01*
X92059823Y-77500487D01*
X92086126Y-77537491D01*
X92142647Y-77616231D01*
X92142647Y-80496166D01*
X91689575Y-80496166D01*
X91689575Y-78252141D01*
X91695885Y-78247970D01*
X91713792Y-78225105D01*
X91750103Y-78175541D01*
X91799371Y-78106996D01*
X91856145Y-78027187D01*
X91914978Y-77943833D01*
X91970420Y-77864650D01*
X92017021Y-77797357D01*
X92049334Y-77749670D01*
X92061737Y-77729799D01*
X92050756Y-77712083D01*
X92019290Y-77665847D01*
X91971449Y-77597022D01*
X91911347Y-77511541D01*
X91871043Y-77454632D01*
X91804923Y-77361656D01*
X91747786Y-77281586D01*
X91703947Y-77220447D01*
X91677721Y-77184264D01*
X91672255Y-77177059D01*
X91658732Y-77191249D01*
X91625453Y-77234666D01*
X91576598Y-77301623D01*
X91516343Y-77386427D01*
X91473985Y-77447070D01*
X91282046Y-77723604D01*
X91475464Y-77999397D01*
X91550497Y-78104983D01*
X91605909Y-78179085D01*
X91645214Y-78225668D01*
X91671931Y-78248698D01*
X91689575Y-78252141D01*
X91689575Y-80496166D01*
X91208631Y-80496166D01*
X91208631Y-78945091D01*
X91222837Y-78925917D01*
X91256925Y-78878115D01*
X91306578Y-78807792D01*
X91367477Y-78721054D01*
X91406332Y-78665513D01*
X91596189Y-78393780D01*
X91455209Y-78190848D01*
X91392834Y-78101290D01*
X91333382Y-78016327D01*
X91284434Y-77946771D01*
X91258077Y-77909684D01*
X91201924Y-77831452D01*
X91013587Y-78098671D01*
X90948179Y-78191883D01*
X90891766Y-78273052D01*
X90848721Y-78335824D01*
X90823419Y-78373844D01*
X90818672Y-78381846D01*
X90827786Y-78403014D01*
X90856496Y-78450671D01*
X90899947Y-78517804D01*
X90953281Y-78597399D01*
X91011643Y-78682440D01*
X91070176Y-78765915D01*
X91124026Y-78840809D01*
X91168335Y-78900109D01*
X91198247Y-78936800D01*
X91208631Y-78945091D01*
X91208631Y-80496166D01*
X90258161Y-80496166D01*
X90258161Y-80276405D01*
X90274438Y-80255616D01*
X90309294Y-80208236D01*
X90357590Y-80141487D01*
X90414185Y-80062586D01*
X90473940Y-79978754D01*
X90531716Y-79897211D01*
X90582373Y-79825176D01*
X90620771Y-79769869D01*
X90641771Y-79738510D01*
X90644175Y-79734166D01*
X90632981Y-79714084D01*
X90601465Y-79665725D01*
X90553819Y-79595323D01*
X90494235Y-79509116D01*
X90460045Y-79460282D01*
X90394480Y-79369001D01*
X90336274Y-79291643D01*
X90290135Y-79234187D01*
X90260775Y-79202614D01*
X90253750Y-79198405D01*
X90234873Y-79215393D01*
X90196800Y-79261286D01*
X90144221Y-79330039D01*
X90081827Y-79415608D01*
X90046631Y-79465354D01*
X89860678Y-79730879D01*
X90057214Y-80005769D01*
X90123885Y-80098404D01*
X90181426Y-80177183D01*
X90225624Y-80236431D01*
X90252265Y-80270473D01*
X90258161Y-80276405D01*
X90258161Y-80496166D01*
X90250225Y-80496166D01*
X89981253Y-80114824D01*
X89880249Y-79969240D01*
X89804562Y-79854824D01*
X89754504Y-79772085D01*
X89730389Y-79721528D01*
X89729015Y-79705710D01*
X89745716Y-79680590D01*
G36*
X88323060Y-105076739D02*
G01*
X88356294Y-105024992D01*
X88409842Y-104944781D01*
X88481619Y-104839141D01*
X88569540Y-104711108D01*
X88671521Y-104563717D01*
X88785476Y-104400004D01*
X88909321Y-104223003D01*
X89040971Y-104035752D01*
X89047250Y-104026843D01*
X89788084Y-102975812D01*
X91864768Y-102975166D01*
X92103210Y-103313833D01*
X92341653Y-103652500D01*
X94220190Y-103652500D01*
X94485929Y-104023383D01*
X94564218Y-104133856D01*
X94633300Y-104233651D01*
X94689577Y-104317376D01*
X94729451Y-104379643D01*
X94749322Y-104415059D01*
X94750886Y-104420258D01*
X94738796Y-104440837D01*
X94703851Y-104493566D01*
X94647704Y-104576074D01*
X94572008Y-104685993D01*
X94478416Y-104820953D01*
X94368578Y-104978585D01*
X94244150Y-105156519D01*
X94106782Y-105352388D01*
X93958128Y-105563820D01*
X93799841Y-105788448D01*
X93633572Y-106023901D01*
X93540523Y-106155458D01*
X92330943Y-107864666D01*
X92144979Y-107864666D01*
X92144979Y-104964212D01*
X92160161Y-104947747D01*
X92194077Y-104903555D01*
X92241611Y-104838884D01*
X92297646Y-104760981D01*
X92357066Y-104677095D01*
X92414755Y-104594475D01*
X92465597Y-104520367D01*
X92504474Y-104462021D01*
X92526271Y-104426684D01*
X92529167Y-104419950D01*
X92517792Y-104400533D01*
X92486448Y-104352581D01*
X92439302Y-104282334D01*
X92380523Y-104196033D01*
X92347826Y-104148454D01*
X92283680Y-104056884D01*
X92227267Y-103979174D01*
X92183145Y-103921388D01*
X92155875Y-103889591D01*
X92149985Y-103885333D01*
X92132132Y-103901760D01*
X92096020Y-103946185D01*
X92046784Y-104011325D01*
X91989559Y-104089895D01*
X91929481Y-104174611D01*
X91871683Y-104258189D01*
X91821301Y-104333347D01*
X91783471Y-104392799D01*
X91763327Y-104429261D01*
X91761449Y-104436459D01*
X91775706Y-104461872D01*
X91809286Y-104512470D01*
X91856920Y-104581007D01*
X91913342Y-104660234D01*
X91973285Y-104742904D01*
X92031481Y-104821769D01*
X92082665Y-104889582D01*
X92121567Y-104939095D01*
X92142923Y-104963061D01*
X92144979Y-104964212D01*
X92144979Y-107864666D01*
X91661947Y-107864666D01*
X91661947Y-105628362D01*
X91678681Y-105617989D01*
X91714506Y-105577778D01*
X91765101Y-105513164D01*
X91826146Y-105429579D01*
X91869957Y-105366812D01*
X92061739Y-105087316D01*
X91914001Y-104873804D01*
X91851875Y-104784592D01*
X91793964Y-104702453D01*
X91747000Y-104636877D01*
X91719002Y-104599008D01*
X91671741Y-104537724D01*
X91562657Y-104693070D01*
X91499625Y-104782431D01*
X91432852Y-104876457D01*
X91375257Y-104956966D01*
X91367501Y-104967734D01*
X91281428Y-105087051D01*
X91463574Y-105348734D01*
X91528372Y-105441485D01*
X91585235Y-105522239D01*
X91629506Y-105584428D01*
X91656524Y-105621485D01*
X91661947Y-105628362D01*
X91661947Y-107864666D01*
X91201528Y-107864666D01*
X91201528Y-106318618D01*
X91398391Y-106039785D01*
X91464033Y-105944368D01*
X91518701Y-105860187D01*
X91558563Y-105793533D01*
X91579790Y-105750695D01*
X91581780Y-105738600D01*
X91565211Y-105714054D01*
X91528874Y-105661852D01*
X91477555Y-105588820D01*
X91416042Y-105501787D01*
X91391754Y-105467541D01*
X91327989Y-105379167D01*
X91272331Y-105304748D01*
X91229508Y-105250405D01*
X91204254Y-105222257D01*
X91200143Y-105219702D01*
X91184435Y-105236131D01*
X91149830Y-105280040D01*
X91101587Y-105344146D01*
X91044965Y-105421162D01*
X90985224Y-105503804D01*
X90927620Y-105584788D01*
X90877414Y-105656829D01*
X90839864Y-105712641D01*
X90820229Y-105744940D01*
X90819008Y-105747681D01*
X90828442Y-105769773D01*
X90858541Y-105820077D01*
X90905327Y-105892385D01*
X90964825Y-105980487D01*
X91007147Y-106041452D01*
X91201528Y-106318618D01*
X91201528Y-107864666D01*
X90727999Y-107864666D01*
X90727999Y-106978769D01*
X90829541Y-106837089D01*
X90892772Y-106749465D01*
X90961016Y-106655820D01*
X91019524Y-106576395D01*
X91019635Y-106576246D01*
X91064090Y-106513088D01*
X91096339Y-106460937D01*
X91109564Y-106430842D01*
X91109593Y-106430454D01*
X91098416Y-106403460D01*
X91067017Y-106350446D01*
X91020386Y-106279393D01*
X90970656Y-106208204D01*
X90908348Y-106121592D01*
X90849705Y-106040493D01*
X90802326Y-105975391D01*
X90778554Y-105943104D01*
X90730000Y-105877925D01*
X90730000Y-105640510D01*
X90745525Y-105623956D01*
X90779345Y-105579344D01*
X90826456Y-105513960D01*
X90881854Y-105435092D01*
X90940532Y-105350026D01*
X90997487Y-105266047D01*
X91047714Y-105190443D01*
X91086207Y-105130500D01*
X91107962Y-105093503D01*
X91111000Y-105085824D01*
X91099381Y-105063242D01*
X91067364Y-105012686D01*
X91019206Y-104940594D01*
X90959167Y-104853405D01*
X90925792Y-104805833D01*
X90860885Y-104714774D01*
X90804492Y-104637352D01*
X90761079Y-104579564D01*
X90735110Y-104547410D01*
X90730000Y-104542812D01*
X90714817Y-104558977D01*
X90679907Y-104603973D01*
X90629695Y-104671867D01*
X90568604Y-104756722D01*
X90532462Y-104807774D01*
X90458186Y-104916518D01*
X90402660Y-105004630D01*
X90368238Y-105068097D01*
X90357276Y-105102904D01*
X90357800Y-105105402D01*
X90374038Y-105134417D01*
X90408447Y-105188168D01*
X90455920Y-105259310D01*
X90511347Y-105340499D01*
X90569620Y-105424389D01*
X90625631Y-105503637D01*
X90674270Y-105570897D01*
X90710430Y-105618825D01*
X90729000Y-105640077D01*
X90730000Y-105640510D01*
X90730000Y-105877925D01*
X90726797Y-105873625D01*
X90544784Y-106133604D01*
X90480885Y-106226907D01*
X90426794Y-106309760D01*
X90386827Y-106375248D01*
X90365296Y-106416457D01*
X90362772Y-106425333D01*
X90374417Y-106453096D01*
X90406480Y-106508320D01*
X90454657Y-106584107D01*
X90514639Y-106673556D01*
X90545385Y-106717926D01*
X90727999Y-106978769D01*
X90727999Y-107864666D01*
X90265144Y-107864666D01*
X90265144Y-107614455D01*
X90272289Y-107611596D01*
X90306447Y-107572576D01*
X90354009Y-107511106D01*
X90409807Y-107434723D01*
X90468676Y-107350968D01*
X90525447Y-107267380D01*
X90574955Y-107191499D01*
X90612034Y-107130862D01*
X90631515Y-107093011D01*
X90633089Y-107085119D01*
X90618414Y-107058302D01*
X90584139Y-107003777D01*
X90534836Y-106928590D01*
X90475078Y-106839788D01*
X90451075Y-106804661D01*
X90388650Y-106715074D01*
X90334164Y-106639492D01*
X90292231Y-106584114D01*
X90267463Y-106555140D01*
X90263369Y-106552333D01*
X90253750Y-106560400D01*
X90253750Y-104950066D01*
X90270399Y-104934256D01*
X90306078Y-104891001D01*
X90355486Y-104827495D01*
X90413321Y-104750936D01*
X90474280Y-104668518D01*
X90533063Y-104587438D01*
X90584367Y-104514890D01*
X90622889Y-104458072D01*
X90643328Y-104424178D01*
X90645253Y-104418724D01*
X90633648Y-104400238D01*
X90601542Y-104353297D01*
X90553082Y-104283861D01*
X90492419Y-104197891D01*
X90450570Y-104139002D01*
X90384361Y-104046633D01*
X90327364Y-103968181D01*
X90283774Y-103909334D01*
X90257788Y-103875783D01*
X90252344Y-103870194D01*
X90239491Y-103888049D01*
X90206250Y-103934391D01*
X90156874Y-104003286D01*
X90095616Y-104088800D01*
X90054622Y-104146043D01*
X89860363Y-104417337D01*
X90046473Y-104683087D01*
X90112173Y-104775102D01*
X90170528Y-104853466D01*
X90216851Y-104912143D01*
X90246454Y-104945096D01*
X90253750Y-104950066D01*
X90253750Y-106560400D01*
X90243257Y-106569201D01*
X90206236Y-106614799D01*
X90157282Y-106681620D01*
X90101370Y-106762155D01*
X90043476Y-106848898D01*
X89988576Y-106934341D01*
X89941644Y-107010975D01*
X89907657Y-107071293D01*
X89891590Y-107107788D01*
X89891226Y-107113870D01*
X89907279Y-107141766D01*
X89943124Y-107196922D01*
X89993951Y-107272144D01*
X90054952Y-107360241D01*
X90075822Y-107389958D01*
X90149827Y-107492598D01*
X90204271Y-107562220D01*
X90241820Y-107601836D01*
X90265144Y-107614455D01*
X90265144Y-107864666D01*
X90252112Y-107864666D01*
X89799166Y-107220974D01*
X89799166Y-106957934D01*
X89805669Y-106955964D01*
X89824520Y-106932331D01*
X89861230Y-106882715D01*
X89910566Y-106814516D01*
X89967292Y-106735131D01*
X90026176Y-106651958D01*
X90081983Y-106572395D01*
X90129479Y-106503840D01*
X90163429Y-106453692D01*
X90178601Y-106429347D01*
X90178934Y-106428379D01*
X90167739Y-106409327D01*
X90136399Y-106361803D01*
X90089082Y-106291987D01*
X90029957Y-106206061D01*
X89996332Y-106157641D01*
X89931484Y-106065357D01*
X89874565Y-105985885D01*
X89830176Y-105925532D01*
X89802918Y-105890605D01*
X89797173Y-105884660D01*
X89782587Y-105895979D01*
X89782587Y-104312078D01*
X89862914Y-104199247D01*
X89914203Y-104127792D01*
X89978660Y-104038813D01*
X90044301Y-103948836D01*
X90059828Y-103927666D01*
X90109941Y-103855322D01*
X90147181Y-103793599D01*
X90166323Y-103751579D01*
X90167433Y-103740663D01*
X90152384Y-103714121D01*
X90117078Y-103660252D01*
X90066187Y-103585945D01*
X90004381Y-103498091D01*
X89977294Y-103460205D01*
X89913020Y-103371390D01*
X89857749Y-103296277D01*
X89815995Y-103240902D01*
X89792273Y-103211302D01*
X89788701Y-103208000D01*
X89774688Y-103224414D01*
X89740784Y-103269759D01*
X89691236Y-103338193D01*
X89630296Y-103423871D01*
X89588069Y-103483925D01*
X89394872Y-103759849D01*
X89588730Y-104035963D01*
X89782587Y-104312078D01*
X89782587Y-105895979D01*
X89780341Y-105897722D01*
X89744075Y-105940134D01*
X89692794Y-106006269D01*
X89630917Y-106090504D01*
X89588641Y-106150107D01*
X89395934Y-106425333D01*
X89589568Y-106701883D01*
X89670673Y-106815224D01*
X89731514Y-106894356D01*
X89773782Y-106941263D01*
X89799166Y-106957934D01*
X89799166Y-107220974D01*
X89316028Y-106534375D01*
X89316028Y-106320113D01*
X89512753Y-106039348D01*
X89578252Y-105943563D01*
X89632923Y-105859163D01*
X89672951Y-105792409D01*
X89694518Y-105749564D01*
X89696781Y-105737416D01*
X89680633Y-105713305D01*
X89644807Y-105661309D01*
X89593982Y-105588171D01*
X89532832Y-105500633D01*
X89505935Y-105462250D01*
X89442711Y-105372210D01*
X89388563Y-105295292D01*
X89347922Y-105237773D01*
X89325213Y-105205926D01*
X89322055Y-105201676D01*
X89318629Y-105205251D01*
X89318629Y-104949161D01*
X89336421Y-104931656D01*
X89373921Y-104885635D01*
X89426423Y-104817168D01*
X89489220Y-104732323D01*
X89523156Y-104685451D01*
X89594681Y-104585336D01*
X89644267Y-104513320D01*
X89674968Y-104463332D01*
X89689840Y-104429303D01*
X89691938Y-104405164D01*
X89684317Y-104384845D01*
X89678942Y-104375974D01*
X89655121Y-104340719D01*
X89612295Y-104279251D01*
X89556188Y-104199719D01*
X89492522Y-104110272D01*
X89481388Y-104094707D01*
X89315197Y-103862549D01*
X89128307Y-104128386D01*
X89063233Y-104221504D01*
X89007222Y-104302708D01*
X88964645Y-104365577D01*
X88939872Y-104403692D01*
X88935466Y-104411629D01*
X88944768Y-104434613D01*
X88974349Y-104483691D01*
X89019024Y-104551585D01*
X89073605Y-104631019D01*
X89132904Y-104714715D01*
X89191735Y-104795396D01*
X89244910Y-104865786D01*
X89287242Y-104918607D01*
X89313543Y-104946582D01*
X89318629Y-104949161D01*
X89318629Y-105205251D01*
X89308794Y-105215516D01*
X89276634Y-105257327D01*
X89230512Y-105320098D01*
X89175369Y-105396816D01*
X89116144Y-105480471D01*
X89057775Y-105564050D01*
X89005202Y-105640542D01*
X88963364Y-105702935D01*
X88937200Y-105744218D01*
X88930834Y-105757070D01*
X88942372Y-105777939D01*
X88974238Y-105827199D01*
X89022308Y-105898684D01*
X89082457Y-105986230D01*
X89123431Y-106045044D01*
X89316028Y-106320113D01*
X89316028Y-106534375D01*
X89285073Y-106490384D01*
X89133701Y-106275131D01*
X88989458Y-106069757D01*
X88858754Y-105883412D01*
X88858754Y-105616551D01*
X88860978Y-105614723D01*
X88884055Y-105586534D01*
X88923723Y-105533147D01*
X88974754Y-105462096D01*
X89031922Y-105380916D01*
X89089999Y-105297144D01*
X89143757Y-105218314D01*
X89187968Y-105151960D01*
X89217404Y-105105618D01*
X89226945Y-105087224D01*
X89215331Y-105065523D01*
X89183216Y-105015974D01*
X89134933Y-104945013D01*
X89074818Y-104859074D01*
X89045080Y-104817258D01*
X88980105Y-104727036D01*
X88923466Y-104649689D01*
X88879842Y-104591508D01*
X88853914Y-104558784D01*
X88849288Y-104554054D01*
X88832990Y-104567440D01*
X88796893Y-104609879D01*
X88745454Y-104675733D01*
X88683134Y-104759362D01*
X88642113Y-104816088D01*
X88448643Y-105086552D01*
X88642113Y-105363374D01*
X88718390Y-105470836D01*
X88775032Y-105546256D01*
X88815200Y-105593262D01*
X88842054Y-105615484D01*
X88858754Y-105616551D01*
X88858754Y-105883412D01*
X88854191Y-105876906D01*
X88729750Y-105699227D01*
X88617983Y-105539367D01*
X88520737Y-105399973D01*
X88439861Y-105283693D01*
X88377203Y-105193172D01*
X88334612Y-105131059D01*
X88313935Y-105100001D01*
X88312225Y-105096987D01*
X88323060Y-105076739D01*
G37*
X88323060Y-105076739D02*
X88356294Y-105024992D01*
X88409842Y-104944781D01*
X88481619Y-104839141D01*
X88569540Y-104711108D01*
X88671521Y-104563717D01*
X88785476Y-104400004D01*
X88909321Y-104223003D01*
X89040971Y-104035752D01*
X89047250Y-104026843D01*
X89788084Y-102975812D01*
X91864768Y-102975166D01*
X92103210Y-103313833D01*
X92341653Y-103652500D01*
X94220190Y-103652500D01*
X94485929Y-104023383D01*
X94564218Y-104133856D01*
X94633300Y-104233651D01*
X94689577Y-104317376D01*
X94729451Y-104379643D01*
X94749322Y-104415059D01*
X94750886Y-104420258D01*
X94738796Y-104440837D01*
X94703851Y-104493566D01*
X94647704Y-104576074D01*
X94572008Y-104685993D01*
X94478416Y-104820953D01*
X94368578Y-104978585D01*
X94244150Y-105156519D01*
X94106782Y-105352388D01*
X93958128Y-105563820D01*
X93799841Y-105788448D01*
X93633572Y-106023901D01*
X93540523Y-106155458D01*
X92330943Y-107864666D01*
X92144979Y-107864666D01*
X92144979Y-104964212D01*
X92160161Y-104947747D01*
X92194077Y-104903555D01*
X92241611Y-104838884D01*
X92297646Y-104760981D01*
X92357066Y-104677095D01*
X92414755Y-104594475D01*
X92465597Y-104520367D01*
X92504474Y-104462021D01*
X92526271Y-104426684D01*
X92529167Y-104419950D01*
X92517792Y-104400533D01*
X92486448Y-104352581D01*
X92439302Y-104282334D01*
X92380523Y-104196033D01*
X92347826Y-104148454D01*
X92283680Y-104056884D01*
X92227267Y-103979174D01*
X92183145Y-103921388D01*
X92155875Y-103889591D01*
X92149985Y-103885333D01*
X92132132Y-103901760D01*
X92096020Y-103946185D01*
X92046784Y-104011325D01*
X91989559Y-104089895D01*
X91929481Y-104174611D01*
X91871683Y-104258189D01*
X91821301Y-104333347D01*
X91783471Y-104392799D01*
X91763327Y-104429261D01*
X91761449Y-104436459D01*
X91775706Y-104461872D01*
X91809286Y-104512470D01*
X91856920Y-104581007D01*
X91913342Y-104660234D01*
X91973285Y-104742904D01*
X92031481Y-104821769D01*
X92082665Y-104889582D01*
X92121567Y-104939095D01*
X92142923Y-104963061D01*
X92144979Y-104964212D01*
X92144979Y-107864666D01*
X91661947Y-107864666D01*
X91661947Y-105628362D01*
X91678681Y-105617989D01*
X91714506Y-105577778D01*
X91765101Y-105513164D01*
X91826146Y-105429579D01*
X91869957Y-105366812D01*
X92061739Y-105087316D01*
X91914001Y-104873804D01*
X91851875Y-104784592D01*
X91793964Y-104702453D01*
X91747000Y-104636877D01*
X91719002Y-104599008D01*
X91671741Y-104537724D01*
X91562657Y-104693070D01*
X91499625Y-104782431D01*
X91432852Y-104876457D01*
X91375257Y-104956966D01*
X91367501Y-104967734D01*
X91281428Y-105087051D01*
X91463574Y-105348734D01*
X91528372Y-105441485D01*
X91585235Y-105522239D01*
X91629506Y-105584428D01*
X91656524Y-105621485D01*
X91661947Y-105628362D01*
X91661947Y-107864666D01*
X91201528Y-107864666D01*
X91201528Y-106318618D01*
X91398391Y-106039785D01*
X91464033Y-105944368D01*
X91518701Y-105860187D01*
X91558563Y-105793533D01*
X91579790Y-105750695D01*
X91581780Y-105738600D01*
X91565211Y-105714054D01*
X91528874Y-105661852D01*
X91477555Y-105588820D01*
X91416042Y-105501787D01*
X91391754Y-105467541D01*
X91327989Y-105379167D01*
X91272331Y-105304748D01*
X91229508Y-105250405D01*
X91204254Y-105222257D01*
X91200143Y-105219702D01*
X91184435Y-105236131D01*
X91149830Y-105280040D01*
X91101587Y-105344146D01*
X91044965Y-105421162D01*
X90985224Y-105503804D01*
X90927620Y-105584788D01*
X90877414Y-105656829D01*
X90839864Y-105712641D01*
X90820229Y-105744940D01*
X90819008Y-105747681D01*
X90828442Y-105769773D01*
X90858541Y-105820077D01*
X90905327Y-105892385D01*
X90964825Y-105980487D01*
X91007147Y-106041452D01*
X91201528Y-106318618D01*
X91201528Y-107864666D01*
X90727999Y-107864666D01*
X90727999Y-106978769D01*
X90829541Y-106837089D01*
X90892772Y-106749465D01*
X90961016Y-106655820D01*
X91019524Y-106576395D01*
X91019635Y-106576246D01*
X91064090Y-106513088D01*
X91096339Y-106460937D01*
X91109564Y-106430842D01*
X91109593Y-106430454D01*
X91098416Y-106403460D01*
X91067017Y-106350446D01*
X91020386Y-106279393D01*
X90970656Y-106208204D01*
X90908348Y-106121592D01*
X90849705Y-106040493D01*
X90802326Y-105975391D01*
X90778554Y-105943104D01*
X90730000Y-105877925D01*
X90730000Y-105640510D01*
X90745525Y-105623956D01*
X90779345Y-105579344D01*
X90826456Y-105513960D01*
X90881854Y-105435092D01*
X90940532Y-105350026D01*
X90997487Y-105266047D01*
X91047714Y-105190443D01*
X91086207Y-105130500D01*
X91107962Y-105093503D01*
X91111000Y-105085824D01*
X91099381Y-105063242D01*
X91067364Y-105012686D01*
X91019206Y-104940594D01*
X90959167Y-104853405D01*
X90925792Y-104805833D01*
X90860885Y-104714774D01*
X90804492Y-104637352D01*
X90761079Y-104579564D01*
X90735110Y-104547410D01*
X90730000Y-104542812D01*
X90714817Y-104558977D01*
X90679907Y-104603973D01*
X90629695Y-104671867D01*
X90568604Y-104756722D01*
X90532462Y-104807774D01*
X90458186Y-104916518D01*
X90402660Y-105004630D01*
X90368238Y-105068097D01*
X90357276Y-105102904D01*
X90357800Y-105105402D01*
X90374038Y-105134417D01*
X90408447Y-105188168D01*
X90455920Y-105259310D01*
X90511347Y-105340499D01*
X90569620Y-105424389D01*
X90625631Y-105503637D01*
X90674270Y-105570897D01*
X90710430Y-105618825D01*
X90729000Y-105640077D01*
X90730000Y-105640510D01*
X90730000Y-105877925D01*
X90726797Y-105873625D01*
X90544784Y-106133604D01*
X90480885Y-106226907D01*
X90426794Y-106309760D01*
X90386827Y-106375248D01*
X90365296Y-106416457D01*
X90362772Y-106425333D01*
X90374417Y-106453096D01*
X90406480Y-106508320D01*
X90454657Y-106584107D01*
X90514639Y-106673556D01*
X90545385Y-106717926D01*
X90727999Y-106978769D01*
X90727999Y-107864666D01*
X90265144Y-107864666D01*
X90265144Y-107614455D01*
X90272289Y-107611596D01*
X90306447Y-107572576D01*
X90354009Y-107511106D01*
X90409807Y-107434723D01*
X90468676Y-107350968D01*
X90525447Y-107267380D01*
X90574955Y-107191499D01*
X90612034Y-107130862D01*
X90631515Y-107093011D01*
X90633089Y-107085119D01*
X90618414Y-107058302D01*
X90584139Y-107003777D01*
X90534836Y-106928590D01*
X90475078Y-106839788D01*
X90451075Y-106804661D01*
X90388650Y-106715074D01*
X90334164Y-106639492D01*
X90292231Y-106584114D01*
X90267463Y-106555140D01*
X90263369Y-106552333D01*
X90253750Y-106560400D01*
X90253750Y-104950066D01*
X90270399Y-104934256D01*
X90306078Y-104891001D01*
X90355486Y-104827495D01*
X90413321Y-104750936D01*
X90474280Y-104668518D01*
X90533063Y-104587438D01*
X90584367Y-104514890D01*
X90622889Y-104458072D01*
X90643328Y-104424178D01*
X90645253Y-104418724D01*
X90633648Y-104400238D01*
X90601542Y-104353297D01*
X90553082Y-104283861D01*
X90492419Y-104197891D01*
X90450570Y-104139002D01*
X90384361Y-104046633D01*
X90327364Y-103968181D01*
X90283774Y-103909334D01*
X90257788Y-103875783D01*
X90252344Y-103870194D01*
X90239491Y-103888049D01*
X90206250Y-103934391D01*
X90156874Y-104003286D01*
X90095616Y-104088800D01*
X90054622Y-104146043D01*
X89860363Y-104417337D01*
X90046473Y-104683087D01*
X90112173Y-104775102D01*
X90170528Y-104853466D01*
X90216851Y-104912143D01*
X90246454Y-104945096D01*
X90253750Y-104950066D01*
X90253750Y-106560400D01*
X90243257Y-106569201D01*
X90206236Y-106614799D01*
X90157282Y-106681620D01*
X90101370Y-106762155D01*
X90043476Y-106848898D01*
X89988576Y-106934341D01*
X89941644Y-107010975D01*
X89907657Y-107071293D01*
X89891590Y-107107788D01*
X89891226Y-107113870D01*
X89907279Y-107141766D01*
X89943124Y-107196922D01*
X89993951Y-107272144D01*
X90054952Y-107360241D01*
X90075822Y-107389958D01*
X90149827Y-107492598D01*
X90204271Y-107562220D01*
X90241820Y-107601836D01*
X90265144Y-107614455D01*
X90265144Y-107864666D01*
X90252112Y-107864666D01*
X89799166Y-107220974D01*
X89799166Y-106957934D01*
X89805669Y-106955964D01*
X89824520Y-106932331D01*
X89861230Y-106882715D01*
X89910566Y-106814516D01*
X89967292Y-106735131D01*
X90026176Y-106651958D01*
X90081983Y-106572395D01*
X90129479Y-106503840D01*
X90163429Y-106453692D01*
X90178601Y-106429347D01*
X90178934Y-106428379D01*
X90167739Y-106409327D01*
X90136399Y-106361803D01*
X90089082Y-106291987D01*
X90029957Y-106206061D01*
X89996332Y-106157641D01*
X89931484Y-106065357D01*
X89874565Y-105985885D01*
X89830176Y-105925532D01*
X89802918Y-105890605D01*
X89797173Y-105884660D01*
X89782587Y-105895979D01*
X89782587Y-104312078D01*
X89862914Y-104199247D01*
X89914203Y-104127792D01*
X89978660Y-104038813D01*
X90044301Y-103948836D01*
X90059828Y-103927666D01*
X90109941Y-103855322D01*
X90147181Y-103793599D01*
X90166323Y-103751579D01*
X90167433Y-103740663D01*
X90152384Y-103714121D01*
X90117078Y-103660252D01*
X90066187Y-103585945D01*
X90004381Y-103498091D01*
X89977294Y-103460205D01*
X89913020Y-103371390D01*
X89857749Y-103296277D01*
X89815995Y-103240902D01*
X89792273Y-103211302D01*
X89788701Y-103208000D01*
X89774688Y-103224414D01*
X89740784Y-103269759D01*
X89691236Y-103338193D01*
X89630296Y-103423871D01*
X89588069Y-103483925D01*
X89394872Y-103759849D01*
X89588730Y-104035963D01*
X89782587Y-104312078D01*
X89782587Y-105895979D01*
X89780341Y-105897722D01*
X89744075Y-105940134D01*
X89692794Y-106006269D01*
X89630917Y-106090504D01*
X89588641Y-106150107D01*
X89395934Y-106425333D01*
X89589568Y-106701883D01*
X89670673Y-106815224D01*
X89731514Y-106894356D01*
X89773782Y-106941263D01*
X89799166Y-106957934D01*
X89799166Y-107220974D01*
X89316028Y-106534375D01*
X89316028Y-106320113D01*
X89512753Y-106039348D01*
X89578252Y-105943563D01*
X89632923Y-105859163D01*
X89672951Y-105792409D01*
X89694518Y-105749564D01*
X89696781Y-105737416D01*
X89680633Y-105713305D01*
X89644807Y-105661309D01*
X89593982Y-105588171D01*
X89532832Y-105500633D01*
X89505935Y-105462250D01*
X89442711Y-105372210D01*
X89388563Y-105295292D01*
X89347922Y-105237773D01*
X89325213Y-105205926D01*
X89322055Y-105201676D01*
X89318629Y-105205251D01*
X89318629Y-104949161D01*
X89336421Y-104931656D01*
X89373921Y-104885635D01*
X89426423Y-104817168D01*
X89489220Y-104732323D01*
X89523156Y-104685451D01*
X89594681Y-104585336D01*
X89644267Y-104513320D01*
X89674968Y-104463332D01*
X89689840Y-104429303D01*
X89691938Y-104405164D01*
X89684317Y-104384845D01*
X89678942Y-104375974D01*
X89655121Y-104340719D01*
X89612295Y-104279251D01*
X89556188Y-104199719D01*
X89492522Y-104110272D01*
X89481388Y-104094707D01*
X89315197Y-103862549D01*
X89128307Y-104128386D01*
X89063233Y-104221504D01*
X89007222Y-104302708D01*
X88964645Y-104365577D01*
X88939872Y-104403692D01*
X88935466Y-104411629D01*
X88944768Y-104434613D01*
X88974349Y-104483691D01*
X89019024Y-104551585D01*
X89073605Y-104631019D01*
X89132904Y-104714715D01*
X89191735Y-104795396D01*
X89244910Y-104865786D01*
X89287242Y-104918607D01*
X89313543Y-104946582D01*
X89318629Y-104949161D01*
X89318629Y-105205251D01*
X89308794Y-105215516D01*
X89276634Y-105257327D01*
X89230512Y-105320098D01*
X89175369Y-105396816D01*
X89116144Y-105480471D01*
X89057775Y-105564050D01*
X89005202Y-105640542D01*
X88963364Y-105702935D01*
X88937200Y-105744218D01*
X88930834Y-105757070D01*
X88942372Y-105777939D01*
X88974238Y-105827199D01*
X89022308Y-105898684D01*
X89082457Y-105986230D01*
X89123431Y-106045044D01*
X89316028Y-106320113D01*
X89316028Y-106534375D01*
X89285073Y-106490384D01*
X89133701Y-106275131D01*
X88989458Y-106069757D01*
X88858754Y-105883412D01*
X88858754Y-105616551D01*
X88860978Y-105614723D01*
X88884055Y-105586534D01*
X88923723Y-105533147D01*
X88974754Y-105462096D01*
X89031922Y-105380916D01*
X89089999Y-105297144D01*
X89143757Y-105218314D01*
X89187968Y-105151960D01*
X89217404Y-105105618D01*
X89226945Y-105087224D01*
X89215331Y-105065523D01*
X89183216Y-105015974D01*
X89134933Y-104945013D01*
X89074818Y-104859074D01*
X89045080Y-104817258D01*
X88980105Y-104727036D01*
X88923466Y-104649689D01*
X88879842Y-104591508D01*
X88853914Y-104558784D01*
X88849288Y-104554054D01*
X88832990Y-104567440D01*
X88796893Y-104609879D01*
X88745454Y-104675733D01*
X88683134Y-104759362D01*
X88642113Y-104816088D01*
X88448643Y-105086552D01*
X88642113Y-105363374D01*
X88718390Y-105470836D01*
X88775032Y-105546256D01*
X88815200Y-105593262D01*
X88842054Y-105615484D01*
X88858754Y-105616551D01*
X88858754Y-105883412D01*
X88854191Y-105876906D01*
X88729750Y-105699227D01*
X88617983Y-105539367D01*
X88520737Y-105399973D01*
X88439861Y-105283693D01*
X88377203Y-105193172D01*
X88334612Y-105131059D01*
X88313935Y-105100001D01*
X88312225Y-105096987D01*
X88323060Y-105076739D01*
G36*
X89732250Y-83163687D02*
G01*
X89766592Y-83113871D01*
X89818197Y-83039982D01*
X89883422Y-82947230D01*
X89958623Y-82840821D01*
X89989167Y-82797735D01*
X90253750Y-82424814D01*
X91047134Y-82411750D01*
X90855305Y-82141119D01*
X90790120Y-82047576D01*
X90735314Y-81965895D01*
X90694918Y-81902331D01*
X90672964Y-81863139D01*
X90670280Y-81854009D01*
X90683938Y-81832518D01*
X90718313Y-81781681D01*
X90769769Y-81706780D01*
X90834671Y-81613097D01*
X90909383Y-81505913D01*
X90939282Y-81463182D01*
X91201480Y-81088833D01*
X92241032Y-81089371D01*
X93280584Y-81089908D01*
X93400663Y-81263996D01*
X93464602Y-81356504D01*
X93541525Y-81467513D01*
X93620187Y-81580810D01*
X93669574Y-81651801D01*
X93818405Y-81865520D01*
X93436679Y-82411750D01*
X93828052Y-82422333D01*
X94219424Y-82432916D01*
X94485546Y-82812087D01*
X94563188Y-82923300D01*
X94631841Y-83022758D01*
X94688008Y-83105307D01*
X94728196Y-83165790D01*
X94748908Y-83199049D01*
X94750958Y-83203671D01*
X94738903Y-83222330D01*
X94704039Y-83273194D01*
X94648015Y-83353916D01*
X94572478Y-83462147D01*
X94479079Y-83595540D01*
X94369464Y-83751746D01*
X94245283Y-83928416D01*
X94108185Y-84123204D01*
X93959817Y-84333761D01*
X93801829Y-84557739D01*
X93635868Y-84792790D01*
X93542245Y-84925291D01*
X92334241Y-86634500D01*
X92142102Y-86634500D01*
X92142102Y-83754507D01*
X92334995Y-83485295D01*
X92400557Y-83391222D01*
X92455262Y-83307778D01*
X92495085Y-83241508D01*
X92516000Y-83198958D01*
X92517920Y-83187830D01*
X92502525Y-83161310D01*
X92466904Y-83107423D01*
X92415737Y-83033032D01*
X92353701Y-82945001D01*
X92325553Y-82905644D01*
X92260771Y-82817918D01*
X92204035Y-82745716D01*
X92159979Y-82694580D01*
X92133236Y-82670049D01*
X92127940Y-82669314D01*
X92110129Y-82692931D01*
X92073636Y-82743302D01*
X92024133Y-82812551D01*
X91978147Y-82877416D01*
X91917616Y-82962775D01*
X91860964Y-83042091D01*
X91815762Y-83104796D01*
X91794895Y-83133269D01*
X91746222Y-83198622D01*
X91944162Y-83476564D01*
X92142102Y-83754507D01*
X92142102Y-86634500D01*
X91661291Y-86634500D01*
X91661291Y-84375972D01*
X91696520Y-84366024D01*
X91736625Y-84326022D01*
X91787888Y-84256551D01*
X91856592Y-84158197D01*
X91867355Y-84143006D01*
X91933168Y-84050248D01*
X91989535Y-83970445D01*
X92032247Y-83909582D01*
X92057096Y-83873648D01*
X92061677Y-83866554D01*
X92050807Y-83848216D01*
X92019600Y-83801240D01*
X91972106Y-83731588D01*
X91912378Y-83645223D01*
X91870440Y-83585128D01*
X91804781Y-83492189D01*
X91748005Y-83413411D01*
X91704294Y-83354470D01*
X91677833Y-83321045D01*
X91671889Y-83315657D01*
X91658491Y-83334237D01*
X91625062Y-83381474D01*
X91575850Y-83451344D01*
X91515099Y-83537822D01*
X91474642Y-83595511D01*
X91282885Y-83869105D01*
X91443465Y-84103511D01*
X91522023Y-84219635D01*
X91580325Y-84303363D01*
X91624653Y-84355280D01*
X91661291Y-84375972D01*
X91661291Y-86634500D01*
X91208631Y-86634500D01*
X91208631Y-85083425D01*
X91222835Y-85064251D01*
X91256926Y-85016446D01*
X91306587Y-84946112D01*
X91367504Y-84859349D01*
X91406586Y-84803483D01*
X91478982Y-84696905D01*
X91533710Y-84610143D01*
X91568314Y-84547391D01*
X91580334Y-84512846D01*
X91579269Y-84508734D01*
X91561359Y-84483951D01*
X91524078Y-84431362D01*
X91472297Y-84357868D01*
X91410885Y-84270370D01*
X91387639Y-84237175D01*
X91324546Y-84149452D01*
X91269071Y-84076858D01*
X91225954Y-84025255D01*
X91201528Y-84002020D01*
X91201528Y-83754952D01*
X91398391Y-83476118D01*
X91464033Y-83380701D01*
X91518701Y-83296520D01*
X91558563Y-83229866D01*
X91579790Y-83187028D01*
X91581780Y-83174934D01*
X91565211Y-83150388D01*
X91528874Y-83098185D01*
X91477555Y-83025153D01*
X91416042Y-82938120D01*
X91391754Y-82903875D01*
X91327989Y-82815500D01*
X91272331Y-82741081D01*
X91229508Y-82686738D01*
X91204254Y-82658590D01*
X91200311Y-82656141D01*
X91200311Y-82400194D01*
X91220235Y-82384224D01*
X91257236Y-82339935D01*
X91306364Y-82274628D01*
X91362666Y-82195602D01*
X91421193Y-82110155D01*
X91476995Y-82025588D01*
X91525120Y-81949200D01*
X91560617Y-81888289D01*
X91578537Y-81850156D01*
X91579164Y-81841607D01*
X91561293Y-81816872D01*
X91524048Y-81764326D01*
X91472295Y-81690867D01*
X91410900Y-81603391D01*
X91387639Y-81570175D01*
X91324546Y-81482452D01*
X91269071Y-81409858D01*
X91225954Y-81358255D01*
X91199933Y-81333502D01*
X91195371Y-81332433D01*
X91178501Y-81352054D01*
X91142874Y-81398849D01*
X91093920Y-81465248D01*
X91037069Y-81543681D01*
X90977750Y-81626579D01*
X90921393Y-81706370D01*
X90873428Y-81775486D01*
X90839284Y-81826357D01*
X90827527Y-81845259D01*
X90834607Y-81869132D01*
X90861752Y-81919700D01*
X90903973Y-81989534D01*
X90956279Y-82071207D01*
X91013681Y-82157290D01*
X91071189Y-82240356D01*
X91123812Y-82312975D01*
X91166562Y-82367721D01*
X91194448Y-82397165D01*
X91200311Y-82400194D01*
X91200311Y-82656141D01*
X91200143Y-82656036D01*
X91184435Y-82672464D01*
X91149830Y-82716374D01*
X91101587Y-82780479D01*
X91044965Y-82857495D01*
X90985224Y-82940138D01*
X90927620Y-83021122D01*
X90877414Y-83093162D01*
X90839864Y-83148974D01*
X90820229Y-83181273D01*
X90819008Y-83184015D01*
X90828442Y-83206106D01*
X90858541Y-83256411D01*
X90905327Y-83328719D01*
X90964825Y-83416820D01*
X91007147Y-83477785D01*
X91201528Y-83754952D01*
X91201528Y-84002020D01*
X91199933Y-84000502D01*
X91195371Y-83999433D01*
X91178518Y-84019041D01*
X91142906Y-84065818D01*
X91093970Y-84132191D01*
X91037140Y-84210586D01*
X90977849Y-84293431D01*
X90921531Y-84373154D01*
X90873617Y-84442182D01*
X90839539Y-84492942D01*
X90827805Y-84511809D01*
X90834900Y-84534684D01*
X90861429Y-84583969D01*
X90902693Y-84652608D01*
X90953990Y-84733544D01*
X91010619Y-84819720D01*
X91067878Y-84904080D01*
X91121065Y-84979566D01*
X91165481Y-85039124D01*
X91196423Y-85075695D01*
X91208631Y-85083425D01*
X91208631Y-86634500D01*
X90728202Y-86634500D01*
X90728202Y-85734916D01*
X90746616Y-85718576D01*
X90783349Y-85674463D01*
X90833112Y-85609946D01*
X90890612Y-85532390D01*
X90950560Y-85449162D01*
X91007665Y-85367627D01*
X91056634Y-85295151D01*
X91092179Y-85239102D01*
X91109007Y-85206845D01*
X91109665Y-85203831D01*
X91098411Y-85179227D01*
X91066555Y-85127140D01*
X91018453Y-85054280D01*
X90958462Y-84967360D01*
X90931047Y-84928665D01*
X90866205Y-84839072D01*
X90809233Y-84762671D01*
X90764940Y-84705735D01*
X90738135Y-84674540D01*
X90733246Y-84670622D01*
X90716407Y-84685033D01*
X90681160Y-84727419D01*
X90632650Y-84790575D01*
X90576016Y-84867299D01*
X90516402Y-84950384D01*
X90458949Y-85032628D01*
X90408798Y-85106825D01*
X90371092Y-85165771D01*
X90350972Y-85202263D01*
X90349000Y-85209004D01*
X90360750Y-85234023D01*
X90392452Y-85284589D01*
X90438786Y-85353325D01*
X90494433Y-85432853D01*
X90554074Y-85515794D01*
X90612387Y-85594770D01*
X90664053Y-85662404D01*
X90703753Y-85711317D01*
X90726167Y-85734132D01*
X90728202Y-85734916D01*
X90728202Y-86634500D01*
X90257777Y-86634500D01*
X90257777Y-86415279D01*
X90284344Y-86383415D01*
X90326389Y-86327037D01*
X90378932Y-86253460D01*
X90436993Y-86170000D01*
X90495593Y-86083970D01*
X90549751Y-86002687D01*
X90594487Y-85933466D01*
X90624822Y-85883622D01*
X90635776Y-85860469D01*
X90635715Y-85860107D01*
X90621282Y-85835552D01*
X90586603Y-85783338D01*
X90536224Y-85710121D01*
X90474690Y-85622557D01*
X90444146Y-85579649D01*
X90379591Y-85489813D01*
X90324181Y-85413630D01*
X90282320Y-85357084D01*
X90258413Y-85326156D01*
X90254591Y-85322166D01*
X90241273Y-85338595D01*
X90208189Y-85383900D01*
X90159611Y-85452109D01*
X90099808Y-85537252D01*
X90064431Y-85588053D01*
X89987410Y-85702400D01*
X89931991Y-85792174D01*
X89899786Y-85854568D01*
X89892410Y-85886776D01*
X89892504Y-85887033D01*
X89907972Y-85914393D01*
X89941385Y-85966497D01*
X89987727Y-86036089D01*
X90041981Y-86115917D01*
X90099132Y-86198726D01*
X90154162Y-86277261D01*
X90202056Y-86344268D01*
X90237798Y-86392492D01*
X90256370Y-86414679D01*
X90257777Y-86415279D01*
X90257777Y-86634500D01*
X90250225Y-86634500D01*
X89980553Y-86252165D01*
X89892805Y-86127352D01*
X89827035Y-86032218D01*
X89780597Y-85962005D01*
X89750846Y-85911957D01*
X89735134Y-85877317D01*
X89730817Y-85853328D01*
X89735249Y-85835234D01*
X89742131Y-85823540D01*
X89760134Y-85797665D01*
X89800158Y-85740654D01*
X89859782Y-85655939D01*
X89936588Y-85546950D01*
X90028157Y-85417119D01*
X90132069Y-85269877D01*
X90245905Y-85108654D01*
X90367245Y-84936882D01*
X90409088Y-84877666D01*
X91044794Y-83978083D01*
X90650174Y-83967500D01*
X90264334Y-83957152D01*
X90264334Y-83734083D01*
X90278342Y-83717887D01*
X90311198Y-83674002D01*
X90357819Y-83609660D01*
X90413121Y-83532091D01*
X90472021Y-83448529D01*
X90529438Y-83366203D01*
X90580286Y-83292345D01*
X90619485Y-83234188D01*
X90641949Y-83198962D01*
X90645334Y-83192041D01*
X90633927Y-83173873D01*
X90602504Y-83127131D01*
X90555254Y-83057969D01*
X90496369Y-82972541D01*
X90464397Y-82926404D01*
X90400001Y-82835349D01*
X90343145Y-82758161D01*
X90298487Y-82700919D01*
X90270685Y-82669703D01*
X90264684Y-82665750D01*
X90246823Y-82682009D01*
X90210427Y-82725887D01*
X90160823Y-82790033D01*
X90103335Y-82867097D01*
X90043289Y-82949729D01*
X89986011Y-83030579D01*
X89936826Y-83102295D01*
X89901060Y-83157529D01*
X89884038Y-83188930D01*
X89883334Y-83192083D01*
X89894827Y-83214622D01*
X89925887Y-83263526D01*
X89971382Y-83331496D01*
X90026183Y-83411234D01*
X90085158Y-83495442D01*
X90143177Y-83576819D01*
X90195110Y-83648069D01*
X90235825Y-83701892D01*
X90260193Y-83730990D01*
X90264334Y-83734083D01*
X90264334Y-83957152D01*
X90255553Y-83956916D01*
X89984298Y-83577353D01*
X89905681Y-83466406D01*
X89836532Y-83367020D01*
X89780307Y-83284309D01*
X89740459Y-83223388D01*
X89720441Y-83189370D01*
X89718813Y-83184223D01*
X89732250Y-83163687D01*
G37*
X89732250Y-83163687D02*
X89766592Y-83113871D01*
X89818197Y-83039982D01*
X89883422Y-82947230D01*
X89958623Y-82840821D01*
X89989167Y-82797735D01*
X90253750Y-82424814D01*
X91047134Y-82411750D01*
X90855305Y-82141119D01*
X90790120Y-82047576D01*
X90735314Y-81965895D01*
X90694918Y-81902331D01*
X90672964Y-81863139D01*
X90670280Y-81854009D01*
X90683938Y-81832518D01*
X90718313Y-81781681D01*
X90769769Y-81706780D01*
X90834671Y-81613097D01*
X90909383Y-81505913D01*
X90939282Y-81463182D01*
X91201480Y-81088833D01*
X92241032Y-81089371D01*
X93280584Y-81089908D01*
X93400663Y-81263996D01*
X93464602Y-81356504D01*
X93541525Y-81467513D01*
X93620187Y-81580810D01*
X93669574Y-81651801D01*
X93818405Y-81865520D01*
X93436679Y-82411750D01*
X93828052Y-82422333D01*
X94219424Y-82432916D01*
X94485546Y-82812087D01*
X94563188Y-82923300D01*
X94631841Y-83022758D01*
X94688008Y-83105307D01*
X94728196Y-83165790D01*
X94748908Y-83199049D01*
X94750958Y-83203671D01*
X94738903Y-83222330D01*
X94704039Y-83273194D01*
X94648015Y-83353916D01*
X94572478Y-83462147D01*
X94479079Y-83595540D01*
X94369464Y-83751746D01*
X94245283Y-83928416D01*
X94108185Y-84123204D01*
X93959817Y-84333761D01*
X93801829Y-84557739D01*
X93635868Y-84792790D01*
X93542245Y-84925291D01*
X92334241Y-86634500D01*
X92142102Y-86634500D01*
X92142102Y-83754507D01*
X92334995Y-83485295D01*
X92400557Y-83391222D01*
X92455262Y-83307778D01*
X92495085Y-83241508D01*
X92516000Y-83198958D01*
X92517920Y-83187830D01*
X92502525Y-83161310D01*
X92466904Y-83107423D01*
X92415737Y-83033032D01*
X92353701Y-82945001D01*
X92325553Y-82905644D01*
X92260771Y-82817918D01*
X92204035Y-82745716D01*
X92159979Y-82694580D01*
X92133236Y-82670049D01*
X92127940Y-82669314D01*
X92110129Y-82692931D01*
X92073636Y-82743302D01*
X92024133Y-82812551D01*
X91978147Y-82877416D01*
X91917616Y-82962775D01*
X91860964Y-83042091D01*
X91815762Y-83104796D01*
X91794895Y-83133269D01*
X91746222Y-83198622D01*
X91944162Y-83476564D01*
X92142102Y-83754507D01*
X92142102Y-86634500D01*
X91661291Y-86634500D01*
X91661291Y-84375972D01*
X91696520Y-84366024D01*
X91736625Y-84326022D01*
X91787888Y-84256551D01*
X91856592Y-84158197D01*
X91867355Y-84143006D01*
X91933168Y-84050248D01*
X91989535Y-83970445D01*
X92032247Y-83909582D01*
X92057096Y-83873648D01*
X92061677Y-83866554D01*
X92050807Y-83848216D01*
X92019600Y-83801240D01*
X91972106Y-83731588D01*
X91912378Y-83645223D01*
X91870440Y-83585128D01*
X91804781Y-83492189D01*
X91748005Y-83413411D01*
X91704294Y-83354470D01*
X91677833Y-83321045D01*
X91671889Y-83315657D01*
X91658491Y-83334237D01*
X91625062Y-83381474D01*
X91575850Y-83451344D01*
X91515099Y-83537822D01*
X91474642Y-83595511D01*
X91282885Y-83869105D01*
X91443465Y-84103511D01*
X91522023Y-84219635D01*
X91580325Y-84303363D01*
X91624653Y-84355280D01*
X91661291Y-84375972D01*
X91661291Y-86634500D01*
X91208631Y-86634500D01*
X91208631Y-85083425D01*
X91222835Y-85064251D01*
X91256926Y-85016446D01*
X91306587Y-84946112D01*
X91367504Y-84859349D01*
X91406586Y-84803483D01*
X91478982Y-84696905D01*
X91533710Y-84610143D01*
X91568314Y-84547391D01*
X91580334Y-84512846D01*
X91579269Y-84508734D01*
X91561359Y-84483951D01*
X91524078Y-84431362D01*
X91472297Y-84357868D01*
X91410885Y-84270370D01*
X91387639Y-84237175D01*
X91324546Y-84149452D01*
X91269071Y-84076858D01*
X91225954Y-84025255D01*
X91201528Y-84002020D01*
X91201528Y-83754952D01*
X91398391Y-83476118D01*
X91464033Y-83380701D01*
X91518701Y-83296520D01*
X91558563Y-83229866D01*
X91579790Y-83187028D01*
X91581780Y-83174934D01*
X91565211Y-83150388D01*
X91528874Y-83098185D01*
X91477555Y-83025153D01*
X91416042Y-82938120D01*
X91391754Y-82903875D01*
X91327989Y-82815500D01*
X91272331Y-82741081D01*
X91229508Y-82686738D01*
X91204254Y-82658590D01*
X91200311Y-82656141D01*
X91200311Y-82400194D01*
X91220235Y-82384224D01*
X91257236Y-82339935D01*
X91306364Y-82274628D01*
X91362666Y-82195602D01*
X91421193Y-82110155D01*
X91476995Y-82025588D01*
X91525120Y-81949200D01*
X91560617Y-81888289D01*
X91578537Y-81850156D01*
X91579164Y-81841607D01*
X91561293Y-81816872D01*
X91524048Y-81764326D01*
X91472295Y-81690867D01*
X91410900Y-81603391D01*
X91387639Y-81570175D01*
X91324546Y-81482452D01*
X91269071Y-81409858D01*
X91225954Y-81358255D01*
X91199933Y-81333502D01*
X91195371Y-81332433D01*
X91178501Y-81352054D01*
X91142874Y-81398849D01*
X91093920Y-81465248D01*
X91037069Y-81543681D01*
X90977750Y-81626579D01*
X90921393Y-81706370D01*
X90873428Y-81775486D01*
X90839284Y-81826357D01*
X90827527Y-81845259D01*
X90834607Y-81869132D01*
X90861752Y-81919700D01*
X90903973Y-81989534D01*
X90956279Y-82071207D01*
X91013681Y-82157290D01*
X91071189Y-82240356D01*
X91123812Y-82312975D01*
X91166562Y-82367721D01*
X91194448Y-82397165D01*
X91200311Y-82400194D01*
X91200311Y-82656141D01*
X91200143Y-82656036D01*
X91184435Y-82672464D01*
X91149830Y-82716374D01*
X91101587Y-82780479D01*
X91044965Y-82857495D01*
X90985224Y-82940138D01*
X90927620Y-83021122D01*
X90877414Y-83093162D01*
X90839864Y-83148974D01*
X90820229Y-83181273D01*
X90819008Y-83184015D01*
X90828442Y-83206106D01*
X90858541Y-83256411D01*
X90905327Y-83328719D01*
X90964825Y-83416820D01*
X91007147Y-83477785D01*
X91201528Y-83754952D01*
X91201528Y-84002020D01*
X91199933Y-84000502D01*
X91195371Y-83999433D01*
X91178518Y-84019041D01*
X91142906Y-84065818D01*
X91093970Y-84132191D01*
X91037140Y-84210586D01*
X90977849Y-84293431D01*
X90921531Y-84373154D01*
X90873617Y-84442182D01*
X90839539Y-84492942D01*
X90827805Y-84511809D01*
X90834900Y-84534684D01*
X90861429Y-84583969D01*
X90902693Y-84652608D01*
X90953990Y-84733544D01*
X91010619Y-84819720D01*
X91067878Y-84904080D01*
X91121065Y-84979566D01*
X91165481Y-85039124D01*
X91196423Y-85075695D01*
X91208631Y-85083425D01*
X91208631Y-86634500D01*
X90728202Y-86634500D01*
X90728202Y-85734916D01*
X90746616Y-85718576D01*
X90783349Y-85674463D01*
X90833112Y-85609946D01*
X90890612Y-85532390D01*
X90950560Y-85449162D01*
X91007665Y-85367627D01*
X91056634Y-85295151D01*
X91092179Y-85239102D01*
X91109007Y-85206845D01*
X91109665Y-85203831D01*
X91098411Y-85179227D01*
X91066555Y-85127140D01*
X91018453Y-85054280D01*
X90958462Y-84967360D01*
X90931047Y-84928665D01*
X90866205Y-84839072D01*
X90809233Y-84762671D01*
X90764940Y-84705735D01*
X90738135Y-84674540D01*
X90733246Y-84670622D01*
X90716407Y-84685033D01*
X90681160Y-84727419D01*
X90632650Y-84790575D01*
X90576016Y-84867299D01*
X90516402Y-84950384D01*
X90458949Y-85032628D01*
X90408798Y-85106825D01*
X90371092Y-85165771D01*
X90350972Y-85202263D01*
X90349000Y-85209004D01*
X90360750Y-85234023D01*
X90392452Y-85284589D01*
X90438786Y-85353325D01*
X90494433Y-85432853D01*
X90554074Y-85515794D01*
X90612387Y-85594770D01*
X90664053Y-85662404D01*
X90703753Y-85711317D01*
X90726167Y-85734132D01*
X90728202Y-85734916D01*
X90728202Y-86634500D01*
X90257777Y-86634500D01*
X90257777Y-86415279D01*
X90284344Y-86383415D01*
X90326389Y-86327037D01*
X90378932Y-86253460D01*
X90436993Y-86170000D01*
X90495593Y-86083970D01*
X90549751Y-86002687D01*
X90594487Y-85933466D01*
X90624822Y-85883622D01*
X90635776Y-85860469D01*
X90635715Y-85860107D01*
X90621282Y-85835552D01*
X90586603Y-85783338D01*
X90536224Y-85710121D01*
X90474690Y-85622557D01*
X90444146Y-85579649D01*
X90379591Y-85489813D01*
X90324181Y-85413630D01*
X90282320Y-85357084D01*
X90258413Y-85326156D01*
X90254591Y-85322166D01*
X90241273Y-85338595D01*
X90208189Y-85383900D01*
X90159611Y-85452109D01*
X90099808Y-85537252D01*
X90064431Y-85588053D01*
X89987410Y-85702400D01*
X89931991Y-85792174D01*
X89899786Y-85854568D01*
X89892410Y-85886776D01*
X89892504Y-85887033D01*
X89907972Y-85914393D01*
X89941385Y-85966497D01*
X89987727Y-86036089D01*
X90041981Y-86115917D01*
X90099132Y-86198726D01*
X90154162Y-86277261D01*
X90202056Y-86344268D01*
X90237798Y-86392492D01*
X90256370Y-86414679D01*
X90257777Y-86415279D01*
X90257777Y-86634500D01*
X90250225Y-86634500D01*
X89980553Y-86252165D01*
X89892805Y-86127352D01*
X89827035Y-86032218D01*
X89780597Y-85962005D01*
X89750846Y-85911957D01*
X89735134Y-85877317D01*
X89730817Y-85853328D01*
X89735249Y-85835234D01*
X89742131Y-85823540D01*
X89760134Y-85797665D01*
X89800158Y-85740654D01*
X89859782Y-85655939D01*
X89936588Y-85546950D01*
X90028157Y-85417119D01*
X90132069Y-85269877D01*
X90245905Y-85108654D01*
X90367245Y-84936882D01*
X90409088Y-84877666D01*
X91044794Y-83978083D01*
X90650174Y-83967500D01*
X90264334Y-83957152D01*
X90264334Y-83734083D01*
X90278342Y-83717887D01*
X90311198Y-83674002D01*
X90357819Y-83609660D01*
X90413121Y-83532091D01*
X90472021Y-83448529D01*
X90529438Y-83366203D01*
X90580286Y-83292345D01*
X90619485Y-83234188D01*
X90641949Y-83198962D01*
X90645334Y-83192041D01*
X90633927Y-83173873D01*
X90602504Y-83127131D01*
X90555254Y-83057969D01*
X90496369Y-82972541D01*
X90464397Y-82926404D01*
X90400001Y-82835349D01*
X90343145Y-82758161D01*
X90298487Y-82700919D01*
X90270685Y-82669703D01*
X90264684Y-82665750D01*
X90246823Y-82682009D01*
X90210427Y-82725887D01*
X90160823Y-82790033D01*
X90103335Y-82867097D01*
X90043289Y-82949729D01*
X89986011Y-83030579D01*
X89936826Y-83102295D01*
X89901060Y-83157529D01*
X89884038Y-83188930D01*
X89883334Y-83192083D01*
X89894827Y-83214622D01*
X89925887Y-83263526D01*
X89971382Y-83331496D01*
X90026183Y-83411234D01*
X90085158Y-83495442D01*
X90143177Y-83576819D01*
X90195110Y-83648069D01*
X90235825Y-83701892D01*
X90260193Y-83730990D01*
X90264334Y-83734083D01*
X90264334Y-83957152D01*
X90255553Y-83956916D01*
X89984298Y-83577353D01*
X89905681Y-83466406D01*
X89836532Y-83367020D01*
X89780307Y-83284309D01*
X89740459Y-83223388D01*
X89720441Y-83189370D01*
X89718813Y-83184223D01*
X89732250Y-83163687D01*
G36*
X90197589Y-73581585D02*
G01*
X90209591Y-73559762D01*
X90242349Y-73508578D01*
X90292322Y-73433341D01*
X90355969Y-73339356D01*
X90429750Y-73231931D01*
X90459227Y-73189383D01*
X90719417Y-72814682D01*
X91195667Y-72812379D01*
X91671917Y-72810075D01*
X91905318Y-72477996D01*
X92138719Y-72145916D01*
X94212853Y-72134940D01*
X94482260Y-72513659D01*
X94560912Y-72625611D01*
X94630339Y-72727089D01*
X94687002Y-72812700D01*
X94727365Y-72877054D01*
X94747890Y-72914761D01*
X94749747Y-72921314D01*
X94737388Y-72944540D01*
X94703010Y-72998161D01*
X94649331Y-73078217D01*
X94579068Y-73180746D01*
X94494937Y-73301790D01*
X94399655Y-73437386D01*
X94295939Y-73583574D01*
X94283370Y-73601199D01*
X93818912Y-74252149D01*
X94053472Y-74582401D01*
X94126145Y-74686015D01*
X94188996Y-74778108D01*
X94238344Y-74853079D01*
X94270508Y-74905327D01*
X94281807Y-74929251D01*
X94281725Y-74929713D01*
X94268087Y-74951292D01*
X94233494Y-75002038D01*
X94181616Y-75076682D01*
X94116123Y-75169956D01*
X94040684Y-75276592D01*
X94010834Y-75318594D01*
X93746250Y-75690415D01*
X92232834Y-75689866D01*
X92135598Y-75689831D01*
X92135598Y-73450004D01*
X92154715Y-73437027D01*
X92191372Y-73395452D01*
X92240542Y-73332500D01*
X92297198Y-73255390D01*
X92356314Y-73171341D01*
X92412863Y-73087575D01*
X92461816Y-73011309D01*
X92498149Y-72949763D01*
X92516833Y-72910158D01*
X92517982Y-72900830D01*
X92502565Y-72874310D01*
X92466925Y-72820421D01*
X92415742Y-72746029D01*
X92353698Y-72657996D01*
X92325553Y-72618644D01*
X92260771Y-72530918D01*
X92204035Y-72458716D01*
X92159979Y-72407580D01*
X92133236Y-72383049D01*
X92127940Y-72382314D01*
X92110129Y-72405931D01*
X92073636Y-72456302D01*
X92024133Y-72525551D01*
X91978147Y-72590416D01*
X91917608Y-72675785D01*
X91860941Y-72755122D01*
X91815719Y-72817852D01*
X91794841Y-72846340D01*
X91746114Y-72911763D01*
X91931266Y-73176761D01*
X91996725Y-73269250D01*
X92054604Y-73348782D01*
X92100235Y-73409116D01*
X92128950Y-73444008D01*
X92135598Y-73450004D01*
X92135598Y-75689831D01*
X91664656Y-75689661D01*
X91664656Y-75457687D01*
X91684045Y-75441606D01*
X91720795Y-75397178D01*
X91769924Y-75331712D01*
X91826444Y-75252515D01*
X91885373Y-75166896D01*
X91941723Y-75082163D01*
X91990512Y-75005624D01*
X92026753Y-74944587D01*
X92045462Y-74906362D01*
X92046544Y-74897814D01*
X92029783Y-74872612D01*
X91993655Y-74819401D01*
X91942828Y-74745024D01*
X91881971Y-74656320D01*
X91854482Y-74616350D01*
X91677213Y-74358780D01*
X91676788Y-74359372D01*
X91676788Y-74144633D01*
X91868646Y-73865788D01*
X91932849Y-73770002D01*
X91986212Y-73685611D01*
X92024963Y-73618978D01*
X92045329Y-73576466D01*
X92047018Y-73564930D01*
X92030405Y-73540549D01*
X91993940Y-73488548D01*
X91942420Y-73415722D01*
X91880643Y-73328867D01*
X91855912Y-73294208D01*
X91791928Y-73205934D01*
X91736231Y-73131566D01*
X91693528Y-73077203D01*
X91668527Y-73048942D01*
X91664521Y-73046313D01*
X91648421Y-73063152D01*
X91613086Y-73109055D01*
X91562947Y-73177987D01*
X91502438Y-73263912D01*
X91467006Y-73315260D01*
X91283261Y-73583394D01*
X91423599Y-73785405D01*
X91485906Y-73874864D01*
X91545345Y-73959802D01*
X91594288Y-74029342D01*
X91620363Y-74066025D01*
X91676788Y-74144633D01*
X91676788Y-74359372D01*
X91620575Y-74437682D01*
X91585095Y-74487680D01*
X91533154Y-74561586D01*
X91472392Y-74648503D01*
X91423599Y-74718594D01*
X91283261Y-74920605D01*
X91467006Y-75188739D01*
X91531283Y-75281334D01*
X91587597Y-75360195D01*
X91631513Y-75419285D01*
X91658594Y-75452568D01*
X91664656Y-75457687D01*
X91664656Y-75689661D01*
X91195349Y-75689492D01*
X91195349Y-74791553D01*
X91210871Y-74778018D01*
X91245749Y-74736989D01*
X91294756Y-74675437D01*
X91352662Y-74600330D01*
X91414239Y-74518638D01*
X91474258Y-74437331D01*
X91527491Y-74363377D01*
X91568708Y-74303747D01*
X91592682Y-74265409D01*
X91596470Y-74256887D01*
X91585444Y-74238545D01*
X91554107Y-74191570D01*
X91506526Y-74121938D01*
X91446772Y-74035622D01*
X91405409Y-73976369D01*
X91339078Y-73883784D01*
X91280382Y-73805891D01*
X91233782Y-73748297D01*
X91203739Y-73716606D01*
X91195358Y-73712441D01*
X91173085Y-73736048D01*
X91133900Y-73786805D01*
X91083066Y-73856976D01*
X91025846Y-73938826D01*
X90967506Y-74024622D01*
X90913308Y-74106629D01*
X90868517Y-74177111D01*
X90838396Y-74228334D01*
X90828162Y-74252000D01*
X90839722Y-74278105D01*
X90870893Y-74330731D01*
X90916411Y-74402141D01*
X90971013Y-74484601D01*
X91029435Y-74570377D01*
X91086413Y-74651734D01*
X91136683Y-74720938D01*
X91174982Y-74770252D01*
X91195349Y-74791553D01*
X91195349Y-75689492D01*
X90728778Y-75689322D01*
X90728778Y-75447916D01*
X90746851Y-75431658D01*
X90783453Y-75387782D01*
X90833249Y-75323637D01*
X90890904Y-75246570D01*
X90951082Y-75163929D01*
X91008450Y-75083063D01*
X91057670Y-75011319D01*
X91093409Y-74956046D01*
X91110331Y-74924592D01*
X91111000Y-74921484D01*
X91099420Y-74898525D01*
X91067514Y-74847580D01*
X91019533Y-74775136D01*
X90959725Y-74687677D01*
X90926895Y-74640599D01*
X90861949Y-74549910D01*
X90804783Y-74473562D01*
X90759986Y-74417415D01*
X90732149Y-74387334D01*
X90729443Y-74385849D01*
X90729443Y-74114416D01*
X90747831Y-74098091D01*
X90784568Y-74054029D01*
X90834348Y-73989602D01*
X90891865Y-73912180D01*
X90951813Y-73829134D01*
X91008886Y-73747836D01*
X91057779Y-73675657D01*
X91093184Y-73619967D01*
X91109797Y-73588139D01*
X91110401Y-73585190D01*
X91098892Y-73561284D01*
X91066822Y-73509780D01*
X91018543Y-73437307D01*
X90958407Y-73350494D01*
X90929714Y-73310024D01*
X90864601Y-73220588D01*
X90807123Y-73144953D01*
X90762090Y-73089197D01*
X90734314Y-73059402D01*
X90728778Y-73056083D01*
X90710457Y-73072425D01*
X90673831Y-73116527D01*
X90624198Y-73181005D01*
X90566853Y-73258475D01*
X90507091Y-73341554D01*
X90450211Y-73422857D01*
X90401506Y-73495000D01*
X90366275Y-73550600D01*
X90349812Y-73582271D01*
X90349235Y-73585250D01*
X90360975Y-73610962D01*
X90392659Y-73662149D01*
X90438982Y-73731429D01*
X90494642Y-73811418D01*
X90554333Y-73894736D01*
X90612752Y-73974000D01*
X90664594Y-74041827D01*
X90704555Y-74090837D01*
X90727332Y-74113646D01*
X90729443Y-74114416D01*
X90729443Y-74385849D01*
X90725939Y-74383924D01*
X90707302Y-74402881D01*
X90670472Y-74449503D01*
X90620763Y-74516248D01*
X90563489Y-74595572D01*
X90503962Y-74679932D01*
X90447494Y-74761786D01*
X90399400Y-74833589D01*
X90364992Y-74887799D01*
X90349583Y-74916873D01*
X90349235Y-74918750D01*
X90360956Y-74944293D01*
X90392588Y-74995357D01*
X90438835Y-75064557D01*
X90494400Y-75144509D01*
X90553988Y-75227830D01*
X90612302Y-75307134D01*
X90664047Y-75375039D01*
X90703925Y-75424159D01*
X90726641Y-75447112D01*
X90728778Y-75447916D01*
X90728778Y-75689322D01*
X90719417Y-75689318D01*
X90457036Y-75311488D01*
X90380286Y-75199964D01*
X90312696Y-75099826D01*
X90257722Y-75016354D01*
X90218820Y-74954828D01*
X90199447Y-74920531D01*
X90197939Y-74915621D01*
X90210520Y-74893270D01*
X90243518Y-74842026D01*
X90293073Y-74767678D01*
X90355327Y-74676016D01*
X90425062Y-74574791D01*
X90648902Y-74252000D01*
X90422521Y-73925544D01*
X90351435Y-73822036D01*
X90289653Y-73730167D01*
X90240920Y-73655665D01*
X90208981Y-73604257D01*
X90197585Y-73581673D01*
X90197589Y-73581585D01*
G37*
X90197589Y-73581585D02*
X90209591Y-73559762D01*
X90242349Y-73508578D01*
X90292322Y-73433341D01*
X90355969Y-73339356D01*
X90429750Y-73231931D01*
X90459227Y-73189383D01*
X90719417Y-72814682D01*
X91195667Y-72812379D01*
X91671917Y-72810075D01*
X91905318Y-72477996D01*
X92138719Y-72145916D01*
X94212853Y-72134940D01*
X94482260Y-72513659D01*
X94560912Y-72625611D01*
X94630339Y-72727089D01*
X94687002Y-72812700D01*
X94727365Y-72877054D01*
X94747890Y-72914761D01*
X94749747Y-72921314D01*
X94737388Y-72944540D01*
X94703010Y-72998161D01*
X94649331Y-73078217D01*
X94579068Y-73180746D01*
X94494937Y-73301790D01*
X94399655Y-73437386D01*
X94295939Y-73583574D01*
X94283370Y-73601199D01*
X93818912Y-74252149D01*
X94053472Y-74582401D01*
X94126145Y-74686015D01*
X94188996Y-74778108D01*
X94238344Y-74853079D01*
X94270508Y-74905327D01*
X94281807Y-74929251D01*
X94281725Y-74929713D01*
X94268087Y-74951292D01*
X94233494Y-75002038D01*
X94181616Y-75076682D01*
X94116123Y-75169956D01*
X94040684Y-75276592D01*
X94010834Y-75318594D01*
X93746250Y-75690415D01*
X92232834Y-75689866D01*
X92135598Y-75689831D01*
X92135598Y-73450004D01*
X92154715Y-73437027D01*
X92191372Y-73395452D01*
X92240542Y-73332500D01*
X92297198Y-73255390D01*
X92356314Y-73171341D01*
X92412863Y-73087575D01*
X92461816Y-73011309D01*
X92498149Y-72949763D01*
X92516833Y-72910158D01*
X92517982Y-72900830D01*
X92502565Y-72874310D01*
X92466925Y-72820421D01*
X92415742Y-72746029D01*
X92353698Y-72657996D01*
X92325553Y-72618644D01*
X92260771Y-72530918D01*
X92204035Y-72458716D01*
X92159979Y-72407580D01*
X92133236Y-72383049D01*
X92127940Y-72382314D01*
X92110129Y-72405931D01*
X92073636Y-72456302D01*
X92024133Y-72525551D01*
X91978147Y-72590416D01*
X91917608Y-72675785D01*
X91860941Y-72755122D01*
X91815719Y-72817852D01*
X91794841Y-72846340D01*
X91746114Y-72911763D01*
X91931266Y-73176761D01*
X91996725Y-73269250D01*
X92054604Y-73348782D01*
X92100235Y-73409116D01*
X92128950Y-73444008D01*
X92135598Y-73450004D01*
X92135598Y-75689831D01*
X91664656Y-75689661D01*
X91664656Y-75457687D01*
X91684045Y-75441606D01*
X91720795Y-75397178D01*
X91769924Y-75331712D01*
X91826444Y-75252515D01*
X91885373Y-75166896D01*
X91941723Y-75082163D01*
X91990512Y-75005624D01*
X92026753Y-74944587D01*
X92045462Y-74906362D01*
X92046544Y-74897814D01*
X92029783Y-74872612D01*
X91993655Y-74819401D01*
X91942828Y-74745024D01*
X91881971Y-74656320D01*
X91854482Y-74616350D01*
X91677213Y-74358780D01*
X91676788Y-74359372D01*
X91676788Y-74144633D01*
X91868646Y-73865788D01*
X91932849Y-73770002D01*
X91986212Y-73685611D01*
X92024963Y-73618978D01*
X92045329Y-73576466D01*
X92047018Y-73564930D01*
X92030405Y-73540549D01*
X91993940Y-73488548D01*
X91942420Y-73415722D01*
X91880643Y-73328867D01*
X91855912Y-73294208D01*
X91791928Y-73205934D01*
X91736231Y-73131566D01*
X91693528Y-73077203D01*
X91668527Y-73048942D01*
X91664521Y-73046313D01*
X91648421Y-73063152D01*
X91613086Y-73109055D01*
X91562947Y-73177987D01*
X91502438Y-73263912D01*
X91467006Y-73315260D01*
X91283261Y-73583394D01*
X91423599Y-73785405D01*
X91485906Y-73874864D01*
X91545345Y-73959802D01*
X91594288Y-74029342D01*
X91620363Y-74066025D01*
X91676788Y-74144633D01*
X91676788Y-74359372D01*
X91620575Y-74437682D01*
X91585095Y-74487680D01*
X91533154Y-74561586D01*
X91472392Y-74648503D01*
X91423599Y-74718594D01*
X91283261Y-74920605D01*
X91467006Y-75188739D01*
X91531283Y-75281334D01*
X91587597Y-75360195D01*
X91631513Y-75419285D01*
X91658594Y-75452568D01*
X91664656Y-75457687D01*
X91664656Y-75689661D01*
X91195349Y-75689492D01*
X91195349Y-74791553D01*
X91210871Y-74778018D01*
X91245749Y-74736989D01*
X91294756Y-74675437D01*
X91352662Y-74600330D01*
X91414239Y-74518638D01*
X91474258Y-74437331D01*
X91527491Y-74363377D01*
X91568708Y-74303747D01*
X91592682Y-74265409D01*
X91596470Y-74256887D01*
X91585444Y-74238545D01*
X91554107Y-74191570D01*
X91506526Y-74121938D01*
X91446772Y-74035622D01*
X91405409Y-73976369D01*
X91339078Y-73883784D01*
X91280382Y-73805891D01*
X91233782Y-73748297D01*
X91203739Y-73716606D01*
X91195358Y-73712441D01*
X91173085Y-73736048D01*
X91133900Y-73786805D01*
X91083066Y-73856976D01*
X91025846Y-73938826D01*
X90967506Y-74024622D01*
X90913308Y-74106629D01*
X90868517Y-74177111D01*
X90838396Y-74228334D01*
X90828162Y-74252000D01*
X90839722Y-74278105D01*
X90870893Y-74330731D01*
X90916411Y-74402141D01*
X90971013Y-74484601D01*
X91029435Y-74570377D01*
X91086413Y-74651734D01*
X91136683Y-74720938D01*
X91174982Y-74770252D01*
X91195349Y-74791553D01*
X91195349Y-75689492D01*
X90728778Y-75689322D01*
X90728778Y-75447916D01*
X90746851Y-75431658D01*
X90783453Y-75387782D01*
X90833249Y-75323637D01*
X90890904Y-75246570D01*
X90951082Y-75163929D01*
X91008450Y-75083063D01*
X91057670Y-75011319D01*
X91093409Y-74956046D01*
X91110331Y-74924592D01*
X91111000Y-74921484D01*
X91099420Y-74898525D01*
X91067514Y-74847580D01*
X91019533Y-74775136D01*
X90959725Y-74687677D01*
X90926895Y-74640599D01*
X90861949Y-74549910D01*
X90804783Y-74473562D01*
X90759986Y-74417415D01*
X90732149Y-74387334D01*
X90729443Y-74385849D01*
X90729443Y-74114416D01*
X90747831Y-74098091D01*
X90784568Y-74054029D01*
X90834348Y-73989602D01*
X90891865Y-73912180D01*
X90951813Y-73829134D01*
X91008886Y-73747836D01*
X91057779Y-73675657D01*
X91093184Y-73619967D01*
X91109797Y-73588139D01*
X91110401Y-73585190D01*
X91098892Y-73561284D01*
X91066822Y-73509780D01*
X91018543Y-73437307D01*
X90958407Y-73350494D01*
X90929714Y-73310024D01*
X90864601Y-73220588D01*
X90807123Y-73144953D01*
X90762090Y-73089197D01*
X90734314Y-73059402D01*
X90728778Y-73056083D01*
X90710457Y-73072425D01*
X90673831Y-73116527D01*
X90624198Y-73181005D01*
X90566853Y-73258475D01*
X90507091Y-73341554D01*
X90450211Y-73422857D01*
X90401506Y-73495000D01*
X90366275Y-73550600D01*
X90349812Y-73582271D01*
X90349235Y-73585250D01*
X90360975Y-73610962D01*
X90392659Y-73662149D01*
X90438982Y-73731429D01*
X90494642Y-73811418D01*
X90554333Y-73894736D01*
X90612752Y-73974000D01*
X90664594Y-74041827D01*
X90704555Y-74090837D01*
X90727332Y-74113646D01*
X90729443Y-74114416D01*
X90729443Y-74385849D01*
X90725939Y-74383924D01*
X90707302Y-74402881D01*
X90670472Y-74449503D01*
X90620763Y-74516248D01*
X90563489Y-74595572D01*
X90503962Y-74679932D01*
X90447494Y-74761786D01*
X90399400Y-74833589D01*
X90364992Y-74887799D01*
X90349583Y-74916873D01*
X90349235Y-74918750D01*
X90360956Y-74944293D01*
X90392588Y-74995357D01*
X90438835Y-75064557D01*
X90494400Y-75144509D01*
X90553988Y-75227830D01*
X90612302Y-75307134D01*
X90664047Y-75375039D01*
X90703925Y-75424159D01*
X90726641Y-75447112D01*
X90728778Y-75447916D01*
X90728778Y-75689322D01*
X90719417Y-75689318D01*
X90457036Y-75311488D01*
X90380286Y-75199964D01*
X90312696Y-75099826D01*
X90257722Y-75016354D01*
X90218820Y-74954828D01*
X90199447Y-74920531D01*
X90197939Y-74915621D01*
X90210520Y-74893270D01*
X90243518Y-74842026D01*
X90293073Y-74767678D01*
X90355327Y-74676016D01*
X90425062Y-74574791D01*
X90648902Y-74252000D01*
X90422521Y-73925544D01*
X90351435Y-73822036D01*
X90289653Y-73730167D01*
X90240920Y-73655665D01*
X90208981Y-73604257D01*
X90197585Y-73581673D01*
X90197589Y-73581585D01*
D12*
%TO.C,U3*%
X66240000Y-52850000D02*
X69840000Y-52850000D01*
X70364184Y-52122795D02*
G75*
G02*
X69840000Y-52850000I-2324184J1122795D01*
G01*
X70396400Y-49901193D02*
G75*
G03*
X68040000Y-48400000I-2356400J-1098807D01*
G01*
X65683600Y-49901193D02*
G75*
G02*
X68040000Y-48400000I2356400J-1098807D01*
G01*
X65715816Y-52122795D02*
G75*
G03*
X66240000Y-52850000I2324184J1122795D01*
G01*
%TO.C,U2*%
X69885048Y-54699880D02*
X66285048Y-54699880D01*
X65760864Y-55427085D02*
G75*
G02*
X66285048Y-54699880I2324184J-1122795D01*
G01*
X65728648Y-57648687D02*
G75*
G03*
X68085048Y-59149880I2356400J1098807D01*
G01*
X70441448Y-57648687D02*
G75*
G02*
X68085048Y-59149880I-2356400J1098807D01*
G01*
X70409232Y-55427085D02*
G75*
G03*
X69885048Y-54699880I-2324184J-1122795D01*
G01*
%TO.C,J3*%
X97970000Y-123380000D02*
X103990000Y-123380000D01*
X103990000Y-123380000D02*
X103990000Y-113000000D01*
X103990000Y-113000000D02*
X97970000Y-113000000D01*
X97970000Y-113000000D02*
X97970000Y-123380000D01*
X99000000Y-123670000D02*
X103000000Y-123670000D01*
X103990000Y-122000000D02*
X102990000Y-122000000D01*
X102990000Y-122000000D02*
X102990000Y-114380000D01*
X102990000Y-114380000D02*
X103990000Y-114380000D01*
X102990000Y-122000000D02*
X102460000Y-121750000D01*
X102460000Y-121750000D02*
X102460000Y-114630000D01*
X102460000Y-114630000D02*
X102990000Y-114380000D01*
X103990000Y-121750000D02*
X102990000Y-121750000D01*
X103990000Y-114630000D02*
X102990000Y-114630000D01*
X97970000Y-122800000D02*
X98570000Y-122800000D01*
X98570000Y-122800000D02*
X98570000Y-121200000D01*
X98570000Y-121200000D02*
X97970000Y-121200000D01*
X97970000Y-120260000D02*
X98570000Y-120260000D01*
X98570000Y-120260000D02*
X98570000Y-118660000D01*
X98570000Y-118660000D02*
X97970000Y-118660000D01*
X97970000Y-117720000D02*
X98570000Y-117720000D01*
X98570000Y-117720000D02*
X98570000Y-116120000D01*
X98570000Y-116120000D02*
X97970000Y-116120000D01*
X97970000Y-115180000D02*
X98570000Y-115180000D01*
X98570000Y-115180000D02*
X98570000Y-113580000D01*
X98570000Y-113580000D02*
X97970000Y-113580000D01*
%TO.C,FB2*%
X90630000Y-51190000D02*
X93370000Y-51190000D01*
X93370000Y-51190000D02*
X93370000Y-44650000D01*
X93370000Y-44650000D02*
X90630000Y-44650000D01*
X90630000Y-44650000D02*
X90630000Y-51190000D01*
X92000000Y-51960000D02*
X92000000Y-51190000D01*
X92000000Y-43880000D02*
X92000000Y-44650000D01*
%TO.C,FB1*%
X90630000Y-65190000D02*
X93370000Y-65190000D01*
X93370000Y-65190000D02*
X93370000Y-58650000D01*
X93370000Y-58650000D02*
X90630000Y-58650000D01*
X90630000Y-58650000D02*
X90630000Y-65190000D01*
X92000000Y-65960000D02*
X92000000Y-65190000D01*
X92000000Y-57880000D02*
X92000000Y-58650000D01*
%TO.C,J5*%
X95710000Y-42790000D02*
X104830000Y-42790000D01*
X104830000Y-42790000D02*
X104830000Y-63370000D01*
X104830000Y-63370000D02*
X95710000Y-63370000D01*
X95710000Y-63370000D02*
X95710000Y-42790000D01*
X95710000Y-51030000D02*
X97020000Y-51030000D01*
X97020000Y-51030000D02*
X97020000Y-44090000D01*
X97020000Y-44090000D02*
X103520000Y-44090000D01*
X103520000Y-44090000D02*
X103520000Y-62070000D01*
X103520000Y-62070000D02*
X97020000Y-62070000D01*
X97020000Y-62070000D02*
X97020000Y-55130000D01*
X97020000Y-55130000D02*
X97020000Y-55130000D01*
X97020000Y-55130000D02*
X95710000Y-55130000D01*
X95320000Y-48000000D02*
X94320000Y-47500000D01*
X94320000Y-47500000D02*
X94320000Y-48500000D01*
X94320000Y-48500000D02*
X95320000Y-48000000D01*
%TO.C,C5*%
X75620000Y-43000000D02*
G75*
G03*
X75620000Y-43000000I-2620000J0D01*
G01*
X73000000Y-40420000D02*
X73000000Y-45580000D01*
X73040000Y-40420000D02*
X73040000Y-45580000D01*
X73080000Y-40421000D02*
X73080000Y-45579000D01*
X73120000Y-40422000D02*
X73120000Y-45578000D01*
X73160000Y-40424000D02*
X73160000Y-45576000D01*
X73200000Y-40427000D02*
X73200000Y-45573000D01*
X73240000Y-40431000D02*
X73240000Y-41960000D01*
X73240000Y-44040000D02*
X73240000Y-45569000D01*
X73280000Y-40435000D02*
X73280000Y-41960000D01*
X73280000Y-44040000D02*
X73280000Y-45565000D01*
X73320000Y-40439000D02*
X73320000Y-41960000D01*
X73320000Y-44040000D02*
X73320000Y-45561000D01*
X73360000Y-40444000D02*
X73360000Y-41960000D01*
X73360000Y-44040000D02*
X73360000Y-45556000D01*
X73400000Y-40450000D02*
X73400000Y-41960000D01*
X73400000Y-44040000D02*
X73400000Y-45550000D01*
X73440000Y-40457000D02*
X73440000Y-41960000D01*
X73440000Y-44040000D02*
X73440000Y-45543000D01*
X73480000Y-40464000D02*
X73480000Y-41960000D01*
X73480000Y-44040000D02*
X73480000Y-45536000D01*
X73520000Y-40472000D02*
X73520000Y-41960000D01*
X73520000Y-44040000D02*
X73520000Y-45528000D01*
X73560000Y-40480000D02*
X73560000Y-41960000D01*
X73560000Y-44040000D02*
X73560000Y-45520000D01*
X73600000Y-40489000D02*
X73600000Y-41960000D01*
X73600000Y-44040000D02*
X73600000Y-45511000D01*
X73640000Y-40499000D02*
X73640000Y-41960000D01*
X73640000Y-44040000D02*
X73640000Y-45501000D01*
X73680000Y-40509000D02*
X73680000Y-41960000D01*
X73680000Y-44040000D02*
X73680000Y-45491000D01*
X73721000Y-40520000D02*
X73721000Y-41960000D01*
X73721000Y-44040000D02*
X73721000Y-45480000D01*
X73761000Y-40532000D02*
X73761000Y-41960000D01*
X73761000Y-44040000D02*
X73761000Y-45468000D01*
X73801000Y-40545000D02*
X73801000Y-41960000D01*
X73801000Y-44040000D02*
X73801000Y-45455000D01*
X73841000Y-40558000D02*
X73841000Y-41960000D01*
X73841000Y-44040000D02*
X73841000Y-45442000D01*
X73881000Y-40572000D02*
X73881000Y-41960000D01*
X73881000Y-44040000D02*
X73881000Y-45428000D01*
X73921000Y-40586000D02*
X73921000Y-41960000D01*
X73921000Y-44040000D02*
X73921000Y-45414000D01*
X73961000Y-40602000D02*
X73961000Y-41960000D01*
X73961000Y-44040000D02*
X73961000Y-45398000D01*
X74001000Y-40618000D02*
X74001000Y-41960000D01*
X74001000Y-44040000D02*
X74001000Y-45382000D01*
X74041000Y-40635000D02*
X74041000Y-41960000D01*
X74041000Y-44040000D02*
X74041000Y-45365000D01*
X74081000Y-40652000D02*
X74081000Y-41960000D01*
X74081000Y-44040000D02*
X74081000Y-45348000D01*
X74121000Y-40671000D02*
X74121000Y-41960000D01*
X74121000Y-44040000D02*
X74121000Y-45329000D01*
X74161000Y-40690000D02*
X74161000Y-41960000D01*
X74161000Y-44040000D02*
X74161000Y-45310000D01*
X74201000Y-40710000D02*
X74201000Y-41960000D01*
X74201000Y-44040000D02*
X74201000Y-45290000D01*
X74241000Y-40732000D02*
X74241000Y-41960000D01*
X74241000Y-44040000D02*
X74241000Y-45268000D01*
X74281000Y-40753000D02*
X74281000Y-41960000D01*
X74281000Y-44040000D02*
X74281000Y-45247000D01*
X74321000Y-40776000D02*
X74321000Y-41960000D01*
X74321000Y-44040000D02*
X74321000Y-45224000D01*
X74361000Y-40800000D02*
X74361000Y-41960000D01*
X74361000Y-44040000D02*
X74361000Y-45200000D01*
X74401000Y-40825000D02*
X74401000Y-41960000D01*
X74401000Y-44040000D02*
X74401000Y-45175000D01*
X74441000Y-40851000D02*
X74441000Y-41960000D01*
X74441000Y-44040000D02*
X74441000Y-45149000D01*
X74481000Y-40878000D02*
X74481000Y-41960000D01*
X74481000Y-44040000D02*
X74481000Y-45122000D01*
X74521000Y-40905000D02*
X74521000Y-41960000D01*
X74521000Y-44040000D02*
X74521000Y-45095000D01*
X74561000Y-40935000D02*
X74561000Y-41960000D01*
X74561000Y-44040000D02*
X74561000Y-45065000D01*
X74601000Y-40965000D02*
X74601000Y-41960000D01*
X74601000Y-44040000D02*
X74601000Y-45035000D01*
X74641000Y-40996000D02*
X74641000Y-41960000D01*
X74641000Y-44040000D02*
X74641000Y-45004000D01*
X74681000Y-41029000D02*
X74681000Y-41960000D01*
X74681000Y-44040000D02*
X74681000Y-44971000D01*
X74721000Y-41063000D02*
X74721000Y-41960000D01*
X74721000Y-44040000D02*
X74721000Y-44937000D01*
X74761000Y-41099000D02*
X74761000Y-41960000D01*
X74761000Y-44040000D02*
X74761000Y-44901000D01*
X74801000Y-41136000D02*
X74801000Y-41960000D01*
X74801000Y-44040000D02*
X74801000Y-44864000D01*
X74841000Y-41174000D02*
X74841000Y-41960000D01*
X74841000Y-44040000D02*
X74841000Y-44826000D01*
X74881000Y-41215000D02*
X74881000Y-41960000D01*
X74881000Y-44040000D02*
X74881000Y-44785000D01*
X74921000Y-41257000D02*
X74921000Y-41960000D01*
X74921000Y-44040000D02*
X74921000Y-44743000D01*
X74961000Y-41301000D02*
X74961000Y-41960000D01*
X74961000Y-44040000D02*
X74961000Y-44699000D01*
X75001000Y-41347000D02*
X75001000Y-41960000D01*
X75001000Y-44040000D02*
X75001000Y-44653000D01*
X75041000Y-41395000D02*
X75041000Y-41960000D01*
X75041000Y-44040000D02*
X75041000Y-44605000D01*
X75081000Y-41446000D02*
X75081000Y-41960000D01*
X75081000Y-44040000D02*
X75081000Y-44554000D01*
X75121000Y-41500000D02*
X75121000Y-41960000D01*
X75121000Y-44040000D02*
X75121000Y-44500000D01*
X75161000Y-41557000D02*
X75161000Y-41960000D01*
X75161000Y-44040000D02*
X75161000Y-44443000D01*
X75201000Y-41617000D02*
X75201000Y-41960000D01*
X75201000Y-44040000D02*
X75201000Y-44383000D01*
X75241000Y-41681000D02*
X75241000Y-41960000D01*
X75241000Y-44040000D02*
X75241000Y-44319000D01*
X75281000Y-41749000D02*
X75281000Y-41960000D01*
X75281000Y-44040000D02*
X75281000Y-44251000D01*
X75321000Y-41822000D02*
X75321000Y-44178000D01*
X75361000Y-41902000D02*
X75361000Y-44098000D01*
X75401000Y-41989000D02*
X75401000Y-44011000D01*
X75441000Y-42085000D02*
X75441000Y-43915000D01*
X75481000Y-42195000D02*
X75481000Y-43805000D01*
X75521000Y-42323000D02*
X75521000Y-43677000D01*
X75561000Y-42482000D02*
X75561000Y-43518000D01*
X75601000Y-42716000D02*
X75601000Y-43284000D01*
X70195225Y-41525000D02*
X70695225Y-41525000D01*
X70445225Y-41275000D02*
X70445225Y-41775000D01*
%TO.C,C4*%
X74620000Y-64000000D02*
G75*
G03*
X74620000Y-64000000I-2620000J0D01*
G01*
X72000000Y-66580000D02*
X72000000Y-61420000D01*
X71960000Y-66580000D02*
X71960000Y-61420000D01*
X71920000Y-66579000D02*
X71920000Y-61421000D01*
X71880000Y-66578000D02*
X71880000Y-61422000D01*
X71840000Y-66576000D02*
X71840000Y-61424000D01*
X71800000Y-66573000D02*
X71800000Y-61427000D01*
X71760000Y-66569000D02*
X71760000Y-65040000D01*
X71760000Y-62960000D02*
X71760000Y-61431000D01*
X71720000Y-66565000D02*
X71720000Y-65040000D01*
X71720000Y-62960000D02*
X71720000Y-61435000D01*
X71680000Y-66561000D02*
X71680000Y-65040000D01*
X71680000Y-62960000D02*
X71680000Y-61439000D01*
X71640000Y-66556000D02*
X71640000Y-65040000D01*
X71640000Y-62960000D02*
X71640000Y-61444000D01*
X71600000Y-66550000D02*
X71600000Y-65040000D01*
X71600000Y-62960000D02*
X71600000Y-61450000D01*
X71560000Y-66543000D02*
X71560000Y-65040000D01*
X71560000Y-62960000D02*
X71560000Y-61457000D01*
X71520000Y-66536000D02*
X71520000Y-65040000D01*
X71520000Y-62960000D02*
X71520000Y-61464000D01*
X71480000Y-66528000D02*
X71480000Y-65040000D01*
X71480000Y-62960000D02*
X71480000Y-61472000D01*
X71440000Y-66520000D02*
X71440000Y-65040000D01*
X71440000Y-62960000D02*
X71440000Y-61480000D01*
X71400000Y-66511000D02*
X71400000Y-65040000D01*
X71400000Y-62960000D02*
X71400000Y-61489000D01*
X71360000Y-66501000D02*
X71360000Y-65040000D01*
X71360000Y-62960000D02*
X71360000Y-61499000D01*
X71320000Y-66491000D02*
X71320000Y-65040000D01*
X71320000Y-62960000D02*
X71320000Y-61509000D01*
X71279000Y-66480000D02*
X71279000Y-65040000D01*
X71279000Y-62960000D02*
X71279000Y-61520000D01*
X71239000Y-66468000D02*
X71239000Y-65040000D01*
X71239000Y-62960000D02*
X71239000Y-61532000D01*
X71199000Y-66455000D02*
X71199000Y-65040000D01*
X71199000Y-62960000D02*
X71199000Y-61545000D01*
X71159000Y-66442000D02*
X71159000Y-65040000D01*
X71159000Y-62960000D02*
X71159000Y-61558000D01*
X71119000Y-66428000D02*
X71119000Y-65040000D01*
X71119000Y-62960000D02*
X71119000Y-61572000D01*
X71079000Y-66414000D02*
X71079000Y-65040000D01*
X71079000Y-62960000D02*
X71079000Y-61586000D01*
X71039000Y-66398000D02*
X71039000Y-65040000D01*
X71039000Y-62960000D02*
X71039000Y-61602000D01*
X70999000Y-66382000D02*
X70999000Y-65040000D01*
X70999000Y-62960000D02*
X70999000Y-61618000D01*
X70959000Y-66365000D02*
X70959000Y-65040000D01*
X70959000Y-62960000D02*
X70959000Y-61635000D01*
X70919000Y-66348000D02*
X70919000Y-65040000D01*
X70919000Y-62960000D02*
X70919000Y-61652000D01*
X70879000Y-66329000D02*
X70879000Y-65040000D01*
X70879000Y-62960000D02*
X70879000Y-61671000D01*
X70839000Y-66310000D02*
X70839000Y-65040000D01*
X70839000Y-62960000D02*
X70839000Y-61690000D01*
X70799000Y-66290000D02*
X70799000Y-65040000D01*
X70799000Y-62960000D02*
X70799000Y-61710000D01*
X70759000Y-66268000D02*
X70759000Y-65040000D01*
X70759000Y-62960000D02*
X70759000Y-61732000D01*
X70719000Y-66247000D02*
X70719000Y-65040000D01*
X70719000Y-62960000D02*
X70719000Y-61753000D01*
X70679000Y-66224000D02*
X70679000Y-65040000D01*
X70679000Y-62960000D02*
X70679000Y-61776000D01*
X70639000Y-66200000D02*
X70639000Y-65040000D01*
X70639000Y-62960000D02*
X70639000Y-61800000D01*
X70599000Y-66175000D02*
X70599000Y-65040000D01*
X70599000Y-62960000D02*
X70599000Y-61825000D01*
X70559000Y-66149000D02*
X70559000Y-65040000D01*
X70559000Y-62960000D02*
X70559000Y-61851000D01*
X70519000Y-66122000D02*
X70519000Y-65040000D01*
X70519000Y-62960000D02*
X70519000Y-61878000D01*
X70479000Y-66095000D02*
X70479000Y-65040000D01*
X70479000Y-62960000D02*
X70479000Y-61905000D01*
X70439000Y-66065000D02*
X70439000Y-65040000D01*
X70439000Y-62960000D02*
X70439000Y-61935000D01*
X70399000Y-66035000D02*
X70399000Y-65040000D01*
X70399000Y-62960000D02*
X70399000Y-61965000D01*
X70359000Y-66004000D02*
X70359000Y-65040000D01*
X70359000Y-62960000D02*
X70359000Y-61996000D01*
X70319000Y-65971000D02*
X70319000Y-65040000D01*
X70319000Y-62960000D02*
X70319000Y-62029000D01*
X70279000Y-65937000D02*
X70279000Y-65040000D01*
X70279000Y-62960000D02*
X70279000Y-62063000D01*
X70239000Y-65901000D02*
X70239000Y-65040000D01*
X70239000Y-62960000D02*
X70239000Y-62099000D01*
X70199000Y-65864000D02*
X70199000Y-65040000D01*
X70199000Y-62960000D02*
X70199000Y-62136000D01*
X70159000Y-65826000D02*
X70159000Y-65040000D01*
X70159000Y-62960000D02*
X70159000Y-62174000D01*
X70119000Y-65785000D02*
X70119000Y-65040000D01*
X70119000Y-62960000D02*
X70119000Y-62215000D01*
X70079000Y-65743000D02*
X70079000Y-65040000D01*
X70079000Y-62960000D02*
X70079000Y-62257000D01*
X70039000Y-65699000D02*
X70039000Y-65040000D01*
X70039000Y-62960000D02*
X70039000Y-62301000D01*
X69999000Y-65653000D02*
X69999000Y-65040000D01*
X69999000Y-62960000D02*
X69999000Y-62347000D01*
X69959000Y-65605000D02*
X69959000Y-65040000D01*
X69959000Y-62960000D02*
X69959000Y-62395000D01*
X69919000Y-65554000D02*
X69919000Y-65040000D01*
X69919000Y-62960000D02*
X69919000Y-62446000D01*
X69879000Y-65500000D02*
X69879000Y-65040000D01*
X69879000Y-62960000D02*
X69879000Y-62500000D01*
X69839000Y-65443000D02*
X69839000Y-65040000D01*
X69839000Y-62960000D02*
X69839000Y-62557000D01*
X69799000Y-65383000D02*
X69799000Y-65040000D01*
X69799000Y-62960000D02*
X69799000Y-62617000D01*
X69759000Y-65319000D02*
X69759000Y-65040000D01*
X69759000Y-62960000D02*
X69759000Y-62681000D01*
X69719000Y-65251000D02*
X69719000Y-65040000D01*
X69719000Y-62960000D02*
X69719000Y-62749000D01*
X69679000Y-65178000D02*
X69679000Y-62822000D01*
X69639000Y-65098000D02*
X69639000Y-62902000D01*
X69599000Y-65011000D02*
X69599000Y-62989000D01*
X69559000Y-64915000D02*
X69559000Y-63085000D01*
X69519000Y-64805000D02*
X69519000Y-63195000D01*
X69479000Y-64677000D02*
X69479000Y-63323000D01*
X69439000Y-64518000D02*
X69439000Y-63482000D01*
X69399000Y-64284000D02*
X69399000Y-63716000D01*
X74804775Y-65475000D02*
X74304775Y-65475000D01*
X74554775Y-65725000D02*
X74554775Y-65225000D01*
%TO.C,C3*%
X69870000Y-45000000D02*
G75*
G03*
X69870000Y-45000000I-2620000J0D01*
G01*
X67250000Y-42420000D02*
X67250000Y-47580000D01*
X67290000Y-42420000D02*
X67290000Y-47580000D01*
X67330000Y-42421000D02*
X67330000Y-47579000D01*
X67370000Y-42422000D02*
X67370000Y-47578000D01*
X67410000Y-42424000D02*
X67410000Y-47576000D01*
X67450000Y-42427000D02*
X67450000Y-47573000D01*
X67490000Y-42431000D02*
X67490000Y-43960000D01*
X67490000Y-46040000D02*
X67490000Y-47569000D01*
X67530000Y-42435000D02*
X67530000Y-43960000D01*
X67530000Y-46040000D02*
X67530000Y-47565000D01*
X67570000Y-42439000D02*
X67570000Y-43960000D01*
X67570000Y-46040000D02*
X67570000Y-47561000D01*
X67610000Y-42444000D02*
X67610000Y-43960000D01*
X67610000Y-46040000D02*
X67610000Y-47556000D01*
X67650000Y-42450000D02*
X67650000Y-43960000D01*
X67650000Y-46040000D02*
X67650000Y-47550000D01*
X67690000Y-42457000D02*
X67690000Y-43960000D01*
X67690000Y-46040000D02*
X67690000Y-47543000D01*
X67730000Y-42464000D02*
X67730000Y-43960000D01*
X67730000Y-46040000D02*
X67730000Y-47536000D01*
X67770000Y-42472000D02*
X67770000Y-43960000D01*
X67770000Y-46040000D02*
X67770000Y-47528000D01*
X67810000Y-42480000D02*
X67810000Y-43960000D01*
X67810000Y-46040000D02*
X67810000Y-47520000D01*
X67850000Y-42489000D02*
X67850000Y-43960000D01*
X67850000Y-46040000D02*
X67850000Y-47511000D01*
X67890000Y-42499000D02*
X67890000Y-43960000D01*
X67890000Y-46040000D02*
X67890000Y-47501000D01*
X67930000Y-42509000D02*
X67930000Y-43960000D01*
X67930000Y-46040000D02*
X67930000Y-47491000D01*
X67971000Y-42520000D02*
X67971000Y-43960000D01*
X67971000Y-46040000D02*
X67971000Y-47480000D01*
X68011000Y-42532000D02*
X68011000Y-43960000D01*
X68011000Y-46040000D02*
X68011000Y-47468000D01*
X68051000Y-42545000D02*
X68051000Y-43960000D01*
X68051000Y-46040000D02*
X68051000Y-47455000D01*
X68091000Y-42558000D02*
X68091000Y-43960000D01*
X68091000Y-46040000D02*
X68091000Y-47442000D01*
X68131000Y-42572000D02*
X68131000Y-43960000D01*
X68131000Y-46040000D02*
X68131000Y-47428000D01*
X68171000Y-42586000D02*
X68171000Y-43960000D01*
X68171000Y-46040000D02*
X68171000Y-47414000D01*
X68211000Y-42602000D02*
X68211000Y-43960000D01*
X68211000Y-46040000D02*
X68211000Y-47398000D01*
X68251000Y-42618000D02*
X68251000Y-43960000D01*
X68251000Y-46040000D02*
X68251000Y-47382000D01*
X68291000Y-42635000D02*
X68291000Y-43960000D01*
X68291000Y-46040000D02*
X68291000Y-47365000D01*
X68331000Y-42652000D02*
X68331000Y-43960000D01*
X68331000Y-46040000D02*
X68331000Y-47348000D01*
X68371000Y-42671000D02*
X68371000Y-43960000D01*
X68371000Y-46040000D02*
X68371000Y-47329000D01*
X68411000Y-42690000D02*
X68411000Y-43960000D01*
X68411000Y-46040000D02*
X68411000Y-47310000D01*
X68451000Y-42710000D02*
X68451000Y-43960000D01*
X68451000Y-46040000D02*
X68451000Y-47290000D01*
X68491000Y-42732000D02*
X68491000Y-43960000D01*
X68491000Y-46040000D02*
X68491000Y-47268000D01*
X68531000Y-42753000D02*
X68531000Y-43960000D01*
X68531000Y-46040000D02*
X68531000Y-47247000D01*
X68571000Y-42776000D02*
X68571000Y-43960000D01*
X68571000Y-46040000D02*
X68571000Y-47224000D01*
X68611000Y-42800000D02*
X68611000Y-43960000D01*
X68611000Y-46040000D02*
X68611000Y-47200000D01*
X68651000Y-42825000D02*
X68651000Y-43960000D01*
X68651000Y-46040000D02*
X68651000Y-47175000D01*
X68691000Y-42851000D02*
X68691000Y-43960000D01*
X68691000Y-46040000D02*
X68691000Y-47149000D01*
X68731000Y-42878000D02*
X68731000Y-43960000D01*
X68731000Y-46040000D02*
X68731000Y-47122000D01*
X68771000Y-42905000D02*
X68771000Y-43960000D01*
X68771000Y-46040000D02*
X68771000Y-47095000D01*
X68811000Y-42935000D02*
X68811000Y-43960000D01*
X68811000Y-46040000D02*
X68811000Y-47065000D01*
X68851000Y-42965000D02*
X68851000Y-43960000D01*
X68851000Y-46040000D02*
X68851000Y-47035000D01*
X68891000Y-42996000D02*
X68891000Y-43960000D01*
X68891000Y-46040000D02*
X68891000Y-47004000D01*
X68931000Y-43029000D02*
X68931000Y-43960000D01*
X68931000Y-46040000D02*
X68931000Y-46971000D01*
X68971000Y-43063000D02*
X68971000Y-43960000D01*
X68971000Y-46040000D02*
X68971000Y-46937000D01*
X69011000Y-43099000D02*
X69011000Y-43960000D01*
X69011000Y-46040000D02*
X69011000Y-46901000D01*
X69051000Y-43136000D02*
X69051000Y-43960000D01*
X69051000Y-46040000D02*
X69051000Y-46864000D01*
X69091000Y-43174000D02*
X69091000Y-43960000D01*
X69091000Y-46040000D02*
X69091000Y-46826000D01*
X69131000Y-43215000D02*
X69131000Y-43960000D01*
X69131000Y-46040000D02*
X69131000Y-46785000D01*
X69171000Y-43257000D02*
X69171000Y-43960000D01*
X69171000Y-46040000D02*
X69171000Y-46743000D01*
X69211000Y-43301000D02*
X69211000Y-43960000D01*
X69211000Y-46040000D02*
X69211000Y-46699000D01*
X69251000Y-43347000D02*
X69251000Y-43960000D01*
X69251000Y-46040000D02*
X69251000Y-46653000D01*
X69291000Y-43395000D02*
X69291000Y-43960000D01*
X69291000Y-46040000D02*
X69291000Y-46605000D01*
X69331000Y-43446000D02*
X69331000Y-43960000D01*
X69331000Y-46040000D02*
X69331000Y-46554000D01*
X69371000Y-43500000D02*
X69371000Y-43960000D01*
X69371000Y-46040000D02*
X69371000Y-46500000D01*
X69411000Y-43557000D02*
X69411000Y-43960000D01*
X69411000Y-46040000D02*
X69411000Y-46443000D01*
X69451000Y-43617000D02*
X69451000Y-43960000D01*
X69451000Y-46040000D02*
X69451000Y-46383000D01*
X69491000Y-43681000D02*
X69491000Y-43960000D01*
X69491000Y-46040000D02*
X69491000Y-46319000D01*
X69531000Y-43749000D02*
X69531000Y-43960000D01*
X69531000Y-46040000D02*
X69531000Y-46251000D01*
X69571000Y-43822000D02*
X69571000Y-46178000D01*
X69611000Y-43902000D02*
X69611000Y-46098000D01*
X69651000Y-43989000D02*
X69651000Y-46011000D01*
X69691000Y-44085000D02*
X69691000Y-45915000D01*
X69731000Y-44195000D02*
X69731000Y-45805000D01*
X69771000Y-44323000D02*
X69771000Y-45677000D01*
X69811000Y-44482000D02*
X69811000Y-45518000D01*
X69851000Y-44716000D02*
X69851000Y-45284000D01*
X64445225Y-43525000D02*
X64945225Y-43525000D01*
X64695225Y-43275000D02*
X64695225Y-43775000D01*
%TO.C,C2*%
X68620000Y-64000000D02*
G75*
G03*
X68620000Y-64000000I-2620000J0D01*
G01*
X66000000Y-61420000D02*
X66000000Y-66580000D01*
X66040000Y-61420000D02*
X66040000Y-66580000D01*
X66080000Y-61421000D02*
X66080000Y-66579000D01*
X66120000Y-61422000D02*
X66120000Y-66578000D01*
X66160000Y-61424000D02*
X66160000Y-66576000D01*
X66200000Y-61427000D02*
X66200000Y-66573000D01*
X66240000Y-61431000D02*
X66240000Y-62960000D01*
X66240000Y-65040000D02*
X66240000Y-66569000D01*
X66280000Y-61435000D02*
X66280000Y-62960000D01*
X66280000Y-65040000D02*
X66280000Y-66565000D01*
X66320000Y-61439000D02*
X66320000Y-62960000D01*
X66320000Y-65040000D02*
X66320000Y-66561000D01*
X66360000Y-61444000D02*
X66360000Y-62960000D01*
X66360000Y-65040000D02*
X66360000Y-66556000D01*
X66400000Y-61450000D02*
X66400000Y-62960000D01*
X66400000Y-65040000D02*
X66400000Y-66550000D01*
X66440000Y-61457000D02*
X66440000Y-62960000D01*
X66440000Y-65040000D02*
X66440000Y-66543000D01*
X66480000Y-61464000D02*
X66480000Y-62960000D01*
X66480000Y-65040000D02*
X66480000Y-66536000D01*
X66520000Y-61472000D02*
X66520000Y-62960000D01*
X66520000Y-65040000D02*
X66520000Y-66528000D01*
X66560000Y-61480000D02*
X66560000Y-62960000D01*
X66560000Y-65040000D02*
X66560000Y-66520000D01*
X66600000Y-61489000D02*
X66600000Y-62960000D01*
X66600000Y-65040000D02*
X66600000Y-66511000D01*
X66640000Y-61499000D02*
X66640000Y-62960000D01*
X66640000Y-65040000D02*
X66640000Y-66501000D01*
X66680000Y-61509000D02*
X66680000Y-62960000D01*
X66680000Y-65040000D02*
X66680000Y-66491000D01*
X66721000Y-61520000D02*
X66721000Y-62960000D01*
X66721000Y-65040000D02*
X66721000Y-66480000D01*
X66761000Y-61532000D02*
X66761000Y-62960000D01*
X66761000Y-65040000D02*
X66761000Y-66468000D01*
X66801000Y-61545000D02*
X66801000Y-62960000D01*
X66801000Y-65040000D02*
X66801000Y-66455000D01*
X66841000Y-61558000D02*
X66841000Y-62960000D01*
X66841000Y-65040000D02*
X66841000Y-66442000D01*
X66881000Y-61572000D02*
X66881000Y-62960000D01*
X66881000Y-65040000D02*
X66881000Y-66428000D01*
X66921000Y-61586000D02*
X66921000Y-62960000D01*
X66921000Y-65040000D02*
X66921000Y-66414000D01*
X66961000Y-61602000D02*
X66961000Y-62960000D01*
X66961000Y-65040000D02*
X66961000Y-66398000D01*
X67001000Y-61618000D02*
X67001000Y-62960000D01*
X67001000Y-65040000D02*
X67001000Y-66382000D01*
X67041000Y-61635000D02*
X67041000Y-62960000D01*
X67041000Y-65040000D02*
X67041000Y-66365000D01*
X67081000Y-61652000D02*
X67081000Y-62960000D01*
X67081000Y-65040000D02*
X67081000Y-66348000D01*
X67121000Y-61671000D02*
X67121000Y-62960000D01*
X67121000Y-65040000D02*
X67121000Y-66329000D01*
X67161000Y-61690000D02*
X67161000Y-62960000D01*
X67161000Y-65040000D02*
X67161000Y-66310000D01*
X67201000Y-61710000D02*
X67201000Y-62960000D01*
X67201000Y-65040000D02*
X67201000Y-66290000D01*
X67241000Y-61732000D02*
X67241000Y-62960000D01*
X67241000Y-65040000D02*
X67241000Y-66268000D01*
X67281000Y-61753000D02*
X67281000Y-62960000D01*
X67281000Y-65040000D02*
X67281000Y-66247000D01*
X67321000Y-61776000D02*
X67321000Y-62960000D01*
X67321000Y-65040000D02*
X67321000Y-66224000D01*
X67361000Y-61800000D02*
X67361000Y-62960000D01*
X67361000Y-65040000D02*
X67361000Y-66200000D01*
X67401000Y-61825000D02*
X67401000Y-62960000D01*
X67401000Y-65040000D02*
X67401000Y-66175000D01*
X67441000Y-61851000D02*
X67441000Y-62960000D01*
X67441000Y-65040000D02*
X67441000Y-66149000D01*
X67481000Y-61878000D02*
X67481000Y-62960000D01*
X67481000Y-65040000D02*
X67481000Y-66122000D01*
X67521000Y-61905000D02*
X67521000Y-62960000D01*
X67521000Y-65040000D02*
X67521000Y-66095000D01*
X67561000Y-61935000D02*
X67561000Y-62960000D01*
X67561000Y-65040000D02*
X67561000Y-66065000D01*
X67601000Y-61965000D02*
X67601000Y-62960000D01*
X67601000Y-65040000D02*
X67601000Y-66035000D01*
X67641000Y-61996000D02*
X67641000Y-62960000D01*
X67641000Y-65040000D02*
X67641000Y-66004000D01*
X67681000Y-62029000D02*
X67681000Y-62960000D01*
X67681000Y-65040000D02*
X67681000Y-65971000D01*
X67721000Y-62063000D02*
X67721000Y-62960000D01*
X67721000Y-65040000D02*
X67721000Y-65937000D01*
X67761000Y-62099000D02*
X67761000Y-62960000D01*
X67761000Y-65040000D02*
X67761000Y-65901000D01*
X67801000Y-62136000D02*
X67801000Y-62960000D01*
X67801000Y-65040000D02*
X67801000Y-65864000D01*
X67841000Y-62174000D02*
X67841000Y-62960000D01*
X67841000Y-65040000D02*
X67841000Y-65826000D01*
X67881000Y-62215000D02*
X67881000Y-62960000D01*
X67881000Y-65040000D02*
X67881000Y-65785000D01*
X67921000Y-62257000D02*
X67921000Y-62960000D01*
X67921000Y-65040000D02*
X67921000Y-65743000D01*
X67961000Y-62301000D02*
X67961000Y-62960000D01*
X67961000Y-65040000D02*
X67961000Y-65699000D01*
X68001000Y-62347000D02*
X68001000Y-62960000D01*
X68001000Y-65040000D02*
X68001000Y-65653000D01*
X68041000Y-62395000D02*
X68041000Y-62960000D01*
X68041000Y-65040000D02*
X68041000Y-65605000D01*
X68081000Y-62446000D02*
X68081000Y-62960000D01*
X68081000Y-65040000D02*
X68081000Y-65554000D01*
X68121000Y-62500000D02*
X68121000Y-62960000D01*
X68121000Y-65040000D02*
X68121000Y-65500000D01*
X68161000Y-62557000D02*
X68161000Y-62960000D01*
X68161000Y-65040000D02*
X68161000Y-65443000D01*
X68201000Y-62617000D02*
X68201000Y-62960000D01*
X68201000Y-65040000D02*
X68201000Y-65383000D01*
X68241000Y-62681000D02*
X68241000Y-62960000D01*
X68241000Y-65040000D02*
X68241000Y-65319000D01*
X68281000Y-62749000D02*
X68281000Y-62960000D01*
X68281000Y-65040000D02*
X68281000Y-65251000D01*
X68321000Y-62822000D02*
X68321000Y-65178000D01*
X68361000Y-62902000D02*
X68361000Y-65098000D01*
X68401000Y-62989000D02*
X68401000Y-65011000D01*
X68441000Y-63085000D02*
X68441000Y-64915000D01*
X68481000Y-63195000D02*
X68481000Y-64805000D01*
X68521000Y-63323000D02*
X68521000Y-64677000D01*
X68561000Y-63482000D02*
X68561000Y-64518000D01*
X68601000Y-63716000D02*
X68601000Y-64284000D01*
X63195225Y-62525000D02*
X63695225Y-62525000D01*
X63445225Y-62275000D02*
X63445225Y-62775000D01*
%TO.C,U6*%
X81810000Y-118670000D02*
X80560000Y-118670000D01*
X80560000Y-118670000D02*
X80560000Y-136570000D01*
X80560000Y-136570000D02*
X85060000Y-136570000D01*
X85060000Y-136570000D02*
X85060000Y-118670000D01*
X85060000Y-118670000D02*
X83810000Y-118670000D01*
X77560000Y-118610000D02*
X77560000Y-136630000D01*
X77560000Y-136630000D02*
X88060000Y-136630000D01*
X88060000Y-136630000D02*
X88060000Y-118610000D01*
X88060000Y-118610000D02*
X77560000Y-118610000D01*
X83810000Y-118670000D02*
G75*
G02*
X81810000Y-118670000I-1000000J0D01*
G01*
%TO.C,U5*%
X81810000Y-93670000D02*
X80560000Y-93670000D01*
X80560000Y-93670000D02*
X80560000Y-111570000D01*
X80560000Y-111570000D02*
X85060000Y-111570000D01*
X85060000Y-111570000D02*
X85060000Y-93670000D01*
X85060000Y-93670000D02*
X83810000Y-93670000D01*
X77560000Y-93610000D02*
X77560000Y-111630000D01*
X77560000Y-111630000D02*
X88060000Y-111630000D01*
X88060000Y-111630000D02*
X88060000Y-93610000D01*
X88060000Y-93610000D02*
X77560000Y-93610000D01*
X83810000Y-93670000D02*
G75*
G02*
X81810000Y-93670000I-1000000J0D01*
G01*
%TO.C,U4*%
X81810000Y-68670000D02*
X80560000Y-68670000D01*
X80560000Y-68670000D02*
X80560000Y-86570000D01*
X80560000Y-86570000D02*
X85060000Y-86570000D01*
X85060000Y-86570000D02*
X85060000Y-68670000D01*
X85060000Y-68670000D02*
X83810000Y-68670000D01*
X77560000Y-68610000D02*
X77560000Y-86630000D01*
X77560000Y-86630000D02*
X88060000Y-86630000D01*
X88060000Y-86630000D02*
X88060000Y-68610000D01*
X88060000Y-68610000D02*
X77560000Y-68610000D01*
X83810000Y-68670000D02*
G75*
G02*
X81810000Y-68670000I-1000000J0D01*
G01*
%TO.C,R2*%
X100050000Y-133620000D02*
X100050000Y-130880000D01*
X100050000Y-130880000D02*
X93510000Y-130880000D01*
X93510000Y-130880000D02*
X93510000Y-133620000D01*
X93510000Y-133620000D02*
X100050000Y-133620000D01*
X100820000Y-132250000D02*
X100050000Y-132250000D01*
X92740000Y-132250000D02*
X93510000Y-132250000D01*
%TO.C,R1*%
X100050000Y-130370000D02*
X100050000Y-127630000D01*
X100050000Y-127630000D02*
X93510000Y-127630000D01*
X93510000Y-127630000D02*
X93510000Y-130370000D01*
X93510000Y-130370000D02*
X100050000Y-130370000D01*
X100820000Y-129000000D02*
X100050000Y-129000000D01*
X92740000Y-129000000D02*
X93510000Y-129000000D01*
%TO.C,J4*%
X95710000Y-75790000D02*
X104830000Y-75790000D01*
X104830000Y-75790000D02*
X104830000Y-103990000D01*
X104830000Y-103990000D02*
X95710000Y-103990000D01*
X95710000Y-103990000D02*
X95710000Y-75790000D01*
X95710000Y-87840000D02*
X97020000Y-87840000D01*
X97020000Y-87840000D02*
X97020000Y-77090000D01*
X97020000Y-77090000D02*
X103520000Y-77090000D01*
X103520000Y-77090000D02*
X103520000Y-102690000D01*
X103520000Y-102690000D02*
X97020000Y-102690000D01*
X97020000Y-102690000D02*
X97020000Y-91940000D01*
X97020000Y-91940000D02*
X97020000Y-91940000D01*
X97020000Y-91940000D02*
X95710000Y-91940000D01*
X95320000Y-81000000D02*
X94320000Y-80500000D01*
X94320000Y-80500000D02*
X94320000Y-81500000D01*
X94320000Y-81500000D02*
X95320000Y-81000000D01*
%TO.C,J2*%
X63710000Y-102790000D02*
X72830000Y-102790000D01*
X72830000Y-102790000D02*
X72830000Y-130990000D01*
X72830000Y-130990000D02*
X63710000Y-130990000D01*
X63710000Y-130990000D02*
X63710000Y-102790000D01*
X63710000Y-114840000D02*
X65020000Y-114840000D01*
X65020000Y-114840000D02*
X65020000Y-104090000D01*
X65020000Y-104090000D02*
X71520000Y-104090000D01*
X71520000Y-104090000D02*
X71520000Y-129690000D01*
X71520000Y-129690000D02*
X65020000Y-129690000D01*
X65020000Y-129690000D02*
X65020000Y-118940000D01*
X65020000Y-118940000D02*
X65020000Y-118940000D01*
X65020000Y-118940000D02*
X63710000Y-118940000D01*
X63320000Y-108000000D02*
X62320000Y-107500000D01*
X62320000Y-107500000D02*
X62320000Y-108500000D01*
X62320000Y-108500000D02*
X63320000Y-108000000D01*
%TO.C,J1*%
X63710000Y-69790000D02*
X72830000Y-69790000D01*
X72830000Y-69790000D02*
X72830000Y-97990000D01*
X72830000Y-97990000D02*
X63710000Y-97990000D01*
X63710000Y-97990000D02*
X63710000Y-69790000D01*
X63710000Y-81840000D02*
X65020000Y-81840000D01*
X65020000Y-81840000D02*
X65020000Y-71090000D01*
X65020000Y-71090000D02*
X71520000Y-71090000D01*
X71520000Y-71090000D02*
X71520000Y-96690000D01*
X71520000Y-96690000D02*
X65020000Y-96690000D01*
X65020000Y-96690000D02*
X65020000Y-85940000D01*
X65020000Y-85940000D02*
X65020000Y-85940000D01*
X65020000Y-85940000D02*
X63710000Y-85940000D01*
X63320000Y-75000000D02*
X62320000Y-74500000D01*
X62320000Y-74500000D02*
X62320000Y-75500000D01*
X62320000Y-75500000D02*
X63320000Y-75000000D01*
%TO.C,C8*%
X85370000Y-91620000D02*
X80130000Y-91620000D01*
X85370000Y-88880000D02*
X80130000Y-88880000D01*
X85370000Y-91620000D02*
X85370000Y-91305000D01*
X85370000Y-89195000D02*
X85370000Y-88880000D01*
X80130000Y-91620000D02*
X80130000Y-91305000D01*
X80130000Y-89195000D02*
X80130000Y-88880000D01*
%TO.C,C7*%
X85370000Y-116620000D02*
X80130000Y-116620000D01*
X85370000Y-113880000D02*
X80130000Y-113880000D01*
X85370000Y-116620000D02*
X85370000Y-116305000D01*
X85370000Y-114195000D02*
X85370000Y-113880000D01*
X80130000Y-116620000D02*
X80130000Y-116305000D01*
X80130000Y-114195000D02*
X80130000Y-113880000D01*
%TO.C,C6*%
X85370000Y-66620000D02*
X80130000Y-66620000D01*
X85370000Y-63880000D02*
X80130000Y-63880000D01*
X85370000Y-66620000D02*
X85370000Y-66305000D01*
X85370000Y-64195000D02*
X85370000Y-63880000D01*
X80130000Y-66620000D02*
X80130000Y-66305000D01*
X80130000Y-64195000D02*
X80130000Y-63880000D01*
%TO.C,U1*%
X81810000Y-43670000D02*
X80560000Y-43670000D01*
X80560000Y-43670000D02*
X80560000Y-61570000D01*
X80560000Y-61570000D02*
X85060000Y-61570000D01*
X85060000Y-61570000D02*
X85060000Y-43670000D01*
X85060000Y-43670000D02*
X83810000Y-43670000D01*
X77560000Y-43610000D02*
X77560000Y-61630000D01*
X77560000Y-61630000D02*
X88060000Y-61630000D01*
X88060000Y-61630000D02*
X88060000Y-43610000D01*
X88060000Y-43610000D02*
X77560000Y-43610000D01*
X83810000Y-43670000D02*
G75*
G02*
X81810000Y-43670000I-1000000J0D01*
G01*
%TO.C,C1*%
X85370000Y-41620000D02*
X80130000Y-41620000D01*
X85370000Y-38880000D02*
X80130000Y-38880000D01*
X85370000Y-41620000D02*
X85370000Y-41305000D01*
X85370000Y-39195000D02*
X85370000Y-38880000D01*
X80130000Y-41620000D02*
X80130000Y-41305000D01*
X80130000Y-39195000D02*
X80130000Y-38880000D01*
%TO.C,U3*%
D13*
X72238095Y-49202380D02*
X72238095Y-50011904D01*
X72285714Y-50107142D01*
X72333333Y-50154761D01*
X72428571Y-50202380D01*
X72619047Y-50202380D01*
X72714285Y-50154761D01*
X72761904Y-50107142D01*
X72809523Y-50011904D01*
X72809523Y-49202380D01*
X73190476Y-49202380D02*
X73809523Y-49202380D01*
X73476190Y-49583333D01*
X73619047Y-49583333D01*
X73714285Y-49630952D01*
X73761904Y-49678571D01*
X73809523Y-49773809D01*
X73809523Y-50011904D01*
X73761904Y-50107142D01*
X73714285Y-50154761D01*
X73619047Y-50202380D01*
X73333333Y-50202380D01*
X73238095Y-50154761D01*
X73190476Y-50107142D01*
X72500000Y-52202380D02*
X72023809Y-52202380D01*
X72023809Y-51202380D01*
X72738095Y-51202380D02*
X73404761Y-51202380D01*
X72976190Y-52202380D01*
X73833333Y-52202380D02*
X74023809Y-52202380D01*
X74119047Y-52154761D01*
X74166666Y-52107142D01*
X74261904Y-51964285D01*
X74309523Y-51773809D01*
X74309523Y-51392857D01*
X74261904Y-51297619D01*
X74214285Y-51250000D01*
X74119047Y-51202380D01*
X73928571Y-51202380D01*
X73833333Y-51250000D01*
X73785714Y-51297619D01*
X73738095Y-51392857D01*
X73738095Y-51630952D01*
X73785714Y-51726190D01*
X73833333Y-51773809D01*
X73928571Y-51821428D01*
X74119047Y-51821428D01*
X74214285Y-51773809D01*
X74261904Y-51726190D01*
X74309523Y-51630952D01*
X75214285Y-52202380D02*
X74738095Y-52202380D01*
X74738095Y-51202380D01*
X75738095Y-51202380D02*
X75833333Y-51202380D01*
X75928571Y-51250000D01*
X75976190Y-51297619D01*
X76023809Y-51392857D01*
X76071428Y-51583333D01*
X76071428Y-51821428D01*
X76023809Y-52011904D01*
X75976190Y-52107142D01*
X75928571Y-52154761D01*
X75833333Y-52202380D01*
X75738095Y-52202380D01*
X75642857Y-52154761D01*
X75595238Y-52107142D01*
X75547619Y-52011904D01*
X75500000Y-51821428D01*
X75500000Y-51583333D01*
X75547619Y-51392857D01*
X75595238Y-51297619D01*
X75642857Y-51250000D01*
X75738095Y-51202380D01*
X76976190Y-51202380D02*
X76500000Y-51202380D01*
X76452380Y-51678571D01*
X76500000Y-51630952D01*
X76595238Y-51583333D01*
X76833333Y-51583333D01*
X76928571Y-51630952D01*
X76976190Y-51678571D01*
X77023809Y-51773809D01*
X77023809Y-52011904D01*
X76976190Y-52107142D01*
X76928571Y-52154761D01*
X76833333Y-52202380D01*
X76595238Y-52202380D01*
X76500000Y-52154761D01*
X76452380Y-52107142D01*
%TO.C,U2*%
X72238095Y-55452380D02*
X72238095Y-56261904D01*
X72285714Y-56357142D01*
X72333333Y-56404761D01*
X72428571Y-56452380D01*
X72619047Y-56452380D01*
X72714285Y-56404761D01*
X72761904Y-56357142D01*
X72809523Y-56261904D01*
X72809523Y-55452380D01*
X73238095Y-55547619D02*
X73285714Y-55500000D01*
X73380952Y-55452380D01*
X73619047Y-55452380D01*
X73714285Y-55500000D01*
X73761904Y-55547619D01*
X73809523Y-55642857D01*
X73809523Y-55738095D01*
X73761904Y-55880952D01*
X73190476Y-56452380D01*
X73809523Y-56452380D01*
X72500000Y-58452380D02*
X72023809Y-58452380D01*
X72023809Y-57452380D01*
X72738095Y-57452380D02*
X73404761Y-57452380D01*
X72976190Y-58452380D01*
X73928571Y-57880952D02*
X73833333Y-57833333D01*
X73785714Y-57785714D01*
X73738095Y-57690476D01*
X73738095Y-57642857D01*
X73785714Y-57547619D01*
X73833333Y-57500000D01*
X73928571Y-57452380D01*
X74119047Y-57452380D01*
X74214285Y-57500000D01*
X74261904Y-57547619D01*
X74309523Y-57642857D01*
X74309523Y-57690476D01*
X74261904Y-57785714D01*
X74214285Y-57833333D01*
X74119047Y-57880952D01*
X73928571Y-57880952D01*
X73833333Y-57928571D01*
X73785714Y-57976190D01*
X73738095Y-58071428D01*
X73738095Y-58261904D01*
X73785714Y-58357142D01*
X73833333Y-58404761D01*
X73928571Y-58452380D01*
X74119047Y-58452380D01*
X74214285Y-58404761D01*
X74261904Y-58357142D01*
X74309523Y-58261904D01*
X74309523Y-58071428D01*
X74261904Y-57976190D01*
X74214285Y-57928571D01*
X74119047Y-57880952D01*
X75214285Y-58452380D02*
X74738095Y-58452380D01*
X74738095Y-57452380D01*
X75738095Y-57452380D02*
X75833333Y-57452380D01*
X75928571Y-57500000D01*
X75976190Y-57547619D01*
X76023809Y-57642857D01*
X76071428Y-57833333D01*
X76071428Y-58071428D01*
X76023809Y-58261904D01*
X75976190Y-58357142D01*
X75928571Y-58404761D01*
X75833333Y-58452380D01*
X75738095Y-58452380D01*
X75642857Y-58404761D01*
X75595238Y-58357142D01*
X75547619Y-58261904D01*
X75500000Y-58071428D01*
X75500000Y-57833333D01*
X75547619Y-57642857D01*
X75595238Y-57547619D01*
X75642857Y-57500000D01*
X75738095Y-57452380D01*
X76976190Y-57452380D02*
X76500000Y-57452380D01*
X76452380Y-57928571D01*
X76500000Y-57880952D01*
X76595238Y-57833333D01*
X76833333Y-57833333D01*
X76928571Y-57880952D01*
X76976190Y-57928571D01*
X77023809Y-58023809D01*
X77023809Y-58261904D01*
X76976190Y-58357142D01*
X76928571Y-58404761D01*
X76833333Y-58452380D01*
X76595238Y-58452380D01*
X76500000Y-58404761D01*
X76452380Y-58357142D01*
%TO.C,J3*%
X100452380Y-111833333D02*
X101166666Y-111833333D01*
X101309523Y-111880952D01*
X101404761Y-111976190D01*
X101452380Y-112119047D01*
X101452380Y-112214285D01*
X100452380Y-111452380D02*
X100452380Y-110833333D01*
X100833333Y-111166666D01*
X100833333Y-111023809D01*
X100880952Y-110928571D01*
X100928571Y-110880952D01*
X101023809Y-110833333D01*
X101261904Y-110833333D01*
X101357142Y-110880952D01*
X101404761Y-110928571D01*
X101452380Y-111023809D01*
X101452380Y-111309523D01*
X101404761Y-111404761D01*
X101357142Y-111452380D01*
X105484761Y-120666190D02*
X105532380Y-120523333D01*
X105532380Y-120285238D01*
X105484761Y-120190000D01*
X105437142Y-120142380D01*
X105341904Y-120094761D01*
X105246666Y-120094761D01*
X105151428Y-120142380D01*
X105103809Y-120190000D01*
X105056190Y-120285238D01*
X105008571Y-120475714D01*
X104960952Y-120570952D01*
X104913333Y-120618571D01*
X104818095Y-120666190D01*
X104722857Y-120666190D01*
X104627619Y-120618571D01*
X104580000Y-120570952D01*
X104532380Y-120475714D01*
X104532380Y-120237619D01*
X104580000Y-120094761D01*
X105008571Y-119666190D02*
X105008571Y-119332857D01*
X105532380Y-119190000D02*
X105532380Y-119666190D01*
X104532380Y-119666190D01*
X104532380Y-119190000D01*
X105532380Y-118285238D02*
X105532380Y-118761428D01*
X104532380Y-118761428D01*
X105008571Y-117951904D02*
X105008571Y-117618571D01*
X105532380Y-117475714D02*
X105532380Y-117951904D01*
X104532380Y-117951904D01*
X104532380Y-117475714D01*
X105437142Y-116475714D02*
X105484761Y-116523333D01*
X105532380Y-116666190D01*
X105532380Y-116761428D01*
X105484761Y-116904285D01*
X105389523Y-116999523D01*
X105294285Y-117047142D01*
X105103809Y-117094761D01*
X104960952Y-117094761D01*
X104770476Y-117047142D01*
X104675238Y-116999523D01*
X104580000Y-116904285D01*
X104532380Y-116761428D01*
X104532380Y-116666190D01*
X104580000Y-116523333D01*
X104627619Y-116475714D01*
X104532380Y-116190000D02*
X104532380Y-115618571D01*
X105532380Y-115904285D02*
X104532380Y-115904285D01*
%TO.C,FB2*%
X89558571Y-48753333D02*
X89558571Y-49086666D01*
X90082380Y-49086666D02*
X89082380Y-49086666D01*
X89082380Y-48610476D01*
X89558571Y-47896190D02*
X89606190Y-47753333D01*
X89653809Y-47705714D01*
X89749047Y-47658095D01*
X89891904Y-47658095D01*
X89987142Y-47705714D01*
X90034761Y-47753333D01*
X90082380Y-47848571D01*
X90082380Y-48229523D01*
X89082380Y-48229523D01*
X89082380Y-47896190D01*
X89130000Y-47800952D01*
X89177619Y-47753333D01*
X89272857Y-47705714D01*
X89368095Y-47705714D01*
X89463333Y-47753333D01*
X89510952Y-47800952D01*
X89558571Y-47896190D01*
X89558571Y-48229523D01*
X89177619Y-47277142D02*
X89130000Y-47229523D01*
X89082380Y-47134285D01*
X89082380Y-46896190D01*
X89130000Y-46800952D01*
X89177619Y-46753333D01*
X89272857Y-46705714D01*
X89368095Y-46705714D01*
X89510952Y-46753333D01*
X90082380Y-47324761D01*
X90082380Y-46705714D01*
%TO.C,FB1*%
X89558571Y-62753333D02*
X89558571Y-63086666D01*
X90082380Y-63086666D02*
X89082380Y-63086666D01*
X89082380Y-62610476D01*
X89558571Y-61896190D02*
X89606190Y-61753333D01*
X89653809Y-61705714D01*
X89749047Y-61658095D01*
X89891904Y-61658095D01*
X89987142Y-61705714D01*
X90034761Y-61753333D01*
X90082380Y-61848571D01*
X90082380Y-62229523D01*
X89082380Y-62229523D01*
X89082380Y-61896190D01*
X89130000Y-61800952D01*
X89177619Y-61753333D01*
X89272857Y-61705714D01*
X89368095Y-61705714D01*
X89463333Y-61753333D01*
X89510952Y-61800952D01*
X89558571Y-61896190D01*
X89558571Y-62229523D01*
X90082380Y-60705714D02*
X90082380Y-61277142D01*
X90082380Y-60991428D02*
X89082380Y-60991428D01*
X89225238Y-61086666D01*
X89320476Y-61181904D01*
X89368095Y-61277142D01*
%TO.C,J5*%
X99936666Y-41352380D02*
X99936666Y-42066666D01*
X99889047Y-42209523D01*
X99793809Y-42304761D01*
X99650952Y-42352380D01*
X99555714Y-42352380D01*
X100889047Y-41352380D02*
X100412857Y-41352380D01*
X100365238Y-41828571D01*
X100412857Y-41780952D01*
X100508095Y-41733333D01*
X100746190Y-41733333D01*
X100841428Y-41780952D01*
X100889047Y-41828571D01*
X100936666Y-41923809D01*
X100936666Y-42161904D01*
X100889047Y-42257142D01*
X100841428Y-42304761D01*
X100746190Y-42352380D01*
X100508095Y-42352380D01*
X100412857Y-42304761D01*
X100365238Y-42257142D01*
X97960476Y-64712380D02*
X97960476Y-63712380D01*
X98341428Y-63712380D01*
X98436666Y-63760000D01*
X98484285Y-63807619D01*
X98531904Y-63902857D01*
X98531904Y-64045714D01*
X98484285Y-64140952D01*
X98436666Y-64188571D01*
X98341428Y-64236190D01*
X97960476Y-64236190D01*
X99150952Y-63712380D02*
X99341428Y-63712380D01*
X99436666Y-63760000D01*
X99531904Y-63855238D01*
X99579523Y-64045714D01*
X99579523Y-64379047D01*
X99531904Y-64569523D01*
X99436666Y-64664761D01*
X99341428Y-64712380D01*
X99150952Y-64712380D01*
X99055714Y-64664761D01*
X98960476Y-64569523D01*
X98912857Y-64379047D01*
X98912857Y-64045714D01*
X98960476Y-63855238D01*
X99055714Y-63760000D01*
X99150952Y-63712380D01*
X99912857Y-63712380D02*
X100150952Y-64712380D01*
X100341428Y-63998095D01*
X100531904Y-64712380D01*
X100770000Y-63712380D01*
X101150952Y-64188571D02*
X101484285Y-64188571D01*
X101627142Y-64712380D02*
X101150952Y-64712380D01*
X101150952Y-63712380D01*
X101627142Y-63712380D01*
X102627142Y-64712380D02*
X102293809Y-64236190D01*
X102055714Y-64712380D02*
X102055714Y-63712380D01*
X102436666Y-63712380D01*
X102531904Y-63760000D01*
X102579523Y-63807619D01*
X102627142Y-63902857D01*
X102627142Y-64045714D01*
X102579523Y-64140952D01*
X102531904Y-64188571D01*
X102436666Y-64236190D01*
X102055714Y-64236190D01*
%TO.C,C5*%
X72833333Y-39607142D02*
X72785714Y-39654761D01*
X72642857Y-39702380D01*
X72547619Y-39702380D01*
X72404761Y-39654761D01*
X72309523Y-39559523D01*
X72261904Y-39464285D01*
X72214285Y-39273809D01*
X72214285Y-39130952D01*
X72261904Y-38940476D01*
X72309523Y-38845238D01*
X72404761Y-38750000D01*
X72547619Y-38702380D01*
X72642857Y-38702380D01*
X72785714Y-38750000D01*
X72833333Y-38797619D01*
X73738095Y-38702380D02*
X73261904Y-38702380D01*
X73214285Y-39178571D01*
X73261904Y-39130952D01*
X73357142Y-39083333D01*
X73595238Y-39083333D01*
X73690476Y-39130952D01*
X73738095Y-39178571D01*
X73785714Y-39273809D01*
X73785714Y-39511904D01*
X73738095Y-39607142D01*
X73690476Y-39654761D01*
X73595238Y-39702380D01*
X73357142Y-39702380D01*
X73261904Y-39654761D01*
X73214285Y-39607142D01*
X75333333Y-40452380D02*
X74761904Y-40452380D01*
X75047619Y-40452380D02*
X75047619Y-39452380D01*
X74952380Y-39595238D01*
X74857142Y-39690476D01*
X74761904Y-39738095D01*
X76190476Y-39785714D02*
X76190476Y-40452380D01*
X75761904Y-39785714D02*
X75761904Y-40309523D01*
X75809523Y-40404761D01*
X75904761Y-40452380D01*
X76047619Y-40452380D01*
X76142857Y-40404761D01*
X76190476Y-40357142D01*
%TO.C,C4*%
X71833333Y-68107142D02*
X71785714Y-68154761D01*
X71642857Y-68202380D01*
X71547619Y-68202380D01*
X71404761Y-68154761D01*
X71309523Y-68059523D01*
X71261904Y-67964285D01*
X71214285Y-67773809D01*
X71214285Y-67630952D01*
X71261904Y-67440476D01*
X71309523Y-67345238D01*
X71404761Y-67250000D01*
X71547619Y-67202380D01*
X71642857Y-67202380D01*
X71785714Y-67250000D01*
X71833333Y-67297619D01*
X72690476Y-67535714D02*
X72690476Y-68202380D01*
X72452380Y-67154761D02*
X72214285Y-67869047D01*
X72833333Y-67869047D01*
X71833333Y-60702380D02*
X71261904Y-60702380D01*
X71547619Y-60702380D02*
X71547619Y-59702380D01*
X71452380Y-59845238D01*
X71357142Y-59940476D01*
X71261904Y-59988095D01*
X72690476Y-60035714D02*
X72690476Y-60702380D01*
X72261904Y-60035714D02*
X72261904Y-60559523D01*
X72309523Y-60654761D01*
X72404761Y-60702380D01*
X72547619Y-60702380D01*
X72642857Y-60654761D01*
X72690476Y-60607142D01*
%TO.C,C3*%
X63833333Y-42857142D02*
X63785714Y-42904761D01*
X63642857Y-42952380D01*
X63547619Y-42952380D01*
X63404761Y-42904761D01*
X63309523Y-42809523D01*
X63261904Y-42714285D01*
X63214285Y-42523809D01*
X63214285Y-42380952D01*
X63261904Y-42190476D01*
X63309523Y-42095238D01*
X63404761Y-42000000D01*
X63547619Y-41952380D01*
X63642857Y-41952380D01*
X63785714Y-42000000D01*
X63833333Y-42047619D01*
X64166666Y-41952380D02*
X64785714Y-41952380D01*
X64452380Y-42333333D01*
X64595238Y-42333333D01*
X64690476Y-42380952D01*
X64738095Y-42428571D01*
X64785714Y-42523809D01*
X64785714Y-42761904D01*
X64738095Y-42857142D01*
X64690476Y-42904761D01*
X64595238Y-42952380D01*
X64309523Y-42952380D01*
X64214285Y-42904761D01*
X64166666Y-42857142D01*
X66857142Y-41952380D02*
X66285714Y-41952380D01*
X66571428Y-41952380D02*
X66571428Y-40952380D01*
X66476190Y-41095238D01*
X66380952Y-41190476D01*
X66285714Y-41238095D01*
X67476190Y-40952380D02*
X67571428Y-40952380D01*
X67666666Y-41000000D01*
X67714285Y-41047619D01*
X67761904Y-41142857D01*
X67809523Y-41333333D01*
X67809523Y-41571428D01*
X67761904Y-41761904D01*
X67714285Y-41857142D01*
X67666666Y-41904761D01*
X67571428Y-41952380D01*
X67476190Y-41952380D01*
X67380952Y-41904761D01*
X67333333Y-41857142D01*
X67285714Y-41761904D01*
X67238095Y-41571428D01*
X67238095Y-41333333D01*
X67285714Y-41142857D01*
X67333333Y-41047619D01*
X67380952Y-41000000D01*
X67476190Y-40952380D01*
X68666666Y-41285714D02*
X68666666Y-41952380D01*
X68238095Y-41285714D02*
X68238095Y-41809523D01*
X68285714Y-41904761D01*
X68380952Y-41952380D01*
X68523809Y-41952380D01*
X68619047Y-41904761D01*
X68666666Y-41857142D01*
%TO.C,C2*%
X65833333Y-60607142D02*
X65785714Y-60654761D01*
X65642857Y-60702380D01*
X65547619Y-60702380D01*
X65404761Y-60654761D01*
X65309523Y-60559523D01*
X65261904Y-60464285D01*
X65214285Y-60273809D01*
X65214285Y-60130952D01*
X65261904Y-59940476D01*
X65309523Y-59845238D01*
X65404761Y-59750000D01*
X65547619Y-59702380D01*
X65642857Y-59702380D01*
X65785714Y-59750000D01*
X65833333Y-59797619D01*
X66214285Y-59797619D02*
X66261904Y-59750000D01*
X66357142Y-59702380D01*
X66595238Y-59702380D01*
X66690476Y-59750000D01*
X66738095Y-59797619D01*
X66785714Y-59892857D01*
X66785714Y-59988095D01*
X66738095Y-60130952D01*
X66166666Y-60702380D01*
X66785714Y-60702380D01*
X65357142Y-68202380D02*
X64785714Y-68202380D01*
X65071428Y-68202380D02*
X65071428Y-67202380D01*
X64976190Y-67345238D01*
X64880952Y-67440476D01*
X64785714Y-67488095D01*
X65976190Y-67202380D02*
X66071428Y-67202380D01*
X66166666Y-67250000D01*
X66214285Y-67297619D01*
X66261904Y-67392857D01*
X66309523Y-67583333D01*
X66309523Y-67821428D01*
X66261904Y-68011904D01*
X66214285Y-68107142D01*
X66166666Y-68154761D01*
X66071428Y-68202380D01*
X65976190Y-68202380D01*
X65880952Y-68154761D01*
X65833333Y-68107142D01*
X65785714Y-68011904D01*
X65738095Y-67821428D01*
X65738095Y-67583333D01*
X65785714Y-67392857D01*
X65833333Y-67297619D01*
X65880952Y-67250000D01*
X65976190Y-67202380D01*
X67166666Y-67535714D02*
X67166666Y-68202380D01*
X66738095Y-67535714D02*
X66738095Y-68059523D01*
X66785714Y-68154761D01*
X66880952Y-68202380D01*
X67023809Y-68202380D01*
X67119047Y-68154761D01*
X67166666Y-68107142D01*
%TO.C,U6*%
X82048095Y-117122380D02*
X82048095Y-117931904D01*
X82095714Y-118027142D01*
X82143333Y-118074761D01*
X82238571Y-118122380D01*
X82429047Y-118122380D01*
X82524285Y-118074761D01*
X82571904Y-118027142D01*
X82619523Y-117931904D01*
X82619523Y-117122380D01*
X83524285Y-117122380D02*
X83333809Y-117122380D01*
X83238571Y-117170000D01*
X83190952Y-117217619D01*
X83095714Y-117360476D01*
X83048095Y-117550952D01*
X83048095Y-117931904D01*
X83095714Y-118027142D01*
X83143333Y-118074761D01*
X83238571Y-118122380D01*
X83429047Y-118122380D01*
X83524285Y-118074761D01*
X83571904Y-118027142D01*
X83619523Y-117931904D01*
X83619523Y-117693809D01*
X83571904Y-117598571D01*
X83524285Y-117550952D01*
X83429047Y-117503333D01*
X83238571Y-117503333D01*
X83143333Y-117550952D01*
X83095714Y-117598571D01*
X83048095Y-117693809D01*
X81571904Y-137355714D02*
X81571904Y-138022380D01*
X81333809Y-136974761D02*
X81095714Y-137689047D01*
X81714761Y-137689047D01*
X82286190Y-137022380D02*
X82381428Y-137022380D01*
X82476666Y-137070000D01*
X82524285Y-137117619D01*
X82571904Y-137212857D01*
X82619523Y-137403333D01*
X82619523Y-137641428D01*
X82571904Y-137831904D01*
X82524285Y-137927142D01*
X82476666Y-137974761D01*
X82381428Y-138022380D01*
X82286190Y-138022380D01*
X82190952Y-137974761D01*
X82143333Y-137927142D01*
X82095714Y-137831904D01*
X82048095Y-137641428D01*
X82048095Y-137403333D01*
X82095714Y-137212857D01*
X82143333Y-137117619D01*
X82190952Y-137070000D01*
X82286190Y-137022380D01*
X83476666Y-137022380D02*
X83286190Y-137022380D01*
X83190952Y-137070000D01*
X83143333Y-137117619D01*
X83048095Y-137260476D01*
X83000476Y-137450952D01*
X83000476Y-137831904D01*
X83048095Y-137927142D01*
X83095714Y-137974761D01*
X83190952Y-138022380D01*
X83381428Y-138022380D01*
X83476666Y-137974761D01*
X83524285Y-137927142D01*
X83571904Y-137831904D01*
X83571904Y-137593809D01*
X83524285Y-137498571D01*
X83476666Y-137450952D01*
X83381428Y-137403333D01*
X83190952Y-137403333D01*
X83095714Y-137450952D01*
X83048095Y-137498571D01*
X83000476Y-137593809D01*
X84429047Y-137022380D02*
X84238571Y-137022380D01*
X84143333Y-137070000D01*
X84095714Y-137117619D01*
X84000476Y-137260476D01*
X83952857Y-137450952D01*
X83952857Y-137831904D01*
X84000476Y-137927142D01*
X84048095Y-137974761D01*
X84143333Y-138022380D01*
X84333809Y-138022380D01*
X84429047Y-137974761D01*
X84476666Y-137927142D01*
X84524285Y-137831904D01*
X84524285Y-137593809D01*
X84476666Y-137498571D01*
X84429047Y-137450952D01*
X84333809Y-137403333D01*
X84143333Y-137403333D01*
X84048095Y-137450952D01*
X84000476Y-137498571D01*
X83952857Y-137593809D01*
%TO.C,U5*%
X82048095Y-92122380D02*
X82048095Y-92931904D01*
X82095714Y-93027142D01*
X82143333Y-93074761D01*
X82238571Y-93122380D01*
X82429047Y-93122380D01*
X82524285Y-93074761D01*
X82571904Y-93027142D01*
X82619523Y-92931904D01*
X82619523Y-92122380D01*
X83571904Y-92122380D02*
X83095714Y-92122380D01*
X83048095Y-92598571D01*
X83095714Y-92550952D01*
X83190952Y-92503333D01*
X83429047Y-92503333D01*
X83524285Y-92550952D01*
X83571904Y-92598571D01*
X83619523Y-92693809D01*
X83619523Y-92931904D01*
X83571904Y-93027142D01*
X83524285Y-93074761D01*
X83429047Y-93122380D01*
X83190952Y-93122380D01*
X83095714Y-93074761D01*
X83048095Y-93027142D01*
X81571904Y-112355714D02*
X81571904Y-113022380D01*
X81333809Y-111974761D02*
X81095714Y-112689047D01*
X81714761Y-112689047D01*
X82286190Y-112022380D02*
X82381428Y-112022380D01*
X82476666Y-112070000D01*
X82524285Y-112117619D01*
X82571904Y-112212857D01*
X82619523Y-112403333D01*
X82619523Y-112641428D01*
X82571904Y-112831904D01*
X82524285Y-112927142D01*
X82476666Y-112974761D01*
X82381428Y-113022380D01*
X82286190Y-113022380D01*
X82190952Y-112974761D01*
X82143333Y-112927142D01*
X82095714Y-112831904D01*
X82048095Y-112641428D01*
X82048095Y-112403333D01*
X82095714Y-112212857D01*
X82143333Y-112117619D01*
X82190952Y-112070000D01*
X82286190Y-112022380D01*
X83476666Y-112022380D02*
X83286190Y-112022380D01*
X83190952Y-112070000D01*
X83143333Y-112117619D01*
X83048095Y-112260476D01*
X83000476Y-112450952D01*
X83000476Y-112831904D01*
X83048095Y-112927142D01*
X83095714Y-112974761D01*
X83190952Y-113022380D01*
X83381428Y-113022380D01*
X83476666Y-112974761D01*
X83524285Y-112927142D01*
X83571904Y-112831904D01*
X83571904Y-112593809D01*
X83524285Y-112498571D01*
X83476666Y-112450952D01*
X83381428Y-112403333D01*
X83190952Y-112403333D01*
X83095714Y-112450952D01*
X83048095Y-112498571D01*
X83000476Y-112593809D01*
X84429047Y-112022380D02*
X84238571Y-112022380D01*
X84143333Y-112070000D01*
X84095714Y-112117619D01*
X84000476Y-112260476D01*
X83952857Y-112450952D01*
X83952857Y-112831904D01*
X84000476Y-112927142D01*
X84048095Y-112974761D01*
X84143333Y-113022380D01*
X84333809Y-113022380D01*
X84429047Y-112974761D01*
X84476666Y-112927142D01*
X84524285Y-112831904D01*
X84524285Y-112593809D01*
X84476666Y-112498571D01*
X84429047Y-112450952D01*
X84333809Y-112403333D01*
X84143333Y-112403333D01*
X84048095Y-112450952D01*
X84000476Y-112498571D01*
X83952857Y-112593809D01*
%TO.C,U4*%
X82048095Y-67122380D02*
X82048095Y-67931904D01*
X82095714Y-68027142D01*
X82143333Y-68074761D01*
X82238571Y-68122380D01*
X82429047Y-68122380D01*
X82524285Y-68074761D01*
X82571904Y-68027142D01*
X82619523Y-67931904D01*
X82619523Y-67122380D01*
X83524285Y-67455714D02*
X83524285Y-68122380D01*
X83286190Y-67074761D02*
X83048095Y-67789047D01*
X83667142Y-67789047D01*
X81571904Y-87355714D02*
X81571904Y-88022380D01*
X81333809Y-86974761D02*
X81095714Y-87689047D01*
X81714761Y-87689047D01*
X82286190Y-87022380D02*
X82381428Y-87022380D01*
X82476666Y-87070000D01*
X82524285Y-87117619D01*
X82571904Y-87212857D01*
X82619523Y-87403333D01*
X82619523Y-87641428D01*
X82571904Y-87831904D01*
X82524285Y-87927142D01*
X82476666Y-87974761D01*
X82381428Y-88022380D01*
X82286190Y-88022380D01*
X82190952Y-87974761D01*
X82143333Y-87927142D01*
X82095714Y-87831904D01*
X82048095Y-87641428D01*
X82048095Y-87403333D01*
X82095714Y-87212857D01*
X82143333Y-87117619D01*
X82190952Y-87070000D01*
X82286190Y-87022380D01*
X83476666Y-87022380D02*
X83286190Y-87022380D01*
X83190952Y-87070000D01*
X83143333Y-87117619D01*
X83048095Y-87260476D01*
X83000476Y-87450952D01*
X83000476Y-87831904D01*
X83048095Y-87927142D01*
X83095714Y-87974761D01*
X83190952Y-88022380D01*
X83381428Y-88022380D01*
X83476666Y-87974761D01*
X83524285Y-87927142D01*
X83571904Y-87831904D01*
X83571904Y-87593809D01*
X83524285Y-87498571D01*
X83476666Y-87450952D01*
X83381428Y-87403333D01*
X83190952Y-87403333D01*
X83095714Y-87450952D01*
X83048095Y-87498571D01*
X83000476Y-87593809D01*
X84429047Y-87022380D02*
X84238571Y-87022380D01*
X84143333Y-87070000D01*
X84095714Y-87117619D01*
X84000476Y-87260476D01*
X83952857Y-87450952D01*
X83952857Y-87831904D01*
X84000476Y-87927142D01*
X84048095Y-87974761D01*
X84143333Y-88022380D01*
X84333809Y-88022380D01*
X84429047Y-87974761D01*
X84476666Y-87927142D01*
X84524285Y-87831904D01*
X84524285Y-87593809D01*
X84476666Y-87498571D01*
X84429047Y-87450952D01*
X84333809Y-87403333D01*
X84143333Y-87403333D01*
X84048095Y-87450952D01*
X84000476Y-87498571D01*
X83952857Y-87593809D01*
%TO.C,R2*%
X98583333Y-132702380D02*
X98250000Y-132226190D01*
X98011904Y-132702380D02*
X98011904Y-131702380D01*
X98392857Y-131702380D01*
X98488095Y-131750000D01*
X98535714Y-131797619D01*
X98583333Y-131892857D01*
X98583333Y-132035714D01*
X98535714Y-132130952D01*
X98488095Y-132178571D01*
X98392857Y-132226190D01*
X98011904Y-132226190D01*
X98964285Y-131797619D02*
X99011904Y-131750000D01*
X99107142Y-131702380D01*
X99345238Y-131702380D01*
X99440476Y-131750000D01*
X99488095Y-131797619D01*
X99535714Y-131892857D01*
X99535714Y-131988095D01*
X99488095Y-132130952D01*
X98916666Y-132702380D01*
X99535714Y-132702380D01*
X94654761Y-132702380D02*
X94083333Y-132702380D01*
X94369047Y-132702380D02*
X94369047Y-131702380D01*
X94273809Y-131845238D01*
X94178571Y-131940476D01*
X94083333Y-131988095D01*
X95273809Y-131702380D02*
X95369047Y-131702380D01*
X95464285Y-131750000D01*
X95511904Y-131797619D01*
X95559523Y-131892857D01*
X95607142Y-132083333D01*
X95607142Y-132321428D01*
X95559523Y-132511904D01*
X95511904Y-132607142D01*
X95464285Y-132654761D01*
X95369047Y-132702380D01*
X95273809Y-132702380D01*
X95178571Y-132654761D01*
X95130952Y-132607142D01*
X95083333Y-132511904D01*
X95035714Y-132321428D01*
X95035714Y-132083333D01*
X95083333Y-131892857D01*
X95130952Y-131797619D01*
X95178571Y-131750000D01*
X95273809Y-131702380D01*
X96035714Y-132702380D02*
X96035714Y-131702380D01*
X96130952Y-132321428D02*
X96416666Y-132702380D01*
X96416666Y-132035714D02*
X96035714Y-132416666D01*
%TO.C,R1*%
X98583333Y-129452380D02*
X98250000Y-128976190D01*
X98011904Y-129452380D02*
X98011904Y-128452380D01*
X98392857Y-128452380D01*
X98488095Y-128500000D01*
X98535714Y-128547619D01*
X98583333Y-128642857D01*
X98583333Y-128785714D01*
X98535714Y-128880952D01*
X98488095Y-128928571D01*
X98392857Y-128976190D01*
X98011904Y-128976190D01*
X99535714Y-129452380D02*
X98964285Y-129452380D01*
X99250000Y-129452380D02*
X99250000Y-128452380D01*
X99154761Y-128595238D01*
X99059523Y-128690476D01*
X98964285Y-128738095D01*
X94654761Y-129452380D02*
X94083333Y-129452380D01*
X94369047Y-129452380D02*
X94369047Y-128452380D01*
X94273809Y-128595238D01*
X94178571Y-128690476D01*
X94083333Y-128738095D01*
X95273809Y-128452380D02*
X95369047Y-128452380D01*
X95464285Y-128500000D01*
X95511904Y-128547619D01*
X95559523Y-128642857D01*
X95607142Y-128833333D01*
X95607142Y-129071428D01*
X95559523Y-129261904D01*
X95511904Y-129357142D01*
X95464285Y-129404761D01*
X95369047Y-129452380D01*
X95273809Y-129452380D01*
X95178571Y-129404761D01*
X95130952Y-129357142D01*
X95083333Y-129261904D01*
X95035714Y-129071428D01*
X95035714Y-128833333D01*
X95083333Y-128642857D01*
X95130952Y-128547619D01*
X95178571Y-128500000D01*
X95273809Y-128452380D01*
X96035714Y-129452380D02*
X96035714Y-128452380D01*
X96130952Y-129071428D02*
X96416666Y-129452380D01*
X96416666Y-128785714D02*
X96035714Y-129166666D01*
%TO.C,J4*%
X99936666Y-74352380D02*
X99936666Y-75066666D01*
X99889047Y-75209523D01*
X99793809Y-75304761D01*
X99650952Y-75352380D01*
X99555714Y-75352380D01*
X100841428Y-74685714D02*
X100841428Y-75352380D01*
X100603333Y-74304761D02*
X100365238Y-75019047D01*
X100984285Y-75019047D01*
X99270000Y-104332380D02*
X99460476Y-104332380D01*
X99555714Y-104380000D01*
X99650952Y-104475238D01*
X99698571Y-104665714D01*
X99698571Y-104999047D01*
X99650952Y-105189523D01*
X99555714Y-105284761D01*
X99460476Y-105332380D01*
X99270000Y-105332380D01*
X99174761Y-105284761D01*
X99079523Y-105189523D01*
X99031904Y-104999047D01*
X99031904Y-104665714D01*
X99079523Y-104475238D01*
X99174761Y-104380000D01*
X99270000Y-104332380D01*
X100127142Y-104332380D02*
X100127142Y-105141904D01*
X100174761Y-105237142D01*
X100222380Y-105284761D01*
X100317619Y-105332380D01*
X100508095Y-105332380D01*
X100603333Y-105284761D01*
X100650952Y-105237142D01*
X100698571Y-105141904D01*
X100698571Y-104332380D01*
X101031904Y-104332380D02*
X101603333Y-104332380D01*
X101317619Y-105332380D02*
X101317619Y-104332380D01*
%TO.C,J2*%
X67936666Y-101352380D02*
X67936666Y-102066666D01*
X67889047Y-102209523D01*
X67793809Y-102304761D01*
X67650952Y-102352380D01*
X67555714Y-102352380D01*
X68365238Y-101447619D02*
X68412857Y-101400000D01*
X68508095Y-101352380D01*
X68746190Y-101352380D01*
X68841428Y-101400000D01*
X68889047Y-101447619D01*
X68936666Y-101542857D01*
X68936666Y-101638095D01*
X68889047Y-101780952D01*
X68317619Y-102352380D01*
X68936666Y-102352380D01*
X66865238Y-132332380D02*
X66865238Y-131332380D01*
X67341428Y-132332380D02*
X67341428Y-131332380D01*
X67912857Y-132332380D01*
X67912857Y-131332380D01*
X68150952Y-132427619D02*
X68912857Y-132427619D01*
X69484285Y-131808571D02*
X69627142Y-131856190D01*
X69674761Y-131903809D01*
X69722380Y-131999047D01*
X69722380Y-132141904D01*
X69674761Y-132237142D01*
X69627142Y-132284761D01*
X69531904Y-132332380D01*
X69150952Y-132332380D01*
X69150952Y-131332380D01*
X69484285Y-131332380D01*
X69579523Y-131380000D01*
X69627142Y-131427619D01*
X69674761Y-131522857D01*
X69674761Y-131618095D01*
X69627142Y-131713333D01*
X69579523Y-131760952D01*
X69484285Y-131808571D01*
X69150952Y-131808571D01*
%TO.C,J1*%
X67936666Y-68352380D02*
X67936666Y-69066666D01*
X67889047Y-69209523D01*
X67793809Y-69304761D01*
X67650952Y-69352380D01*
X67555714Y-69352380D01*
X68936666Y-69352380D02*
X68365238Y-69352380D01*
X68650952Y-69352380D02*
X68650952Y-68352380D01*
X68555714Y-68495238D01*
X68460476Y-68590476D01*
X68365238Y-68638095D01*
X66936666Y-99332380D02*
X66936666Y-98332380D01*
X67412857Y-99332380D02*
X67412857Y-98332380D01*
X67984285Y-99332380D01*
X67984285Y-98332380D01*
X68222380Y-99427619D02*
X68984285Y-99427619D01*
X69174761Y-99046666D02*
X69650952Y-99046666D01*
X69079523Y-99332380D02*
X69412857Y-98332380D01*
X69746190Y-99332380D01*
%TO.C,C8*%
X82583333Y-90607142D02*
X82535714Y-90654761D01*
X82392857Y-90702380D01*
X82297619Y-90702380D01*
X82154761Y-90654761D01*
X82059523Y-90559523D01*
X82011904Y-90464285D01*
X81964285Y-90273809D01*
X81964285Y-90130952D01*
X82011904Y-89940476D01*
X82059523Y-89845238D01*
X82154761Y-89750000D01*
X82297619Y-89702380D01*
X82392857Y-89702380D01*
X82535714Y-89750000D01*
X82583333Y-89797619D01*
X83154761Y-90130952D02*
X83059523Y-90083333D01*
X83011904Y-90035714D01*
X82964285Y-89940476D01*
X82964285Y-89892857D01*
X83011904Y-89797619D01*
X83059523Y-89750000D01*
X83154761Y-89702380D01*
X83345238Y-89702380D01*
X83440476Y-89750000D01*
X83488095Y-89797619D01*
X83535714Y-89892857D01*
X83535714Y-89940476D01*
X83488095Y-90035714D01*
X83440476Y-90083333D01*
X83345238Y-90130952D01*
X83154761Y-90130952D01*
X83059523Y-90178571D01*
X83011904Y-90226190D01*
X82964285Y-90321428D01*
X82964285Y-90511904D01*
X83011904Y-90607142D01*
X83059523Y-90654761D01*
X83154761Y-90702380D01*
X83345238Y-90702380D01*
X83440476Y-90654761D01*
X83488095Y-90607142D01*
X83535714Y-90511904D01*
X83535714Y-90321428D01*
X83488095Y-90226190D01*
X83440476Y-90178571D01*
X83345238Y-90130952D01*
X76130952Y-90702380D02*
X75559523Y-90702380D01*
X75845238Y-90702380D02*
X75845238Y-89702380D01*
X75750000Y-89845238D01*
X75654761Y-89940476D01*
X75559523Y-89988095D01*
X76750000Y-89702380D02*
X76845238Y-89702380D01*
X76940476Y-89750000D01*
X76988095Y-89797619D01*
X77035714Y-89892857D01*
X77083333Y-90083333D01*
X77083333Y-90321428D01*
X77035714Y-90511904D01*
X76988095Y-90607142D01*
X76940476Y-90654761D01*
X76845238Y-90702380D01*
X76750000Y-90702380D01*
X76654761Y-90654761D01*
X76607142Y-90607142D01*
X76559523Y-90511904D01*
X76511904Y-90321428D01*
X76511904Y-90083333D01*
X76559523Y-89892857D01*
X76607142Y-89797619D01*
X76654761Y-89750000D01*
X76750000Y-89702380D01*
X77702380Y-89702380D02*
X77797619Y-89702380D01*
X77892857Y-89750000D01*
X77940476Y-89797619D01*
X77988095Y-89892857D01*
X78035714Y-90083333D01*
X78035714Y-90321428D01*
X77988095Y-90511904D01*
X77940476Y-90607142D01*
X77892857Y-90654761D01*
X77797619Y-90702380D01*
X77702380Y-90702380D01*
X77607142Y-90654761D01*
X77559523Y-90607142D01*
X77511904Y-90511904D01*
X77464285Y-90321428D01*
X77464285Y-90083333D01*
X77511904Y-89892857D01*
X77559523Y-89797619D01*
X77607142Y-89750000D01*
X77702380Y-89702380D01*
X78464285Y-90035714D02*
X78464285Y-90702380D01*
X78464285Y-90130952D02*
X78511904Y-90083333D01*
X78607142Y-90035714D01*
X78750000Y-90035714D01*
X78845238Y-90083333D01*
X78892857Y-90178571D01*
X78892857Y-90702380D01*
%TO.C,C7*%
X82583333Y-115607142D02*
X82535714Y-115654761D01*
X82392857Y-115702380D01*
X82297619Y-115702380D01*
X82154761Y-115654761D01*
X82059523Y-115559523D01*
X82011904Y-115464285D01*
X81964285Y-115273809D01*
X81964285Y-115130952D01*
X82011904Y-114940476D01*
X82059523Y-114845238D01*
X82154761Y-114750000D01*
X82297619Y-114702380D01*
X82392857Y-114702380D01*
X82535714Y-114750000D01*
X82583333Y-114797619D01*
X82916666Y-114702380D02*
X83583333Y-114702380D01*
X83154761Y-115702380D01*
X75880952Y-115702380D02*
X75309523Y-115702380D01*
X75595238Y-115702380D02*
X75595238Y-114702380D01*
X75500000Y-114845238D01*
X75404761Y-114940476D01*
X75309523Y-114988095D01*
X76500000Y-114702380D02*
X76595238Y-114702380D01*
X76690476Y-114750000D01*
X76738095Y-114797619D01*
X76785714Y-114892857D01*
X76833333Y-115083333D01*
X76833333Y-115321428D01*
X76785714Y-115511904D01*
X76738095Y-115607142D01*
X76690476Y-115654761D01*
X76595238Y-115702380D01*
X76500000Y-115702380D01*
X76404761Y-115654761D01*
X76357142Y-115607142D01*
X76309523Y-115511904D01*
X76261904Y-115321428D01*
X76261904Y-115083333D01*
X76309523Y-114892857D01*
X76357142Y-114797619D01*
X76404761Y-114750000D01*
X76500000Y-114702380D01*
X77452380Y-114702380D02*
X77547619Y-114702380D01*
X77642857Y-114750000D01*
X77690476Y-114797619D01*
X77738095Y-114892857D01*
X77785714Y-115083333D01*
X77785714Y-115321428D01*
X77738095Y-115511904D01*
X77690476Y-115607142D01*
X77642857Y-115654761D01*
X77547619Y-115702380D01*
X77452380Y-115702380D01*
X77357142Y-115654761D01*
X77309523Y-115607142D01*
X77261904Y-115511904D01*
X77214285Y-115321428D01*
X77214285Y-115083333D01*
X77261904Y-114892857D01*
X77309523Y-114797619D01*
X77357142Y-114750000D01*
X77452380Y-114702380D01*
X78214285Y-115035714D02*
X78214285Y-115702380D01*
X78214285Y-115130952D02*
X78261904Y-115083333D01*
X78357142Y-115035714D01*
X78500000Y-115035714D01*
X78595238Y-115083333D01*
X78642857Y-115178571D01*
X78642857Y-115702380D01*
%TO.C,C6*%
X82583333Y-65607142D02*
X82535714Y-65654761D01*
X82392857Y-65702380D01*
X82297619Y-65702380D01*
X82154761Y-65654761D01*
X82059523Y-65559523D01*
X82011904Y-65464285D01*
X81964285Y-65273809D01*
X81964285Y-65130952D01*
X82011904Y-64940476D01*
X82059523Y-64845238D01*
X82154761Y-64750000D01*
X82297619Y-64702380D01*
X82392857Y-64702380D01*
X82535714Y-64750000D01*
X82583333Y-64797619D01*
X83440476Y-64702380D02*
X83250000Y-64702380D01*
X83154761Y-64750000D01*
X83107142Y-64797619D01*
X83011904Y-64940476D01*
X82964285Y-65130952D01*
X82964285Y-65511904D01*
X83011904Y-65607142D01*
X83059523Y-65654761D01*
X83154761Y-65702380D01*
X83345238Y-65702380D01*
X83440476Y-65654761D01*
X83488095Y-65607142D01*
X83535714Y-65511904D01*
X83535714Y-65273809D01*
X83488095Y-65178571D01*
X83440476Y-65130952D01*
X83345238Y-65083333D01*
X83154761Y-65083333D01*
X83059523Y-65130952D01*
X83011904Y-65178571D01*
X82964285Y-65273809D01*
X87380952Y-65702380D02*
X86809523Y-65702380D01*
X87095238Y-65702380D02*
X87095238Y-64702380D01*
X87000000Y-64845238D01*
X86904761Y-64940476D01*
X86809523Y-64988095D01*
X88000000Y-64702380D02*
X88095238Y-64702380D01*
X88190476Y-64750000D01*
X88238095Y-64797619D01*
X88285714Y-64892857D01*
X88333333Y-65083333D01*
X88333333Y-65321428D01*
X88285714Y-65511904D01*
X88238095Y-65607142D01*
X88190476Y-65654761D01*
X88095238Y-65702380D01*
X88000000Y-65702380D01*
X87904761Y-65654761D01*
X87857142Y-65607142D01*
X87809523Y-65511904D01*
X87761904Y-65321428D01*
X87761904Y-65083333D01*
X87809523Y-64892857D01*
X87857142Y-64797619D01*
X87904761Y-64750000D01*
X88000000Y-64702380D01*
X88952380Y-64702380D02*
X89047619Y-64702380D01*
X89142857Y-64750000D01*
X89190476Y-64797619D01*
X89238095Y-64892857D01*
X89285714Y-65083333D01*
X89285714Y-65321428D01*
X89238095Y-65511904D01*
X89190476Y-65607142D01*
X89142857Y-65654761D01*
X89047619Y-65702380D01*
X88952380Y-65702380D01*
X88857142Y-65654761D01*
X88809523Y-65607142D01*
X88761904Y-65511904D01*
X88714285Y-65321428D01*
X88714285Y-65083333D01*
X88761904Y-64892857D01*
X88809523Y-64797619D01*
X88857142Y-64750000D01*
X88952380Y-64702380D01*
X89714285Y-65035714D02*
X89714285Y-65702380D01*
X89714285Y-65130952D02*
X89761904Y-65083333D01*
X89857142Y-65035714D01*
X90000000Y-65035714D01*
X90095238Y-65083333D01*
X90142857Y-65178571D01*
X90142857Y-65702380D01*
%TO.C,U1*%
X82048095Y-42122380D02*
X82048095Y-42931904D01*
X82095714Y-43027142D01*
X82143333Y-43074761D01*
X82238571Y-43122380D01*
X82429047Y-43122380D01*
X82524285Y-43074761D01*
X82571904Y-43027142D01*
X82619523Y-42931904D01*
X82619523Y-42122380D01*
X83619523Y-43122380D02*
X83048095Y-43122380D01*
X83333809Y-43122380D02*
X83333809Y-42122380D01*
X83238571Y-42265238D01*
X83143333Y-42360476D01*
X83048095Y-42408095D01*
X81571904Y-62355714D02*
X81571904Y-63022380D01*
X81333809Y-61974761D02*
X81095714Y-62689047D01*
X81714761Y-62689047D01*
X82286190Y-62022380D02*
X82381428Y-62022380D01*
X82476666Y-62070000D01*
X82524285Y-62117619D01*
X82571904Y-62212857D01*
X82619523Y-62403333D01*
X82619523Y-62641428D01*
X82571904Y-62831904D01*
X82524285Y-62927142D01*
X82476666Y-62974761D01*
X82381428Y-63022380D01*
X82286190Y-63022380D01*
X82190952Y-62974761D01*
X82143333Y-62927142D01*
X82095714Y-62831904D01*
X82048095Y-62641428D01*
X82048095Y-62403333D01*
X82095714Y-62212857D01*
X82143333Y-62117619D01*
X82190952Y-62070000D01*
X82286190Y-62022380D01*
X83476666Y-62022380D02*
X83286190Y-62022380D01*
X83190952Y-62070000D01*
X83143333Y-62117619D01*
X83048095Y-62260476D01*
X83000476Y-62450952D01*
X83000476Y-62831904D01*
X83048095Y-62927142D01*
X83095714Y-62974761D01*
X83190952Y-63022380D01*
X83381428Y-63022380D01*
X83476666Y-62974761D01*
X83524285Y-62927142D01*
X83571904Y-62831904D01*
X83571904Y-62593809D01*
X83524285Y-62498571D01*
X83476666Y-62450952D01*
X83381428Y-62403333D01*
X83190952Y-62403333D01*
X83095714Y-62450952D01*
X83048095Y-62498571D01*
X83000476Y-62593809D01*
X84429047Y-62022380D02*
X84238571Y-62022380D01*
X84143333Y-62070000D01*
X84095714Y-62117619D01*
X84000476Y-62260476D01*
X83952857Y-62450952D01*
X83952857Y-62831904D01*
X84000476Y-62927142D01*
X84048095Y-62974761D01*
X84143333Y-63022380D01*
X84333809Y-63022380D01*
X84429047Y-62974761D01*
X84476666Y-62927142D01*
X84524285Y-62831904D01*
X84524285Y-62593809D01*
X84476666Y-62498571D01*
X84429047Y-62450952D01*
X84333809Y-62403333D01*
X84143333Y-62403333D01*
X84048095Y-62450952D01*
X84000476Y-62498571D01*
X83952857Y-62593809D01*
%TO.C,C1*%
X82583333Y-40607142D02*
X82535714Y-40654761D01*
X82392857Y-40702380D01*
X82297619Y-40702380D01*
X82154761Y-40654761D01*
X82059523Y-40559523D01*
X82011904Y-40464285D01*
X81964285Y-40273809D01*
X81964285Y-40130952D01*
X82011904Y-39940476D01*
X82059523Y-39845238D01*
X82154761Y-39750000D01*
X82297619Y-39702380D01*
X82392857Y-39702380D01*
X82535714Y-39750000D01*
X82583333Y-39797619D01*
X83535714Y-40702380D02*
X82964285Y-40702380D01*
X83250000Y-40702380D02*
X83250000Y-39702380D01*
X83154761Y-39845238D01*
X83059523Y-39940476D01*
X82964285Y-39988095D01*
X87333566Y-40685504D02*
X86762137Y-40685504D01*
X87047852Y-40685504D02*
X87047852Y-39685504D01*
X86952614Y-39828362D01*
X86857375Y-39923600D01*
X86762137Y-39971219D01*
X87952614Y-39685504D02*
X88047852Y-39685504D01*
X88143090Y-39733124D01*
X88190709Y-39780743D01*
X88238328Y-39875981D01*
X88285947Y-40066457D01*
X88285947Y-40304552D01*
X88238328Y-40495028D01*
X88190709Y-40590266D01*
X88143090Y-40637885D01*
X88047852Y-40685504D01*
X87952614Y-40685504D01*
X87857375Y-40637885D01*
X87809756Y-40590266D01*
X87762137Y-40495028D01*
X87714518Y-40304552D01*
X87714518Y-40066457D01*
X87762137Y-39875981D01*
X87809756Y-39780743D01*
X87857375Y-39733124D01*
X87952614Y-39685504D01*
X88904994Y-39685504D02*
X89000233Y-39685504D01*
X89095471Y-39733124D01*
X89143090Y-39780743D01*
X89190709Y-39875981D01*
X89238328Y-40066457D01*
X89238328Y-40304552D01*
X89190709Y-40495028D01*
X89143090Y-40590266D01*
X89095471Y-40637885D01*
X89000233Y-40685504D01*
X88904994Y-40685504D01*
X88809756Y-40637885D01*
X88762137Y-40590266D01*
X88714518Y-40495028D01*
X88666899Y-40304552D01*
X88666899Y-40066457D01*
X88714518Y-39875981D01*
X88762137Y-39780743D01*
X88809756Y-39733124D01*
X88904994Y-39685504D01*
X89666899Y-40018838D02*
X89666899Y-40685504D01*
X89666899Y-40114076D02*
X89714518Y-40066457D01*
X89809756Y-40018838D01*
X89952614Y-40018838D01*
X90047852Y-40066457D01*
X90095471Y-40161695D01*
X90095471Y-40685504D01*
%TD*%
M02*
