M48
; DRILL file {KiCad 5.1.10-88a1d61d58~88~ubuntu20.10.1} date Wed Jun 30 17:02:03 2021
; FORMAT={-:-/ absolute / inch / decimal}
; #@! TF.CreationDate,2021-06-30T17:02:03+02:00
; #@! TF.GenerationSoftware,Kicad,Pcbnew,5.1.10-88a1d61d58~88~ubuntu20.10.1
; #@! TF.FileFunction,Plated,1,2,PTH
FMAT,2
INCH
T1C0.0157
T2C0.0315
T3C0.0394
T4C0.0469
T5C0.1220
%
G90
G05
T1
X2.9806Y-2.8068
X3.0231Y-3.4759
X3.2205Y-4.25
X3.2362Y-2.2717
X3.2461Y-3.2559
X3.2579Y-4.4587
X3.3071Y-3.1594
X3.6039Y-4.2307
X4.0769Y-2.7539
T2
X2.5492Y-2.5197
X2.5787Y-2.0079
X2.5805Y-2.2264
X2.5984Y-1.7717
X2.6476Y-2.5197
X2.6787Y-2.0079
X2.6805Y-2.2264
X2.6969Y-1.7717
X2.7787Y-2.0079
X2.7805Y-2.2264
X2.7854Y-2.5197
X2.8248Y-1.6929
X2.8839Y-2.5197
X2.9232Y-1.6929
X3.1102Y-1.7717
X3.1102Y-1.8717
X3.1102Y-1.9717
X3.1102Y-2.0717
X3.1102Y-2.1717
X3.1102Y-2.2717
X3.1102Y-2.3717
X3.1102Y-2.7559
X3.1102Y-2.8559
X3.1102Y-2.9559
X3.1102Y-3.0559
X3.1102Y-3.1559
X3.1102Y-3.2559
X3.1102Y-3.3559
X3.1102Y-3.7402
X3.1102Y-3.8402
X3.1102Y-3.9402
X3.1102Y-4.0402
X3.1102Y-4.1402
X3.1102Y-4.2402
X3.1102Y-4.3402
X3.1102Y-4.7244
X3.1102Y-4.8244
X3.1102Y-4.9244
X3.1102Y-5.0244
X3.1102Y-5.1244
X3.1102Y-5.2244
X3.1102Y-5.3244
X3.1594Y-1.5846
X3.1594Y-2.5689
X3.1594Y-3.5531
X3.1594Y-4.5374
X3.3563Y-1.5846
X3.3563Y-2.5689
X3.3563Y-3.5531
X3.3563Y-4.5374
X3.4102Y-1.7717
X3.4102Y-1.8717
X3.4102Y-1.9717
X3.4102Y-2.0717
X3.4102Y-2.1717
X3.4102Y-2.2717
X3.4102Y-2.3717
X3.4102Y-2.7559
X3.4102Y-2.8559
X3.4102Y-2.9559
X3.4102Y-3.0559
X3.4102Y-3.1559
X3.4102Y-3.2559
X3.4102Y-3.3559
X3.4102Y-3.7402
X3.4102Y-3.8402
X3.4102Y-3.9402
X3.4102Y-4.0402
X3.4102Y-4.1402
X3.4102Y-4.2402
X3.4102Y-4.3402
X3.4102Y-4.7244
X3.4102Y-4.8244
X3.4102Y-4.9244
X3.4102Y-5.0244
X3.4102Y-5.1244
X3.4102Y-5.2244
X3.4102Y-5.3244
X3.6102Y-5.0787
X3.6102Y-5.2067
X3.622Y-1.6866
X3.622Y-2.0866
X3.622Y-2.2378
X3.622Y-2.6378
X4.0102Y-5.0787
X4.0102Y-5.2067
T3
X2.6378Y-2.9528
X2.6378Y-3.0528
X2.6378Y-3.1528
X2.6378Y-3.2528
X2.6378Y-3.3528
X2.6378Y-3.4528
X2.6378Y-3.5528
X2.6378Y-3.6528
X2.6378Y-4.252
X2.6378Y-4.352
X2.6378Y-4.452
X2.6378Y-4.552
X2.6378Y-4.652
X2.6378Y-4.752
X2.6378Y-4.852
X2.6378Y-4.952
X2.7378Y-2.9528
X2.7378Y-3.0528
X2.7378Y-3.1528
X2.7378Y-3.2528
X2.7378Y-3.3528
X2.7378Y-3.4528
X2.7378Y-3.5528
X2.7378Y-3.6528
X2.7378Y-4.252
X2.7378Y-4.352
X2.7378Y-4.452
X2.7378Y-4.552
X2.7378Y-4.652
X2.7378Y-4.752
X2.7378Y-4.852
X2.7378Y-4.952
X3.8976Y-1.8898
X3.8976Y-1.9898
X3.8976Y-2.0898
X3.8976Y-2.1898
X3.8976Y-2.2898
X3.8976Y-3.189
X3.8976Y-3.289
X3.8976Y-3.389
X3.8976Y-3.489
X3.8976Y-3.589
X3.8976Y-3.689
X3.8976Y-3.789
X3.8976Y-3.889
X3.9976Y-1.8898
X3.9976Y-1.9898
X3.9976Y-2.0898
X3.9976Y-2.1898
X3.9976Y-2.2898
X3.9976Y-3.189
X3.9976Y-3.289
X3.9976Y-3.389
X3.9976Y-3.489
X3.9976Y-3.589
X3.9976Y-3.689
X3.9976Y-3.789
X3.9976Y-3.889
T4
X3.9764Y-4.5031
X3.9764Y-4.6031
X3.9764Y-4.7031
X3.9764Y-4.8031
T5
X2.5394Y-1.5551
X2.5394Y-5.374
X4.0748Y-1.5551
X4.0748Y-5.374
T0
M30
